{
    "id": "frogs-theme",
    "title": "Frog's Theme",
    "artist": "Yasunori Mitsuda",
    "source": "Chrono Trigger",
    "category": "games",
    "bpm": 192,
    "timeSignature": [4, 4],
    "difficulty": "intermediate",
    "keySignature": "Am",
    "totalDurationBeats": 288,
    "midiRange": { "lowest": 39, "highest": 85 },
    "tracks": [
        {
            "id": "right-simplified",
            "name": "Melodia (simplificada)",
            "hand": "right",
            "difficulty": "beginner",
            "notes": [
                { "note": 68, "start": 0, "duration": 0.5, "velocity": 93 },
                { "note": 66, "start": 0.5, "duration": 0.5, "velocity": 88 },
                { "note": 68, "start": 1, "duration": 0.5, "velocity": 88 },
                { "note": 63, "start": 1.5, "duration": 1.5, "velocity": 88 },
                { "note": 68, "start": 3, "duration": 1.5, "velocity": 93 },
                { "note": 70, "start": 4.5, "duration": 1, "velocity": 88 },
                { "note": 71, "start": 5.5, "duration": 0.5, "velocity": 88 },
                { "note": 70, "start": 6, "duration": 0.5, "velocity": 93 },
                { "note": 68, "start": 6.5, "duration": 0.5, "velocity": 88 },
                { "note": 70, "start": 7, "duration": 0.5, "velocity": 88 },
                { "note": 66, "start": 7.5, "duration": 1.5, "velocity": 88 },
                { "note": 70, "start": 10.5, "duration": 0.5, "velocity": 80 },
                { "note": 73, "start": 10.5, "duration": 0.5, "velocity": 94 },
                { "note": 68, "start": 11, "duration": 0.5, "velocity": 80 },
                { "note": 71, "start": 11, "duration": 0.5, "velocity": 94 },
                { "note": 66, "start": 11.5, "duration": 0.5, "velocity": 75 },
                { "note": 70, "start": 11.5, "duration": 0.5, "velocity": 89 },
                { "note": 68, "start": 12, "duration": 0.5, "velocity": 93 },
                { "note": 66, "start": 12.5, "duration": 0.5, "velocity": 88 },
                { "note": 68, "start": 13, "duration": 0.5, "velocity": 88 },
                { "note": 63, "start": 13.5, "duration": 1.5, "velocity": 88 },
                { "note": 68, "start": 15, "duration": 1.5, "velocity": 93 },
                { "note": 70, "start": 16.5, "duration": 1, "velocity": 88 },
                { "note": 71, "start": 17.5, "duration": 0.5, "velocity": 88 },
                { "note": 70, "start": 18, "duration": 0.5, "velocity": 93 },
                { "note": 71, "start": 18.5, "duration": 0.5, "velocity": 88 },
                { "note": 73, "start": 19, "duration": 0.5, "velocity": 88 },
                { "note": 70, "start": 19.5, "duration": 1.5, "velocity": 88 },
                { "note": 66, "start": 22.5, "duration": 1.5, "velocity": 94 },
                { "note": 68, "start": 24, "duration": 0.5, "velocity": 93 },
                { "note": 66, "start": 24.5, "duration": 0.5, "velocity": 88 },
                { "note": 68, "start": 25, "duration": 0.5, "velocity": 88 },
                { "note": 63, "start": 25.5, "duration": 1.5, "velocity": 88 },
                { "note": 68, "start": 27, "duration": 1.5, "velocity": 93 },
                { "note": 70, "start": 28.5, "duration": 1, "velocity": 88 },
                { "note": 71, "start": 29.5, "duration": 0.5, "velocity": 88 },
                { "note": 70, "start": 30, "duration": 0.5, "velocity": 93 },
                { "note": 68, "start": 30.5, "duration": 0.5, "velocity": 88 },
                { "note": 70, "start": 31, "duration": 0.5, "velocity": 88 },
                { "note": 66, "start": 31.5, "duration": 1.5, "velocity": 88 },
                { "note": 70, "start": 34.5, "duration": 0.5, "velocity": 80 },
                { "note": 73, "start": 34.5, "duration": 0.5, "velocity": 94 },
                { "note": 68, "start": 35, "duration": 0.5, "velocity": 80 },
                { "note": 71, "start": 35, "duration": 0.5, "velocity": 94 },
                { "note": 66, "start": 35.5, "duration": 0.5, "velocity": 75 },
                { "note": 70, "start": 35.5, "duration": 0.5, "velocity": 89 },
                { "note": 68, "start": 36, "duration": 0.5, "velocity": 88 },
                { "note": 66, "start": 36.5, "duration": 0.5, "velocity": 89 },
                { "note": 68, "start": 37, "duration": 0.5, "velocity": 90 },
                { "note": 70, "start": 37.5, "duration": 1.5, "velocity": 91 },
                { "note": 71, "start": 39, "duration": 1.5, "velocity": 94 },
                { "note": 70, "start": 40.5, "duration": 1.5, "velocity": 97 },
                { "note": 68, "start": 42, "duration": 0.5, "velocity": 106 },
                { "note": 66, "start": 42.5, "duration": 0.5, "velocity": 101 },
                { "note": 68, "start": 43, "duration": 0.5, "velocity": 101 },
                { "note": 68, "start": 43.5, "duration": 0.5, "velocity": 101 },
                { "note": 66, "start": 44, "duration": 0.5, "velocity": 101 },
                { "note": 68, "start": 44.5, "duration": 0.5, "velocity": 101 },
                { "note": 68, "start": 45, "duration": 0.5, "velocity": 123 },
                { "note": 80, "start": 45, "duration": 0.5, "velocity": 127 },
                { "note": 73, "start": 48, "duration": 0.5, "velocity": 101 },
                { "note": 75, "start": 49, "duration": 0.5, "velocity": 101 },
                { "note": 75, "start": 49.5, "duration": 0.5, "velocity": 101 },
                { "note": 71, "start": 50, "duration": 0.5, "velocity": 101 },
                { "note": 73, "start": 50.5, "duration": 0.5, "velocity": 101 },
                { "note": 75, "start": 51, "duration": 1.5, "velocity": 106 },
                { "note": 80, "start": 52.5, "duration": 1.5, "velocity": 101 },
                { "note": 76, "start": 54, "duration": 0.5, "velocity": 101 },
                { "note": 63, "start": 55.5, "duration": 0.5, "velocity": 107 },
                { "note": 75, "start": 57, "duration": 2.5, "velocity": 101 },
                { "note": 71, "start": 59.5, "duration": 0.5, "velocity": 101 },
                { "note": 66, "start": 60, "duration": 0.5, "velocity": 101 },
                { "note": 68, "start": 66, "duration": 0.5, "velocity": 106 },
                { "note": 70, "start": 66.5, "duration": 0.5, "velocity": 101 },
                { "note": 71, "start": 67, "duration": 0.5, "velocity": 101 },
                { "note": 70, "start": 67.5, "duration": 0.5, "velocity": 101 },
                { "note": 71, "start": 68, "duration": 0.5, "velocity": 101 },
                { "note": 73, "start": 68.5, "duration": 0.5, "velocity": 101 },
                { "note": 71, "start": 69, "duration": 0.5, "velocity": 106 },
                { "note": 73, "start": 69.5, "duration": 0.5, "velocity": 101 },
                { "note": 75, "start": 70, "duration": 0.5, "velocity": 101 },
                { "note": 73, "start": 70.5, "duration": 0.5, "velocity": 101 },
                { "note": 75, "start": 71, "duration": 0.5, "velocity": 101 },
                { "note": 78, "start": 71.5, "duration": 0.5, "velocity": 101 },
                { "note": 73, "start": 72, "duration": 0.5, "velocity": 101 },
                { "note": 75, "start": 73, "duration": 0.5, "velocity": 101 },
                { "note": 75, "start": 73.5, "duration": 0.5, "velocity": 101 },
                { "note": 71, "start": 74, "duration": 0.5, "velocity": 101 },
                { "note": 73, "start": 74.5, "duration": 0.5, "velocity": 101 },
                { "note": 75, "start": 75, "duration": 1.5, "velocity": 106 },
                { "note": 80, "start": 76.5, "duration": 1.5, "velocity": 101 },
                { "note": 80, "start": 78, "duration": 0.5, "velocity": 101 },
                { "note": 83, "start": 80, "duration": 0.5, "velocity": 101 },
                { "note": 82, "start": 80.5, "duration": 0.5, "velocity": 101 },
                { "note": 80, "start": 81, "duration": 1.5, "velocity": 106 },
                { "note": 78, "start": 82.5, "duration": 1.5, "velocity": 101 },
                { "note": 78, "start": 84, "duration": 0.5, "velocity": 101 },
                { "note": 78, "start": 90, "duration": 0.5, "velocity": 101 },
                { "note": 80, "start": 93, "duration": 0.5, "velocity": 101 },
                { "note": 82, "start": 96, "duration": 0.5, "velocity": 101 },
                { "note": 83, "start": 97, "duration": 0.5, "velocity": 101 },
                { "note": 83, "start": 97.5, "duration": 0.5, "velocity": 101 },
                { "note": 82, "start": 98, "duration": 0.5, "velocity": 101 },
                { "note": 80, "start": 98.5, "duration": 0.5, "velocity": 101 },
                { "note": 78, "start": 99, "duration": 1.5, "velocity": 106 },
                { "note": 75, "start": 100.5, "duration": 1.5, "velocity": 101 },
                { "note": 78, "start": 102, "duration": 0.5, "velocity": 101 },
                { "note": 80, "start": 103, "duration": 0.5, "velocity": 101 },
                { "note": 80, "start": 103.5, "duration": 0.5, "velocity": 101 },
                { "note": 78, "start": 104, "duration": 0.5, "velocity": 101 },
                { "note": 76, "start": 104.5, "duration": 0.5, "velocity": 101 },
                { "note": 75, "start": 105, "duration": 3, "velocity": 101 },
                { "note": 82, "start": 108, "duration": 0.5, "velocity": 101 },
                { "note": 83, "start": 109, "duration": 0.5, "velocity": 101 },
                { "note": 83, "start": 109.5, "duration": 0.5, "velocity": 101 },
                { "note": 82, "start": 110, "duration": 0.5, "velocity": 101 },
                { "note": 80, "start": 110.5, "duration": 0.5, "velocity": 101 },
                { "note": 78, "start": 111, "duration": 1.5, "velocity": 106 },
                { "note": 75, "start": 112.5, "duration": 1.5, "velocity": 101 },
                { "note": 78, "start": 114, "duration": 0.5, "velocity": 75 },
                { "note": 80, "start": 117, "duration": 0.5, "velocity": 81 },
                { "note": 82, "start": 120, "duration": 0.5, "velocity": 88 },
                { "note": 83, "start": 121, "duration": 0.5, "velocity": 88 },
                { "note": 83, "start": 121.5, "duration": 0.5, "velocity": 88 },
                { "note": 82, "start": 122, "duration": 0.5, "velocity": 88 },
                { "note": 80, "start": 122.5, "duration": 0.5, "velocity": 88 },
                { "note": 78, "start": 123, "duration": 1.5, "velocity": 93 },
                { "note": 75, "start": 124.5, "duration": 1.5, "velocity": 88 },
                { "note": 78, "start": 126, "duration": 0.5, "velocity": 88 },
                { "note": 80, "start": 127, "duration": 0.5, "velocity": 88 },
                { "note": 80, "start": 127.5, "duration": 0.5, "velocity": 88 },
                { "note": 78, "start": 128, "duration": 0.5, "velocity": 88 },
                { "note": 76, "start": 128.5, "duration": 0.5, "velocity": 88 },
                { "note": 75, "start": 129, "duration": 3, "velocity": 88 },
                { "note": 82, "start": 132, "duration": 0.5, "velocity": 88 },
                { "note": 83, "start": 133, "duration": 0.5, "velocity": 88 },
                { "note": 83, "start": 133.5, "duration": 0.5, "velocity": 88 },
                { "note": 82, "start": 134, "duration": 0.5, "velocity": 88 },
                { "note": 83, "start": 134.5, "duration": 0.5, "velocity": 88 },
                { "note": 85, "start": 135, "duration": 1.5, "velocity": 93 },
                { "note": 82, "start": 136.5, "duration": 1.5, "velocity": 88 },
                { "note": 80, "start": 138, "duration": 0.5, "velocity": 88 },
                { "note": 68, "start": 141, "duration": 0.5, "velocity": 107 },
                { "note": 80, "start": 141, "duration": 0.5, "velocity": 121 },
                { "note": 68, "start": 144, "duration": 0.5, "velocity": 93 },
                { "note": 66, "start": 144.5, "duration": 0.5, "velocity": 88 },
                { "note": 68, "start": 145, "duration": 0.5, "velocity": 88 },
                { "note": 63, "start": 145.5, "duration": 1.5, "velocity": 88 },
                { "note": 68, "start": 147, "duration": 1.5, "velocity": 93 },
                { "note": 70, "start": 148.5, "duration": 1, "velocity": 88 },
                { "note": 71, "start": 149.5, "duration": 0.5, "velocity": 88 },
                { "note": 70, "start": 150, "duration": 0.5, "velocity": 93 },
                { "note": 68, "start": 150.5, "duration": 0.5, "velocity": 88 },
                { "note": 70, "start": 151, "duration": 0.5, "velocity": 88 },
                { "note": 66, "start": 151.5, "duration": 1.5, "velocity": 88 },
                { "note": 70, "start": 154.5, "duration": 0.5, "velocity": 80 },
                { "note": 73, "start": 154.5, "duration": 0.5, "velocity": 94 },
                { "note": 68, "start": 155, "duration": 0.5, "velocity": 80 },
                { "note": 71, "start": 155, "duration": 0.5, "velocity": 94 },
                { "note": 66, "start": 155.5, "duration": 0.5, "velocity": 75 },
                { "note": 70, "start": 155.5, "duration": 0.5, "velocity": 89 },
                { "note": 68, "start": 156, "duration": 0.5, "velocity": 93 },
                { "note": 66, "start": 156.5, "duration": 0.5, "velocity": 88 },
                { "note": 68, "start": 157, "duration": 0.5, "velocity": 88 },
                { "note": 63, "start": 157.5, "duration": 1.5, "velocity": 88 },
                { "note": 68, "start": 159, "duration": 1.5, "velocity": 93 },
                { "note": 70, "start": 160.5, "duration": 1, "velocity": 88 },
                { "note": 71, "start": 161.5, "duration": 0.5, "velocity": 88 },
                { "note": 70, "start": 162, "duration": 0.5, "velocity": 93 },
                { "note": 71, "start": 162.5, "duration": 0.5, "velocity": 88 },
                { "note": 73, "start": 163, "duration": 0.5, "velocity": 88 },
                { "note": 70, "start": 163.5, "duration": 1.5, "velocity": 88 },
                { "note": 66, "start": 166.5, "duration": 1.5, "velocity": 94 },
                { "note": 68, "start": 168, "duration": 0.5, "velocity": 93 },
                { "note": 66, "start": 168.5, "duration": 0.5, "velocity": 88 },
                { "note": 68, "start": 169, "duration": 0.5, "velocity": 88 },
                { "note": 63, "start": 169.5, "duration": 1.5, "velocity": 88 },
                { "note": 68, "start": 171, "duration": 1.5, "velocity": 93 },
                { "note": 70, "start": 172.5, "duration": 1, "velocity": 88 },
                { "note": 71, "start": 173.5, "duration": 0.5, "velocity": 88 },
                { "note": 70, "start": 174, "duration": 0.5, "velocity": 93 },
                { "note": 68, "start": 174.5, "duration": 0.5, "velocity": 88 },
                { "note": 70, "start": 175, "duration": 0.5, "velocity": 88 },
                { "note": 66, "start": 175.5, "duration": 1.5, "velocity": 88 },
                { "note": 70, "start": 178.5, "duration": 0.5, "velocity": 80 },
                { "note": 73, "start": 178.5, "duration": 0.5, "velocity": 94 },
                { "note": 68, "start": 179, "duration": 0.5, "velocity": 80 },
                { "note": 71, "start": 179, "duration": 0.5, "velocity": 94 },
                { "note": 66, "start": 179.5, "duration": 0.5, "velocity": 75 },
                { "note": 70, "start": 179.5, "duration": 0.5, "velocity": 89 },
                { "note": 68, "start": 180, "duration": 0.5, "velocity": 88 },
                { "note": 66, "start": 180.5, "duration": 0.5, "velocity": 89 },
                { "note": 68, "start": 181, "duration": 0.5, "velocity": 90 },
                { "note": 70, "start": 181.5, "duration": 1.5, "velocity": 91 },
                { "note": 71, "start": 183, "duration": 1.5, "velocity": 94 },
                { "note": 70, "start": 184.5, "duration": 1.5, "velocity": 97 },
                { "note": 68, "start": 186, "duration": 0.5, "velocity": 106 },
                { "note": 66, "start": 186.5, "duration": 0.5, "velocity": 101 },
                { "note": 68, "start": 187, "duration": 0.5, "velocity": 101 },
                { "note": 68, "start": 187.5, "duration": 0.5, "velocity": 101 },
                { "note": 66, "start": 188, "duration": 0.5, "velocity": 101 },
                { "note": 68, "start": 188.5, "duration": 0.5, "velocity": 101 },
                { "note": 68, "start": 189, "duration": 0.5, "velocity": 123 },
                { "note": 80, "start": 189, "duration": 0.5, "velocity": 127 },
                { "note": 73, "start": 192, "duration": 0.5, "velocity": 101 },
                { "note": 75, "start": 193, "duration": 0.5, "velocity": 101 },
                { "note": 75, "start": 193.5, "duration": 0.5, "velocity": 101 },
                { "note": 71, "start": 194, "duration": 0.5, "velocity": 101 },
                { "note": 73, "start": 194.5, "duration": 0.5, "velocity": 101 },
                { "note": 75, "start": 195, "duration": 1.5, "velocity": 106 },
                { "note": 80, "start": 196.5, "duration": 1.5, "velocity": 101 },
                { "note": 76, "start": 198, "duration": 0.5, "velocity": 101 },
                { "note": 63, "start": 199.5, "duration": 0.5, "velocity": 107 },
                { "note": 75, "start": 201, "duration": 2.5, "velocity": 101 },
                { "note": 71, "start": 203.5, "duration": 0.5, "velocity": 101 },
                { "note": 66, "start": 204, "duration": 0.5, "velocity": 101 },
                { "note": 68, "start": 210, "duration": 0.5, "velocity": 106 },
                { "note": 70, "start": 210.5, "duration": 0.5, "velocity": 101 },
                { "note": 71, "start": 211, "duration": 0.5, "velocity": 101 },
                { "note": 70, "start": 211.5, "duration": 0.5, "velocity": 101 },
                { "note": 71, "start": 212, "duration": 0.5, "velocity": 101 },
                { "note": 73, "start": 212.5, "duration": 0.5, "velocity": 101 },
                { "note": 71, "start": 213, "duration": 0.5, "velocity": 106 },
                { "note": 73, "start": 213.5, "duration": 0.5, "velocity": 101 },
                { "note": 75, "start": 214, "duration": 0.5, "velocity": 101 },
                { "note": 73, "start": 214.5, "duration": 0.5, "velocity": 101 },
                { "note": 75, "start": 215, "duration": 0.5, "velocity": 101 },
                { "note": 78, "start": 215.5, "duration": 0.5, "velocity": 101 },
                { "note": 73, "start": 216, "duration": 0.5, "velocity": 101 },
                { "note": 75, "start": 217, "duration": 0.5, "velocity": 101 },
                { "note": 75, "start": 217.5, "duration": 0.5, "velocity": 101 },
                { "note": 71, "start": 218, "duration": 0.5, "velocity": 101 },
                { "note": 73, "start": 218.5, "duration": 0.5, "velocity": 101 },
                { "note": 75, "start": 219, "duration": 1.5, "velocity": 106 },
                { "note": 80, "start": 220.5, "duration": 1.5, "velocity": 101 },
                { "note": 80, "start": 222, "duration": 0.5, "velocity": 101 },
                { "note": 83, "start": 224, "duration": 0.5, "velocity": 101 },
                { "note": 82, "start": 224.5, "duration": 0.5, "velocity": 101 },
                { "note": 80, "start": 225, "duration": 1.5, "velocity": 106 },
                { "note": 78, "start": 226.5, "duration": 1.5, "velocity": 101 },
                { "note": 78, "start": 228, "duration": 0.5, "velocity": 101 },
                { "note": 78, "start": 234, "duration": 0.5, "velocity": 101 },
                { "note": 80, "start": 237, "duration": 0.5, "velocity": 101 },
                { "note": 82, "start": 240, "duration": 0.5, "velocity": 101 },
                { "note": 83, "start": 241, "duration": 0.5, "velocity": 101 },
                { "note": 83, "start": 241.5, "duration": 0.5, "velocity": 101 },
                { "note": 82, "start": 242, "duration": 0.5, "velocity": 101 },
                { "note": 80, "start": 242.5, "duration": 0.5, "velocity": 101 },
                { "note": 78, "start": 243, "duration": 1.5, "velocity": 106 },
                { "note": 75, "start": 244.5, "duration": 1.5, "velocity": 101 },
                { "note": 78, "start": 246, "duration": 0.5, "velocity": 101 },
                { "note": 80, "start": 247, "duration": 0.5, "velocity": 101 },
                { "note": 80, "start": 247.5, "duration": 0.5, "velocity": 101 },
                { "note": 78, "start": 248, "duration": 0.5, "velocity": 101 },
                { "note": 76, "start": 248.5, "duration": 0.5, "velocity": 101 },
                { "note": 75, "start": 249, "duration": 3, "velocity": 101 },
                { "note": 82, "start": 252, "duration": 0.5, "velocity": 101 },
                { "note": 83, "start": 253, "duration": 0.5, "velocity": 101 },
                { "note": 83, "start": 253.5, "duration": 0.5, "velocity": 101 },
                { "note": 82, "start": 254, "duration": 0.5, "velocity": 101 },
                { "note": 80, "start": 254.5, "duration": 0.5, "velocity": 101 },
                { "note": 78, "start": 255, "duration": 1.5, "velocity": 106 },
                { "note": 75, "start": 256.5, "duration": 1.5, "velocity": 101 },
                { "note": 78, "start": 258, "duration": 0.5, "velocity": 75 },
                { "note": 80, "start": 261, "duration": 0.5, "velocity": 81 },
                { "note": 82, "start": 264, "duration": 0.5, "velocity": 88 },
                { "note": 83, "start": 265, "duration": 0.5, "velocity": 88 },
                { "note": 83, "start": 265.5, "duration": 0.5, "velocity": 88 },
                { "note": 82, "start": 266, "duration": 0.5, "velocity": 88 },
                { "note": 80, "start": 266.5, "duration": 0.5, "velocity": 88 },
                { "note": 78, "start": 267, "duration": 1.5, "velocity": 93 },
                { "note": 75, "start": 268.5, "duration": 1.5, "velocity": 88 },
                { "note": 78, "start": 270, "duration": 0.5, "velocity": 88 },
                { "note": 80, "start": 271, "duration": 0.5, "velocity": 88 },
                { "note": 80, "start": 271.5, "duration": 0.5, "velocity": 88 },
                { "note": 78, "start": 272, "duration": 0.5, "velocity": 88 },
                { "note": 76, "start": 272.5, "duration": 0.5, "velocity": 88 },
                { "note": 75, "start": 273, "duration": 3, "velocity": 88 },
                { "note": 82, "start": 276, "duration": 0.5, "velocity": 88 },
                { "note": 83, "start": 277, "duration": 0.5, "velocity": 88 },
                { "note": 83, "start": 277.5, "duration": 0.5, "velocity": 88 },
                { "note": 82, "start": 278, "duration": 0.5, "velocity": 88 },
                { "note": 83, "start": 278.5, "duration": 0.5, "velocity": 88 },
                { "note": 85, "start": 279, "duration": 1.5, "velocity": 93 },
                { "note": 82, "start": 280.5, "duration": 1.5, "velocity": 88 },
                { "note": 80, "start": 282, "duration": 0.5, "velocity": 88 },
                { "note": 68, "start": 285, "duration": 0.5, "velocity": 107 },
                { "note": 80, "start": 285, "duration": 0.5, "velocity": 121 }
            ]
        },
        {
            "id": "right-standard",
            "name": "Melodia",
            "hand": "right",
            "difficulty": "intermediate",
            "notes": [
                { "note": 68, "start": 0, "duration": 0.25, "velocity": 93 },
                { "note": 66, "start": 0.5, "duration": 0.25, "velocity": 88 },
                { "note": 68, "start": 1, "duration": 0.25, "velocity": 88 },
                { "note": 63, "start": 1.5, "duration": 1.5, "velocity": 88 },
                { "note": 68, "start": 3, "duration": 1.5, "velocity": 93 },
                { "note": 70, "start": 4.5, "duration": 1, "velocity": 88 },
                { "note": 71, "start": 5.5, "duration": 0.5, "velocity": 88 },
                { "note": 70, "start": 6, "duration": 0.25, "velocity": 93 },
                { "note": 68, "start": 6.5, "duration": 0.25, "velocity": 88 },
                { "note": 70, "start": 7, "duration": 0.25, "velocity": 88 },
                { "note": 66, "start": 7.5, "duration": 1.5, "velocity": 88 },
                { "note": 70, "start": 10.5, "duration": 0.5, "velocity": 80 },
                { "note": 73, "start": 10.5, "duration": 0.5, "velocity": 94 },
                { "note": 68, "start": 11, "duration": 0.5, "velocity": 80 },
                { "note": 71, "start": 11, "duration": 0.5, "velocity": 94 },
                { "note": 66, "start": 11.5, "duration": 0.5, "velocity": 75 },
                { "note": 70, "start": 11.5, "duration": 0.5, "velocity": 89 },
                { "note": 68, "start": 12, "duration": 0.25, "velocity": 93 },
                { "note": 66, "start": 12.5, "duration": 0.25, "velocity": 88 },
                { "note": 68, "start": 13, "duration": 0.25, "velocity": 88 },
                { "note": 63, "start": 13.5, "duration": 1.5, "velocity": 88 },
                { "note": 68, "start": 15, "duration": 1.5, "velocity": 93 },
                { "note": 70, "start": 16.5, "duration": 1, "velocity": 88 },
                { "note": 71, "start": 17.5, "duration": 0.5, "velocity": 88 },
                { "note": 70, "start": 18, "duration": 0.25, "velocity": 93 },
                { "note": 71, "start": 18.5, "duration": 0.25, "velocity": 88 },
                { "note": 73, "start": 19, "duration": 0.25, "velocity": 88 },
                { "note": 70, "start": 19.5, "duration": 1.5, "velocity": 88 },
                { "note": 66, "start": 22.5, "duration": 1.5, "velocity": 94 },
                { "note": 68, "start": 24, "duration": 0.25, "velocity": 93 },
                { "note": 66, "start": 24.5, "duration": 0.25, "velocity": 88 },
                { "note": 68, "start": 25, "duration": 0.25, "velocity": 88 },
                { "note": 63, "start": 25.5, "duration": 1.5, "velocity": 88 },
                { "note": 68, "start": 27, "duration": 1.5, "velocity": 93 },
                { "note": 70, "start": 28.5, "duration": 1, "velocity": 88 },
                { "note": 71, "start": 29.5, "duration": 0.5, "velocity": 88 },
                { "note": 70, "start": 30, "duration": 0.25, "velocity": 93 },
                { "note": 68, "start": 30.5, "duration": 0.25, "velocity": 88 },
                { "note": 70, "start": 31, "duration": 0.25, "velocity": 88 },
                { "note": 66, "start": 31.5, "duration": 1.5, "velocity": 88 },
                { "note": 70, "start": 34.5, "duration": 0.5, "velocity": 80 },
                { "note": 73, "start": 34.5, "duration": 0.5, "velocity": 94 },
                { "note": 68, "start": 35, "duration": 0.5, "velocity": 80 },
                { "note": 71, "start": 35, "duration": 0.5, "velocity": 94 },
                { "note": 66, "start": 35.5, "duration": 0.5, "velocity": 75 },
                { "note": 70, "start": 35.5, "duration": 0.5, "velocity": 89 },
                { "note": 68, "start": 36, "duration": 0.25, "velocity": 88 },
                { "note": 66, "start": 36.5, "duration": 0.25, "velocity": 89 },
                { "note": 68, "start": 37, "duration": 0.25, "velocity": 90 },
                { "note": 70, "start": 37.5, "duration": 1.5, "velocity": 91 },
                { "note": 71, "start": 39, "duration": 1.5, "velocity": 94 },
                { "note": 70, "start": 40.5, "duration": 1.5, "velocity": 97 },
                { "note": 68, "start": 42, "duration": 0.25, "velocity": 106 },
                { "note": 66, "start": 42.5, "duration": 0.25, "velocity": 101 },
                { "note": 68, "start": 43, "duration": 0.25, "velocity": 101 },
                { "note": 68, "start": 43.5, "duration": 0.25, "velocity": 101 },
                { "note": 66, "start": 44, "duration": 0.25, "velocity": 101 },
                { "note": 68, "start": 44.5, "duration": 0.25, "velocity": 101 },
                { "note": 68, "start": 45, "duration": 0.25, "velocity": 123 },
                { "note": 80, "start": 45, "duration": 0.25, "velocity": 127 },
                { "note": 73, "start": 48, "duration": 0.25, "velocity": 101 },
                { "note": 75, "start": 48.25, "duration": 0.75, "velocity": 96 },
                { "note": 75, "start": 49, "duration": 0.5, "velocity": 101 },
                { "note": 75, "start": 49.5, "duration": 0.5, "velocity": 101 },
                { "note": 71, "start": 50, "duration": 0.5, "velocity": 101 },
                { "note": 73, "start": 50.5, "duration": 0.5, "velocity": 101 },
                { "note": 75, "start": 51, "duration": 1.5, "velocity": 106 },
                { "note": 80, "start": 52.5, "duration": 1.5, "velocity": 101 },
                { "note": 76, "start": 54, "duration": 0.25, "velocity": 101 },
                { "note": 78, "start": 54.25, "duration": 2.75, "velocity": 96 },
                { "note": 63, "start": 55.5, "duration": 0.25, "velocity": 107 },
                { "note": 75, "start": 57, "duration": 2.5, "velocity": 101 },
                { "note": 71, "start": 59.5, "duration": 0.5, "velocity": 101 },
                { "note": 66, "start": 60, "duration": 0.25, "velocity": 101 },
                { "note": 68, "start": 60.25, "duration": 5.75, "velocity": 96 },
                { "note": 68, "start": 66, "duration": 0.5, "velocity": 106 },
                { "note": 70, "start": 66.5, "duration": 0.5, "velocity": 101 },
                { "note": 71, "start": 67, "duration": 0.5, "velocity": 101 },
                { "note": 70, "start": 67.5, "duration": 0.5, "velocity": 101 },
                { "note": 71, "start": 68, "duration": 0.5, "velocity": 101 },
                { "note": 73, "start": 68.5, "duration": 0.5, "velocity": 101 },
                { "note": 71, "start": 69, "duration": 0.5, "velocity": 106 },
                { "note": 73, "start": 69.5, "duration": 0.5, "velocity": 101 },
                { "note": 75, "start": 70, "duration": 0.5, "velocity": 101 },
                { "note": 73, "start": 70.5, "duration": 0.5, "velocity": 101 },
                { "note": 75, "start": 71, "duration": 0.5, "velocity": 101 },
                { "note": 78, "start": 71.5, "duration": 0.5, "velocity": 101 },
                { "note": 73, "start": 72, "duration": 0.25, "velocity": 101 },
                { "note": 75, "start": 72.25, "duration": 0.75, "velocity": 96 },
                { "note": 75, "start": 73, "duration": 0.5, "velocity": 101 },
                { "note": 75, "start": 73.5, "duration": 0.5, "velocity": 101 },
                { "note": 71, "start": 74, "duration": 0.5, "velocity": 101 },
                { "note": 73, "start": 74.5, "duration": 0.5, "velocity": 101 },
                { "note": 75, "start": 75, "duration": 1.5, "velocity": 106 },
                { "note": 80, "start": 76.5, "duration": 1.5, "velocity": 101 },
                { "note": 80, "start": 78, "duration": 0.25, "velocity": 101 },
                { "note": 82, "start": 78.25, "duration": 1.75, "velocity": 96 },
                { "note": 83, "start": 80, "duration": 0.5, "velocity": 101 },
                { "note": 82, "start": 80.5, "duration": 0.5, "velocity": 101 },
                { "note": 80, "start": 81, "duration": 1.5, "velocity": 106 },
                { "note": 78, "start": 82.5, "duration": 1.5, "velocity": 101 },
                { "note": 78, "start": 84, "duration": 0.25, "velocity": 101 },
                { "note": 80, "start": 84.25, "duration": 5.75, "velocity": 96 },
                { "note": 78, "start": 90, "duration": 0.25, "velocity": 101 },
                { "note": 80, "start": 90.25, "duration": 2.75, "velocity": 96 },
                { "note": 80, "start": 93, "duration": 0.25, "velocity": 101 },
                { "note": 82, "start": 93.25, "duration": 2.75, "velocity": 96 },
                { "note": 82, "start": 96, "duration": 0.25, "velocity": 101 },
                { "note": 83, "start": 96.25, "duration": 0.75, "velocity": 96 },
                { "note": 83, "start": 97, "duration": 0.5, "velocity": 101 },
                { "note": 83, "start": 97.5, "duration": 0.5, "velocity": 101 },
                { "note": 82, "start": 98, "duration": 0.5, "velocity": 101 },
                { "note": 80, "start": 98.5, "duration": 0.5, "velocity": 101 },
                { "note": 78, "start": 99, "duration": 1.5, "velocity": 106 },
                { "note": 75, "start": 100.5, "duration": 1.5, "velocity": 101 },
                { "note": 78, "start": 102, "duration": 0.25, "velocity": 101 },
                { "note": 80, "start": 102.25, "duration": 0.75, "velocity": 96 },
                { "note": 80, "start": 103, "duration": 0.5, "velocity": 101 },
                { "note": 80, "start": 103.5, "duration": 0.5, "velocity": 101 },
                { "note": 78, "start": 104, "duration": 0.5, "velocity": 101 },
                { "note": 76, "start": 104.5, "duration": 0.5, "velocity": 101 },
                { "note": 75, "start": 105, "duration": 3, "velocity": 101 },
                { "note": 82, "start": 108, "duration": 0.25, "velocity": 101 },
                { "note": 83, "start": 108.25, "duration": 0.75, "velocity": 96 },
                { "note": 83, "start": 109, "duration": 0.5, "velocity": 101 },
                { "note": 83, "start": 109.5, "duration": 0.5, "velocity": 101 },
                { "note": 82, "start": 110, "duration": 0.5, "velocity": 101 },
                { "note": 80, "start": 110.5, "duration": 0.5, "velocity": 101 },
                { "note": 78, "start": 111, "duration": 1.5, "velocity": 106 },
                { "note": 75, "start": 112.5, "duration": 1.5, "velocity": 101 },
                { "note": 78, "start": 114, "duration": 0.25, "velocity": 75 },
                { "note": 80, "start": 114.25, "duration": 2.75, "velocity": 70 },
                { "note": 80, "start": 117, "duration": 0.25, "velocity": 81 },
                { "note": 82, "start": 117.25, "duration": 2.75, "velocity": 76 },
                { "note": 82, "start": 120, "duration": 0.25, "velocity": 88 },
                { "note": 83, "start": 120.25, "duration": 0.75, "velocity": 83 },
                { "note": 83, "start": 121, "duration": 0.5, "velocity": 88 },
                { "note": 83, "start": 121.5, "duration": 0.5, "velocity": 88 },
                { "note": 82, "start": 122, "duration": 0.5, "velocity": 88 },
                { "note": 80, "start": 122.5, "duration": 0.5, "velocity": 88 },
                { "note": 78, "start": 123, "duration": 1.5, "velocity": 93 },
                { "note": 75, "start": 124.5, "duration": 1.5, "velocity": 88 },
                { "note": 78, "start": 126, "duration": 0.25, "velocity": 88 },
                { "note": 80, "start": 126.25, "duration": 0.75, "velocity": 83 },
                { "note": 80, "start": 127, "duration": 0.5, "velocity": 88 },
                { "note": 80, "start": 127.5, "duration": 0.5, "velocity": 88 },
                { "note": 78, "start": 128, "duration": 0.5, "velocity": 88 },
                { "note": 76, "start": 128.5, "duration": 0.5, "velocity": 88 },
                { "note": 75, "start": 129, "duration": 3, "velocity": 88 },
                { "note": 82, "start": 132, "duration": 0.25, "velocity": 88 },
                { "note": 83, "start": 132.25, "duration": 0.75, "velocity": 83 },
                { "note": 83, "start": 133, "duration": 0.5, "velocity": 88 },
                { "note": 83, "start": 133.5, "duration": 0.5, "velocity": 88 },
                { "note": 82, "start": 134, "duration": 0.5, "velocity": 88 },
                { "note": 83, "start": 134.5, "duration": 0.5, "velocity": 88 },
                { "note": 85, "start": 135, "duration": 1.5, "velocity": 93 },
                { "note": 82, "start": 136.5, "duration": 1.5, "velocity": 88 },
                { "note": 80, "start": 138, "duration": 0.25, "velocity": 88 },
                { "note": 82, "start": 138.25, "duration": 2.75, "velocity": 83 },
                { "note": 68, "start": 141, "duration": 0.25, "velocity": 107 },
                { "note": 80, "start": 141, "duration": 0.25, "velocity": 121 },
                { "note": 68, "start": 144, "duration": 0.25, "velocity": 93 },
                { "note": 66, "start": 144.5, "duration": 0.25, "velocity": 88 },
                { "note": 68, "start": 145, "duration": 0.25, "velocity": 88 },
                { "note": 63, "start": 145.5, "duration": 1.5, "velocity": 88 },
                { "note": 68, "start": 147, "duration": 1.5, "velocity": 93 },
                { "note": 70, "start": 148.5, "duration": 1, "velocity": 88 },
                { "note": 71, "start": 149.5, "duration": 0.5, "velocity": 88 },
                { "note": 70, "start": 150, "duration": 0.25, "velocity": 93 },
                { "note": 68, "start": 150.5, "duration": 0.25, "velocity": 88 },
                { "note": 70, "start": 151, "duration": 0.25, "velocity": 88 },
                { "note": 66, "start": 151.5, "duration": 1.5, "velocity": 88 },
                { "note": 70, "start": 154.5, "duration": 0.5, "velocity": 80 },
                { "note": 73, "start": 154.5, "duration": 0.5, "velocity": 94 },
                { "note": 68, "start": 155, "duration": 0.5, "velocity": 80 },
                { "note": 71, "start": 155, "duration": 0.5, "velocity": 94 },
                { "note": 66, "start": 155.5, "duration": 0.5, "velocity": 75 },
                { "note": 70, "start": 155.5, "duration": 0.5, "velocity": 89 },
                { "note": 68, "start": 156, "duration": 0.25, "velocity": 93 },
                { "note": 66, "start": 156.5, "duration": 0.25, "velocity": 88 },
                { "note": 68, "start": 157, "duration": 0.25, "velocity": 88 },
                { "note": 63, "start": 157.5, "duration": 1.5, "velocity": 88 },
                { "note": 68, "start": 159, "duration": 1.5, "velocity": 93 },
                { "note": 70, "start": 160.5, "duration": 1, "velocity": 88 },
                { "note": 71, "start": 161.5, "duration": 0.5, "velocity": 88 },
                { "note": 70, "start": 162, "duration": 0.25, "velocity": 93 },
                { "note": 71, "start": 162.5, "duration": 0.25, "velocity": 88 },
                { "note": 73, "start": 163, "duration": 0.25, "velocity": 88 },
                { "note": 70, "start": 163.5, "duration": 1.5, "velocity": 88 },
                { "note": 66, "start": 166.5, "duration": 1.5, "velocity": 94 },
                { "note": 68, "start": 168, "duration": 0.25, "velocity": 93 },
                { "note": 66, "start": 168.5, "duration": 0.25, "velocity": 88 },
                { "note": 68, "start": 169, "duration": 0.25, "velocity": 88 },
                { "note": 63, "start": 169.5, "duration": 1.5, "velocity": 88 },
                { "note": 68, "start": 171, "duration": 1.5, "velocity": 93 },
                { "note": 70, "start": 172.5, "duration": 1, "velocity": 88 },
                { "note": 71, "start": 173.5, "duration": 0.5, "velocity": 88 },
                { "note": 70, "start": 174, "duration": 0.25, "velocity": 93 },
                { "note": 68, "start": 174.5, "duration": 0.25, "velocity": 88 },
                { "note": 70, "start": 175, "duration": 0.25, "velocity": 88 },
                { "note": 66, "start": 175.5, "duration": 1.5, "velocity": 88 },
                { "note": 70, "start": 178.5, "duration": 0.5, "velocity": 80 },
                { "note": 73, "start": 178.5, "duration": 0.5, "velocity": 94 },
                { "note": 68, "start": 179, "duration": 0.5, "velocity": 80 },
                { "note": 71, "start": 179, "duration": 0.5, "velocity": 94 },
                { "note": 66, "start": 179.5, "duration": 0.5, "velocity": 75 },
                { "note": 70, "start": 179.5, "duration": 0.5, "velocity": 89 },
                { "note": 68, "start": 180, "duration": 0.25, "velocity": 88 },
                { "note": 66, "start": 180.5, "duration": 0.25, "velocity": 89 },
                { "note": 68, "start": 181, "duration": 0.25, "velocity": 90 },
                { "note": 70, "start": 181.5, "duration": 1.5, "velocity": 91 },
                { "note": 71, "start": 183, "duration": 1.5, "velocity": 94 },
                { "note": 70, "start": 184.5, "duration": 1.5, "velocity": 97 },
                { "note": 68, "start": 186, "duration": 0.25, "velocity": 106 },
                { "note": 66, "start": 186.5, "duration": 0.25, "velocity": 101 },
                { "note": 68, "start": 187, "duration": 0.25, "velocity": 101 },
                { "note": 68, "start": 187.5, "duration": 0.25, "velocity": 101 },
                { "note": 66, "start": 188, "duration": 0.25, "velocity": 101 },
                { "note": 68, "start": 188.5, "duration": 0.25, "velocity": 101 },
                { "note": 68, "start": 189, "duration": 0.25, "velocity": 123 },
                { "note": 80, "start": 189, "duration": 0.25, "velocity": 127 },
                { "note": 73, "start": 192, "duration": 0.25, "velocity": 101 },
                { "note": 75, "start": 192.25, "duration": 0.75, "velocity": 96 },
                { "note": 75, "start": 193, "duration": 0.5, "velocity": 101 },
                { "note": 75, "start": 193.5, "duration": 0.5, "velocity": 101 },
                { "note": 71, "start": 194, "duration": 0.5, "velocity": 101 },
                { "note": 73, "start": 194.5, "duration": 0.5, "velocity": 101 },
                { "note": 75, "start": 195, "duration": 1.5, "velocity": 106 },
                { "note": 80, "start": 196.5, "duration": 1.5, "velocity": 101 },
                { "note": 76, "start": 198, "duration": 0.25, "velocity": 101 },
                { "note": 78, "start": 198.25, "duration": 2.75, "velocity": 96 },
                { "note": 63, "start": 199.5, "duration": 0.25, "velocity": 107 },
                { "note": 75, "start": 201, "duration": 2.5, "velocity": 101 },
                { "note": 71, "start": 203.5, "duration": 0.5, "velocity": 101 },
                { "note": 66, "start": 204, "duration": 0.25, "velocity": 101 },
                { "note": 68, "start": 204.25, "duration": 5.75, "velocity": 96 },
                { "note": 68, "start": 210, "duration": 0.5, "velocity": 106 },
                { "note": 70, "start": 210.5, "duration": 0.5, "velocity": 101 },
                { "note": 71, "start": 211, "duration": 0.5, "velocity": 101 },
                { "note": 70, "start": 211.5, "duration": 0.5, "velocity": 101 },
                { "note": 71, "start": 212, "duration": 0.5, "velocity": 101 },
                { "note": 73, "start": 212.5, "duration": 0.5, "velocity": 101 },
                { "note": 71, "start": 213, "duration": 0.5, "velocity": 106 },
                { "note": 73, "start": 213.5, "duration": 0.5, "velocity": 101 },
                { "note": 75, "start": 214, "duration": 0.5, "velocity": 101 },
                { "note": 73, "start": 214.5, "duration": 0.5, "velocity": 101 },
                { "note": 75, "start": 215, "duration": 0.5, "velocity": 101 },
                { "note": 78, "start": 215.5, "duration": 0.5, "velocity": 101 },
                { "note": 73, "start": 216, "duration": 0.25, "velocity": 101 },
                { "note": 75, "start": 216.25, "duration": 0.75, "velocity": 96 },
                { "note": 75, "start": 217, "duration": 0.5, "velocity": 101 },
                { "note": 75, "start": 217.5, "duration": 0.5, "velocity": 101 },
                { "note": 71, "start": 218, "duration": 0.5, "velocity": 101 },
                { "note": 73, "start": 218.5, "duration": 0.5, "velocity": 101 },
                { "note": 75, "start": 219, "duration": 1.5, "velocity": 106 },
                { "note": 80, "start": 220.5, "duration": 1.5, "velocity": 101 },
                { "note": 80, "start": 222, "duration": 0.25, "velocity": 101 },
                { "note": 82, "start": 222.25, "duration": 1.75, "velocity": 96 },
                { "note": 83, "start": 224, "duration": 0.5, "velocity": 101 },
                { "note": 82, "start": 224.5, "duration": 0.5, "velocity": 101 },
                { "note": 80, "start": 225, "duration": 1.5, "velocity": 106 },
                { "note": 78, "start": 226.5, "duration": 1.5, "velocity": 101 },
                { "note": 78, "start": 228, "duration": 0.25, "velocity": 101 },
                { "note": 80, "start": 228.25, "duration": 5.75, "velocity": 96 },
                { "note": 78, "start": 234, "duration": 0.25, "velocity": 101 },
                { "note": 80, "start": 234.25, "duration": 2.75, "velocity": 96 },
                { "note": 80, "start": 237, "duration": 0.25, "velocity": 101 },
                { "note": 82, "start": 237.25, "duration": 2.75, "velocity": 96 },
                { "note": 82, "start": 240, "duration": 0.25, "velocity": 101 },
                { "note": 83, "start": 240.25, "duration": 0.75, "velocity": 96 },
                { "note": 83, "start": 241, "duration": 0.5, "velocity": 101 },
                { "note": 83, "start": 241.5, "duration": 0.5, "velocity": 101 },
                { "note": 82, "start": 242, "duration": 0.5, "velocity": 101 },
                { "note": 80, "start": 242.5, "duration": 0.5, "velocity": 101 },
                { "note": 78, "start": 243, "duration": 1.5, "velocity": 106 },
                { "note": 75, "start": 244.5, "duration": 1.5, "velocity": 101 },
                { "note": 78, "start": 246, "duration": 0.25, "velocity": 101 },
                { "note": 80, "start": 246.25, "duration": 0.75, "velocity": 96 },
                { "note": 80, "start": 247, "duration": 0.5, "velocity": 101 },
                { "note": 80, "start": 247.5, "duration": 0.5, "velocity": 101 },
                { "note": 78, "start": 248, "duration": 0.5, "velocity": 101 },
                { "note": 76, "start": 248.5, "duration": 0.5, "velocity": 101 },
                { "note": 75, "start": 249, "duration": 3, "velocity": 101 },
                { "note": 82, "start": 252, "duration": 0.25, "velocity": 101 },
                { "note": 83, "start": 252.25, "duration": 0.75, "velocity": 96 },
                { "note": 83, "start": 253, "duration": 0.5, "velocity": 101 },
                { "note": 83, "start": 253.5, "duration": 0.5, "velocity": 101 },
                { "note": 82, "start": 254, "duration": 0.5, "velocity": 101 },
                { "note": 80, "start": 254.5, "duration": 0.5, "velocity": 101 },
                { "note": 78, "start": 255, "duration": 1.5, "velocity": 106 },
                { "note": 75, "start": 256.5, "duration": 1.5, "velocity": 101 },
                { "note": 78, "start": 258, "duration": 0.25, "velocity": 75 },
                { "note": 80, "start": 258.25, "duration": 2.75, "velocity": 70 },
                { "note": 80, "start": 261, "duration": 0.25, "velocity": 81 },
                { "note": 82, "start": 261.25, "duration": 2.75, "velocity": 76 },
                { "note": 82, "start": 264, "duration": 0.25, "velocity": 88 },
                { "note": 83, "start": 264.25, "duration": 0.75, "velocity": 83 },
                { "note": 83, "start": 265, "duration": 0.5, "velocity": 88 },
                { "note": 83, "start": 265.5, "duration": 0.5, "velocity": 88 },
                { "note": 82, "start": 266, "duration": 0.5, "velocity": 88 },
                { "note": 80, "start": 266.5, "duration": 0.5, "velocity": 88 },
                { "note": 78, "start": 267, "duration": 1.5, "velocity": 93 },
                { "note": 75, "start": 268.5, "duration": 1.5, "velocity": 88 },
                { "note": 78, "start": 270, "duration": 0.25, "velocity": 88 },
                { "note": 80, "start": 270.25, "duration": 0.75, "velocity": 83 },
                { "note": 80, "start": 271, "duration": 0.5, "velocity": 88 },
                { "note": 80, "start": 271.5, "duration": 0.5, "velocity": 88 },
                { "note": 78, "start": 272, "duration": 0.5, "velocity": 88 },
                { "note": 76, "start": 272.5, "duration": 0.5, "velocity": 88 },
                { "note": 75, "start": 273, "duration": 3, "velocity": 88 },
                { "note": 82, "start": 276, "duration": 0.25, "velocity": 88 },
                { "note": 83, "start": 276.25, "duration": 0.75, "velocity": 83 },
                { "note": 83, "start": 277, "duration": 0.5, "velocity": 88 },
                { "note": 83, "start": 277.5, "duration": 0.5, "velocity": 88 },
                { "note": 82, "start": 278, "duration": 0.5, "velocity": 88 },
                { "note": 83, "start": 278.5, "duration": 0.5, "velocity": 88 },
                { "note": 85, "start": 279, "duration": 1.5, "velocity": 93 },
                { "note": 82, "start": 280.5, "duration": 1.5, "velocity": 88 },
                { "note": 80, "start": 282, "duration": 0.25, "velocity": 88 },
                { "note": 82, "start": 282.25, "duration": 2.75, "velocity": 83 },
                { "note": 68, "start": 285, "duration": 0.25, "velocity": 107 },
                { "note": 80, "start": 285, "duration": 0.25, "velocity": 121 }
            ]
        },
        {
            "id": "left-simplified",
            "name": "Acompanhamento (simplificado)",
            "hand": "left",
            "difficulty": "beginner",
            "notes": [
                { "note": 44, "start": 0, "duration": 0.5, "velocity": 85 },
                { "note": 51, "start": 0, "duration": 0.5, "velocity": 85 },
                { "note": 44, "start": 1.5, "duration": 0.5, "velocity": 80 },
                { "note": 51, "start": 1.5, "duration": 0.5, "velocity": 80 },
                { "note": 44, "start": 3, "duration": 0.5, "velocity": 85 },
                { "note": 51, "start": 3, "duration": 0.5, "velocity": 85 },
                { "note": 44, "start": 4.5, "duration": 1.5, "velocity": 80 },
                { "note": 51, "start": 4.5, "duration": 1.5, "velocity": 80 },
                { "note": 42, "start": 6, "duration": 0.5, "velocity": 85 },
                { "note": 49, "start": 6, "duration": 0.5, "velocity": 85 },
                { "note": 42, "start": 7.5, "duration": 0.5, "velocity": 80 },
                { "note": 49, "start": 7.5, "duration": 0.5, "velocity": 80 },
                { "note": 42, "start": 9, "duration": 0.5, "velocity": 85 },
                { "note": 49, "start": 9, "duration": 0.5, "velocity": 85 },
                { "note": 42, "start": 10.5, "duration": 1.5, "velocity": 80 },
                { "note": 49, "start": 10.5, "duration": 1.5, "velocity": 80 },
                { "note": 40, "start": 12, "duration": 0.5, "velocity": 84 },
                { "note": 47, "start": 12, "duration": 0.5, "velocity": 85 },
                { "note": 40, "start": 13.5, "duration": 0.5, "velocity": 79 },
                { "note": 47, "start": 13.5, "duration": 0.5, "velocity": 80 },
                { "note": 40, "start": 15, "duration": 0.5, "velocity": 84 },
                { "note": 47, "start": 15, "duration": 0.5, "velocity": 85 },
                { "note": 40, "start": 16.5, "duration": 1.5, "velocity": 79 },
                { "note": 47, "start": 16.5, "duration": 1.5, "velocity": 80 },
                { "note": 42, "start": 18, "duration": 0.5, "velocity": 85 },
                { "note": 49, "start": 18, "duration": 0.5, "velocity": 85 },
                { "note": 42, "start": 19.5, "duration": 0.5, "velocity": 80 },
                { "note": 49, "start": 19.5, "duration": 0.5, "velocity": 80 },
                { "note": 42, "start": 21, "duration": 0.5, "velocity": 85 },
                { "note": 49, "start": 21, "duration": 0.5, "velocity": 85 },
                { "note": 42, "start": 22.5, "duration": 1.5, "velocity": 80 },
                { "note": 46, "start": 22.5, "duration": 1.5, "velocity": 80 },
                { "note": 44, "start": 24, "duration": 0.5, "velocity": 85 },
                { "note": 51, "start": 24, "duration": 0.5, "velocity": 85 },
                { "note": 44, "start": 25.5, "duration": 0.5, "velocity": 80 },
                { "note": 51, "start": 25.5, "duration": 0.5, "velocity": 80 },
                { "note": 44, "start": 27, "duration": 0.5, "velocity": 85 },
                { "note": 51, "start": 27, "duration": 0.5, "velocity": 85 },
                { "note": 44, "start": 28.5, "duration": 1.5, "velocity": 80 },
                { "note": 51, "start": 28.5, "duration": 1.5, "velocity": 80 },
                { "note": 42, "start": 30, "duration": 0.5, "velocity": 85 },
                { "note": 49, "start": 30, "duration": 0.5, "velocity": 85 },
                { "note": 42, "start": 31.5, "duration": 0.5, "velocity": 80 },
                { "note": 49, "start": 31.5, "duration": 0.5, "velocity": 80 },
                { "note": 42, "start": 33, "duration": 0.5, "velocity": 85 },
                { "note": 49, "start": 33, "duration": 0.5, "velocity": 85 },
                { "note": 42, "start": 34.5, "duration": 1.5, "velocity": 80 },
                { "note": 49, "start": 34.5, "duration": 1.5, "velocity": 80 },
                { "note": 40, "start": 36, "duration": 0.5, "velocity": 84 },
                { "note": 47, "start": 36, "duration": 0.5, "velocity": 85 },
                { "note": 40, "start": 37.5, "duration": 0.5, "velocity": 79 },
                { "note": 47, "start": 37.5, "duration": 0.5, "velocity": 80 },
                { "note": 42, "start": 39, "duration": 0.5, "velocity": 85 },
                { "note": 49, "start": 39, "duration": 0.5, "velocity": 85 },
                { "note": 42, "start": 40.5, "duration": 0.5, "velocity": 80 },
                { "note": 49, "start": 40.5, "duration": 0.5, "velocity": 80 },
                { "note": 44, "start": 42, "duration": 0.5, "velocity": 98 },
                { "note": 56, "start": 42, "duration": 0.5, "velocity": 112 },
                { "note": 42, "start": 42.5, "duration": 0.5, "velocity": 93 },
                { "note": 54, "start": 42.5, "duration": 0.5, "velocity": 107 },
                { "note": 44, "start": 43, "duration": 0.5, "velocity": 93 },
                { "note": 56, "start": 43, "duration": 0.5, "velocity": 107 },
                { "note": 44, "start": 43.5, "duration": 0.5, "velocity": 93 },
                { "note": 56, "start": 43.5, "duration": 0.5, "velocity": 107 },
                { "note": 42, "start": 44, "duration": 0.5, "velocity": 93 },
                { "note": 54, "start": 44, "duration": 0.5, "velocity": 107 },
                { "note": 44, "start": 44.5, "duration": 0.5, "velocity": 93 },
                { "note": 56, "start": 44.5, "duration": 0.5, "velocity": 107 },
                { "note": 44, "start": 45, "duration": 0.5, "velocity": 123 },
                { "note": 56, "start": 45, "duration": 0.5, "velocity": 127 },
                { "note": 44, "start": 48, "duration": 0.5, "velocity": 106 },
                { "note": 56, "start": 49.5, "duration": 0.5, "velocity": 93 },
                { "note": 59, "start": 49.5, "duration": 0.5, "velocity": 107 },
                { "note": 44, "start": 50, "duration": 0.5, "velocity": 101 },
                { "note": 44, "start": 50.5, "duration": 0.5, "velocity": 101 },
                { "note": 44, "start": 51, "duration": 0.5, "velocity": 106 },
                { "note": 44, "start": 52.5, "duration": 1.5, "velocity": 93 },
                { "note": 47, "start": 52.5, "duration": 1.5, "velocity": 93 },
                { "note": 47, "start": 54, "duration": 0.5, "velocity": 106 },
                { "note": 59, "start": 55.5, "duration": 0.5, "velocity": 93 },
                { "note": 47, "start": 56, "duration": 0.5, "velocity": 101 },
                { "note": 47, "start": 56.5, "duration": 0.5, "velocity": 101 },
                { "note": 47, "start": 57, "duration": 0.5, "velocity": 106 },
                { "note": 47, "start": 58.5, "duration": 1.5, "velocity": 93 },
                { "note": 51, "start": 58.5, "duration": 1.5, "velocity": 93 },
                { "note": 40, "start": 60, "duration": 0.5, "velocity": 105 },
                { "note": 52, "start": 61.5, "duration": 0.5, "velocity": 93 },
                { "note": 56, "start": 61.5, "duration": 0.5, "velocity": 107 },
                { "note": 40, "start": 62, "duration": 0.5, "velocity": 100 },
                { "note": 40, "start": 62.5, "duration": 0.5, "velocity": 100 },
                { "note": 40, "start": 63, "duration": 0.5, "velocity": 105 },
                { "note": 40, "start": 64.5, "duration": 1.5, "velocity": 92 },
                { "note": 44, "start": 64.5, "duration": 1.5, "velocity": 93 },
                { "note": 42, "start": 66, "duration": 0.5, "velocity": 106 },
                { "note": 54, "start": 67.5, "duration": 0.5, "velocity": 93 },
                { "note": 58, "start": 67.5, "duration": 0.5, "velocity": 107 },
                { "note": 42, "start": 68, "duration": 0.5, "velocity": 101 },
                { "note": 42, "start": 68.5, "duration": 0.5, "velocity": 101 },
                { "note": 42, "start": 69, "duration": 0.5, "velocity": 106 },
                { "note": 54, "start": 69.5, "duration": 0.5, "velocity": 93 },
                { "note": 58, "start": 69.5, "duration": 0.5, "velocity": 107 },
                { "note": 42, "start": 70, "duration": 0.5, "velocity": 101 },
                { "note": 54, "start": 70.5, "duration": 0.5, "velocity": 93 },
                { "note": 58, "start": 70.5, "duration": 0.5, "velocity": 103 },
                { "note": 54, "start": 71.5, "duration": 0.5, "velocity": 93 },
                { "note": 58, "start": 71.5, "duration": 0.5, "velocity": 103 },
                { "note": 44, "start": 72, "duration": 0.5, "velocity": 106 },
                { "note": 56, "start": 73.5, "duration": 0.5, "velocity": 93 },
                { "note": 59, "start": 73.5, "duration": 0.5, "velocity": 107 },
                { "note": 44, "start": 74, "duration": 0.5, "velocity": 101 },
                { "note": 44, "start": 74.5, "duration": 0.5, "velocity": 101 },
                { "note": 44, "start": 75, "duration": 0.5, "velocity": 106 },
                { "note": 44, "start": 76.5, "duration": 1.5, "velocity": 93 },
                { "note": 47, "start": 76.5, "duration": 1.5, "velocity": 93 },
                { "note": 42, "start": 78, "duration": 0.5, "velocity": 106 },
                { "note": 54, "start": 79.5, "duration": 0.5, "velocity": 93 },
                { "note": 58, "start": 79.5, "duration": 0.5, "velocity": 107 },
                { "note": 42, "start": 80, "duration": 0.5, "velocity": 101 },
                { "note": 42, "start": 80.5, "duration": 0.5, "velocity": 101 },
                { "note": 42, "start": 81, "duration": 0.5, "velocity": 106 },
                { "note": 42, "start": 82.5, "duration": 1.5, "velocity": 93 },
                { "note": 46, "start": 82.5, "duration": 1.5, "velocity": 93 },
                { "note": 40, "start": 84, "duration": 0.5, "velocity": 105 },
                { "note": 52, "start": 85.5, "duration": 0.5, "velocity": 93 },
                { "note": 56, "start": 85.5, "duration": 0.5, "velocity": 107 },
                { "note": 40, "start": 86, "duration": 0.5, "velocity": 100 },
                { "note": 40, "start": 86.5, "duration": 0.5, "velocity": 100 },
                { "note": 40, "start": 87, "duration": 0.5, "velocity": 105 },
                { "note": 40, "start": 88.5, "duration": 1.5, "velocity": 92 },
                { "note": 44, "start": 88.5, "duration": 1.5, "velocity": 93 },
                { "note": 39, "start": 90, "duration": 0.5, "velocity": 105 },
                { "note": 56, "start": 91.5, "duration": 0.5, "velocity": 93 },
                { "note": 58, "start": 91.5, "duration": 0.5, "velocity": 107 },
                { "note": 39, "start": 92, "duration": 0.5, "velocity": 100 },
                { "note": 39, "start": 92.5, "duration": 0.5, "velocity": 100 },
                { "note": 39, "start": 93, "duration": 0.5, "velocity": 105 },
                { "note": 56, "start": 93.5, "duration": 0.5, "velocity": 93 },
                { "note": 58, "start": 93.5, "duration": 0.5, "velocity": 107 },
                { "note": 51, "start": 94, "duration": 0.5, "velocity": 101 },
                { "note": 55, "start": 94.5, "duration": 1, "velocity": 93 },
                { "note": 58, "start": 94.5, "duration": 1, "velocity": 103 },
                { "note": 55, "start": 95.5, "duration": 0.5, "velocity": 93 },
                { "note": 58, "start": 95.5, "duration": 0.5, "velocity": 103 },
                { "note": 40, "start": 96, "duration": 0.5, "velocity": 105 },
                { "note": 47, "start": 97.5, "duration": 1, "velocity": 93 },
                { "note": 52, "start": 97.5, "duration": 1, "velocity": 93 },
                { "note": 40, "start": 98.5, "duration": 0.5, "velocity": 100 },
                { "note": 42, "start": 99, "duration": 0.5, "velocity": 106 },
                { "note": 49, "start": 100.5, "duration": 1.5, "velocity": 93 },
                { "note": 54, "start": 100.5, "duration": 1.5, "velocity": 93 },
                { "note": 40, "start": 102, "duration": 0.5, "velocity": 105 },
                { "note": 47, "start": 103.5, "duration": 1, "velocity": 93 },
                { "note": 52, "start": 103.5, "duration": 1, "velocity": 93 },
                { "note": 40, "start": 104.5, "duration": 0.5, "velocity": 100 },
                { "note": 44, "start": 105, "duration": 0.5, "velocity": 106 },
                { "note": 51, "start": 105.5, "duration": 0.5, "velocity": 93 },
                { "note": 56, "start": 105.5, "duration": 0.5, "velocity": 107 },
                { "note": 49, "start": 106, "duration": 0.5, "velocity": 93 },
                { "note": 54, "start": 106, "duration": 0.5, "velocity": 107 },
                { "note": 51, "start": 106.5, "duration": 1.5, "velocity": 93 },
                { "note": 56, "start": 106.5, "duration": 1.5, "velocity": 93 },
                { "note": 40, "start": 108, "duration": 0.5, "velocity": 105 },
                { "note": 47, "start": 109.5, "duration": 1, "velocity": 93 },
                { "note": 52, "start": 109.5, "duration": 1, "velocity": 93 },
                { "note": 40, "start": 110.5, "duration": 0.5, "velocity": 100 },
                { "note": 42, "start": 111, "duration": 0.5, "velocity": 106 },
                { "note": 49, "start": 112.5, "duration": 1.5, "velocity": 93 },
                { "note": 54, "start": 112.5, "duration": 1.5, "velocity": 93 },
                { "note": 49, "start": 114, "duration": 0.5, "velocity": 80 },
                { "note": 53, "start": 114.5, "duration": 0.5, "velocity": 68 },
                { "note": 56, "start": 114.5, "duration": 0.5, "velocity": 78 },
                { "note": 53, "start": 115, "duration": 0.5, "velocity": 71 },
                { "note": 56, "start": 115, "duration": 0.5, "velocity": 81 },
                { "note": 49, "start": 115.5, "duration": 0.5, "velocity": 84 },
                { "note": 53, "start": 115.5, "duration": 0.5, "velocity": 73 },
                { "note": 53, "start": 116, "duration": 0.5, "velocity": 76 },
                { "note": 56, "start": 116, "duration": 0.5, "velocity": 86 },
                { "note": 53, "start": 116.5, "duration": 0.5, "velocity": 78 },
                { "note": 56, "start": 116.5, "duration": 0.5, "velocity": 88 },
                { "note": 51, "start": 117, "duration": 0.5, "velocity": 89 },
                { "note": 55, "start": 117.5, "duration": 0.5, "velocity": 83 },
                { "note": 58, "start": 117.5, "duration": 0.5, "velocity": 93 },
                { "note": 55, "start": 118, "duration": 0.5, "velocity": 86 },
                { "note": 58, "start": 118, "duration": 0.5, "velocity": 96 },
                { "note": 51, "start": 118.5, "duration": 0.5, "velocity": 99 },
                { "note": 55, "start": 118.5, "duration": 0.5, "velocity": 88 },
                { "note": 55, "start": 119, "duration": 0.5, "velocity": 91 },
                { "note": 58, "start": 119, "duration": 0.5, "velocity": 101 },
                { "note": 55, "start": 119.5, "duration": 0.5, "velocity": 93 },
                { "note": 58, "start": 119.5, "duration": 0.5, "velocity": 103 },
                { "note": 40, "start": 120, "duration": 0.5, "velocity": 120 },
                { "note": 47, "start": 121.5, "duration": 1, "velocity": 80 },
                { "note": 52, "start": 121.5, "duration": 1, "velocity": 80 },
                { "note": 40, "start": 122.5, "duration": 0.5, "velocity": 87 },
                { "note": 42, "start": 123, "duration": 0.5, "velocity": 93 },
                { "note": 49, "start": 124.5, "duration": 1.5, "velocity": 80 },
                { "note": 54, "start": 124.5, "duration": 1.5, "velocity": 80 },
                { "note": 40, "start": 126, "duration": 0.5, "velocity": 92 },
                { "note": 47, "start": 127.5, "duration": 1, "velocity": 80 },
                { "note": 52, "start": 127.5, "duration": 1, "velocity": 80 },
                { "note": 40, "start": 128.5, "duration": 0.5, "velocity": 87 },
                { "note": 44, "start": 129, "duration": 0.5, "velocity": 93 },
                { "note": 51, "start": 129.5, "duration": 0.5, "velocity": 80 },
                { "note": 56, "start": 129.5, "duration": 0.5, "velocity": 94 },
                { "note": 49, "start": 130, "duration": 0.5, "velocity": 80 },
                { "note": 54, "start": 130, "duration": 0.5, "velocity": 94 },
                { "note": 51, "start": 130.5, "duration": 1.5, "velocity": 80 },
                { "note": 56, "start": 130.5, "duration": 1.5, "velocity": 80 },
                { "note": 40, "start": 132, "duration": 0.5, "velocity": 92 },
                { "note": 47, "start": 133.5, "duration": 1, "velocity": 80 },
                { "note": 52, "start": 133.5, "duration": 1, "velocity": 80 },
                { "note": 40, "start": 134.5, "duration": 0.5, "velocity": 87 },
                { "note": 42, "start": 135, "duration": 0.5, "velocity": 93 },
                { "note": 49, "start": 136.5, "duration": 1.5, "velocity": 80 },
                { "note": 54, "start": 136.5, "duration": 1.5, "velocity": 80 },
                { "note": 44, "start": 138, "duration": 0.5, "velocity": 93 },
                { "note": 44, "start": 139.5, "duration": 0.5, "velocity": 80 },
                { "note": 56, "start": 139.5, "duration": 0.5, "velocity": 90 },
                { "note": 44, "start": 140, "duration": 0.5, "velocity": 80 },
                { "note": 56, "start": 140, "duration": 0.5, "velocity": 90 },
                { "note": 44, "start": 140.5, "duration": 0.5, "velocity": 80 },
                { "note": 56, "start": 140.5, "duration": 0.5, "velocity": 90 },
                { "note": 44, "start": 141, "duration": 0.5, "velocity": 107 },
                { "note": 51, "start": 141, "duration": 0.5, "velocity": 118 },
                { "note": 44, "start": 144, "duration": 0.5, "velocity": 85 },
                { "note": 51, "start": 144, "duration": 0.5, "velocity": 85 },
                { "note": 44, "start": 145.5, "duration": 0.5, "velocity": 80 },
                { "note": 51, "start": 145.5, "duration": 0.5, "velocity": 80 },
                { "note": 44, "start": 147, "duration": 0.5, "velocity": 85 },
                { "note": 51, "start": 147, "duration": 0.5, "velocity": 85 },
                { "note": 44, "start": 148.5, "duration": 1.5, "velocity": 80 },
                { "note": 51, "start": 148.5, "duration": 1.5, "velocity": 80 },
                { "note": 42, "start": 150, "duration": 0.5, "velocity": 85 },
                { "note": 49, "start": 150, "duration": 0.5, "velocity": 85 },
                { "note": 42, "start": 151.5, "duration": 0.5, "velocity": 80 },
                { "note": 49, "start": 151.5, "duration": 0.5, "velocity": 80 },
                { "note": 42, "start": 153, "duration": 0.5, "velocity": 85 },
                { "note": 49, "start": 153, "duration": 0.5, "velocity": 85 },
                { "note": 42, "start": 154.5, "duration": 1.5, "velocity": 80 },
                { "note": 49, "start": 154.5, "duration": 1.5, "velocity": 80 },
                { "note": 40, "start": 156, "duration": 0.5, "velocity": 84 },
                { "note": 47, "start": 156, "duration": 0.5, "velocity": 85 },
                { "note": 40, "start": 157.5, "duration": 0.5, "velocity": 79 },
                { "note": 47, "start": 157.5, "duration": 0.5, "velocity": 80 },
                { "note": 40, "start": 159, "duration": 0.5, "velocity": 84 },
                { "note": 47, "start": 159, "duration": 0.5, "velocity": 85 },
                { "note": 40, "start": 160.5, "duration": 1.5, "velocity": 79 },
                { "note": 47, "start": 160.5, "duration": 1.5, "velocity": 80 },
                { "note": 42, "start": 162, "duration": 0.5, "velocity": 85 },
                { "note": 49, "start": 162, "duration": 0.5, "velocity": 85 },
                { "note": 42, "start": 163.5, "duration": 0.5, "velocity": 80 },
                { "note": 49, "start": 163.5, "duration": 0.5, "velocity": 80 },
                { "note": 42, "start": 165, "duration": 0.5, "velocity": 85 },
                { "note": 49, "start": 165, "duration": 0.5, "velocity": 85 },
                { "note": 42, "start": 166.5, "duration": 1.5, "velocity": 80 },
                { "note": 46, "start": 166.5, "duration": 1.5, "velocity": 80 },
                { "note": 44, "start": 168, "duration": 0.5, "velocity": 85 },
                { "note": 51, "start": 168, "duration": 0.5, "velocity": 85 },
                { "note": 44, "start": 169.5, "duration": 0.5, "velocity": 80 },
                { "note": 51, "start": 169.5, "duration": 0.5, "velocity": 80 },
                { "note": 44, "start": 171, "duration": 0.5, "velocity": 85 },
                { "note": 51, "start": 171, "duration": 0.5, "velocity": 85 },
                { "note": 44, "start": 172.5, "duration": 1.5, "velocity": 80 },
                { "note": 51, "start": 172.5, "duration": 1.5, "velocity": 80 },
                { "note": 42, "start": 174, "duration": 0.5, "velocity": 85 },
                { "note": 49, "start": 174, "duration": 0.5, "velocity": 85 },
                { "note": 42, "start": 175.5, "duration": 0.5, "velocity": 80 },
                { "note": 49, "start": 175.5, "duration": 0.5, "velocity": 80 },
                { "note": 42, "start": 177, "duration": 0.5, "velocity": 85 },
                { "note": 49, "start": 177, "duration": 0.5, "velocity": 85 },
                { "note": 42, "start": 178.5, "duration": 1.5, "velocity": 80 },
                { "note": 49, "start": 178.5, "duration": 1.5, "velocity": 80 },
                { "note": 40, "start": 180, "duration": 0.5, "velocity": 84 },
                { "note": 47, "start": 180, "duration": 0.5, "velocity": 85 },
                { "note": 40, "start": 181.5, "duration": 0.5, "velocity": 79 },
                { "note": 47, "start": 181.5, "duration": 0.5, "velocity": 80 },
                { "note": 42, "start": 183, "duration": 0.5, "velocity": 85 },
                { "note": 49, "start": 183, "duration": 0.5, "velocity": 85 },
                { "note": 42, "start": 184.5, "duration": 0.5, "velocity": 80 },
                { "note": 49, "start": 184.5, "duration": 0.5, "velocity": 80 },
                { "note": 44, "start": 186, "duration": 0.5, "velocity": 98 },
                { "note": 56, "start": 186, "duration": 0.5, "velocity": 112 },
                { "note": 42, "start": 186.5, "duration": 0.5, "velocity": 93 },
                { "note": 54, "start": 186.5, "duration": 0.5, "velocity": 107 },
                { "note": 44, "start": 187, "duration": 0.5, "velocity": 93 },
                { "note": 56, "start": 187, "duration": 0.5, "velocity": 107 },
                { "note": 44, "start": 187.5, "duration": 0.5, "velocity": 93 },
                { "note": 56, "start": 187.5, "duration": 0.5, "velocity": 107 },
                { "note": 42, "start": 188, "duration": 0.5, "velocity": 93 },
                { "note": 54, "start": 188, "duration": 0.5, "velocity": 107 },
                { "note": 44, "start": 188.5, "duration": 0.5, "velocity": 93 },
                { "note": 56, "start": 188.5, "duration": 0.5, "velocity": 107 },
                { "note": 44, "start": 189, "duration": 0.5, "velocity": 123 },
                { "note": 56, "start": 189, "duration": 0.5, "velocity": 127 },
                { "note": 44, "start": 192, "duration": 0.5, "velocity": 106 },
                { "note": 56, "start": 193.5, "duration": 0.5, "velocity": 93 },
                { "note": 59, "start": 193.5, "duration": 0.5, "velocity": 107 },
                { "note": 44, "start": 194, "duration": 0.5, "velocity": 101 },
                { "note": 44, "start": 194.5, "duration": 0.5, "velocity": 101 },
                { "note": 44, "start": 195, "duration": 0.5, "velocity": 106 },
                { "note": 44, "start": 196.5, "duration": 1.5, "velocity": 93 },
                { "note": 47, "start": 196.5, "duration": 1.5, "velocity": 93 },
                { "note": 47, "start": 198, "duration": 0.5, "velocity": 106 },
                { "note": 59, "start": 199.5, "duration": 0.5, "velocity": 93 },
                { "note": 47, "start": 200, "duration": 0.5, "velocity": 101 },
                { "note": 47, "start": 200.5, "duration": 0.5, "velocity": 101 },
                { "note": 47, "start": 201, "duration": 0.5, "velocity": 106 },
                { "note": 47, "start": 202.5, "duration": 1.5, "velocity": 93 },
                { "note": 51, "start": 202.5, "duration": 1.5, "velocity": 93 },
                { "note": 40, "start": 204, "duration": 0.5, "velocity": 105 },
                { "note": 52, "start": 205.5, "duration": 0.5, "velocity": 93 },
                { "note": 56, "start": 205.5, "duration": 0.5, "velocity": 107 },
                { "note": 40, "start": 206, "duration": 0.5, "velocity": 100 },
                { "note": 40, "start": 206.5, "duration": 0.5, "velocity": 100 },
                { "note": 40, "start": 207, "duration": 0.5, "velocity": 105 },
                { "note": 40, "start": 208.5, "duration": 1.5, "velocity": 92 },
                { "note": 44, "start": 208.5, "duration": 1.5, "velocity": 93 },
                { "note": 42, "start": 210, "duration": 0.5, "velocity": 106 },
                { "note": 54, "start": 211.5, "duration": 0.5, "velocity": 93 },
                { "note": 58, "start": 211.5, "duration": 0.5, "velocity": 107 },
                { "note": 42, "start": 212, "duration": 0.5, "velocity": 101 },
                { "note": 42, "start": 212.5, "duration": 0.5, "velocity": 101 },
                { "note": 42, "start": 213, "duration": 0.5, "velocity": 106 },
                { "note": 54, "start": 213.5, "duration": 0.5, "velocity": 93 },
                { "note": 58, "start": 213.5, "duration": 0.5, "velocity": 107 },
                { "note": 42, "start": 214, "duration": 0.5, "velocity": 101 },
                { "note": 54, "start": 214.5, "duration": 0.5, "velocity": 93 },
                { "note": 58, "start": 214.5, "duration": 0.5, "velocity": 103 },
                { "note": 54, "start": 215.5, "duration": 0.5, "velocity": 93 },
                { "note": 58, "start": 215.5, "duration": 0.5, "velocity": 103 },
                { "note": 44, "start": 216, "duration": 0.5, "velocity": 106 },
                { "note": 56, "start": 217.5, "duration": 0.5, "velocity": 93 },
                { "note": 59, "start": 217.5, "duration": 0.5, "velocity": 107 },
                { "note": 44, "start": 218, "duration": 0.5, "velocity": 101 },
                { "note": 44, "start": 218.5, "duration": 0.5, "velocity": 101 },
                { "note": 44, "start": 219, "duration": 0.5, "velocity": 106 },
                { "note": 44, "start": 220.5, "duration": 1.5, "velocity": 93 },
                { "note": 47, "start": 220.5, "duration": 1.5, "velocity": 93 },
                { "note": 42, "start": 222, "duration": 0.5, "velocity": 106 },
                { "note": 54, "start": 223.5, "duration": 0.5, "velocity": 93 },
                { "note": 58, "start": 223.5, "duration": 0.5, "velocity": 107 },
                { "note": 42, "start": 224, "duration": 0.5, "velocity": 101 },
                { "note": 42, "start": 224.5, "duration": 0.5, "velocity": 101 },
                { "note": 42, "start": 225, "duration": 0.5, "velocity": 106 },
                { "note": 42, "start": 226.5, "duration": 1.5, "velocity": 93 },
                { "note": 46, "start": 226.5, "duration": 1.5, "velocity": 93 },
                { "note": 40, "start": 228, "duration": 0.5, "velocity": 105 },
                { "note": 52, "start": 229.5, "duration": 0.5, "velocity": 93 },
                { "note": 56, "start": 229.5, "duration": 0.5, "velocity": 107 },
                { "note": 40, "start": 230, "duration": 0.5, "velocity": 100 },
                { "note": 40, "start": 230.5, "duration": 0.5, "velocity": 100 },
                { "note": 40, "start": 231, "duration": 0.5, "velocity": 105 },
                { "note": 40, "start": 232.5, "duration": 1.5, "velocity": 92 },
                { "note": 44, "start": 232.5, "duration": 1.5, "velocity": 93 },
                { "note": 39, "start": 234, "duration": 0.5, "velocity": 105 },
                { "note": 56, "start": 235.5, "duration": 0.5, "velocity": 93 },
                { "note": 58, "start": 235.5, "duration": 0.5, "velocity": 107 },
                { "note": 39, "start": 236, "duration": 0.5, "velocity": 100 },
                { "note": 39, "start": 236.5, "duration": 0.5, "velocity": 100 },
                { "note": 39, "start": 237, "duration": 0.5, "velocity": 105 },
                { "note": 56, "start": 237.5, "duration": 0.5, "velocity": 93 },
                { "note": 58, "start": 237.5, "duration": 0.5, "velocity": 107 },
                { "note": 51, "start": 238, "duration": 0.5, "velocity": 101 },
                { "note": 55, "start": 238.5, "duration": 1, "velocity": 93 },
                { "note": 58, "start": 238.5, "duration": 1, "velocity": 103 },
                { "note": 55, "start": 239.5, "duration": 0.5, "velocity": 93 },
                { "note": 58, "start": 239.5, "duration": 0.5, "velocity": 103 },
                { "note": 40, "start": 240, "duration": 0.5, "velocity": 105 },
                { "note": 47, "start": 241.5, "duration": 1, "velocity": 93 },
                { "note": 52, "start": 241.5, "duration": 1, "velocity": 93 },
                { "note": 40, "start": 242.5, "duration": 0.5, "velocity": 100 },
                { "note": 42, "start": 243, "duration": 0.5, "velocity": 106 },
                { "note": 49, "start": 244.5, "duration": 1.5, "velocity": 93 },
                { "note": 54, "start": 244.5, "duration": 1.5, "velocity": 93 },
                { "note": 40, "start": 246, "duration": 0.5, "velocity": 105 },
                { "note": 47, "start": 247.5, "duration": 1, "velocity": 93 },
                { "note": 52, "start": 247.5, "duration": 1, "velocity": 93 },
                { "note": 40, "start": 248.5, "duration": 0.5, "velocity": 100 },
                { "note": 44, "start": 249, "duration": 0.5, "velocity": 106 },
                { "note": 51, "start": 249.5, "duration": 0.5, "velocity": 93 },
                { "note": 56, "start": 249.5, "duration": 0.5, "velocity": 107 },
                { "note": 49, "start": 250, "duration": 0.5, "velocity": 93 },
                { "note": 54, "start": 250, "duration": 0.5, "velocity": 107 },
                { "note": 51, "start": 250.5, "duration": 1.5, "velocity": 93 },
                { "note": 56, "start": 250.5, "duration": 1.5, "velocity": 93 },
                { "note": 40, "start": 252, "duration": 0.5, "velocity": 105 },
                { "note": 47, "start": 253.5, "duration": 1, "velocity": 93 },
                { "note": 52, "start": 253.5, "duration": 1, "velocity": 93 },
                { "note": 40, "start": 254.5, "duration": 0.5, "velocity": 100 },
                { "note": 42, "start": 255, "duration": 0.5, "velocity": 106 },
                { "note": 49, "start": 256.5, "duration": 1.5, "velocity": 93 },
                { "note": 54, "start": 256.5, "duration": 1.5, "velocity": 93 },
                { "note": 49, "start": 258, "duration": 0.5, "velocity": 80 },
                { "note": 53, "start": 258.5, "duration": 0.5, "velocity": 68 },
                { "note": 56, "start": 258.5, "duration": 0.5, "velocity": 78 },
                { "note": 53, "start": 259, "duration": 0.5, "velocity": 71 },
                { "note": 56, "start": 259, "duration": 0.5, "velocity": 81 },
                { "note": 49, "start": 259.5, "duration": 0.5, "velocity": 84 },
                { "note": 53, "start": 259.5, "duration": 0.5, "velocity": 73 },
                { "note": 53, "start": 260, "duration": 0.5, "velocity": 76 },
                { "note": 56, "start": 260, "duration": 0.5, "velocity": 86 },
                { "note": 53, "start": 260.5, "duration": 0.5, "velocity": 78 },
                { "note": 56, "start": 260.5, "duration": 0.5, "velocity": 88 },
                { "note": 51, "start": 261, "duration": 0.5, "velocity": 89 },
                { "note": 55, "start": 261.5, "duration": 0.5, "velocity": 83 },
                { "note": 58, "start": 261.5, "duration": 0.5, "velocity": 93 },
                { "note": 55, "start": 262, "duration": 0.5, "velocity": 86 },
                { "note": 58, "start": 262, "duration": 0.5, "velocity": 96 },
                { "note": 51, "start": 262.5, "duration": 0.5, "velocity": 99 },
                { "note": 55, "start": 262.5, "duration": 0.5, "velocity": 88 },
                { "note": 55, "start": 263, "duration": 0.5, "velocity": 91 },
                { "note": 58, "start": 263, "duration": 0.5, "velocity": 101 },
                { "note": 55, "start": 263.5, "duration": 0.5, "velocity": 93 },
                { "note": 58, "start": 263.5, "duration": 0.5, "velocity": 103 },
                { "note": 40, "start": 264, "duration": 0.5, "velocity": 120 },
                { "note": 47, "start": 265.5, "duration": 1, "velocity": 80 },
                { "note": 52, "start": 265.5, "duration": 1, "velocity": 80 },
                { "note": 40, "start": 266.5, "duration": 0.5, "velocity": 87 },
                { "note": 42, "start": 267, "duration": 0.5, "velocity": 93 },
                { "note": 49, "start": 268.5, "duration": 1.5, "velocity": 80 },
                { "note": 54, "start": 268.5, "duration": 1.5, "velocity": 80 },
                { "note": 40, "start": 270, "duration": 0.5, "velocity": 92 },
                { "note": 47, "start": 271.5, "duration": 1, "velocity": 80 },
                { "note": 52, "start": 271.5, "duration": 1, "velocity": 80 },
                { "note": 40, "start": 272.5, "duration": 0.5, "velocity": 87 },
                { "note": 44, "start": 273, "duration": 0.5, "velocity": 93 },
                { "note": 51, "start": 273.5, "duration": 0.5, "velocity": 80 },
                { "note": 56, "start": 273.5, "duration": 0.5, "velocity": 94 },
                { "note": 49, "start": 274, "duration": 0.5, "velocity": 80 },
                { "note": 54, "start": 274, "duration": 0.5, "velocity": 94 },
                { "note": 51, "start": 274.5, "duration": 1.5, "velocity": 80 },
                { "note": 56, "start": 274.5, "duration": 1.5, "velocity": 80 },
                { "note": 40, "start": 276, "duration": 0.5, "velocity": 92 },
                { "note": 47, "start": 277.5, "duration": 1, "velocity": 80 },
                { "note": 52, "start": 277.5, "duration": 1, "velocity": 80 },
                { "note": 40, "start": 278.5, "duration": 0.5, "velocity": 87 },
                { "note": 42, "start": 279, "duration": 0.5, "velocity": 93 },
                { "note": 49, "start": 280.5, "duration": 1.5, "velocity": 80 },
                { "note": 54, "start": 280.5, "duration": 1.5, "velocity": 80 },
                { "note": 44, "start": 282, "duration": 0.5, "velocity": 93 },
                { "note": 44, "start": 283.5, "duration": 0.5, "velocity": 80 },
                { "note": 56, "start": 283.5, "duration": 0.5, "velocity": 90 },
                { "note": 44, "start": 284, "duration": 0.5, "velocity": 80 },
                { "note": 56, "start": 284, "duration": 0.5, "velocity": 90 },
                { "note": 44, "start": 284.5, "duration": 0.5, "velocity": 80 },
                { "note": 56, "start": 284.5, "duration": 0.5, "velocity": 90 },
                { "note": 44, "start": 285, "duration": 0.5, "velocity": 107 },
                { "note": 51, "start": 285, "duration": 0.5, "velocity": 118 }
            ]
        },
        {
            "id": "left-standard",
            "name": "Acompanhamento",
            "hand": "left",
            "difficulty": "intermediate",
            "notes": [
                { "note": 44, "start": 0, "duration": 0.25, "velocity": 85 },
                { "note": 51, "start": 0, "duration": 0.25, "velocity": 85 },
                { "note": 56, "start": 0, "duration": 0.25, "velocity": 99 },
                { "note": 44, "start": 1.5, "duration": 0.25, "velocity": 80 },
                { "note": 51, "start": 1.5, "duration": 0.25, "velocity": 80 },
                { "note": 56, "start": 1.5, "duration": 0.25, "velocity": 90 },
                { "note": 44, "start": 3, "duration": 0.25, "velocity": 85 },
                { "note": 51, "start": 3, "duration": 0.25, "velocity": 85 },
                { "note": 56, "start": 3, "duration": 0.25, "velocity": 95 },
                { "note": 44, "start": 4.5, "duration": 1.5, "velocity": 80 },
                { "note": 51, "start": 4.5, "duration": 1.5, "velocity": 80 },
                { "note": 56, "start": 4.5, "duration": 1.5, "velocity": 94 },
                { "note": 42, "start": 6, "duration": 0.25, "velocity": 85 },
                { "note": 49, "start": 6, "duration": 0.25, "velocity": 85 },
                { "note": 54, "start": 6, "duration": 0.25, "velocity": 99 },
                { "note": 42, "start": 7.5, "duration": 0.25, "velocity": 80 },
                { "note": 49, "start": 7.5, "duration": 0.25, "velocity": 80 },
                { "note": 54, "start": 7.5, "duration": 0.25, "velocity": 90 },
                { "note": 42, "start": 9, "duration": 0.25, "velocity": 85 },
                { "note": 49, "start": 9, "duration": 0.25, "velocity": 85 },
                { "note": 54, "start": 9, "duration": 0.25, "velocity": 95 },
                { "note": 42, "start": 10.5, "duration": 1.5, "velocity": 80 },
                { "note": 49, "start": 10.5, "duration": 1.5, "velocity": 80 },
                { "note": 54, "start": 10.5, "duration": 1.5, "velocity": 94 },
                { "note": 40, "start": 12, "duration": 0.25, "velocity": 84 },
                { "note": 47, "start": 12, "duration": 0.25, "velocity": 85 },
                { "note": 52, "start": 12, "duration": 0.25, "velocity": 99 },
                { "note": 40, "start": 13.5, "duration": 0.25, "velocity": 79 },
                { "note": 47, "start": 13.5, "duration": 0.25, "velocity": 80 },
                { "note": 52, "start": 13.5, "duration": 0.25, "velocity": 90 },
                { "note": 40, "start": 15, "duration": 0.25, "velocity": 84 },
                { "note": 47, "start": 15, "duration": 0.25, "velocity": 85 },
                { "note": 52, "start": 15, "duration": 0.25, "velocity": 95 },
                { "note": 40, "start": 16.5, "duration": 1.5, "velocity": 79 },
                { "note": 47, "start": 16.5, "duration": 1.5, "velocity": 80 },
                { "note": 52, "start": 16.5, "duration": 1.5, "velocity": 94 },
                { "note": 42, "start": 18, "duration": 0.25, "velocity": 85 },
                { "note": 49, "start": 18, "duration": 0.25, "velocity": 85 },
                { "note": 54, "start": 18, "duration": 0.25, "velocity": 99 },
                { "note": 42, "start": 19.5, "duration": 0.25, "velocity": 80 },
                { "note": 49, "start": 19.5, "duration": 0.25, "velocity": 80 },
                { "note": 54, "start": 19.5, "duration": 0.25, "velocity": 90 },
                { "note": 42, "start": 21, "duration": 0.25, "velocity": 85 },
                { "note": 49, "start": 21, "duration": 0.25, "velocity": 85 },
                { "note": 54, "start": 21, "duration": 0.25, "velocity": 99 },
                { "note": 42, "start": 22.5, "duration": 1.5, "velocity": 80 },
                { "note": 46, "start": 22.5, "duration": 1.5, "velocity": 80 },
                { "note": 49, "start": 22.5, "duration": 1.5, "velocity": 94 },
                { "note": 58, "start": 22.5, "duration": 1.5, "velocity": 80 },
                { "note": 44, "start": 24, "duration": 0.25, "velocity": 85 },
                { "note": 51, "start": 24, "duration": 0.25, "velocity": 85 },
                { "note": 56, "start": 24, "duration": 0.25, "velocity": 99 },
                { "note": 44, "start": 25.5, "duration": 0.25, "velocity": 80 },
                { "note": 51, "start": 25.5, "duration": 0.25, "velocity": 80 },
                { "note": 56, "start": 25.5, "duration": 0.25, "velocity": 90 },
                { "note": 44, "start": 27, "duration": 0.25, "velocity": 85 },
                { "note": 51, "start": 27, "duration": 0.25, "velocity": 85 },
                { "note": 56, "start": 27, "duration": 0.25, "velocity": 95 },
                { "note": 44, "start": 28.5, "duration": 1.5, "velocity": 80 },
                { "note": 51, "start": 28.5, "duration": 1.5, "velocity": 80 },
                { "note": 56, "start": 28.5, "duration": 1.5, "velocity": 94 },
                { "note": 42, "start": 30, "duration": 0.25, "velocity": 85 },
                { "note": 49, "start": 30, "duration": 0.25, "velocity": 85 },
                { "note": 54, "start": 30, "duration": 0.25, "velocity": 99 },
                { "note": 42, "start": 31.5, "duration": 0.25, "velocity": 80 },
                { "note": 49, "start": 31.5, "duration": 0.25, "velocity": 80 },
                { "note": 54, "start": 31.5, "duration": 0.25, "velocity": 90 },
                { "note": 42, "start": 33, "duration": 0.25, "velocity": 85 },
                { "note": 49, "start": 33, "duration": 0.25, "velocity": 85 },
                { "note": 54, "start": 33, "duration": 0.25, "velocity": 95 },
                { "note": 42, "start": 34.5, "duration": 1.5, "velocity": 80 },
                { "note": 49, "start": 34.5, "duration": 1.5, "velocity": 80 },
                { "note": 54, "start": 34.5, "duration": 1.5, "velocity": 94 },
                { "note": 40, "start": 36, "duration": 0.25, "velocity": 84 },
                { "note": 47, "start": 36, "duration": 0.25, "velocity": 85 },
                { "note": 52, "start": 36, "duration": 0.25, "velocity": 99 },
                { "note": 40, "start": 37.5, "duration": 0.25, "velocity": 79 },
                { "note": 47, "start": 37.5, "duration": 0.25, "velocity": 80 },
                { "note": 52, "start": 37.5, "duration": 0.25, "velocity": 94 },
                { "note": 42, "start": 39, "duration": 0.25, "velocity": 85 },
                { "note": 49, "start": 39, "duration": 0.25, "velocity": 85 },
                { "note": 54, "start": 39, "duration": 0.25, "velocity": 99 },
                { "note": 42, "start": 40.5, "duration": 0.25, "velocity": 80 },
                { "note": 49, "start": 40.5, "duration": 0.25, "velocity": 80 },
                { "note": 54, "start": 40.5, "duration": 0.25, "velocity": 94 },
                { "note": 44, "start": 42, "duration": 0.25, "velocity": 98 },
                { "note": 56, "start": 42, "duration": 0.25, "velocity": 112 },
                { "note": 42, "start": 42.5, "duration": 0.25, "velocity": 93 },
                { "note": 54, "start": 42.5, "duration": 0.25, "velocity": 107 },
                { "note": 44, "start": 43, "duration": 0.25, "velocity": 93 },
                { "note": 56, "start": 43, "duration": 0.25, "velocity": 107 },
                { "note": 44, "start": 43.5, "duration": 0.25, "velocity": 93 },
                { "note": 56, "start": 43.5, "duration": 0.25, "velocity": 107 },
                { "note": 42, "start": 44, "duration": 0.25, "velocity": 93 },
                { "note": 54, "start": 44, "duration": 0.25, "velocity": 107 },
                { "note": 44, "start": 44.5, "duration": 0.25, "velocity": 93 },
                { "note": 56, "start": 44.5, "duration": 0.25, "velocity": 107 },
                { "note": 44, "start": 45, "duration": 0.25, "velocity": 123 },
                { "note": 56, "start": 45, "duration": 0.25, "velocity": 127 },
                { "note": 44, "start": 48, "duration": 0.25, "velocity": 106 },
                { "note": 56, "start": 49.5, "duration": 0.25, "velocity": 93 },
                { "note": 59, "start": 49.5, "duration": 0.25, "velocity": 107 },
                { "note": 44, "start": 50, "duration": 0.25, "velocity": 101 },
                { "note": 44, "start": 50.5, "duration": 0.25, "velocity": 101 },
                { "note": 44, "start": 51, "duration": 0.25, "velocity": 106 },
                { "note": 44, "start": 52.5, "duration": 1.5, "velocity": 93 },
                { "note": 47, "start": 52.5, "duration": 1.5, "velocity": 93 },
                { "note": 51, "start": 52.5, "duration": 1.5, "velocity": 93 },
                { "note": 56, "start": 52.5, "duration": 1.5, "velocity": 107 },
                { "note": 47, "start": 54, "duration": 0.25, "velocity": 106 },
                { "note": 59, "start": 55.5, "duration": 0.25, "velocity": 93 },
                { "note": 47, "start": 56, "duration": 0.25, "velocity": 101 },
                { "note": 47, "start": 56.5, "duration": 0.25, "velocity": 101 },
                { "note": 47, "start": 57, "duration": 0.25, "velocity": 106 },
                { "note": 47, "start": 58.5, "duration": 1.5, "velocity": 93 },
                { "note": 51, "start": 58.5, "duration": 1.5, "velocity": 93 },
                { "note": 54, "start": 58.5, "duration": 1.5, "velocity": 93 },
                { "note": 59, "start": 58.5, "duration": 1.5, "velocity": 107 },
                { "note": 40, "start": 60, "duration": 0.25, "velocity": 105 },
                { "note": 52, "start": 61.5, "duration": 0.25, "velocity": 93 },
                { "note": 56, "start": 61.5, "duration": 0.25, "velocity": 107 },
                { "note": 40, "start": 62, "duration": 0.25, "velocity": 100 },
                { "note": 40, "start": 62.5, "duration": 0.25, "velocity": 100 },
                { "note": 40, "start": 63, "duration": 0.25, "velocity": 105 },
                { "note": 40, "start": 64.5, "duration": 1.5, "velocity": 92 },
                { "note": 44, "start": 64.5, "duration": 1.5, "velocity": 93 },
                { "note": 47, "start": 64.5, "duration": 1.5, "velocity": 93 },
                { "note": 52, "start": 64.5, "duration": 1.5, "velocity": 107 },
                { "note": 42, "start": 66, "duration": 0.25, "velocity": 106 },
                { "note": 54, "start": 67.5, "duration": 0.25, "velocity": 93 },
                { "note": 58, "start": 67.5, "duration": 0.25, "velocity": 107 },
                { "note": 42, "start": 68, "duration": 0.25, "velocity": 101 },
                { "note": 42, "start": 68.5, "duration": 0.25, "velocity": 101 },
                { "note": 42, "start": 69, "duration": 0.25, "velocity": 106 },
                { "note": 54, "start": 69.5, "duration": 0.25, "velocity": 93 },
                { "note": 58, "start": 69.5, "duration": 0.25, "velocity": 107 },
                { "note": 42, "start": 70, "duration": 0.25, "velocity": 101 },
                { "note": 54, "start": 70.5, "duration": 0.5, "velocity": 93 },
                { "note": 58, "start": 70.5, "duration": 0.5, "velocity": 103 },
                { "note": 54, "start": 71.5, "duration": 0.25, "velocity": 93 },
                { "note": 58, "start": 71.5, "duration": 0.25, "velocity": 103 },
                { "note": 44, "start": 72, "duration": 0.25, "velocity": 106 },
                { "note": 56, "start": 73.5, "duration": 0.25, "velocity": 93 },
                { "note": 59, "start": 73.5, "duration": 0.25, "velocity": 107 },
                { "note": 44, "start": 74, "duration": 0.25, "velocity": 101 },
                { "note": 44, "start": 74.5, "duration": 0.25, "velocity": 101 },
                { "note": 44, "start": 75, "duration": 0.25, "velocity": 106 },
                { "note": 44, "start": 76.5, "duration": 1.5, "velocity": 93 },
                { "note": 47, "start": 76.5, "duration": 1.5, "velocity": 93 },
                { "note": 51, "start": 76.5, "duration": 1.5, "velocity": 93 },
                { "note": 56, "start": 76.5, "duration": 1.5, "velocity": 107 },
                { "note": 42, "start": 78, "duration": 0.25, "velocity": 106 },
                { "note": 54, "start": 79.5, "duration": 0.25, "velocity": 93 },
                { "note": 58, "start": 79.5, "duration": 0.25, "velocity": 107 },
                { "note": 42, "start": 80, "duration": 0.25, "velocity": 101 },
                { "note": 42, "start": 80.5, "duration": 0.25, "velocity": 101 },
                { "note": 42, "start": 81, "duration": 0.25, "velocity": 106 },
                { "note": 42, "start": 82.5, "duration": 1.5, "velocity": 93 },
                { "note": 46, "start": 82.5, "duration": 1.5, "velocity": 93 },
                { "note": 49, "start": 82.5, "duration": 1.5, "velocity": 93 },
                { "note": 54, "start": 82.5, "duration": 1.5, "velocity": 107 },
                { "note": 40, "start": 84, "duration": 0.25, "velocity": 105 },
                { "note": 52, "start": 85.5, "duration": 0.25, "velocity": 93 },
                { "note": 56, "start": 85.5, "duration": 0.25, "velocity": 107 },
                { "note": 40, "start": 86, "duration": 0.25, "velocity": 100 },
                { "note": 40, "start": 86.5, "duration": 0.25, "velocity": 100 },
                { "note": 40, "start": 87, "duration": 0.25, "velocity": 105 },
                { "note": 40, "start": 88.5, "duration": 1.5, "velocity": 92 },
                { "note": 44, "start": 88.5, "duration": 1.5, "velocity": 93 },
                { "note": 47, "start": 88.5, "duration": 1.5, "velocity": 93 },
                { "note": 52, "start": 88.5, "duration": 1.5, "velocity": 107 },
                { "note": 39, "start": 90, "duration": 0.25, "velocity": 105 },
                { "note": 56, "start": 91.5, "duration": 0.25, "velocity": 93 },
                { "note": 58, "start": 91.5, "duration": 0.25, "velocity": 107 },
                { "note": 39, "start": 92, "duration": 0.25, "velocity": 100 },
                { "note": 39, "start": 92.5, "duration": 0.25, "velocity": 100 },
                { "note": 39, "start": 93, "duration": 0.25, "velocity": 105 },
                { "note": 56, "start": 93.5, "duration": 0.25, "velocity": 93 },
                { "note": 58, "start": 93.5, "duration": 0.25, "velocity": 107 },
                { "note": 51, "start": 94, "duration": 0.25, "velocity": 101 },
                { "note": 55, "start": 94.5, "duration": 1, "velocity": 93 },
                { "note": 58, "start": 94.5, "duration": 1, "velocity": 103 },
                { "note": 55, "start": 95.5, "duration": 0.25, "velocity": 93 },
                { "note": 58, "start": 95.5, "duration": 0.25, "velocity": 103 },
                { "note": 40, "start": 96, "duration": 0.25, "velocity": 105 },
                { "note": 47, "start": 97.5, "duration": 1, "velocity": 93 },
                { "note": 52, "start": 97.5, "duration": 1, "velocity": 93 },
                { "note": 56, "start": 97.5, "duration": 1, "velocity": 107 },
                { "note": 40, "start": 98.5, "duration": 0.25, "velocity": 100 },
                { "note": 42, "start": 99, "duration": 0.25, "velocity": 106 },
                { "note": 49, "start": 100.5, "duration": 1.5, "velocity": 93 },
                { "note": 54, "start": 100.5, "duration": 1.5, "velocity": 93 },
                { "note": 58, "start": 100.5, "duration": 1.5, "velocity": 107 },
                { "note": 40, "start": 102, "duration": 0.25, "velocity": 105 },
                { "note": 47, "start": 103.5, "duration": 1, "velocity": 93 },
                { "note": 52, "start": 103.5, "duration": 1, "velocity": 93 },
                { "note": 56, "start": 103.5, "duration": 1, "velocity": 107 },
                { "note": 40, "start": 104.5, "duration": 0.25, "velocity": 100 },
                { "note": 44, "start": 105, "duration": 0.25, "velocity": 106 },
                { "note": 51, "start": 105.5, "duration": 0.5, "velocity": 93 },
                { "note": 56, "start": 105.5, "duration": 0.5, "velocity": 107 },
                { "note": 49, "start": 106, "duration": 0.5, "velocity": 93 },
                { "note": 54, "start": 106, "duration": 0.5, "velocity": 107 },
                { "note": 51, "start": 106.5, "duration": 1.5, "velocity": 93 },
                { "note": 56, "start": 106.5, "duration": 1.5, "velocity": 93 },
                { "note": 59, "start": 106.5, "duration": 1.5, "velocity": 107 },
                { "note": 40, "start": 108, "duration": 0.25, "velocity": 105 },
                { "note": 47, "start": 109.5, "duration": 1, "velocity": 93 },
                { "note": 52, "start": 109.5, "duration": 1, "velocity": 93 },
                { "note": 56, "start": 109.5, "duration": 1, "velocity": 107 },
                { "note": 40, "start": 110.5, "duration": 0.25, "velocity": 100 },
                { "note": 42, "start": 111, "duration": 0.25, "velocity": 106 },
                { "note": 49, "start": 112.5, "duration": 1.5, "velocity": 93 },
                { "note": 54, "start": 112.5, "duration": 1.5, "velocity": 93 },
                { "note": 58, "start": 112.5, "duration": 1.5, "velocity": 107 },
                { "note": 49, "start": 114, "duration": 0.25, "velocity": 80 },
                { "note": 53, "start": 114.5, "duration": 0.25, "velocity": 68 },
                { "note": 56, "start": 114.5, "duration": 0.25, "velocity": 78 },
                { "note": 53, "start": 115, "duration": 0.25, "velocity": 71 },
                { "note": 56, "start": 115, "duration": 0.25, "velocity": 81 },
                { "note": 49, "start": 115.5, "duration": 0.25, "velocity": 84 },
                { "note": 53, "start": 115.5, "duration": 0.25, "velocity": 73 },
                { "note": 56, "start": 115.5, "duration": 0.25, "velocity": 79 },
                { "note": 53, "start": 116, "duration": 0.25, "velocity": 76 },
                { "note": 56, "start": 116, "duration": 0.25, "velocity": 86 },
                { "note": 53, "start": 116.5, "duration": 0.25, "velocity": 78 },
                { "note": 56, "start": 116.5, "duration": 0.25, "velocity": 88 },
                { "note": 51, "start": 117, "duration": 0.25, "velocity": 89 },
                { "note": 55, "start": 117.5, "duration": 0.25, "velocity": 83 },
                { "note": 58, "start": 117.5, "duration": 0.25, "velocity": 93 },
                { "note": 55, "start": 118, "duration": 0.25, "velocity": 86 },
                { "note": 58, "start": 118, "duration": 0.25, "velocity": 96 },
                { "note": 51, "start": 118.5, "duration": 0.25, "velocity": 99 },
                { "note": 55, "start": 118.5, "duration": 0.25, "velocity": 88 },
                { "note": 58, "start": 118.5, "duration": 0.25, "velocity": 94 },
                { "note": 55, "start": 119, "duration": 0.25, "velocity": 91 },
                { "note": 58, "start": 119, "duration": 0.25, "velocity": 101 },
                { "note": 55, "start": 119.5, "duration": 0.25, "velocity": 93 },
                { "note": 58, "start": 119.5, "duration": 0.25, "velocity": 103 },
                { "note": 40, "start": 120, "duration": 0.25, "velocity": 120 },
                { "note": 47, "start": 121.5, "duration": 1, "velocity": 80 },
                { "note": 52, "start": 121.5, "duration": 1, "velocity": 80 },
                { "note": 56, "start": 121.5, "duration": 1, "velocity": 94 },
                { "note": 40, "start": 122.5, "duration": 0.25, "velocity": 87 },
                { "note": 42, "start": 123, "duration": 0.25, "velocity": 93 },
                { "note": 49, "start": 124.5, "duration": 1.5, "velocity": 80 },
                { "note": 54, "start": 124.5, "duration": 1.5, "velocity": 80 },
                { "note": 58, "start": 124.5, "duration": 1.5, "velocity": 94 },
                { "note": 40, "start": 126, "duration": 0.25, "velocity": 92 },
                { "note": 47, "start": 127.5, "duration": 1, "velocity": 80 },
                { "note": 52, "start": 127.5, "duration": 1, "velocity": 80 },
                { "note": 56, "start": 127.5, "duration": 1, "velocity": 94 },
                { "note": 40, "start": 128.5, "duration": 0.25, "velocity": 87 },
                { "note": 44, "start": 129, "duration": 0.25, "velocity": 93 },
                { "note": 51, "start": 129.5, "duration": 0.5, "velocity": 80 },
                { "note": 56, "start": 129.5, "duration": 0.5, "velocity": 94 },
                { "note": 49, "start": 130, "duration": 0.5, "velocity": 80 },
                { "note": 54, "start": 130, "duration": 0.5, "velocity": 94 },
                { "note": 51, "start": 130.5, "duration": 1.5, "velocity": 80 },
                { "note": 56, "start": 130.5, "duration": 1.5, "velocity": 80 },
                { "note": 59, "start": 130.5, "duration": 1.5, "velocity": 94 },
                { "note": 40, "start": 132, "duration": 0.25, "velocity": 92 },
                { "note": 47, "start": 133.5, "duration": 1, "velocity": 80 },
                { "note": 52, "start": 133.5, "duration": 1, "velocity": 80 },
                { "note": 56, "start": 133.5, "duration": 1, "velocity": 94 },
                { "note": 40, "start": 134.5, "duration": 0.25, "velocity": 87 },
                { "note": 42, "start": 135, "duration": 0.25, "velocity": 93 },
                { "note": 49, "start": 136.5, "duration": 1.5, "velocity": 80 },
                { "note": 54, "start": 136.5, "duration": 1.5, "velocity": 80 },
                { "note": 58, "start": 136.5, "duration": 1.5, "velocity": 94 },
                { "note": 44, "start": 138, "duration": 0.25, "velocity": 93 },
                { "note": 44, "start": 139.5, "duration": 0.25, "velocity": 80 },
                { "note": 56, "start": 139.5, "duration": 0.25, "velocity": 90 },
                { "note": 44, "start": 140, "duration": 0.25, "velocity": 80 },
                { "note": 56, "start": 140, "duration": 0.25, "velocity": 90 },
                { "note": 44, "start": 140.5, "duration": 0.25, "velocity": 80 },
                { "note": 56, "start": 140.5, "duration": 0.25, "velocity": 90 },
                { "note": 44, "start": 141, "duration": 0.25, "velocity": 107 },
                { "note": 51, "start": 141, "duration": 0.25, "velocity": 118 },
                { "note": 56, "start": 141, "duration": 0.25, "velocity": 113 },
                { "note": 44, "start": 144, "duration": 0.25, "velocity": 85 },
                { "note": 51, "start": 144, "duration": 0.25, "velocity": 85 },
                { "note": 56, "start": 144, "duration": 0.25, "velocity": 99 },
                { "note": 44, "start": 145.5, "duration": 0.25, "velocity": 80 },
                { "note": 51, "start": 145.5, "duration": 0.25, "velocity": 80 },
                { "note": 56, "start": 145.5, "duration": 0.25, "velocity": 90 },
                { "note": 44, "start": 147, "duration": 0.25, "velocity": 85 },
                { "note": 51, "start": 147, "duration": 0.25, "velocity": 85 },
                { "note": 56, "start": 147, "duration": 0.25, "velocity": 95 },
                { "note": 44, "start": 148.5, "duration": 1.5, "velocity": 80 },
                { "note": 51, "start": 148.5, "duration": 1.5, "velocity": 80 },
                { "note": 56, "start": 148.5, "duration": 1.5, "velocity": 94 },
                { "note": 42, "start": 150, "duration": 0.25, "velocity": 85 },
                { "note": 49, "start": 150, "duration": 0.25, "velocity": 85 },
                { "note": 54, "start": 150, "duration": 0.25, "velocity": 99 },
                { "note": 42, "start": 151.5, "duration": 0.25, "velocity": 80 },
                { "note": 49, "start": 151.5, "duration": 0.25, "velocity": 80 },
                { "note": 54, "start": 151.5, "duration": 0.25, "velocity": 90 },
                { "note": 42, "start": 153, "duration": 0.25, "velocity": 85 },
                { "note": 49, "start": 153, "duration": 0.25, "velocity": 85 },
                { "note": 54, "start": 153, "duration": 0.25, "velocity": 95 },
                { "note": 42, "start": 154.5, "duration": 1.5, "velocity": 80 },
                { "note": 49, "start": 154.5, "duration": 1.5, "velocity": 80 },
                { "note": 54, "start": 154.5, "duration": 1.5, "velocity": 94 },
                { "note": 40, "start": 156, "duration": 0.25, "velocity": 84 },
                { "note": 47, "start": 156, "duration": 0.25, "velocity": 85 },
                { "note": 52, "start": 156, "duration": 0.25, "velocity": 99 },
                { "note": 40, "start": 157.5, "duration": 0.25, "velocity": 79 },
                { "note": 47, "start": 157.5, "duration": 0.25, "velocity": 80 },
                { "note": 52, "start": 157.5, "duration": 0.25, "velocity": 90 },
                { "note": 40, "start": 159, "duration": 0.25, "velocity": 84 },
                { "note": 47, "start": 159, "duration": 0.25, "velocity": 85 },
                { "note": 52, "start": 159, "duration": 0.25, "velocity": 95 },
                { "note": 40, "start": 160.5, "duration": 1.5, "velocity": 79 },
                { "note": 47, "start": 160.5, "duration": 1.5, "velocity": 80 },
                { "note": 52, "start": 160.5, "duration": 1.5, "velocity": 94 },
                { "note": 42, "start": 162, "duration": 0.25, "velocity": 85 },
                { "note": 49, "start": 162, "duration": 0.25, "velocity": 85 },
                { "note": 54, "start": 162, "duration": 0.25, "velocity": 99 },
                { "note": 42, "start": 163.5, "duration": 0.25, "velocity": 80 },
                { "note": 49, "start": 163.5, "duration": 0.25, "velocity": 80 },
                { "note": 54, "start": 163.5, "duration": 0.25, "velocity": 90 },
                { "note": 42, "start": 165, "duration": 0.25, "velocity": 85 },
                { "note": 49, "start": 165, "duration": 0.25, "velocity": 85 },
                { "note": 54, "start": 165, "duration": 0.25, "velocity": 99 },
                { "note": 42, "start": 166.5, "duration": 1.5, "velocity": 80 },
                { "note": 46, "start": 166.5, "duration": 1.5, "velocity": 80 },
                { "note": 49, "start": 166.5, "duration": 1.5, "velocity": 94 },
                { "note": 58, "start": 166.5, "duration": 1.5, "velocity": 80 },
                { "note": 44, "start": 168, "duration": 0.25, "velocity": 85 },
                { "note": 51, "start": 168, "duration": 0.25, "velocity": 85 },
                { "note": 56, "start": 168, "duration": 0.25, "velocity": 99 },
                { "note": 44, "start": 169.5, "duration": 0.25, "velocity": 80 },
                { "note": 51, "start": 169.5, "duration": 0.25, "velocity": 80 },
                { "note": 56, "start": 169.5, "duration": 0.25, "velocity": 90 },
                { "note": 44, "start": 171, "duration": 0.25, "velocity": 85 },
                { "note": 51, "start": 171, "duration": 0.25, "velocity": 85 },
                { "note": 56, "start": 171, "duration": 0.25, "velocity": 95 },
                { "note": 44, "start": 172.5, "duration": 1.5, "velocity": 80 },
                { "note": 51, "start": 172.5, "duration": 1.5, "velocity": 80 },
                { "note": 56, "start": 172.5, "duration": 1.5, "velocity": 94 },
                { "note": 42, "start": 174, "duration": 0.25, "velocity": 85 },
                { "note": 49, "start": 174, "duration": 0.25, "velocity": 85 },
                { "note": 54, "start": 174, "duration": 0.25, "velocity": 99 },
                { "note": 42, "start": 175.5, "duration": 0.25, "velocity": 80 },
                { "note": 49, "start": 175.5, "duration": 0.25, "velocity": 80 },
                { "note": 54, "start": 175.5, "duration": 0.25, "velocity": 90 },
                { "note": 42, "start": 177, "duration": 0.25, "velocity": 85 },
                { "note": 49, "start": 177, "duration": 0.25, "velocity": 85 },
                { "note": 54, "start": 177, "duration": 0.25, "velocity": 95 },
                { "note": 42, "start": 178.5, "duration": 1.5, "velocity": 80 },
                { "note": 49, "start": 178.5, "duration": 1.5, "velocity": 80 },
                { "note": 54, "start": 178.5, "duration": 1.5, "velocity": 94 },
                { "note": 40, "start": 180, "duration": 0.25, "velocity": 84 },
                { "note": 47, "start": 180, "duration": 0.25, "velocity": 85 },
                { "note": 52, "start": 180, "duration": 0.25, "velocity": 99 },
                { "note": 40, "start": 181.5, "duration": 0.25, "velocity": 79 },
                { "note": 47, "start": 181.5, "duration": 0.25, "velocity": 80 },
                { "note": 52, "start": 181.5, "duration": 0.25, "velocity": 94 },
                { "note": 42, "start": 183, "duration": 0.25, "velocity": 85 },
                { "note": 49, "start": 183, "duration": 0.25, "velocity": 85 },
                { "note": 54, "start": 183, "duration": 0.25, "velocity": 99 },
                { "note": 42, "start": 184.5, "duration": 0.25, "velocity": 80 },
                { "note": 49, "start": 184.5, "duration": 0.25, "velocity": 80 },
                { "note": 54, "start": 184.5, "duration": 0.25, "velocity": 94 },
                { "note": 44, "start": 186, "duration": 0.25, "velocity": 98 },
                { "note": 56, "start": 186, "duration": 0.25, "velocity": 112 },
                { "note": 42, "start": 186.5, "duration": 0.25, "velocity": 93 },
                { "note": 54, "start": 186.5, "duration": 0.25, "velocity": 107 },
                { "note": 44, "start": 187, "duration": 0.25, "velocity": 93 },
                { "note": 56, "start": 187, "duration": 0.25, "velocity": 107 },
                { "note": 44, "start": 187.5, "duration": 0.25, "velocity": 93 },
                { "note": 56, "start": 187.5, "duration": 0.25, "velocity": 107 },
                { "note": 42, "start": 188, "duration": 0.25, "velocity": 93 },
                { "note": 54, "start": 188, "duration": 0.25, "velocity": 107 },
                { "note": 44, "start": 188.5, "duration": 0.25, "velocity": 93 },
                { "note": 56, "start": 188.5, "duration": 0.25, "velocity": 107 },
                { "note": 44, "start": 189, "duration": 0.25, "velocity": 123 },
                { "note": 56, "start": 189, "duration": 0.25, "velocity": 127 },
                { "note": 44, "start": 192, "duration": 0.25, "velocity": 106 },
                { "note": 56, "start": 193.5, "duration": 0.25, "velocity": 93 },
                { "note": 59, "start": 193.5, "duration": 0.25, "velocity": 107 },
                { "note": 44, "start": 194, "duration": 0.25, "velocity": 101 },
                { "note": 44, "start": 194.5, "duration": 0.25, "velocity": 101 },
                { "note": 44, "start": 195, "duration": 0.25, "velocity": 106 },
                { "note": 44, "start": 196.5, "duration": 1.5, "velocity": 93 },
                { "note": 47, "start": 196.5, "duration": 1.5, "velocity": 93 },
                { "note": 51, "start": 196.5, "duration": 1.5, "velocity": 93 },
                { "note": 56, "start": 196.5, "duration": 1.5, "velocity": 107 },
                { "note": 47, "start": 198, "duration": 0.25, "velocity": 106 },
                { "note": 59, "start": 199.5, "duration": 0.25, "velocity": 93 },
                { "note": 47, "start": 200, "duration": 0.25, "velocity": 101 },
                { "note": 47, "start": 200.5, "duration": 0.25, "velocity": 101 },
                { "note": 47, "start": 201, "duration": 0.25, "velocity": 106 },
                { "note": 47, "start": 202.5, "duration": 1.5, "velocity": 93 },
                { "note": 51, "start": 202.5, "duration": 1.5, "velocity": 93 },
                { "note": 54, "start": 202.5, "duration": 1.5, "velocity": 93 },
                { "note": 59, "start": 202.5, "duration": 1.5, "velocity": 107 },
                { "note": 40, "start": 204, "duration": 0.25, "velocity": 105 },
                { "note": 52, "start": 205.5, "duration": 0.25, "velocity": 93 },
                { "note": 56, "start": 205.5, "duration": 0.25, "velocity": 107 },
                { "note": 40, "start": 206, "duration": 0.25, "velocity": 100 },
                { "note": 40, "start": 206.5, "duration": 0.25, "velocity": 100 },
                { "note": 40, "start": 207, "duration": 0.25, "velocity": 105 },
                { "note": 40, "start": 208.5, "duration": 1.5, "velocity": 92 },
                { "note": 44, "start": 208.5, "duration": 1.5, "velocity": 93 },
                { "note": 47, "start": 208.5, "duration": 1.5, "velocity": 93 },
                { "note": 52, "start": 208.5, "duration": 1.5, "velocity": 107 },
                { "note": 42, "start": 210, "duration": 0.25, "velocity": 106 },
                { "note": 54, "start": 211.5, "duration": 0.25, "velocity": 93 },
                { "note": 58, "start": 211.5, "duration": 0.25, "velocity": 107 },
                { "note": 42, "start": 212, "duration": 0.25, "velocity": 101 },
                { "note": 42, "start": 212.5, "duration": 0.25, "velocity": 101 },
                { "note": 42, "start": 213, "duration": 0.25, "velocity": 106 },
                { "note": 54, "start": 213.5, "duration": 0.25, "velocity": 93 },
                { "note": 58, "start": 213.5, "duration": 0.25, "velocity": 107 },
                { "note": 42, "start": 214, "duration": 0.25, "velocity": 101 },
                { "note": 54, "start": 214.5, "duration": 0.5, "velocity": 93 },
                { "note": 58, "start": 214.5, "duration": 0.5, "velocity": 103 },
                { "note": 54, "start": 215.5, "duration": 0.25, "velocity": 93 },
                { "note": 58, "start": 215.5, "duration": 0.25, "velocity": 103 },
                { "note": 44, "start": 216, "duration": 0.25, "velocity": 106 },
                { "note": 56, "start": 217.5, "duration": 0.25, "velocity": 93 },
                { "note": 59, "start": 217.5, "duration": 0.25, "velocity": 107 },
                { "note": 44, "start": 218, "duration": 0.25, "velocity": 101 },
                { "note": 44, "start": 218.5, "duration": 0.25, "velocity": 101 },
                { "note": 44, "start": 219, "duration": 0.25, "velocity": 106 },
                { "note": 44, "start": 220.5, "duration": 1.5, "velocity": 93 },
                { "note": 47, "start": 220.5, "duration": 1.5, "velocity": 93 },
                { "note": 51, "start": 220.5, "duration": 1.5, "velocity": 93 },
                { "note": 56, "start": 220.5, "duration": 1.5, "velocity": 107 },
                { "note": 42, "start": 222, "duration": 0.25, "velocity": 106 },
                { "note": 54, "start": 223.5, "duration": 0.25, "velocity": 93 },
                { "note": 58, "start": 223.5, "duration": 0.25, "velocity": 107 },
                { "note": 42, "start": 224, "duration": 0.25, "velocity": 101 },
                { "note": 42, "start": 224.5, "duration": 0.25, "velocity": 101 },
                { "note": 42, "start": 225, "duration": 0.25, "velocity": 106 },
                { "note": 42, "start": 226.5, "duration": 1.5, "velocity": 93 },
                { "note": 46, "start": 226.5, "duration": 1.5, "velocity": 93 },
                { "note": 49, "start": 226.5, "duration": 1.5, "velocity": 93 },
                { "note": 54, "start": 226.5, "duration": 1.5, "velocity": 107 },
                { "note": 40, "start": 228, "duration": 0.25, "velocity": 105 },
                { "note": 52, "start": 229.5, "duration": 0.25, "velocity": 93 },
                { "note": 56, "start": 229.5, "duration": 0.25, "velocity": 107 },
                { "note": 40, "start": 230, "duration": 0.25, "velocity": 100 },
                { "note": 40, "start": 230.5, "duration": 0.25, "velocity": 100 },
                { "note": 40, "start": 231, "duration": 0.25, "velocity": 105 },
                { "note": 40, "start": 232.5, "duration": 1.5, "velocity": 92 },
                { "note": 44, "start": 232.5, "duration": 1.5, "velocity": 93 },
                { "note": 47, "start": 232.5, "duration": 1.5, "velocity": 93 },
                { "note": 52, "start": 232.5, "duration": 1.5, "velocity": 107 },
                { "note": 39, "start": 234, "duration": 0.25, "velocity": 105 },
                { "note": 56, "start": 235.5, "duration": 0.25, "velocity": 93 },
                { "note": 58, "start": 235.5, "duration": 0.25, "velocity": 107 },
                { "note": 39, "start": 236, "duration": 0.25, "velocity": 100 },
                { "note": 39, "start": 236.5, "duration": 0.25, "velocity": 100 },
                { "note": 39, "start": 237, "duration": 0.25, "velocity": 105 },
                { "note": 56, "start": 237.5, "duration": 0.25, "velocity": 93 },
                { "note": 58, "start": 237.5, "duration": 0.25, "velocity": 107 },
                { "note": 51, "start": 238, "duration": 0.25, "velocity": 101 },
                { "note": 55, "start": 238.5, "duration": 1, "velocity": 93 },
                { "note": 58, "start": 238.5, "duration": 1, "velocity": 103 },
                { "note": 55, "start": 239.5, "duration": 0.25, "velocity": 93 },
                { "note": 58, "start": 239.5, "duration": 0.25, "velocity": 103 },
                { "note": 40, "start": 240, "duration": 0.25, "velocity": 105 },
                { "note": 47, "start": 241.5, "duration": 1, "velocity": 93 },
                { "note": 52, "start": 241.5, "duration": 1, "velocity": 93 },
                { "note": 56, "start": 241.5, "duration": 1, "velocity": 107 },
                { "note": 40, "start": 242.5, "duration": 0.25, "velocity": 100 },
                { "note": 42, "start": 243, "duration": 0.25, "velocity": 106 },
                { "note": 49, "start": 244.5, "duration": 1.5, "velocity": 93 },
                { "note": 54, "start": 244.5, "duration": 1.5, "velocity": 93 },
                { "note": 58, "start": 244.5, "duration": 1.5, "velocity": 107 },
                { "note": 40, "start": 246, "duration": 0.25, "velocity": 105 },
                { "note": 47, "start": 247.5, "duration": 1, "velocity": 93 },
                { "note": 52, "start": 247.5, "duration": 1, "velocity": 93 },
                { "note": 56, "start": 247.5, "duration": 1, "velocity": 107 },
                { "note": 40, "start": 248.5, "duration": 0.25, "velocity": 100 },
                { "note": 44, "start": 249, "duration": 0.25, "velocity": 106 },
                { "note": 51, "start": 249.5, "duration": 0.5, "velocity": 93 },
                { "note": 56, "start": 249.5, "duration": 0.5, "velocity": 107 },
                { "note": 49, "start": 250, "duration": 0.5, "velocity": 93 },
                { "note": 54, "start": 250, "duration": 0.5, "velocity": 107 },
                { "note": 51, "start": 250.5, "duration": 1.5, "velocity": 93 },
                { "note": 56, "start": 250.5, "duration": 1.5, "velocity": 93 },
                { "note": 59, "start": 250.5, "duration": 1.5, "velocity": 107 },
                { "note": 40, "start": 252, "duration": 0.25, "velocity": 105 },
                { "note": 47, "start": 253.5, "duration": 1, "velocity": 93 },
                { "note": 52, "start": 253.5, "duration": 1, "velocity": 93 },
                { "note": 56, "start": 253.5, "duration": 1, "velocity": 107 },
                { "note": 40, "start": 254.5, "duration": 0.25, "velocity": 100 },
                { "note": 42, "start": 255, "duration": 0.25, "velocity": 106 },
                { "note": 49, "start": 256.5, "duration": 1.5, "velocity": 93 },
                { "note": 54, "start": 256.5, "duration": 1.5, "velocity": 93 },
                { "note": 58, "start": 256.5, "duration": 1.5, "velocity": 107 },
                { "note": 49, "start": 258, "duration": 0.25, "velocity": 80 },
                { "note": 53, "start": 258.5, "duration": 0.25, "velocity": 68 },
                { "note": 56, "start": 258.5, "duration": 0.25, "velocity": 78 },
                { "note": 53, "start": 259, "duration": 0.25, "velocity": 71 },
                { "note": 56, "start": 259, "duration": 0.25, "velocity": 81 },
                { "note": 49, "start": 259.5, "duration": 0.25, "velocity": 84 },
                { "note": 53, "start": 259.5, "duration": 0.25, "velocity": 73 },
                { "note": 56, "start": 259.5, "duration": 0.25, "velocity": 79 },
                { "note": 53, "start": 260, "duration": 0.25, "velocity": 76 },
                { "note": 56, "start": 260, "duration": 0.25, "velocity": 86 },
                { "note": 53, "start": 260.5, "duration": 0.25, "velocity": 78 },
                { "note": 56, "start": 260.5, "duration": 0.25, "velocity": 88 },
                { "note": 51, "start": 261, "duration": 0.25, "velocity": 89 },
                { "note": 55, "start": 261.5, "duration": 0.25, "velocity": 83 },
                { "note": 58, "start": 261.5, "duration": 0.25, "velocity": 93 },
                { "note": 55, "start": 262, "duration": 0.25, "velocity": 86 },
                { "note": 58, "start": 262, "duration": 0.25, "velocity": 96 },
                { "note": 51, "start": 262.5, "duration": 0.25, "velocity": 99 },
                { "note": 55, "start": 262.5, "duration": 0.25, "velocity": 88 },
                { "note": 58, "start": 262.5, "duration": 0.25, "velocity": 94 },
                { "note": 55, "start": 263, "duration": 0.25, "velocity": 91 },
                { "note": 58, "start": 263, "duration": 0.25, "velocity": 101 },
                { "note": 55, "start": 263.5, "duration": 0.25, "velocity": 93 },
                { "note": 58, "start": 263.5, "duration": 0.25, "velocity": 103 },
                { "note": 40, "start": 264, "duration": 0.25, "velocity": 120 },
                { "note": 47, "start": 265.5, "duration": 1, "velocity": 80 },
                { "note": 52, "start": 265.5, "duration": 1, "velocity": 80 },
                { "note": 56, "start": 265.5, "duration": 1, "velocity": 94 },
                { "note": 40, "start": 266.5, "duration": 0.25, "velocity": 87 },
                { "note": 42, "start": 267, "duration": 0.25, "velocity": 93 },
                { "note": 49, "start": 268.5, "duration": 1.5, "velocity": 80 },
                { "note": 54, "start": 268.5, "duration": 1.5, "velocity": 80 },
                { "note": 58, "start": 268.5, "duration": 1.5, "velocity": 94 },
                { "note": 40, "start": 270, "duration": 0.25, "velocity": 92 },
                { "note": 47, "start": 271.5, "duration": 1, "velocity": 80 },
                { "note": 52, "start": 271.5, "duration": 1, "velocity": 80 },
                { "note": 56, "start": 271.5, "duration": 1, "velocity": 94 },
                { "note": 40, "start": 272.5, "duration": 0.25, "velocity": 87 },
                { "note": 44, "start": 273, "duration": 0.25, "velocity": 93 },
                { "note": 51, "start": 273.5, "duration": 0.5, "velocity": 80 },
                { "note": 56, "start": 273.5, "duration": 0.5, "velocity": 94 },
                { "note": 49, "start": 274, "duration": 0.5, "velocity": 80 },
                { "note": 54, "start": 274, "duration": 0.5, "velocity": 94 },
                { "note": 51, "start": 274.5, "duration": 1.5, "velocity": 80 },
                { "note": 56, "start": 274.5, "duration": 1.5, "velocity": 80 },
                { "note": 59, "start": 274.5, "duration": 1.5, "velocity": 94 },
                { "note": 40, "start": 276, "duration": 0.25, "velocity": 92 },
                { "note": 47, "start": 277.5, "duration": 1, "velocity": 80 },
                { "note": 52, "start": 277.5, "duration": 1, "velocity": 80 },
                { "note": 56, "start": 277.5, "duration": 1, "velocity": 94 },
                { "note": 40, "start": 278.5, "duration": 0.25, "velocity": 87 },
                { "note": 42, "start": 279, "duration": 0.25, "velocity": 93 },
                { "note": 49, "start": 280.5, "duration": 1.5, "velocity": 80 },
                { "note": 54, "start": 280.5, "duration": 1.5, "velocity": 80 },
                { "note": 58, "start": 280.5, "duration": 1.5, "velocity": 94 },
                { "note": 44, "start": 282, "duration": 0.25, "velocity": 93 },
                { "note": 44, "start": 283.5, "duration": 0.25, "velocity": 80 },
                { "note": 56, "start": 283.5, "duration": 0.25, "velocity": 90 },
                { "note": 44, "start": 284, "duration": 0.25, "velocity": 80 },
                { "note": 56, "start": 284, "duration": 0.25, "velocity": 90 },
                { "note": 44, "start": 284.5, "duration": 0.25, "velocity": 80 },
                { "note": 56, "start": 284.5, "duration": 0.25, "velocity": 90 },
                { "note": 44, "start": 285, "duration": 0.25, "velocity": 107 },
                { "note": 51, "start": 285, "duration": 0.25, "velocity": 118 },
                { "note": 56, "start": 285, "duration": 0.25, "velocity": 113 }
            ]
        }
    ]
}
