{
    "id": "peaceful-days",
    "title": "Peaceful Days",
    "artist": "Yasunori Mitsuda",
    "source": "Chrono Trigger",
    "category": "games",
    "bpm": 88,
    "timeSignature": [4, 4],
    "difficulty": "beginner",
    "keySignature": "G",
    "totalDurationBeats": 220,
    "midiRange": { "lowest": 52, "highest": 95 },
    "tracks": [
        {
            "id": "right-simplified",
            "name": "Melodia (simplificada)",
            "hand": "right",
            "difficulty": "beginner",
            "notes": [
                { "note": 71, "start": 0, "duration": 2, "velocity": 46 },
                { "note": 78, "start": 0, "duration": 0.5, "velocity": 54 },
                { "note": 76, "start": 0.5, "duration": 0.5, "velocity": 49 },
                { "note": 75, "start": 1, "duration": 0.5, "velocity": 50 },
                { "note": 73, "start": 1.5, "duration": 0.5, "velocity": 49 },
                { "note": 64, "start": 2, "duration": 2, "velocity": 44 },
                { "note": 76, "start": 2, "duration": 0.5, "velocity": 52 },
                { "note": 75, "start": 2.5, "duration": 0.5, "velocity": 49 },
                { "note": 73, "start": 3, "duration": 0.5, "velocity": 50 },
                { "note": 71, "start": 3.5, "duration": 0.5, "velocity": 49 },
                { "note": 64, "start": 4, "duration": 4, "velocity": 41 },
                { "note": 71, "start": 4, "duration": 0.5, "velocity": 54 },
                { "note": 75, "start": 4.5, "duration": 0.5, "velocity": 49 },
                { "note": 68, "start": 7.5, "duration": 0.5, "velocity": 49 },
                { "note": 71, "start": 8, "duration": 2, "velocity": 60 },
                { "note": 76, "start": 8, "duration": 2, "velocity": 54 },
                { "note": 73, "start": 10, "duration": 1.75, "velocity": 67 },
                { "note": 78, "start": 10, "duration": 2, "velocity": 61 },
                { "note": 78, "start": 12, "duration": 1, "velocity": 80 },
                { "note": 63, "start": 12.5, "duration": 0.5, "velocity": 102 },
                { "note": 66, "start": 13, "duration": 0.5, "velocity": 103 },
                { "note": 87, "start": 13, "duration": 1, "velocity": 76 },
                { "note": 71, "start": 13.5, "duration": 0.5, "velocity": 102 },
                { "note": 88, "start": 14, "duration": 0.5, "velocity": 78 },
                { "note": 87, "start": 14.5, "duration": 0.5, "velocity": 75 },
                { "note": 63, "start": 15, "duration": 0.5, "velocity": 103 },
                { "note": 85, "start": 15, "duration": 0.5, "velocity": 76 },
                { "note": 66, "start": 15.5, "duration": 0.5, "velocity": 102 },
                { "note": 83, "start": 15.5, "duration": 0.5, "velocity": 75 },
                { "note": 61, "start": 16, "duration": 0.5, "velocity": 107 },
                { "note": 90, "start": 16, "duration": 1.5, "velocity": 80 },
                { "note": 64, "start": 16.5, "duration": 0.5, "velocity": 102 },
                { "note": 68, "start": 17, "duration": 0.5, "velocity": 103 },
                { "note": 73, "start": 17.5, "duration": 0.5, "velocity": 102 },
                { "note": 85, "start": 17.5, "duration": 0.5, "velocity": 75 },
                { "note": 85, "start": 18, "duration": 2, "velocity": 78 },
                { "note": 61, "start": 19, "duration": 0.5, "velocity": 103 },
                { "note": 66, "start": 19.5, "duration": 0.5, "velocity": 102 },
                { "note": 78, "start": 20, "duration": 1, "velocity": 80 },
                { "note": 63, "start": 20.5, "duration": 0.5, "velocity": 102 },
                { "note": 66, "start": 21, "duration": 0.5, "velocity": 103 },
                { "note": 87, "start": 21, "duration": 1, "velocity": 76 },
                { "note": 71, "start": 21.5, "duration": 0.5, "velocity": 102 },
                { "note": 88, "start": 22, "duration": 0.5, "velocity": 78 },
                { "note": 87, "start": 22.5, "duration": 0.5, "velocity": 75 },
                { "note": 63, "start": 23, "duration": 0.5, "velocity": 103 },
                { "note": 85, "start": 23, "duration": 0.5, "velocity": 76 },
                { "note": 66, "start": 23.5, "duration": 0.5, "velocity": 102 },
                { "note": 83, "start": 23.5, "duration": 0.5, "velocity": 75 },
                { "note": 90, "start": 24, "duration": 3, "velocity": 75 },
                { "note": 63, "start": 24.5, "duration": 0.5, "velocity": 102 },
                { "note": 66, "start": 25, "duration": 0.5, "velocity": 103 },
                { "note": 70, "start": 25.5, "duration": 0.5, "velocity": 102 },
                { "note": 75, "start": 26, "duration": 0.5, "velocity": 105 },
                { "note": 70, "start": 26.5, "duration": 0.5, "velocity": 102 },
                { "note": 66, "start": 27, "duration": 0.5, "velocity": 103 },
                { "note": 92, "start": 27, "duration": 0.5, "velocity": 76 },
                { "note": 63, "start": 27.5, "duration": 0.5, "velocity": 102 },
                { "note": 94, "start": 27.5, "duration": 0.5, "velocity": 75 },
                { "note": 95, "start": 28, "duration": 1, "velocity": 80 },
                { "note": 63, "start": 29, "duration": 0.5, "velocity": 103 },
                { "note": 94, "start": 29, "duration": 0.5, "velocity": 76 },
                { "note": 66, "start": 29.5, "duration": 0.5, "velocity": 102 },
                { "note": 92, "start": 29.5, "duration": 0.5, "velocity": 75 },
                { "note": 90, "start": 30, "duration": 1, "velocity": 78 },
                { "note": 63, "start": 30.5, "duration": 0.5, "velocity": 102 },
                { "note": 66, "start": 31, "duration": 0.5, "velocity": 103 },
                { "note": 87, "start": 31, "duration": 1, "velocity": 76 },
                { "note": 70, "start": 31.5, "duration": 0.5, "velocity": 102 },
                { "note": 64, "start": 32, "duration": 0.5, "velocity": 107 },
                { "note": 92, "start": 32, "duration": 1, "velocity": 80 },
                { "note": 68, "start": 32.5, "duration": 0.5, "velocity": 102 },
                { "note": 71, "start": 33, "duration": 0.5, "velocity": 103 },
                { "note": 90, "start": 33, "duration": 0.5, "velocity": 76 },
                { "note": 76, "start": 33.5, "duration": 0.5, "velocity": 102 },
                { "note": 88, "start": 33.5, "duration": 0.5, "velocity": 75 },
                { "note": 87, "start": 34, "duration": 1, "velocity": 78 },
                { "note": 63, "start": 34.5, "duration": 0.5, "velocity": 102 },
                { "note": 66, "start": 35, "duration": 0.5, "velocity": 103 },
                { "note": 85, "start": 35, "duration": 1, "velocity": 76 },
                { "note": 70, "start": 35.5, "duration": 0.5, "velocity": 102 },
                { "note": 83, "start": 36, "duration": 0.5, "velocity": 80 },
                { "note": 82, "start": 36.5, "duration": 0.5, "velocity": 75 },
                { "note": 63, "start": 37, "duration": 0.5, "velocity": 103 },
                { "note": 83, "start": 37, "duration": 0.5, "velocity": 76 },
                { "note": 66, "start": 37.5, "duration": 0.5, "velocity": 102 },
                { "note": 87, "start": 37.5, "duration": 0.5, "velocity": 75 },
                { "note": 61, "start": 38, "duration": 0.5, "velocity": 105 },
                { "note": 85, "start": 38, "duration": 1, "velocity": 78 },
                { "note": 65, "start": 38.5, "duration": 0.5, "velocity": 102 },
                { "note": 68, "start": 39, "duration": 0.5, "velocity": 103 },
                { "note": 80, "start": 39, "duration": 0.5, "velocity": 76 },
                { "note": 71, "start": 39.5, "duration": 0.5, "velocity": 102 },
                { "note": 83, "start": 39.5, "duration": 0.5, "velocity": 75 },
                { "note": 83, "start": 40, "duration": 2, "velocity": 80 },
                { "note": 64, "start": 40.5, "duration": 0.5, "velocity": 102 },
                { "note": 68, "start": 41, "duration": 0.5, "velocity": 103 },
                { "note": 71, "start": 41.5, "duration": 0.5, "velocity": 102 },
                { "note": 73, "start": 42, "duration": 1.5, "velocity": 105 },
                { "note": 85, "start": 42, "duration": 0.5, "velocity": 78 },
                { "note": 71, "start": 42.5, "duration": 0.5, "velocity": 102 },
                { "note": 70, "start": 43, "duration": 0.5, "velocity": 103 },
                { "note": 66, "start": 43.5, "duration": 0.5, "velocity": 102 },
                { "note": 90, "start": 43.5, "duration": 0.5, "velocity": 75 },
                { "note": 64, "start": 44, "duration": 0.5, "velocity": 107 },
                { "note": 92, "start": 44, "duration": 1, "velocity": 80 },
                { "note": 68, "start": 44.5, "duration": 0.5, "velocity": 102 },
                { "note": 71, "start": 45, "duration": 0.5, "velocity": 103 },
                { "note": 90, "start": 45, "duration": 0.5, "velocity": 76 },
                { "note": 76, "start": 45.5, "duration": 0.5, "velocity": 102 },
                { "note": 92, "start": 45.5, "duration": 0.5, "velocity": 75 },
                { "note": 90, "start": 46, "duration": 1, "velocity": 78 },
                { "note": 61, "start": 46.5, "duration": 0.5, "velocity": 102 },
                { "note": 66, "start": 47, "duration": 0.5, "velocity": 103 },
                { "note": 85, "start": 47, "duration": 0.5, "velocity": 76 },
                { "note": 70, "start": 47.5, "duration": 0.5, "velocity": 102 },
                { "note": 88, "start": 47.5, "duration": 0.5, "velocity": 75 },
                { "note": 61, "start": 48, "duration": 0.5, "velocity": 107 },
                { "note": 88, "start": 48, "duration": 1, "velocity": 80 },
                { "note": 64, "start": 48.5, "duration": 0.5, "velocity": 102 },
                { "note": 71, "start": 49, "duration": 0.5, "velocity": 103 },
                { "note": 87, "start": 49, "duration": 0.5, "velocity": 76 },
                { "note": 73, "start": 49.5, "duration": 0.5, "velocity": 102 },
                { "note": 85, "start": 49.5, "duration": 0.5, "velocity": 75 },
                { "note": 84, "start": 50, "duration": 1, "velocity": 70 },
                { "note": 87, "start": 50, "duration": 0.5, "velocity": 84 },
                { "note": 73, "start": 50.5, "duration": 0.5, "velocity": 102 },
                { "note": 72, "start": 51, "duration": 0.5, "velocity": 103 },
                { "note": 85, "start": 51, "duration": 0.5, "velocity": 76 },
                { "note": 68, "start": 51.5, "duration": 0.5, "velocity": 102 },
                { "note": 87, "start": 51.5, "duration": 0.5, "velocity": 75 },
                { "note": 61, "start": 52, "duration": 0.5, "velocity": 107 },
                { "note": 88, "start": 52, "duration": 1, "velocity": 80 },
                { "note": 64, "start": 52.5, "duration": 0.5, "velocity": 102 },
                { "note": 68, "start": 53, "duration": 0.5, "velocity": 103 },
                { "note": 87, "start": 53, "duration": 0.5, "velocity": 76 },
                { "note": 73, "start": 53.5, "duration": 0.5, "velocity": 102 },
                { "note": 85, "start": 53.5, "duration": 0.5, "velocity": 75 },
                { "note": 83, "start": 54, "duration": 1, "velocity": 78 },
                { "note": 64, "start": 54.5, "duration": 0.5, "velocity": 102 },
                { "note": 70, "start": 55, "duration": 0.5, "velocity": 103 },
                { "note": 85, "start": 55, "duration": 1, "velocity": 76 },
                { "note": 71, "start": 55.5, "duration": 0.5, "velocity": 102 },
                { "note": 83, "start": 56, "duration": 2, "velocity": 75 },
                { "note": 63, "start": 56.5, "duration": 0.5, "velocity": 102 },
                { "note": 66, "start": 57, "duration": 0.5, "velocity": 103 },
                { "note": 75, "start": 58, "duration": 0.5, "velocity": 105 },
                { "note": 71, "start": 58.5, "duration": 0.5, "velocity": 102 },
                { "note": 66, "start": 59, "duration": 0.5, "velocity": 103 },
                { "note": 63, "start": 59.5, "duration": 0.5, "velocity": 102 },
                { "note": 78, "start": 60, "duration": 0.5, "velocity": 93 },
                { "note": 63, "start": 60.5, "duration": 0.5, "velocity": 107 },
                { "note": 66, "start": 60.5, "duration": 0.5, "velocity": 117 },
                { "note": 66, "start": 61, "duration": 0.5, "velocity": 118 },
                { "note": 87, "start": 61, "duration": 1, "velocity": 89 },
                { "note": 63, "start": 61.5, "duration": 0.5, "velocity": 107 },
                { "note": 66, "start": 61.5, "duration": 0.5, "velocity": 117 },
                { "note": 88, "start": 62, "duration": 0.5, "velocity": 91 },
                { "note": 66, "start": 62.5, "duration": 0.5, "velocity": 117 },
                { "note": 87, "start": 62.5, "duration": 0.5, "velocity": 88 },
                { "note": 66, "start": 63, "duration": 0.5, "velocity": 118 },
                { "note": 85, "start": 63, "duration": 0.5, "velocity": 89 },
                { "note": 66, "start": 63.5, "duration": 0.5, "velocity": 117 },
                { "note": 83, "start": 63.5, "duration": 0.5, "velocity": 88 },
                { "note": 61, "start": 64, "duration": 0.5, "velocity": 120 },
                { "note": 90, "start": 64, "duration": 1.5, "velocity": 93 },
                { "note": 68, "start": 64.5, "duration": 0.5, "velocity": 107 },
                { "note": 71, "start": 64.5, "duration": 0.5, "velocity": 117 },
                { "note": 68, "start": 65, "duration": 0.5, "velocity": 108 },
                { "note": 71, "start": 65, "duration": 0.5, "velocity": 118 },
                { "note": 85, "start": 65.5, "duration": 0.5, "velocity": 80 },
                { "note": 88, "start": 65.5, "duration": 0.5, "velocity": 94 },
                { "note": 88, "start": 66, "duration": 0.5, "velocity": 91 },
                { "note": 70, "start": 66.5, "duration": 0.5, "velocity": 121 },
                { "note": 87, "start": 66.5, "duration": 0.5, "velocity": 88 },
                { "note": 68, "start": 67, "duration": 0.5, "velocity": 122 },
                { "note": 85, "start": 67, "duration": 0.5, "velocity": 89 },
                { "note": 66, "start": 67.5, "duration": 0.5, "velocity": 121 },
                { "note": 83, "start": 67.5, "duration": 0.5, "velocity": 88 },
                { "note": 78, "start": 68, "duration": 0.5, "velocity": 93 },
                { "note": 63, "start": 68.5, "duration": 0.5, "velocity": 107 },
                { "note": 66, "start": 68.5, "duration": 0.5, "velocity": 117 },
                { "note": 66, "start": 69, "duration": 0.5, "velocity": 118 },
                { "note": 87, "start": 69, "duration": 1, "velocity": 89 },
                { "note": 63, "start": 69.5, "duration": 0.5, "velocity": 107 },
                { "note": 66, "start": 69.5, "duration": 0.5, "velocity": 117 },
                { "note": 88, "start": 70, "duration": 0.5, "velocity": 91 },
                { "note": 66, "start": 70.5, "duration": 0.5, "velocity": 117 },
                { "note": 87, "start": 70.5, "duration": 0.5, "velocity": 88 },
                { "note": 66, "start": 71, "duration": 0.5, "velocity": 122 },
                { "note": 85, "start": 71, "duration": 0.5, "velocity": 89 },
                { "note": 71, "start": 71.5, "duration": 0.5, "velocity": 121 },
                { "note": 83, "start": 71.5, "duration": 0.5, "velocity": 88 },
                { "note": 63, "start": 72, "duration": 0.5, "velocity": 120 },
                { "note": 90, "start": 72, "duration": 3, "velocity": 88 },
                { "note": 66, "start": 72.5, "duration": 0.5, "velocity": 107 },
                { "note": 70, "start": 72.5, "duration": 0.5, "velocity": 117 },
                { "note": 66, "start": 73, "duration": 0.5, "velocity": 108 },
                { "note": 70, "start": 73, "duration": 0.5, "velocity": 118 },
                { "note": 66, "start": 73.5, "duration": 0.5, "velocity": 107 },
                { "note": 70, "start": 73.5, "duration": 0.5, "velocity": 121 },
                { "note": 68, "start": 74, "duration": 0.5, "velocity": 110 },
                { "note": 71, "start": 74, "duration": 0.5, "velocity": 124 },
                { "note": 68, "start": 74.5, "duration": 0.5, "velocity": 107 },
                { "note": 71, "start": 74.5, "duration": 0.5, "velocity": 121 },
                { "note": 73, "start": 75, "duration": 0.5, "velocity": 122 },
                { "note": 92, "start": 75, "duration": 0.5, "velocity": 89 },
                { "note": 73, "start": 75.5, "duration": 0.5, "velocity": 117 },
                { "note": 94, "start": 75.5, "duration": 0.5, "velocity": 88 },
                { "note": 95, "start": 76, "duration": 1, "velocity": 93 },
                { "note": 68, "start": 76.5, "duration": 0.5, "velocity": 107 },
                { "note": 71, "start": 76.5, "duration": 0.5, "velocity": 117 },
                { "note": 71, "start": 77, "duration": 0.5, "velocity": 118 },
                { "note": 94, "start": 77, "duration": 0.5, "velocity": 89 },
                { "note": 71, "start": 77.5, "duration": 0.5, "velocity": 117 },
                { "note": 92, "start": 77.5, "duration": 0.5, "velocity": 88 },
                { "note": 63, "start": 78, "duration": 0.5, "velocity": 118 },
                { "note": 90, "start": 78, "duration": 1, "velocity": 91 },
                { "note": 66, "start": 78.5, "duration": 0.5, "velocity": 107 },
                { "note": 70, "start": 78.5, "duration": 0.5, "velocity": 117 },
                { "note": 70, "start": 79, "duration": 0.5, "velocity": 118 },
                { "note": 87, "start": 79, "duration": 1, "velocity": 89 },
                { "note": 66, "start": 79.5, "duration": 0.5, "velocity": 107 },
                { "note": 70, "start": 79.5, "duration": 0.5, "velocity": 117 },
                { "note": 92, "start": 80, "duration": 1, "velocity": 93 },
                { "note": 64, "start": 80.5, "duration": 0.5, "velocity": 107 },
                { "note": 68, "start": 80.5, "duration": 0.5, "velocity": 117 },
                { "note": 68, "start": 81, "duration": 0.5, "velocity": 118 },
                { "note": 90, "start": 81, "duration": 0.5, "velocity": 89 },
                { "note": 68, "start": 81.5, "duration": 0.5, "velocity": 117 },
                { "note": 88, "start": 81.5, "duration": 0.5, "velocity": 88 },
                { "note": 87, "start": 82, "duration": 1, "velocity": 91 },
                { "note": 63, "start": 82.5, "duration": 0.5, "velocity": 107 },
                { "note": 66, "start": 82.5, "duration": 0.5, "velocity": 121 },
                { "note": 85, "start": 83, "duration": 1, "velocity": 89 },
                { "note": 66, "start": 83.5, "duration": 0.5, "velocity": 107 },
                { "note": 70, "start": 83.5, "duration": 0.5, "velocity": 121 },
                { "note": 83, "start": 84, "duration": 0.5, "velocity": 93 },
                { "note": 66, "start": 84.5, "duration": 0.5, "velocity": 117 },
                { "note": 82, "start": 84.5, "duration": 0.5, "velocity": 88 },
                { "note": 66, "start": 85, "duration": 0.5, "velocity": 118 },
                { "note": 83, "start": 85, "duration": 0.5, "velocity": 89 },
                { "note": 66, "start": 85.5, "duration": 0.5, "velocity": 117 },
                { "note": 87, "start": 85.5, "duration": 0.5, "velocity": 88 },
                { "note": 61, "start": 86, "duration": 0.5, "velocity": 118 },
                { "note": 85, "start": 86, "duration": 1, "velocity": 91 },
                { "note": 65, "start": 86.5, "duration": 0.5, "velocity": 107 },
                { "note": 68, "start": 86.5, "duration": 0.5, "velocity": 117 },
                { "note": 68, "start": 87, "duration": 0.5, "velocity": 118 },
                { "note": 80, "start": 87, "duration": 0.5, "velocity": 89 },
                { "note": 68, "start": 87.5, "duration": 0.5, "velocity": 117 },
                { "note": 83, "start": 87.5, "duration": 0.5, "velocity": 88 },
                { "note": 83, "start": 88, "duration": 1.5, "velocity": 93 },
                { "note": 64, "start": 88.5, "duration": 0.5, "velocity": 121 },
                { "note": 64, "start": 89, "duration": 0.5, "velocity": 108 },
                { "note": 68, "start": 89, "duration": 0.5, "velocity": 122 },
                { "note": 68, "start": 89.5, "duration": 0.5, "velocity": 107 },
                { "note": 71, "start": 89.5, "duration": 0.5, "velocity": 121 },
                { "note": 73, "start": 90, "duration": 1.5, "velocity": 124 },
                { "note": 85, "start": 90, "duration": 0.5, "velocity": 91 },
                { "note": 68, "start": 90.5, "duration": 0.5, "velocity": 107 },
                { "note": 71, "start": 90.5, "duration": 0.5, "velocity": 121 },
                { "note": 66, "start": 91, "duration": 0.5, "velocity": 108 },
                { "note": 70, "start": 91, "duration": 0.5, "velocity": 122 },
                { "note": 66, "start": 91.5, "duration": 0.5, "velocity": 121 },
                { "note": 90, "start": 91.5, "duration": 0.5, "velocity": 88 },
                { "note": 64, "start": 92, "duration": 0.5, "velocity": 120 },
                { "note": 92, "start": 92, "duration": 1, "velocity": 93 },
                { "note": 68, "start": 92.5, "duration": 0.5, "velocity": 107 },
                { "note": 71, "start": 92.5, "duration": 0.5, "velocity": 117 },
                { "note": 71, "start": 93, "duration": 0.5, "velocity": 118 },
                { "note": 90, "start": 93, "duration": 0.5, "velocity": 89 },
                { "note": 71, "start": 93.5, "duration": 0.5, "velocity": 117 },
                { "note": 92, "start": 93.5, "duration": 0.5, "velocity": 88 },
                { "note": 66, "start": 94, "duration": 0.5, "velocity": 118 },
                { "note": 90, "start": 94, "duration": 1, "velocity": 91 },
                { "note": 70, "start": 94.5, "duration": 0.5, "velocity": 107 },
                { "note": 73, "start": 94.5, "duration": 0.5, "velocity": 117 },
                { "note": 73, "start": 95, "duration": 0.5, "velocity": 118 },
                { "note": 85, "start": 95, "duration": 0.5, "velocity": 89 },
                { "note": 73, "start": 95.5, "duration": 0.5, "velocity": 117 },
                { "note": 88, "start": 95.5, "duration": 0.5, "velocity": 88 },
                { "note": 88, "start": 96, "duration": 1, "velocity": 93 },
                { "note": 64, "start": 96.5, "duration": 0.5, "velocity": 121 },
                { "note": 87, "start": 97, "duration": 0.5, "velocity": 89 },
                { "note": 66, "start": 97.5, "duration": 0.5, "velocity": 121 },
                { "note": 85, "start": 97.5, "duration": 0.5, "velocity": 88 },
                { "note": 84, "start": 98, "duration": 1, "velocity": 91 },
                { "note": 60, "start": 98.5, "duration": 0.5, "velocity": 107 },
                { "note": 63, "start": 98.5, "duration": 0.5, "velocity": 117 },
                { "note": 63, "start": 99, "duration": 0.5, "velocity": 118 },
                { "note": 85, "start": 99, "duration": 0.5, "velocity": 89 },
                { "note": 63, "start": 99.5, "duration": 0.5, "velocity": 117 },
                { "note": 87, "start": 99.5, "duration": 0.5, "velocity": 88 },
                { "note": 61, "start": 100, "duration": 0.5, "velocity": 120 },
                { "note": 88, "start": 100, "duration": 1, "velocity": 93 },
                { "note": 64, "start": 100.5, "duration": 0.5, "velocity": 107 },
                { "note": 68, "start": 100.5, "duration": 0.5, "velocity": 117 },
                { "note": 68, "start": 101, "duration": 0.5, "velocity": 118 },
                { "note": 87, "start": 101, "duration": 0.5, "velocity": 89 },
                { "note": 68, "start": 101.5, "duration": 0.5, "velocity": 117 },
                { "note": 85, "start": 101.5, "duration": 0.5, "velocity": 88 },
                { "note": 83, "start": 102, "duration": 1, "velocity": 91 },
                { "note": 61, "start": 102.5, "duration": 0.5, "velocity": 107 },
                { "note": 64, "start": 102.5, "duration": 0.5, "velocity": 117 },
                { "note": 64, "start": 103, "duration": 0.5, "velocity": 118 },
                { "note": 85, "start": 103, "duration": 1, "velocity": 89 },
                { "note": 61, "start": 103.5, "duration": 0.5, "velocity": 107 },
                { "note": 64, "start": 103.5, "duration": 0.5, "velocity": 117 },
                { "note": 83, "start": 104, "duration": 3.5, "velocity": 88 },
                { "note": 63, "start": 104.5, "duration": 0.5, "velocity": 127 },
                { "note": 63, "start": 105, "duration": 0.5, "velocity": 117 },
                { "note": 66, "start": 105, "duration": 0.5, "velocity": 127 },
                { "note": 61, "start": 105.5, "duration": 0.5, "velocity": 116 },
                { "note": 64, "start": 105.5, "duration": 0.5, "velocity": 127 },
                { "note": 63, "start": 106, "duration": 1.5, "velocity": 127 },
                { "note": 87, "start": 107.5, "duration": 0.5, "velocity": 88 },
                { "note": 61, "start": 108, "duration": 0.5, "velocity": 120 },
                { "note": 88, "start": 108, "duration": 1, "velocity": 93 },
                { "note": 64, "start": 108.5, "duration": 0.5, "velocity": 107 },
                { "note": 68, "start": 108.5, "duration": 0.5, "velocity": 117 },
                { "note": 68, "start": 109, "duration": 0.5, "velocity": 118 },
                { "note": 87, "start": 109, "duration": 0.5, "velocity": 89 },
                { "note": 68, "start": 109.5, "duration": 0.5, "velocity": 117 },
                { "note": 85, "start": 109.5, "duration": 0.5, "velocity": 88 },
                { "note": 83, "start": 110, "duration": 1, "velocity": 91 },
                { "note": 61, "start": 110.5, "duration": 0.5, "velocity": 107 },
                { "note": 64, "start": 110.5, "duration": 0.5, "velocity": 117 },
                { "note": 64, "start": 111, "duration": 0.5, "velocity": 118 },
                { "note": 85, "start": 111, "duration": 1, "velocity": 89 },
                { "note": 61, "start": 111.5, "duration": 0.5, "velocity": 107 },
                { "note": 64, "start": 111.5, "duration": 0.5, "velocity": 117 },
                { "note": 83, "start": 112, "duration": 4, "velocity": 88 },
                { "note": 63, "start": 112.5, "duration": 0.5, "velocity": 127 },
                { "note": 63, "start": 113, "duration": 0.5, "velocity": 117 },
                { "note": 66, "start": 113, "duration": 0.5, "velocity": 127 },
                { "note": 61, "start": 113.5, "duration": 0.5, "velocity": 116 },
                { "note": 64, "start": 113.5, "duration": 0.5, "velocity": 127 },
                { "note": 63, "start": 114, "duration": 1.5, "velocity": 127 },
                { "note": 78, "start": 116, "duration": 1, "velocity": 80 },
                { "note": 63, "start": 116.5, "duration": 0.5, "velocity": 102 },
                { "note": 66, "start": 117, "duration": 0.5, "velocity": 103 },
                { "note": 87, "start": 117, "duration": 1, "velocity": 76 },
                { "note": 71, "start": 117.5, "duration": 0.5, "velocity": 102 },
                { "note": 88, "start": 118, "duration": 0.5, "velocity": 78 },
                { "note": 87, "start": 118.5, "duration": 0.5, "velocity": 75 },
                { "note": 63, "start": 119, "duration": 0.5, "velocity": 103 },
                { "note": 85, "start": 119, "duration": 0.5, "velocity": 76 },
                { "note": 66, "start": 119.5, "duration": 0.5, "velocity": 102 },
                { "note": 83, "start": 119.5, "duration": 0.5, "velocity": 75 },
                { "note": 61, "start": 120, "duration": 0.5, "velocity": 107 },
                { "note": 90, "start": 120, "duration": 1.5, "velocity": 80 },
                { "note": 64, "start": 120.5, "duration": 0.5, "velocity": 102 },
                { "note": 68, "start": 121, "duration": 0.5, "velocity": 103 },
                { "note": 73, "start": 121.5, "duration": 0.5, "velocity": 102 },
                { "note": 85, "start": 121.5, "duration": 0.5, "velocity": 75 },
                { "note": 85, "start": 122, "duration": 2, "velocity": 78 },
                { "note": 61, "start": 123, "duration": 0.5, "velocity": 103 },
                { "note": 66, "start": 123.5, "duration": 0.5, "velocity": 102 },
                { "note": 78, "start": 124, "duration": 1, "velocity": 80 },
                { "note": 63, "start": 124.5, "duration": 0.5, "velocity": 102 },
                { "note": 66, "start": 125, "duration": 0.5, "velocity": 103 },
                { "note": 87, "start": 125, "duration": 1, "velocity": 76 },
                { "note": 71, "start": 125.5, "duration": 0.5, "velocity": 102 },
                { "note": 88, "start": 126, "duration": 0.5, "velocity": 78 },
                { "note": 87, "start": 126.5, "duration": 0.5, "velocity": 75 },
                { "note": 63, "start": 127, "duration": 0.5, "velocity": 103 },
                { "note": 85, "start": 127, "duration": 0.5, "velocity": 76 },
                { "note": 66, "start": 127.5, "duration": 0.5, "velocity": 102 },
                { "note": 83, "start": 127.5, "duration": 0.5, "velocity": 75 },
                { "note": 90, "start": 128, "duration": 3, "velocity": 75 },
                { "note": 63, "start": 128.5, "duration": 0.5, "velocity": 102 },
                { "note": 66, "start": 129, "duration": 0.5, "velocity": 103 },
                { "note": 70, "start": 129.5, "duration": 0.5, "velocity": 102 },
                { "note": 75, "start": 130, "duration": 0.5, "velocity": 105 },
                { "note": 70, "start": 130.5, "duration": 0.5, "velocity": 102 },
                { "note": 66, "start": 131, "duration": 0.5, "velocity": 103 },
                { "note": 92, "start": 131, "duration": 0.5, "velocity": 76 },
                { "note": 63, "start": 131.5, "duration": 0.5, "velocity": 102 },
                { "note": 94, "start": 131.5, "duration": 0.5, "velocity": 75 },
                { "note": 95, "start": 132, "duration": 1, "velocity": 80 },
                { "note": 63, "start": 133, "duration": 0.5, "velocity": 103 },
                { "note": 94, "start": 133, "duration": 0.5, "velocity": 76 },
                { "note": 66, "start": 133.5, "duration": 0.5, "velocity": 102 },
                { "note": 92, "start": 133.5, "duration": 0.5, "velocity": 75 },
                { "note": 90, "start": 134, "duration": 1, "velocity": 78 },
                { "note": 63, "start": 134.5, "duration": 0.5, "velocity": 102 },
                { "note": 66, "start": 135, "duration": 0.5, "velocity": 103 },
                { "note": 87, "start": 135, "duration": 1, "velocity": 76 },
                { "note": 70, "start": 135.5, "duration": 0.5, "velocity": 102 },
                { "note": 64, "start": 136, "duration": 0.5, "velocity": 107 },
                { "note": 92, "start": 136, "duration": 1, "velocity": 80 },
                { "note": 68, "start": 136.5, "duration": 0.5, "velocity": 102 },
                { "note": 71, "start": 137, "duration": 0.5, "velocity": 103 },
                { "note": 90, "start": 137, "duration": 0.5, "velocity": 76 },
                { "note": 76, "start": 137.5, "duration": 0.5, "velocity": 102 },
                { "note": 88, "start": 137.5, "duration": 0.5, "velocity": 75 },
                { "note": 87, "start": 138, "duration": 1, "velocity": 78 },
                { "note": 63, "start": 138.5, "duration": 0.5, "velocity": 102 },
                { "note": 66, "start": 139, "duration": 0.5, "velocity": 103 },
                { "note": 85, "start": 139, "duration": 1, "velocity": 76 },
                { "note": 70, "start": 139.5, "duration": 0.5, "velocity": 102 },
                { "note": 83, "start": 140, "duration": 0.5, "velocity": 80 },
                { "note": 82, "start": 140.5, "duration": 0.5, "velocity": 75 },
                { "note": 63, "start": 141, "duration": 0.5, "velocity": 103 },
                { "note": 83, "start": 141, "duration": 0.5, "velocity": 76 },
                { "note": 66, "start": 141.5, "duration": 0.5, "velocity": 102 },
                { "note": 87, "start": 141.5, "duration": 0.5, "velocity": 75 },
                { "note": 61, "start": 142, "duration": 0.5, "velocity": 105 },
                { "note": 85, "start": 142, "duration": 1, "velocity": 78 },
                { "note": 65, "start": 142.5, "duration": 0.5, "velocity": 102 },
                { "note": 68, "start": 143, "duration": 0.5, "velocity": 103 },
                { "note": 80, "start": 143, "duration": 0.5, "velocity": 76 },
                { "note": 71, "start": 143.5, "duration": 0.5, "velocity": 102 },
                { "note": 83, "start": 143.5, "duration": 0.5, "velocity": 75 },
                { "note": 83, "start": 144, "duration": 2, "velocity": 80 },
                { "note": 64, "start": 144.5, "duration": 0.5, "velocity": 102 },
                { "note": 68, "start": 145, "duration": 0.5, "velocity": 103 },
                { "note": 71, "start": 145.5, "duration": 0.5, "velocity": 102 },
                { "note": 73, "start": 146, "duration": 1.5, "velocity": 105 },
                { "note": 85, "start": 146, "duration": 0.5, "velocity": 78 },
                { "note": 71, "start": 146.5, "duration": 0.5, "velocity": 102 },
                { "note": 70, "start": 147, "duration": 0.5, "velocity": 103 },
                { "note": 66, "start": 147.5, "duration": 0.5, "velocity": 102 },
                { "note": 90, "start": 147.5, "duration": 0.5, "velocity": 75 },
                { "note": 64, "start": 148, "duration": 0.5, "velocity": 107 },
                { "note": 92, "start": 148, "duration": 1, "velocity": 80 },
                { "note": 68, "start": 148.5, "duration": 0.5, "velocity": 102 },
                { "note": 71, "start": 149, "duration": 0.5, "velocity": 103 },
                { "note": 90, "start": 149, "duration": 0.5, "velocity": 76 },
                { "note": 76, "start": 149.5, "duration": 0.5, "velocity": 102 },
                { "note": 92, "start": 149.5, "duration": 0.5, "velocity": 75 },
                { "note": 90, "start": 150, "duration": 1, "velocity": 78 },
                { "note": 61, "start": 150.5, "duration": 0.5, "velocity": 102 },
                { "note": 66, "start": 151, "duration": 0.5, "velocity": 103 },
                { "note": 85, "start": 151, "duration": 0.5, "velocity": 76 },
                { "note": 70, "start": 151.5, "duration": 0.5, "velocity": 102 },
                { "note": 88, "start": 151.5, "duration": 0.5, "velocity": 75 },
                { "note": 61, "start": 152, "duration": 0.5, "velocity": 107 },
                { "note": 88, "start": 152, "duration": 1, "velocity": 80 },
                { "note": 64, "start": 152.5, "duration": 0.5, "velocity": 102 },
                { "note": 71, "start": 153, "duration": 0.5, "velocity": 103 },
                { "note": 87, "start": 153, "duration": 0.5, "velocity": 76 },
                { "note": 73, "start": 153.5, "duration": 0.5, "velocity": 102 },
                { "note": 85, "start": 153.5, "duration": 0.5, "velocity": 75 },
                { "note": 84, "start": 154, "duration": 1, "velocity": 70 },
                { "note": 87, "start": 154, "duration": 0.5, "velocity": 84 },
                { "note": 73, "start": 154.5, "duration": 0.5, "velocity": 102 },
                { "note": 72, "start": 155, "duration": 0.5, "velocity": 103 },
                { "note": 85, "start": 155, "duration": 0.5, "velocity": 76 },
                { "note": 68, "start": 155.5, "duration": 0.5, "velocity": 102 },
                { "note": 87, "start": 155.5, "duration": 0.5, "velocity": 75 },
                { "note": 61, "start": 156, "duration": 0.5, "velocity": 107 },
                { "note": 88, "start": 156, "duration": 1, "velocity": 80 },
                { "note": 64, "start": 156.5, "duration": 0.5, "velocity": 102 },
                { "note": 68, "start": 157, "duration": 0.5, "velocity": 103 },
                { "note": 87, "start": 157, "duration": 0.5, "velocity": 76 },
                { "note": 73, "start": 157.5, "duration": 0.5, "velocity": 102 },
                { "note": 85, "start": 157.5, "duration": 0.5, "velocity": 75 },
                { "note": 83, "start": 158, "duration": 1, "velocity": 78 },
                { "note": 64, "start": 158.5, "duration": 0.5, "velocity": 102 },
                { "note": 70, "start": 159, "duration": 0.5, "velocity": 103 },
                { "note": 85, "start": 159, "duration": 1, "velocity": 76 },
                { "note": 71, "start": 159.5, "duration": 0.5, "velocity": 102 },
                { "note": 83, "start": 160, "duration": 2, "velocity": 75 },
                { "note": 63, "start": 160.5, "duration": 0.5, "velocity": 102 },
                { "note": 66, "start": 161, "duration": 0.5, "velocity": 103 },
                { "note": 75, "start": 162, "duration": 0.5, "velocity": 105 },
                { "note": 71, "start": 162.5, "duration": 0.5, "velocity": 102 },
                { "note": 66, "start": 163, "duration": 0.5, "velocity": 103 },
                { "note": 63, "start": 163.5, "duration": 0.5, "velocity": 102 },
                { "note": 78, "start": 164, "duration": 0.5, "velocity": 93 },
                { "note": 63, "start": 164.5, "duration": 0.5, "velocity": 107 },
                { "note": 66, "start": 164.5, "duration": 0.5, "velocity": 117 },
                { "note": 66, "start": 165, "duration": 0.5, "velocity": 118 },
                { "note": 87, "start": 165, "duration": 1, "velocity": 89 },
                { "note": 63, "start": 165.5, "duration": 0.5, "velocity": 107 },
                { "note": 66, "start": 165.5, "duration": 0.5, "velocity": 117 },
                { "note": 88, "start": 166, "duration": 0.5, "velocity": 91 },
                { "note": 66, "start": 166.5, "duration": 0.5, "velocity": 117 },
                { "note": 87, "start": 166.5, "duration": 0.5, "velocity": 88 },
                { "note": 66, "start": 167, "duration": 0.5, "velocity": 118 },
                { "note": 85, "start": 167, "duration": 0.5, "velocity": 89 },
                { "note": 66, "start": 167.5, "duration": 0.5, "velocity": 117 },
                { "note": 83, "start": 167.5, "duration": 0.5, "velocity": 88 },
                { "note": 61, "start": 168, "duration": 0.5, "velocity": 120 },
                { "note": 90, "start": 168, "duration": 1.5, "velocity": 93 },
                { "note": 68, "start": 168.5, "duration": 0.5, "velocity": 107 },
                { "note": 71, "start": 168.5, "duration": 0.5, "velocity": 117 },
                { "note": 68, "start": 169, "duration": 0.5, "velocity": 108 },
                { "note": 71, "start": 169, "duration": 0.5, "velocity": 118 },
                { "note": 85, "start": 169.5, "duration": 0.5, "velocity": 80 },
                { "note": 88, "start": 169.5, "duration": 0.5, "velocity": 94 },
                { "note": 88, "start": 170, "duration": 0.5, "velocity": 91 },
                { "note": 70, "start": 170.5, "duration": 0.5, "velocity": 121 },
                { "note": 87, "start": 170.5, "duration": 0.5, "velocity": 88 },
                { "note": 68, "start": 171, "duration": 0.5, "velocity": 122 },
                { "note": 85, "start": 171, "duration": 0.5, "velocity": 89 },
                { "note": 66, "start": 171.5, "duration": 0.5, "velocity": 121 },
                { "note": 83, "start": 171.5, "duration": 0.5, "velocity": 88 },
                { "note": 78, "start": 172, "duration": 0.5, "velocity": 93 },
                { "note": 63, "start": 172.5, "duration": 0.5, "velocity": 107 },
                { "note": 66, "start": 172.5, "duration": 0.5, "velocity": 117 },
                { "note": 66, "start": 173, "duration": 0.5, "velocity": 118 },
                { "note": 87, "start": 173, "duration": 1, "velocity": 89 },
                { "note": 63, "start": 173.5, "duration": 0.5, "velocity": 107 },
                { "note": 66, "start": 173.5, "duration": 0.5, "velocity": 117 },
                { "note": 88, "start": 174, "duration": 0.5, "velocity": 91 },
                { "note": 66, "start": 174.5, "duration": 0.5, "velocity": 117 },
                { "note": 87, "start": 174.5, "duration": 0.5, "velocity": 88 },
                { "note": 66, "start": 175, "duration": 0.5, "velocity": 122 },
                { "note": 85, "start": 175, "duration": 0.5, "velocity": 89 },
                { "note": 71, "start": 175.5, "duration": 0.5, "velocity": 121 },
                { "note": 83, "start": 175.5, "duration": 0.5, "velocity": 88 },
                { "note": 63, "start": 176, "duration": 0.5, "velocity": 120 },
                { "note": 90, "start": 176, "duration": 3, "velocity": 88 },
                { "note": 66, "start": 176.5, "duration": 0.5, "velocity": 107 },
                { "note": 70, "start": 176.5, "duration": 0.5, "velocity": 117 },
                { "note": 66, "start": 177, "duration": 0.5, "velocity": 108 },
                { "note": 70, "start": 177, "duration": 0.5, "velocity": 118 },
                { "note": 66, "start": 177.5, "duration": 0.5, "velocity": 107 },
                { "note": 70, "start": 177.5, "duration": 0.5, "velocity": 121 },
                { "note": 68, "start": 178, "duration": 0.5, "velocity": 110 },
                { "note": 71, "start": 178, "duration": 0.5, "velocity": 124 },
                { "note": 68, "start": 178.5, "duration": 0.5, "velocity": 107 },
                { "note": 71, "start": 178.5, "duration": 0.5, "velocity": 121 },
                { "note": 73, "start": 179, "duration": 0.5, "velocity": 122 },
                { "note": 92, "start": 179, "duration": 0.5, "velocity": 89 },
                { "note": 73, "start": 179.5, "duration": 0.5, "velocity": 117 },
                { "note": 94, "start": 179.5, "duration": 0.5, "velocity": 88 },
                { "note": 95, "start": 180, "duration": 1, "velocity": 93 },
                { "note": 68, "start": 180.5, "duration": 0.5, "velocity": 107 },
                { "note": 71, "start": 180.5, "duration": 0.5, "velocity": 117 },
                { "note": 71, "start": 181, "duration": 0.5, "velocity": 118 },
                { "note": 94, "start": 181, "duration": 0.5, "velocity": 89 },
                { "note": 71, "start": 181.5, "duration": 0.5, "velocity": 117 },
                { "note": 92, "start": 181.5, "duration": 0.5, "velocity": 88 },
                { "note": 63, "start": 182, "duration": 0.5, "velocity": 118 },
                { "note": 90, "start": 182, "duration": 1, "velocity": 91 },
                { "note": 66, "start": 182.5, "duration": 0.5, "velocity": 107 },
                { "note": 70, "start": 182.5, "duration": 0.5, "velocity": 117 },
                { "note": 70, "start": 183, "duration": 0.5, "velocity": 118 },
                { "note": 87, "start": 183, "duration": 1, "velocity": 89 },
                { "note": 66, "start": 183.5, "duration": 0.5, "velocity": 107 },
                { "note": 70, "start": 183.5, "duration": 0.5, "velocity": 117 },
                { "note": 92, "start": 184, "duration": 1, "velocity": 93 },
                { "note": 64, "start": 184.5, "duration": 0.5, "velocity": 107 },
                { "note": 68, "start": 184.5, "duration": 0.5, "velocity": 117 },
                { "note": 68, "start": 185, "duration": 0.5, "velocity": 118 },
                { "note": 90, "start": 185, "duration": 0.5, "velocity": 89 },
                { "note": 68, "start": 185.5, "duration": 0.5, "velocity": 117 },
                { "note": 88, "start": 185.5, "duration": 0.5, "velocity": 88 },
                { "note": 87, "start": 186, "duration": 1, "velocity": 91 },
                { "note": 63, "start": 186.5, "duration": 0.5, "velocity": 107 },
                { "note": 66, "start": 186.5, "duration": 0.5, "velocity": 121 },
                { "note": 85, "start": 187, "duration": 1, "velocity": 89 },
                { "note": 66, "start": 187.5, "duration": 0.5, "velocity": 107 },
                { "note": 70, "start": 187.5, "duration": 0.5, "velocity": 121 },
                { "note": 83, "start": 188, "duration": 0.5, "velocity": 93 },
                { "note": 66, "start": 188.5, "duration": 0.5, "velocity": 117 },
                { "note": 82, "start": 188.5, "duration": 0.5, "velocity": 88 },
                { "note": 66, "start": 189, "duration": 0.5, "velocity": 118 },
                { "note": 83, "start": 189, "duration": 0.5, "velocity": 89 },
                { "note": 66, "start": 189.5, "duration": 0.5, "velocity": 117 },
                { "note": 87, "start": 189.5, "duration": 0.5, "velocity": 88 },
                { "note": 61, "start": 190, "duration": 0.5, "velocity": 118 },
                { "note": 85, "start": 190, "duration": 1, "velocity": 91 },
                { "note": 65, "start": 190.5, "duration": 0.5, "velocity": 107 },
                { "note": 68, "start": 190.5, "duration": 0.5, "velocity": 117 },
                { "note": 68, "start": 191, "duration": 0.5, "velocity": 118 },
                { "note": 80, "start": 191, "duration": 0.5, "velocity": 89 },
                { "note": 68, "start": 191.5, "duration": 0.5, "velocity": 117 },
                { "note": 83, "start": 191.5, "duration": 0.5, "velocity": 88 },
                { "note": 83, "start": 192, "duration": 1.5, "velocity": 93 },
                { "note": 64, "start": 192.5, "duration": 0.5, "velocity": 121 },
                { "note": 64, "start": 193, "duration": 0.5, "velocity": 108 },
                { "note": 68, "start": 193, "duration": 0.5, "velocity": 122 },
                { "note": 68, "start": 193.5, "duration": 0.5, "velocity": 107 },
                { "note": 71, "start": 193.5, "duration": 0.5, "velocity": 121 },
                { "note": 73, "start": 194, "duration": 1.5, "velocity": 124 },
                { "note": 85, "start": 194, "duration": 0.5, "velocity": 91 },
                { "note": 68, "start": 194.5, "duration": 0.5, "velocity": 107 },
                { "note": 71, "start": 194.5, "duration": 0.5, "velocity": 121 },
                { "note": 66, "start": 195, "duration": 0.5, "velocity": 108 },
                { "note": 70, "start": 195, "duration": 0.5, "velocity": 122 },
                { "note": 66, "start": 195.5, "duration": 0.5, "velocity": 121 },
                { "note": 90, "start": 195.5, "duration": 0.5, "velocity": 88 },
                { "note": 64, "start": 196, "duration": 0.5, "velocity": 120 },
                { "note": 92, "start": 196, "duration": 1, "velocity": 93 },
                { "note": 68, "start": 196.5, "duration": 0.5, "velocity": 107 },
                { "note": 71, "start": 196.5, "duration": 0.5, "velocity": 117 },
                { "note": 71, "start": 197, "duration": 0.5, "velocity": 118 },
                { "note": 90, "start": 197, "duration": 0.5, "velocity": 89 },
                { "note": 71, "start": 197.5, "duration": 0.5, "velocity": 117 },
                { "note": 92, "start": 197.5, "duration": 0.5, "velocity": 88 },
                { "note": 66, "start": 198, "duration": 0.5, "velocity": 118 },
                { "note": 90, "start": 198, "duration": 1, "velocity": 91 },
                { "note": 70, "start": 198.5, "duration": 0.5, "velocity": 107 },
                { "note": 73, "start": 198.5, "duration": 0.5, "velocity": 117 },
                { "note": 73, "start": 199, "duration": 0.5, "velocity": 118 },
                { "note": 85, "start": 199, "duration": 0.5, "velocity": 89 },
                { "note": 73, "start": 199.5, "duration": 0.5, "velocity": 117 },
                { "note": 88, "start": 199.5, "duration": 0.5, "velocity": 88 },
                { "note": 88, "start": 200, "duration": 1, "velocity": 93 },
                { "note": 64, "start": 200.5, "duration": 0.5, "velocity": 121 },
                { "note": 87, "start": 201, "duration": 0.5, "velocity": 89 },
                { "note": 66, "start": 201.5, "duration": 0.5, "velocity": 121 },
                { "note": 85, "start": 201.5, "duration": 0.5, "velocity": 88 },
                { "note": 84, "start": 202, "duration": 1, "velocity": 91 },
                { "note": 60, "start": 202.5, "duration": 0.5, "velocity": 107 },
                { "note": 63, "start": 202.5, "duration": 0.5, "velocity": 117 },
                { "note": 63, "start": 203, "duration": 0.5, "velocity": 118 },
                { "note": 85, "start": 203, "duration": 0.5, "velocity": 89 },
                { "note": 63, "start": 203.5, "duration": 0.5, "velocity": 117 },
                { "note": 87, "start": 203.5, "duration": 0.5, "velocity": 88 },
                { "note": 61, "start": 204, "duration": 0.5, "velocity": 120 },
                { "note": 88, "start": 204, "duration": 1, "velocity": 93 },
                { "note": 64, "start": 204.5, "duration": 0.5, "velocity": 107 },
                { "note": 68, "start": 204.5, "duration": 0.5, "velocity": 117 },
                { "note": 68, "start": 205, "duration": 0.5, "velocity": 118 },
                { "note": 87, "start": 205, "duration": 0.5, "velocity": 89 },
                { "note": 68, "start": 205.5, "duration": 0.5, "velocity": 117 },
                { "note": 85, "start": 205.5, "duration": 0.5, "velocity": 88 },
                { "note": 83, "start": 206, "duration": 1, "velocity": 91 },
                { "note": 61, "start": 206.5, "duration": 0.5, "velocity": 107 },
                { "note": 64, "start": 206.5, "duration": 0.5, "velocity": 117 },
                { "note": 64, "start": 207, "duration": 0.5, "velocity": 118 },
                { "note": 85, "start": 207, "duration": 1, "velocity": 89 },
                { "note": 61, "start": 207.5, "duration": 0.5, "velocity": 107 },
                { "note": 64, "start": 207.5, "duration": 0.5, "velocity": 117 },
                { "note": 83, "start": 208, "duration": 3.5, "velocity": 88 },
                { "note": 63, "start": 208.5, "duration": 0.5, "velocity": 127 },
                { "note": 63, "start": 209, "duration": 0.5, "velocity": 117 },
                { "note": 66, "start": 209, "duration": 0.5, "velocity": 127 },
                { "note": 61, "start": 209.5, "duration": 0.5, "velocity": 116 },
                { "note": 64, "start": 209.5, "duration": 0.5, "velocity": 127 },
                { "note": 63, "start": 210, "duration": 1.5, "velocity": 127 },
                { "note": 87, "start": 211.5, "duration": 0.5, "velocity": 88 },
                { "note": 61, "start": 212, "duration": 0.5, "velocity": 120 },
                { "note": 88, "start": 212, "duration": 1, "velocity": 93 },
                { "note": 64, "start": 212.5, "duration": 0.5, "velocity": 107 },
                { "note": 68, "start": 212.5, "duration": 0.5, "velocity": 117 },
                { "note": 68, "start": 213, "duration": 0.5, "velocity": 118 },
                { "note": 87, "start": 213, "duration": 0.5, "velocity": 89 },
                { "note": 68, "start": 213.5, "duration": 0.5, "velocity": 117 },
                { "note": 85, "start": 213.5, "duration": 0.5, "velocity": 88 },
                { "note": 83, "start": 214, "duration": 1, "velocity": 91 },
                { "note": 61, "start": 214.5, "duration": 0.5, "velocity": 107 },
                { "note": 64, "start": 214.5, "duration": 0.5, "velocity": 117 },
                { "note": 64, "start": 215, "duration": 0.5, "velocity": 118 },
                { "note": 85, "start": 215, "duration": 1, "velocity": 89 },
                { "note": 61, "start": 215.5, "duration": 0.5, "velocity": 107 },
                { "note": 64, "start": 215.5, "duration": 0.5, "velocity": 117 },
                { "note": 83, "start": 216, "duration": 4, "velocity": 88 },
                { "note": 63, "start": 216.5, "duration": 0.5, "velocity": 127 },
                { "note": 63, "start": 217, "duration": 0.5, "velocity": 117 },
                { "note": 66, "start": 217, "duration": 0.5, "velocity": 127 },
                { "note": 61, "start": 217.5, "duration": 0.5, "velocity": 116 },
                { "note": 64, "start": 217.5, "duration": 0.5, "velocity": 127 },
                { "note": 63, "start": 218, "duration": 1.5, "velocity": 127 }
            ]
        },
        {
            "id": "right-standard",
            "name": "Melodia",
            "hand": "right",
            "difficulty": "intermediate",
            "notes": [
                { "note": 71, "start": 0, "duration": 2, "velocity": 46 },
                { "note": 78, "start": 0, "duration": 0.5, "velocity": 54 },
                { "note": 76, "start": 0.5, "duration": 0.5, "velocity": 49 },
                { "note": 75, "start": 1, "duration": 0.5, "velocity": 50 },
                { "note": 73, "start": 1.5, "duration": 0.5, "velocity": 49 },
                { "note": 64, "start": 2, "duration": 2, "velocity": 44 },
                { "note": 76, "start": 2, "duration": 0.5, "velocity": 52 },
                { "note": 75, "start": 2.5, "duration": 0.5, "velocity": 49 },
                { "note": 73, "start": 3, "duration": 0.5, "velocity": 50 },
                { "note": 71, "start": 3.5, "duration": 0.5, "velocity": 49 },
                { "note": 64, "start": 4, "duration": 4, "velocity": 41 },
                { "note": 71, "start": 4, "duration": 0.25, "velocity": 54 },
                { "note": 73, "start": 4.25, "duration": 0.25, "velocity": 49 },
                { "note": 75, "start": 4.5, "duration": 0.25, "velocity": 49 },
                { "note": 73, "start": 4.75, "duration": 2.75, "velocity": 49 },
                { "note": 68, "start": 7.5, "duration": 0.5, "velocity": 49 },
                { "note": 66, "start": 8, "duration": 2, "velocity": 46 },
                { "note": 68, "start": 8, "duration": 2, "velocity": 46 },
                { "note": 71, "start": 8, "duration": 2, "velocity": 60 },
                { "note": 76, "start": 8, "duration": 2, "velocity": 54 },
                { "note": 70, "start": 10, "duration": 1.75, "velocity": 53 },
                { "note": 73, "start": 10, "duration": 1.75, "velocity": 67 },
                { "note": 78, "start": 10, "duration": 2, "velocity": 61 },
                { "note": 78, "start": 12, "duration": 1, "velocity": 80 },
                { "note": 63, "start": 12.5, "duration": 0.5, "velocity": 102 },
                { "note": 66, "start": 13, "duration": 0.5, "velocity": 103 },
                { "note": 87, "start": 13, "duration": 1, "velocity": 76 },
                { "note": 71, "start": 13.5, "duration": 0.5, "velocity": 102 },
                { "note": 88, "start": 14, "duration": 0.5, "velocity": 78 },
                { "note": 87, "start": 14.5, "duration": 0.5, "velocity": 75 },
                { "note": 63, "start": 15, "duration": 0.5, "velocity": 103 },
                { "note": 85, "start": 15, "duration": 0.5, "velocity": 76 },
                { "note": 66, "start": 15.5, "duration": 0.5, "velocity": 102 },
                { "note": 83, "start": 15.5, "duration": 0.5, "velocity": 75 },
                { "note": 61, "start": 16, "duration": 0.5, "velocity": 107 },
                { "note": 90, "start": 16, "duration": 1.5, "velocity": 80 },
                { "note": 64, "start": 16.5, "duration": 0.5, "velocity": 102 },
                { "note": 68, "start": 17, "duration": 0.5, "velocity": 103 },
                { "note": 73, "start": 17.5, "duration": 0.5, "velocity": 102 },
                { "note": 85, "start": 17.5, "duration": 0.5, "velocity": 75 },
                { "note": 85, "start": 18, "duration": 2, "velocity": 78 },
                { "note": 61, "start": 19, "duration": 0.5, "velocity": 103 },
                { "note": 66, "start": 19.5, "duration": 0.5, "velocity": 102 },
                { "note": 78, "start": 20, "duration": 1, "velocity": 80 },
                { "note": 63, "start": 20.5, "duration": 0.5, "velocity": 102 },
                { "note": 66, "start": 21, "duration": 0.5, "velocity": 103 },
                { "note": 87, "start": 21, "duration": 1, "velocity": 76 },
                { "note": 71, "start": 21.5, "duration": 0.5, "velocity": 102 },
                { "note": 88, "start": 22, "duration": 0.5, "velocity": 78 },
                { "note": 87, "start": 22.5, "duration": 0.5, "velocity": 75 },
                { "note": 63, "start": 23, "duration": 0.5, "velocity": 103 },
                { "note": 85, "start": 23, "duration": 0.5, "velocity": 76 },
                { "note": 66, "start": 23.5, "duration": 0.5, "velocity": 102 },
                { "note": 83, "start": 23.5, "duration": 0.5, "velocity": 75 },
                { "note": 90, "start": 24, "duration": 3, "velocity": 75 },
                { "note": 63, "start": 24.5, "duration": 0.5, "velocity": 102 },
                { "note": 66, "start": 25, "duration": 0.5, "velocity": 103 },
                { "note": 70, "start": 25.5, "duration": 0.5, "velocity": 102 },
                { "note": 75, "start": 26, "duration": 0.5, "velocity": 105 },
                { "note": 70, "start": 26.5, "duration": 0.5, "velocity": 102 },
                { "note": 66, "start": 27, "duration": 0.5, "velocity": 103 },
                { "note": 92, "start": 27, "duration": 0.5, "velocity": 76 },
                { "note": 63, "start": 27.5, "duration": 0.5, "velocity": 102 },
                { "note": 94, "start": 27.5, "duration": 0.5, "velocity": 75 },
                { "note": 95, "start": 28, "duration": 1, "velocity": 80 },
                { "note": 63, "start": 29, "duration": 0.5, "velocity": 103 },
                { "note": 94, "start": 29, "duration": 0.5, "velocity": 76 },
                { "note": 66, "start": 29.5, "duration": 0.5, "velocity": 102 },
                { "note": 92, "start": 29.5, "duration": 0.5, "velocity": 75 },
                { "note": 90, "start": 30, "duration": 1, "velocity": 78 },
                { "note": 63, "start": 30.5, "duration": 0.5, "velocity": 102 },
                { "note": 66, "start": 31, "duration": 0.5, "velocity": 103 },
                { "note": 87, "start": 31, "duration": 1, "velocity": 76 },
                { "note": 70, "start": 31.5, "duration": 0.5, "velocity": 102 },
                { "note": 64, "start": 32, "duration": 0.5, "velocity": 107 },
                { "note": 92, "start": 32, "duration": 1, "velocity": 80 },
                { "note": 68, "start": 32.5, "duration": 0.5, "velocity": 102 },
                { "note": 71, "start": 33, "duration": 0.5, "velocity": 103 },
                { "note": 90, "start": 33, "duration": 0.5, "velocity": 76 },
                { "note": 76, "start": 33.5, "duration": 0.5, "velocity": 102 },
                { "note": 88, "start": 33.5, "duration": 0.5, "velocity": 75 },
                { "note": 87, "start": 34, "duration": 1, "velocity": 78 },
                { "note": 63, "start": 34.5, "duration": 0.5, "velocity": 102 },
                { "note": 66, "start": 35, "duration": 0.5, "velocity": 103 },
                { "note": 85, "start": 35, "duration": 1, "velocity": 76 },
                { "note": 70, "start": 35.5, "duration": 0.5, "velocity": 102 },
                { "note": 83, "start": 36, "duration": 0.5, "velocity": 80 },
                { "note": 82, "start": 36.5, "duration": 0.5, "velocity": 75 },
                { "note": 63, "start": 37, "duration": 0.5, "velocity": 103 },
                { "note": 83, "start": 37, "duration": 0.5, "velocity": 76 },
                { "note": 66, "start": 37.5, "duration": 0.5, "velocity": 102 },
                { "note": 87, "start": 37.5, "duration": 0.5, "velocity": 75 },
                { "note": 61, "start": 38, "duration": 0.5, "velocity": 105 },
                { "note": 85, "start": 38, "duration": 1, "velocity": 78 },
                { "note": 65, "start": 38.5, "duration": 0.5, "velocity": 102 },
                { "note": 68, "start": 39, "duration": 0.5, "velocity": 103 },
                { "note": 80, "start": 39, "duration": 0.5, "velocity": 76 },
                { "note": 71, "start": 39.5, "duration": 0.5, "velocity": 102 },
                { "note": 83, "start": 39.5, "duration": 0.5, "velocity": 75 },
                { "note": 83, "start": 40, "duration": 2, "velocity": 80 },
                { "note": 64, "start": 40.5, "duration": 0.5, "velocity": 102 },
                { "note": 68, "start": 41, "duration": 0.5, "velocity": 103 },
                { "note": 71, "start": 41.5, "duration": 0.5, "velocity": 102 },
                { "note": 73, "start": 42, "duration": 1.5, "velocity": 105 },
                { "note": 85, "start": 42, "duration": 0.5, "velocity": 78 },
                { "note": 71, "start": 42.5, "duration": 0.5, "velocity": 102 },
                { "note": 70, "start": 43, "duration": 0.5, "velocity": 103 },
                { "note": 66, "start": 43.5, "duration": 0.5, "velocity": 102 },
                { "note": 90, "start": 43.5, "duration": 0.5, "velocity": 75 },
                { "note": 64, "start": 44, "duration": 0.5, "velocity": 107 },
                { "note": 92, "start": 44, "duration": 1, "velocity": 80 },
                { "note": 68, "start": 44.5, "duration": 0.5, "velocity": 102 },
                { "note": 71, "start": 45, "duration": 0.5, "velocity": 103 },
                { "note": 90, "start": 45, "duration": 0.5, "velocity": 76 },
                { "note": 76, "start": 45.5, "duration": 0.5, "velocity": 102 },
                { "note": 92, "start": 45.5, "duration": 0.5, "velocity": 75 },
                { "note": 90, "start": 46, "duration": 1, "velocity": 78 },
                { "note": 61, "start": 46.5, "duration": 0.5, "velocity": 102 },
                { "note": 66, "start": 47, "duration": 0.5, "velocity": 103 },
                { "note": 85, "start": 47, "duration": 0.5, "velocity": 76 },
                { "note": 70, "start": 47.5, "duration": 0.5, "velocity": 102 },
                { "note": 88, "start": 47.5, "duration": 0.5, "velocity": 75 },
                { "note": 61, "start": 48, "duration": 0.5, "velocity": 107 },
                { "note": 88, "start": 48, "duration": 1, "velocity": 80 },
                { "note": 64, "start": 48.5, "duration": 0.5, "velocity": 102 },
                { "note": 71, "start": 49, "duration": 0.5, "velocity": 103 },
                { "note": 87, "start": 49, "duration": 0.5, "velocity": 76 },
                { "note": 73, "start": 49.5, "duration": 0.5, "velocity": 102 },
                { "note": 85, "start": 49.5, "duration": 0.5, "velocity": 75 },
                { "note": 75, "start": 50, "duration": 1, "velocity": 105 },
                { "note": 84, "start": 50, "duration": 1, "velocity": 70 },
                { "note": 87, "start": 50, "duration": 0.5, "velocity": 84 },
                { "note": 73, "start": 50.5, "duration": 0.5, "velocity": 102 },
                { "note": 72, "start": 51, "duration": 0.5, "velocity": 103 },
                { "note": 85, "start": 51, "duration": 0.5, "velocity": 76 },
                { "note": 68, "start": 51.5, "duration": 0.5, "velocity": 102 },
                { "note": 87, "start": 51.5, "duration": 0.5, "velocity": 75 },
                { "note": 61, "start": 52, "duration": 0.5, "velocity": 107 },
                { "note": 88, "start": 52, "duration": 1, "velocity": 80 },
                { "note": 64, "start": 52.5, "duration": 0.5, "velocity": 102 },
                { "note": 68, "start": 53, "duration": 0.5, "velocity": 103 },
                { "note": 87, "start": 53, "duration": 0.5, "velocity": 76 },
                { "note": 73, "start": 53.5, "duration": 0.5, "velocity": 102 },
                { "note": 85, "start": 53.5, "duration": 0.5, "velocity": 75 },
                { "note": 83, "start": 54, "duration": 1, "velocity": 78 },
                { "note": 64, "start": 54.5, "duration": 0.5, "velocity": 102 },
                { "note": 70, "start": 55, "duration": 0.5, "velocity": 103 },
                { "note": 85, "start": 55, "duration": 1, "velocity": 76 },
                { "note": 71, "start": 55.5, "duration": 0.5, "velocity": 102 },
                { "note": 83, "start": 56, "duration": 2, "velocity": 75 },
                { "note": 63, "start": 56.5, "duration": 0.5, "velocity": 102 },
                { "note": 66, "start": 57, "duration": 0.5, "velocity": 103 },
                { "note": 75, "start": 58, "duration": 0.5, "velocity": 105 },
                { "note": 71, "start": 58.5, "duration": 0.5, "velocity": 102 },
                { "note": 66, "start": 59, "duration": 0.5, "velocity": 103 },
                { "note": 63, "start": 59.5, "duration": 0.5, "velocity": 102 },
                { "note": 78, "start": 60, "duration": 0.5, "velocity": 93 },
                { "note": 63, "start": 60.5, "duration": 0.25, "velocity": 107 },
                { "note": 66, "start": 60.5, "duration": 0.5, "velocity": 117 },
                { "note": 63, "start": 61, "duration": 0.25, "velocity": 108 },
                { "note": 66, "start": 61, "duration": 0.25, "velocity": 118 },
                { "note": 87, "start": 61, "duration": 1, "velocity": 89 },
                { "note": 63, "start": 61.5, "duration": 0.25, "velocity": 107 },
                { "note": 66, "start": 61.5, "duration": 0.25, "velocity": 117 },
                { "note": 88, "start": 62, "duration": 0.5, "velocity": 91 },
                { "note": 63, "start": 62.5, "duration": 0.25, "velocity": 107 },
                { "note": 66, "start": 62.5, "duration": 0.25, "velocity": 117 },
                { "note": 87, "start": 62.5, "duration": 0.5, "velocity": 88 },
                { "note": 63, "start": 63, "duration": 0.25, "velocity": 108 },
                { "note": 66, "start": 63, "duration": 0.25, "velocity": 118 },
                { "note": 85, "start": 63, "duration": 0.5, "velocity": 89 },
                { "note": 63, "start": 63.5, "duration": 0.25, "velocity": 107 },
                { "note": 66, "start": 63.5, "duration": 0.25, "velocity": 117 },
                { "note": 83, "start": 63.5, "duration": 0.5, "velocity": 88 },
                { "note": 61, "start": 64, "duration": 0.5, "velocity": 120 },
                { "note": 90, "start": 64, "duration": 1.5, "velocity": 93 },
                { "note": 68, "start": 64.5, "duration": 0.25, "velocity": 107 },
                { "note": 71, "start": 64.5, "duration": 0.25, "velocity": 117 },
                { "note": 68, "start": 65, "duration": 0.25, "velocity": 108 },
                { "note": 71, "start": 65, "duration": 0.25, "velocity": 118 },
                { "note": 68, "start": 65.5, "duration": 0.25, "velocity": 107 },
                { "note": 71, "start": 65.5, "duration": 0.25, "velocity": 117 },
                { "note": 85, "start": 65.5, "duration": 0.25, "velocity": 80 },
                { "note": 88, "start": 65.5, "duration": 0.25, "velocity": 94 },
                { "note": 87, "start": 65.75, "duration": 0.25, "velocity": 88 },
                { "note": 88, "start": 66, "duration": 0.5, "velocity": 91 },
                { "note": 66, "start": 66.5, "duration": 0.25, "velocity": 107 },
                { "note": 70, "start": 66.5, "duration": 0.25, "velocity": 121 },
                { "note": 87, "start": 66.5, "duration": 0.5, "velocity": 88 },
                { "note": 64, "start": 67, "duration": 0.25, "velocity": 108 },
                { "note": 68, "start": 67, "duration": 0.25, "velocity": 122 },
                { "note": 85, "start": 67, "duration": 0.5, "velocity": 89 },
                { "note": 63, "start": 67.5, "duration": 0.25, "velocity": 107 },
                { "note": 66, "start": 67.5, "duration": 0.25, "velocity": 121 },
                { "note": 83, "start": 67.5, "duration": 0.5, "velocity": 88 },
                { "note": 78, "start": 68, "duration": 0.5, "velocity": 93 },
                { "note": 63, "start": 68.5, "duration": 0.25, "velocity": 107 },
                { "note": 66, "start": 68.5, "duration": 0.5, "velocity": 117 },
                { "note": 63, "start": 69, "duration": 0.25, "velocity": 108 },
                { "note": 66, "start": 69, "duration": 0.25, "velocity": 118 },
                { "note": 87, "start": 69, "duration": 1, "velocity": 89 },
                { "note": 63, "start": 69.5, "duration": 0.25, "velocity": 107 },
                { "note": 66, "start": 69.5, "duration": 0.25, "velocity": 117 },
                { "note": 88, "start": 70, "duration": 0.5, "velocity": 91 },
                { "note": 63, "start": 70.5, "duration": 0.25, "velocity": 107 },
                { "note": 66, "start": 70.5, "duration": 0.25, "velocity": 117 },
                { "note": 87, "start": 70.5, "duration": 0.5, "velocity": 88 },
                { "note": 63, "start": 71, "duration": 0.25, "velocity": 108 },
                { "note": 66, "start": 71, "duration": 0.25, "velocity": 122 },
                { "note": 85, "start": 71, "duration": 0.5, "velocity": 89 },
                { "note": 66, "start": 71.5, "duration": 0.25, "velocity": 107 },
                { "note": 71, "start": 71.5, "duration": 0.5, "velocity": 121 },
                { "note": 83, "start": 71.5, "duration": 0.25, "velocity": 88 },
                { "note": 63, "start": 72, "duration": 0.5, "velocity": 120 },
                { "note": 90, "start": 72, "duration": 3, "velocity": 88 },
                { "note": 66, "start": 72.5, "duration": 0.25, "velocity": 107 },
                { "note": 70, "start": 72.5, "duration": 0.25, "velocity": 117 },
                { "note": 66, "start": 73, "duration": 0.25, "velocity": 108 },
                { "note": 70, "start": 73, "duration": 0.25, "velocity": 118 },
                { "note": 66, "start": 73.5, "duration": 0.25, "velocity": 107 },
                { "note": 70, "start": 73.5, "duration": 0.25, "velocity": 121 },
                { "note": 68, "start": 74, "duration": 0.25, "velocity": 110 },
                { "note": 71, "start": 74, "duration": 0.25, "velocity": 124 },
                { "note": 68, "start": 74.5, "duration": 0.25, "velocity": 107 },
                { "note": 71, "start": 74.5, "duration": 0.25, "velocity": 121 },
                { "note": 70, "start": 75, "duration": 0.25, "velocity": 108 },
                { "note": 73, "start": 75, "duration": 0.25, "velocity": 122 },
                { "note": 92, "start": 75, "duration": 0.5, "velocity": 89 },
                { "note": 70, "start": 75.5, "duration": 0.25, "velocity": 107 },
                { "note": 73, "start": 75.5, "duration": 0.25, "velocity": 117 },
                { "note": 94, "start": 75.5, "duration": 0.5, "velocity": 88 },
                { "note": 95, "start": 76, "duration": 1, "velocity": 93 },
                { "note": 68, "start": 76.5, "duration": 0.25, "velocity": 107 },
                { "note": 71, "start": 76.5, "duration": 0.25, "velocity": 117 },
                { "note": 68, "start": 77, "duration": 0.25, "velocity": 108 },
                { "note": 71, "start": 77, "duration": 0.25, "velocity": 118 },
                { "note": 94, "start": 77, "duration": 0.5, "velocity": 89 },
                { "note": 68, "start": 77.5, "duration": 0.25, "velocity": 107 },
                { "note": 71, "start": 77.5, "duration": 0.25, "velocity": 117 },
                { "note": 92, "start": 77.5, "duration": 0.5, "velocity": 88 },
                { "note": 63, "start": 78, "duration": 0.5, "velocity": 118 },
                { "note": 90, "start": 78, "duration": 1, "velocity": 91 },
                { "note": 66, "start": 78.5, "duration": 0.25, "velocity": 107 },
                { "note": 70, "start": 78.5, "duration": 0.25, "velocity": 117 },
                { "note": 66, "start": 79, "duration": 0.25, "velocity": 108 },
                { "note": 70, "start": 79, "duration": 0.25, "velocity": 118 },
                { "note": 87, "start": 79, "duration": 1, "velocity": 89 },
                { "note": 66, "start": 79.5, "duration": 0.25, "velocity": 107 },
                { "note": 70, "start": 79.5, "duration": 0.25, "velocity": 117 },
                { "note": 92, "start": 80, "duration": 1, "velocity": 93 },
                { "note": 64, "start": 80.5, "duration": 0.25, "velocity": 107 },
                { "note": 68, "start": 80.5, "duration": 0.25, "velocity": 117 },
                { "note": 64, "start": 81, "duration": 0.25, "velocity": 108 },
                { "note": 68, "start": 81, "duration": 0.25, "velocity": 118 },
                { "note": 90, "start": 81, "duration": 0.5, "velocity": 89 },
                { "note": 64, "start": 81.5, "duration": 0.25, "velocity": 107 },
                { "note": 68, "start": 81.5, "duration": 0.25, "velocity": 117 },
                { "note": 88, "start": 81.5, "duration": 0.5, "velocity": 88 },
                { "note": 87, "start": 82, "duration": 1, "velocity": 91 },
                { "note": 63, "start": 82.5, "duration": 0.25, "velocity": 107 },
                { "note": 66, "start": 82.5, "duration": 0.25, "velocity": 121 },
                { "note": 85, "start": 83, "duration": 1, "velocity": 89 },
                { "note": 66, "start": 83.5, "duration": 0.25, "velocity": 107 },
                { "note": 70, "start": 83.5, "duration": 0.25, "velocity": 121 },
                { "note": 83, "start": 84, "duration": 0.5, "velocity": 93 },
                { "note": 63, "start": 84.5, "duration": 0.25, "velocity": 107 },
                { "note": 66, "start": 84.5, "duration": 0.25, "velocity": 117 },
                { "note": 82, "start": 84.5, "duration": 0.5, "velocity": 88 },
                { "note": 63, "start": 85, "duration": 0.25, "velocity": 108 },
                { "note": 66, "start": 85, "duration": 0.25, "velocity": 118 },
                { "note": 83, "start": 85, "duration": 0.5, "velocity": 89 },
                { "note": 63, "start": 85.5, "duration": 0.25, "velocity": 107 },
                { "note": 66, "start": 85.5, "duration": 0.25, "velocity": 117 },
                { "note": 87, "start": 85.5, "duration": 0.5, "velocity": 88 },
                { "note": 61, "start": 86, "duration": 0.5, "velocity": 118 },
                { "note": 85, "start": 86, "duration": 1, "velocity": 91 },
                { "note": 65, "start": 86.5, "duration": 0.25, "velocity": 107 },
                { "note": 68, "start": 86.5, "duration": 0.25, "velocity": 117 },
                { "note": 65, "start": 87, "duration": 0.25, "velocity": 108 },
                { "note": 68, "start": 87, "duration": 0.5, "velocity": 118 },
                { "note": 80, "start": 87, "duration": 0.25, "velocity": 89 },
                { "note": 65, "start": 87.5, "duration": 0.25, "velocity": 107 },
                { "note": 68, "start": 87.5, "duration": 0.25, "velocity": 117 },
                { "note": 83, "start": 87.5, "duration": 0.5, "velocity": 88 },
                { "note": 83, "start": 88, "duration": 1.5, "velocity": 93 },
                { "note": 64, "start": 88.5, "duration": 0.25, "velocity": 121 },
                { "note": 64, "start": 89, "duration": 0.25, "velocity": 108 },
                { "note": 68, "start": 89, "duration": 0.25, "velocity": 122 },
                { "note": 68, "start": 89.5, "duration": 0.25, "velocity": 107 },
                { "note": 71, "start": 89.5, "duration": 0.5, "velocity": 121 },
                { "note": 70, "start": 90, "duration": 0.25, "velocity": 110 },
                { "note": 73, "start": 90, "duration": 1.5, "velocity": 124 },
                { "note": 85, "start": 90, "duration": 0.25, "velocity": 91 },
                { "note": 68, "start": 90.5, "duration": 0.25, "velocity": 107 },
                { "note": 71, "start": 90.5, "duration": 0.25, "velocity": 121 },
                { "note": 66, "start": 91, "duration": 0.25, "velocity": 108 },
                { "note": 70, "start": 91, "duration": 0.25, "velocity": 122 },
                { "note": 61, "start": 91.5, "duration": 0.25, "velocity": 107 },
                { "note": 66, "start": 91.5, "duration": 0.25, "velocity": 121 },
                { "note": 90, "start": 91.5, "duration": 0.5, "velocity": 88 },
                { "note": 64, "start": 92, "duration": 0.5, "velocity": 120 },
                { "note": 92, "start": 92, "duration": 1, "velocity": 93 },
                { "note": 68, "start": 92.5, "duration": 0.25, "velocity": 107 },
                { "note": 71, "start": 92.5, "duration": 0.25, "velocity": 117 },
                { "note": 68, "start": 93, "duration": 0.25, "velocity": 108 },
                { "note": 71, "start": 93, "duration": 0.25, "velocity": 118 },
                { "note": 90, "start": 93, "duration": 0.5, "velocity": 89 },
                { "note": 68, "start": 93.5, "duration": 0.25, "velocity": 107 },
                { "note": 71, "start": 93.5, "duration": 0.25, "velocity": 117 },
                { "note": 92, "start": 93.5, "duration": 0.5, "velocity": 88 },
                { "note": 66, "start": 94, "duration": 0.5, "velocity": 118 },
                { "note": 90, "start": 94, "duration": 1, "velocity": 91 },
                { "note": 70, "start": 94.5, "duration": 0.25, "velocity": 107 },
                { "note": 73, "start": 94.5, "duration": 0.25, "velocity": 117 },
                { "note": 70, "start": 95, "duration": 0.25, "velocity": 108 },
                { "note": 73, "start": 95, "duration": 0.5, "velocity": 118 },
                { "note": 85, "start": 95, "duration": 0.25, "velocity": 89 },
                { "note": 70, "start": 95.5, "duration": 0.25, "velocity": 107 },
                { "note": 73, "start": 95.5, "duration": 0.25, "velocity": 117 },
                { "note": 88, "start": 95.5, "duration": 0.5, "velocity": 88 },
                { "note": 88, "start": 96, "duration": 1, "velocity": 93 },
                { "note": 64, "start": 96.5, "duration": 0.25, "velocity": 121 },
                { "note": 87, "start": 97, "duration": 0.5, "velocity": 89 },
                { "note": 63, "start": 97.5, "duration": 0.25, "velocity": 107 },
                { "note": 66, "start": 97.5, "duration": 0.25, "velocity": 121 },
                { "note": 85, "start": 97.5, "duration": 0.5, "velocity": 88 },
                { "note": 84, "start": 98, "duration": 1, "velocity": 91 },
                { "note": 60, "start": 98.5, "duration": 0.25, "velocity": 107 },
                { "note": 63, "start": 98.5, "duration": 0.25, "velocity": 117 },
                { "note": 60, "start": 99, "duration": 0.25, "velocity": 108 },
                { "note": 63, "start": 99, "duration": 0.25, "velocity": 118 },
                { "note": 85, "start": 99, "duration": 0.5, "velocity": 89 },
                { "note": 60, "start": 99.5, "duration": 0.25, "velocity": 107 },
                { "note": 63, "start": 99.5, "duration": 0.25, "velocity": 117 },
                { "note": 87, "start": 99.5, "duration": 0.5, "velocity": 88 },
                { "note": 61, "start": 100, "duration": 0.5, "velocity": 120 },
                { "note": 88, "start": 100, "duration": 1, "velocity": 93 },
                { "note": 64, "start": 100.5, "duration": 0.25, "velocity": 107 },
                { "note": 68, "start": 100.5, "duration": 0.25, "velocity": 117 },
                { "note": 64, "start": 101, "duration": 0.25, "velocity": 108 },
                { "note": 68, "start": 101, "duration": 0.25, "velocity": 118 },
                { "note": 87, "start": 101, "duration": 0.5, "velocity": 89 },
                { "note": 64, "start": 101.5, "duration": 0.25, "velocity": 107 },
                { "note": 68, "start": 101.5, "duration": 0.25, "velocity": 117 },
                { "note": 85, "start": 101.5, "duration": 0.5, "velocity": 88 },
                { "note": 83, "start": 102, "duration": 1, "velocity": 91 },
                { "note": 61, "start": 102.5, "duration": 0.25, "velocity": 107 },
                { "note": 64, "start": 102.5, "duration": 0.25, "velocity": 117 },
                { "note": 61, "start": 103, "duration": 0.25, "velocity": 108 },
                { "note": 64, "start": 103, "duration": 0.25, "velocity": 118 },
                { "note": 85, "start": 103, "duration": 1, "velocity": 89 },
                { "note": 61, "start": 103.5, "duration": 0.25, "velocity": 107 },
                { "note": 64, "start": 103.5, "duration": 0.25, "velocity": 117 },
                { "note": 83, "start": 104, "duration": 3.5, "velocity": 88 },
                { "note": 63, "start": 104.5, "duration": 0.25, "velocity": 127 },
                { "note": 63, "start": 105, "duration": 0.25, "velocity": 117 },
                { "note": 66, "start": 105, "duration": 0.25, "velocity": 127 },
                { "note": 61, "start": 105.5, "duration": 0.25, "velocity": 116 },
                { "note": 64, "start": 105.5, "duration": 0.25, "velocity": 127 },
                { "note": 63, "start": 106, "duration": 1.5, "velocity": 127 },
                { "note": 87, "start": 107.5, "duration": 0.5, "velocity": 88 },
                { "note": 61, "start": 108, "duration": 0.5, "velocity": 120 },
                { "note": 88, "start": 108, "duration": 1, "velocity": 93 },
                { "note": 64, "start": 108.5, "duration": 0.25, "velocity": 107 },
                { "note": 68, "start": 108.5, "duration": 0.25, "velocity": 117 },
                { "note": 64, "start": 109, "duration": 0.25, "velocity": 108 },
                { "note": 68, "start": 109, "duration": 0.25, "velocity": 118 },
                { "note": 87, "start": 109, "duration": 0.5, "velocity": 89 },
                { "note": 64, "start": 109.5, "duration": 0.25, "velocity": 107 },
                { "note": 68, "start": 109.5, "duration": 0.25, "velocity": 117 },
                { "note": 85, "start": 109.5, "duration": 0.5, "velocity": 88 },
                { "note": 83, "start": 110, "duration": 1, "velocity": 91 },
                { "note": 61, "start": 110.5, "duration": 0.25, "velocity": 107 },
                { "note": 64, "start": 110.5, "duration": 0.25, "velocity": 117 },
                { "note": 61, "start": 111, "duration": 0.25, "velocity": 108 },
                { "note": 64, "start": 111, "duration": 0.25, "velocity": 118 },
                { "note": 85, "start": 111, "duration": 1, "velocity": 89 },
                { "note": 61, "start": 111.5, "duration": 0.25, "velocity": 107 },
                { "note": 64, "start": 111.5, "duration": 0.25, "velocity": 117 },
                { "note": 83, "start": 112, "duration": 4, "velocity": 88 },
                { "note": 63, "start": 112.5, "duration": 0.25, "velocity": 127 },
                { "note": 63, "start": 113, "duration": 0.25, "velocity": 117 },
                { "note": 66, "start": 113, "duration": 0.25, "velocity": 127 },
                { "note": 61, "start": 113.5, "duration": 0.25, "velocity": 116 },
                { "note": 64, "start": 113.5, "duration": 0.25, "velocity": 127 },
                { "note": 63, "start": 114, "duration": 1.5, "velocity": 127 },
                { "note": 78, "start": 116, "duration": 1, "velocity": 80 },
                { "note": 63, "start": 116.5, "duration": 0.5, "velocity": 102 },
                { "note": 66, "start": 117, "duration": 0.5, "velocity": 103 },
                { "note": 87, "start": 117, "duration": 1, "velocity": 76 },
                { "note": 71, "start": 117.5, "duration": 0.5, "velocity": 102 },
                { "note": 88, "start": 118, "duration": 0.5, "velocity": 78 },
                { "note": 87, "start": 118.5, "duration": 0.5, "velocity": 75 },
                { "note": 63, "start": 119, "duration": 0.5, "velocity": 103 },
                { "note": 85, "start": 119, "duration": 0.5, "velocity": 76 },
                { "note": 66, "start": 119.5, "duration": 0.5, "velocity": 102 },
                { "note": 83, "start": 119.5, "duration": 0.5, "velocity": 75 },
                { "note": 61, "start": 120, "duration": 0.5, "velocity": 107 },
                { "note": 90, "start": 120, "duration": 1.5, "velocity": 80 },
                { "note": 64, "start": 120.5, "duration": 0.5, "velocity": 102 },
                { "note": 68, "start": 121, "duration": 0.5, "velocity": 103 },
                { "note": 73, "start": 121.5, "duration": 0.5, "velocity": 102 },
                { "note": 85, "start": 121.5, "duration": 0.5, "velocity": 75 },
                { "note": 85, "start": 122, "duration": 2, "velocity": 78 },
                { "note": 61, "start": 123, "duration": 0.5, "velocity": 103 },
                { "note": 66, "start": 123.5, "duration": 0.5, "velocity": 102 },
                { "note": 78, "start": 124, "duration": 1, "velocity": 80 },
                { "note": 63, "start": 124.5, "duration": 0.5, "velocity": 102 },
                { "note": 66, "start": 125, "duration": 0.5, "velocity": 103 },
                { "note": 87, "start": 125, "duration": 1, "velocity": 76 },
                { "note": 71, "start": 125.5, "duration": 0.5, "velocity": 102 },
                { "note": 88, "start": 126, "duration": 0.5, "velocity": 78 },
                { "note": 87, "start": 126.5, "duration": 0.5, "velocity": 75 },
                { "note": 63, "start": 127, "duration": 0.5, "velocity": 103 },
                { "note": 85, "start": 127, "duration": 0.5, "velocity": 76 },
                { "note": 66, "start": 127.5, "duration": 0.5, "velocity": 102 },
                { "note": 83, "start": 127.5, "duration": 0.5, "velocity": 75 },
                { "note": 90, "start": 128, "duration": 3, "velocity": 75 },
                { "note": 63, "start": 128.5, "duration": 0.5, "velocity": 102 },
                { "note": 66, "start": 129, "duration": 0.5, "velocity": 103 },
                { "note": 70, "start": 129.5, "duration": 0.5, "velocity": 102 },
                { "note": 75, "start": 130, "duration": 0.5, "velocity": 105 },
                { "note": 70, "start": 130.5, "duration": 0.5, "velocity": 102 },
                { "note": 66, "start": 131, "duration": 0.5, "velocity": 103 },
                { "note": 92, "start": 131, "duration": 0.5, "velocity": 76 },
                { "note": 63, "start": 131.5, "duration": 0.5, "velocity": 102 },
                { "note": 94, "start": 131.5, "duration": 0.5, "velocity": 75 },
                { "note": 95, "start": 132, "duration": 1, "velocity": 80 },
                { "note": 63, "start": 133, "duration": 0.5, "velocity": 103 },
                { "note": 94, "start": 133, "duration": 0.5, "velocity": 76 },
                { "note": 66, "start": 133.5, "duration": 0.5, "velocity": 102 },
                { "note": 92, "start": 133.5, "duration": 0.5, "velocity": 75 },
                { "note": 90, "start": 134, "duration": 1, "velocity": 78 },
                { "note": 63, "start": 134.5, "duration": 0.5, "velocity": 102 },
                { "note": 66, "start": 135, "duration": 0.5, "velocity": 103 },
                { "note": 87, "start": 135, "duration": 1, "velocity": 76 },
                { "note": 70, "start": 135.5, "duration": 0.5, "velocity": 102 },
                { "note": 64, "start": 136, "duration": 0.5, "velocity": 107 },
                { "note": 92, "start": 136, "duration": 1, "velocity": 80 },
                { "note": 68, "start": 136.5, "duration": 0.5, "velocity": 102 },
                { "note": 71, "start": 137, "duration": 0.5, "velocity": 103 },
                { "note": 90, "start": 137, "duration": 0.5, "velocity": 76 },
                { "note": 76, "start": 137.5, "duration": 0.5, "velocity": 102 },
                { "note": 88, "start": 137.5, "duration": 0.5, "velocity": 75 },
                { "note": 87, "start": 138, "duration": 1, "velocity": 78 },
                { "note": 63, "start": 138.5, "duration": 0.5, "velocity": 102 },
                { "note": 66, "start": 139, "duration": 0.5, "velocity": 103 },
                { "note": 85, "start": 139, "duration": 1, "velocity": 76 },
                { "note": 70, "start": 139.5, "duration": 0.5, "velocity": 102 },
                { "note": 83, "start": 140, "duration": 0.5, "velocity": 80 },
                { "note": 82, "start": 140.5, "duration": 0.5, "velocity": 75 },
                { "note": 63, "start": 141, "duration": 0.5, "velocity": 103 },
                { "note": 83, "start": 141, "duration": 0.5, "velocity": 76 },
                { "note": 66, "start": 141.5, "duration": 0.5, "velocity": 102 },
                { "note": 87, "start": 141.5, "duration": 0.5, "velocity": 75 },
                { "note": 61, "start": 142, "duration": 0.5, "velocity": 105 },
                { "note": 85, "start": 142, "duration": 1, "velocity": 78 },
                { "note": 65, "start": 142.5, "duration": 0.5, "velocity": 102 },
                { "note": 68, "start": 143, "duration": 0.5, "velocity": 103 },
                { "note": 80, "start": 143, "duration": 0.5, "velocity": 76 },
                { "note": 71, "start": 143.5, "duration": 0.5, "velocity": 102 },
                { "note": 83, "start": 143.5, "duration": 0.5, "velocity": 75 },
                { "note": 83, "start": 144, "duration": 2, "velocity": 80 },
                { "note": 64, "start": 144.5, "duration": 0.5, "velocity": 102 },
                { "note": 68, "start": 145, "duration": 0.5, "velocity": 103 },
                { "note": 71, "start": 145.5, "duration": 0.5, "velocity": 102 },
                { "note": 73, "start": 146, "duration": 1.5, "velocity": 105 },
                { "note": 85, "start": 146, "duration": 0.5, "velocity": 78 },
                { "note": 71, "start": 146.5, "duration": 0.5, "velocity": 102 },
                { "note": 70, "start": 147, "duration": 0.5, "velocity": 103 },
                { "note": 66, "start": 147.5, "duration": 0.5, "velocity": 102 },
                { "note": 90, "start": 147.5, "duration": 0.5, "velocity": 75 },
                { "note": 64, "start": 148, "duration": 0.5, "velocity": 107 },
                { "note": 92, "start": 148, "duration": 1, "velocity": 80 },
                { "note": 68, "start": 148.5, "duration": 0.5, "velocity": 102 },
                { "note": 71, "start": 149, "duration": 0.5, "velocity": 103 },
                { "note": 90, "start": 149, "duration": 0.5, "velocity": 76 },
                { "note": 76, "start": 149.5, "duration": 0.5, "velocity": 102 },
                { "note": 92, "start": 149.5, "duration": 0.5, "velocity": 75 },
                { "note": 90, "start": 150, "duration": 1, "velocity": 78 },
                { "note": 61, "start": 150.5, "duration": 0.5, "velocity": 102 },
                { "note": 66, "start": 151, "duration": 0.5, "velocity": 103 },
                { "note": 85, "start": 151, "duration": 0.5, "velocity": 76 },
                { "note": 70, "start": 151.5, "duration": 0.5, "velocity": 102 },
                { "note": 88, "start": 151.5, "duration": 0.5, "velocity": 75 },
                { "note": 61, "start": 152, "duration": 0.5, "velocity": 107 },
                { "note": 88, "start": 152, "duration": 1, "velocity": 80 },
                { "note": 64, "start": 152.5, "duration": 0.5, "velocity": 102 },
                { "note": 71, "start": 153, "duration": 0.5, "velocity": 103 },
                { "note": 87, "start": 153, "duration": 0.5, "velocity": 76 },
                { "note": 73, "start": 153.5, "duration": 0.5, "velocity": 102 },
                { "note": 85, "start": 153.5, "duration": 0.5, "velocity": 75 },
                { "note": 75, "start": 154, "duration": 1, "velocity": 105 },
                { "note": 84, "start": 154, "duration": 1, "velocity": 70 },
                { "note": 87, "start": 154, "duration": 0.5, "velocity": 84 },
                { "note": 73, "start": 154.5, "duration": 0.5, "velocity": 102 },
                { "note": 72, "start": 155, "duration": 0.5, "velocity": 103 },
                { "note": 85, "start": 155, "duration": 0.5, "velocity": 76 },
                { "note": 68, "start": 155.5, "duration": 0.5, "velocity": 102 },
                { "note": 87, "start": 155.5, "duration": 0.5, "velocity": 75 },
                { "note": 61, "start": 156, "duration": 0.5, "velocity": 107 },
                { "note": 88, "start": 156, "duration": 1, "velocity": 80 },
                { "note": 64, "start": 156.5, "duration": 0.5, "velocity": 102 },
                { "note": 68, "start": 157, "duration": 0.5, "velocity": 103 },
                { "note": 87, "start": 157, "duration": 0.5, "velocity": 76 },
                { "note": 73, "start": 157.5, "duration": 0.5, "velocity": 102 },
                { "note": 85, "start": 157.5, "duration": 0.5, "velocity": 75 },
                { "note": 83, "start": 158, "duration": 1, "velocity": 78 },
                { "note": 64, "start": 158.5, "duration": 0.5, "velocity": 102 },
                { "note": 70, "start": 159, "duration": 0.5, "velocity": 103 },
                { "note": 85, "start": 159, "duration": 1, "velocity": 76 },
                { "note": 71, "start": 159.5, "duration": 0.5, "velocity": 102 },
                { "note": 83, "start": 160, "duration": 2, "velocity": 75 },
                { "note": 63, "start": 160.5, "duration": 0.5, "velocity": 102 },
                { "note": 66, "start": 161, "duration": 0.5, "velocity": 103 },
                { "note": 75, "start": 162, "duration": 0.5, "velocity": 105 },
                { "note": 71, "start": 162.5, "duration": 0.5, "velocity": 102 },
                { "note": 66, "start": 163, "duration": 0.5, "velocity": 103 },
                { "note": 63, "start": 163.5, "duration": 0.5, "velocity": 102 },
                { "note": 78, "start": 164, "duration": 0.5, "velocity": 93 },
                { "note": 63, "start": 164.5, "duration": 0.25, "velocity": 107 },
                { "note": 66, "start": 164.5, "duration": 0.5, "velocity": 117 },
                { "note": 63, "start": 165, "duration": 0.25, "velocity": 108 },
                { "note": 66, "start": 165, "duration": 0.25, "velocity": 118 },
                { "note": 87, "start": 165, "duration": 1, "velocity": 89 },
                { "note": 63, "start": 165.5, "duration": 0.25, "velocity": 107 },
                { "note": 66, "start": 165.5, "duration": 0.25, "velocity": 117 },
                { "note": 88, "start": 166, "duration": 0.5, "velocity": 91 },
                { "note": 63, "start": 166.5, "duration": 0.25, "velocity": 107 },
                { "note": 66, "start": 166.5, "duration": 0.25, "velocity": 117 },
                { "note": 87, "start": 166.5, "duration": 0.5, "velocity": 88 },
                { "note": 63, "start": 167, "duration": 0.25, "velocity": 108 },
                { "note": 66, "start": 167, "duration": 0.25, "velocity": 118 },
                { "note": 85, "start": 167, "duration": 0.5, "velocity": 89 },
                { "note": 63, "start": 167.5, "duration": 0.25, "velocity": 107 },
                { "note": 66, "start": 167.5, "duration": 0.25, "velocity": 117 },
                { "note": 83, "start": 167.5, "duration": 0.5, "velocity": 88 },
                { "note": 61, "start": 168, "duration": 0.5, "velocity": 120 },
                { "note": 90, "start": 168, "duration": 1.5, "velocity": 93 },
                { "note": 68, "start": 168.5, "duration": 0.25, "velocity": 107 },
                { "note": 71, "start": 168.5, "duration": 0.25, "velocity": 117 },
                { "note": 68, "start": 169, "duration": 0.25, "velocity": 108 },
                { "note": 71, "start": 169, "duration": 0.25, "velocity": 118 },
                { "note": 68, "start": 169.5, "duration": 0.25, "velocity": 107 },
                { "note": 71, "start": 169.5, "duration": 0.25, "velocity": 117 },
                { "note": 85, "start": 169.5, "duration": 0.25, "velocity": 80 },
                { "note": 88, "start": 169.5, "duration": 0.25, "velocity": 94 },
                { "note": 87, "start": 169.75, "duration": 0.25, "velocity": 88 },
                { "note": 88, "start": 170, "duration": 0.5, "velocity": 91 },
                { "note": 66, "start": 170.5, "duration": 0.25, "velocity": 107 },
                { "note": 70, "start": 170.5, "duration": 0.25, "velocity": 121 },
                { "note": 87, "start": 170.5, "duration": 0.5, "velocity": 88 },
                { "note": 64, "start": 171, "duration": 0.25, "velocity": 108 },
                { "note": 68, "start": 171, "duration": 0.25, "velocity": 122 },
                { "note": 85, "start": 171, "duration": 0.5, "velocity": 89 },
                { "note": 63, "start": 171.5, "duration": 0.25, "velocity": 107 },
                { "note": 66, "start": 171.5, "duration": 0.25, "velocity": 121 },
                { "note": 83, "start": 171.5, "duration": 0.5, "velocity": 88 },
                { "note": 78, "start": 172, "duration": 0.5, "velocity": 93 },
                { "note": 63, "start": 172.5, "duration": 0.25, "velocity": 107 },
                { "note": 66, "start": 172.5, "duration": 0.5, "velocity": 117 },
                { "note": 63, "start": 173, "duration": 0.25, "velocity": 108 },
                { "note": 66, "start": 173, "duration": 0.25, "velocity": 118 },
                { "note": 87, "start": 173, "duration": 1, "velocity": 89 },
                { "note": 63, "start": 173.5, "duration": 0.25, "velocity": 107 },
                { "note": 66, "start": 173.5, "duration": 0.25, "velocity": 117 },
                { "note": 88, "start": 174, "duration": 0.5, "velocity": 91 },
                { "note": 63, "start": 174.5, "duration": 0.25, "velocity": 107 },
                { "note": 66, "start": 174.5, "duration": 0.25, "velocity": 117 },
                { "note": 87, "start": 174.5, "duration": 0.5, "velocity": 88 },
                { "note": 63, "start": 175, "duration": 0.25, "velocity": 108 },
                { "note": 66, "start": 175, "duration": 0.25, "velocity": 122 },
                { "note": 85, "start": 175, "duration": 0.5, "velocity": 89 },
                { "note": 66, "start": 175.5, "duration": 0.25, "velocity": 107 },
                { "note": 71, "start": 175.5, "duration": 0.5, "velocity": 121 },
                { "note": 83, "start": 175.5, "duration": 0.25, "velocity": 88 },
                { "note": 63, "start": 176, "duration": 0.5, "velocity": 120 },
                { "note": 90, "start": 176, "duration": 3, "velocity": 88 },
                { "note": 66, "start": 176.5, "duration": 0.25, "velocity": 107 },
                { "note": 70, "start": 176.5, "duration": 0.25, "velocity": 117 },
                { "note": 66, "start": 177, "duration": 0.25, "velocity": 108 },
                { "note": 70, "start": 177, "duration": 0.25, "velocity": 118 },
                { "note": 66, "start": 177.5, "duration": 0.25, "velocity": 107 },
                { "note": 70, "start": 177.5, "duration": 0.25, "velocity": 121 },
                { "note": 68, "start": 178, "duration": 0.25, "velocity": 110 },
                { "note": 71, "start": 178, "duration": 0.25, "velocity": 124 },
                { "note": 68, "start": 178.5, "duration": 0.25, "velocity": 107 },
                { "note": 71, "start": 178.5, "duration": 0.25, "velocity": 121 },
                { "note": 70, "start": 179, "duration": 0.25, "velocity": 108 },
                { "note": 73, "start": 179, "duration": 0.25, "velocity": 122 },
                { "note": 92, "start": 179, "duration": 0.5, "velocity": 89 },
                { "note": 70, "start": 179.5, "duration": 0.25, "velocity": 107 },
                { "note": 73, "start": 179.5, "duration": 0.25, "velocity": 117 },
                { "note": 94, "start": 179.5, "duration": 0.5, "velocity": 88 },
                { "note": 95, "start": 180, "duration": 1, "velocity": 93 },
                { "note": 68, "start": 180.5, "duration": 0.25, "velocity": 107 },
                { "note": 71, "start": 180.5, "duration": 0.25, "velocity": 117 },
                { "note": 68, "start": 181, "duration": 0.25, "velocity": 108 },
                { "note": 71, "start": 181, "duration": 0.25, "velocity": 118 },
                { "note": 94, "start": 181, "duration": 0.5, "velocity": 89 },
                { "note": 68, "start": 181.5, "duration": 0.25, "velocity": 107 },
                { "note": 71, "start": 181.5, "duration": 0.25, "velocity": 117 },
                { "note": 92, "start": 181.5, "duration": 0.5, "velocity": 88 },
                { "note": 63, "start": 182, "duration": 0.5, "velocity": 118 },
                { "note": 90, "start": 182, "duration": 1, "velocity": 91 },
                { "note": 66, "start": 182.5, "duration": 0.25, "velocity": 107 },
                { "note": 70, "start": 182.5, "duration": 0.25, "velocity": 117 },
                { "note": 66, "start": 183, "duration": 0.25, "velocity": 108 },
                { "note": 70, "start": 183, "duration": 0.25, "velocity": 118 },
                { "note": 87, "start": 183, "duration": 1, "velocity": 89 },
                { "note": 66, "start": 183.5, "duration": 0.25, "velocity": 107 },
                { "note": 70, "start": 183.5, "duration": 0.25, "velocity": 117 },
                { "note": 92, "start": 184, "duration": 1, "velocity": 93 },
                { "note": 64, "start": 184.5, "duration": 0.25, "velocity": 107 },
                { "note": 68, "start": 184.5, "duration": 0.25, "velocity": 117 },
                { "note": 64, "start": 185, "duration": 0.25, "velocity": 108 },
                { "note": 68, "start": 185, "duration": 0.25, "velocity": 118 },
                { "note": 90, "start": 185, "duration": 0.5, "velocity": 89 },
                { "note": 64, "start": 185.5, "duration": 0.25, "velocity": 107 },
                { "note": 68, "start": 185.5, "duration": 0.25, "velocity": 117 },
                { "note": 88, "start": 185.5, "duration": 0.5, "velocity": 88 },
                { "note": 87, "start": 186, "duration": 1, "velocity": 91 },
                { "note": 63, "start": 186.5, "duration": 0.25, "velocity": 107 },
                { "note": 66, "start": 186.5, "duration": 0.25, "velocity": 121 },
                { "note": 85, "start": 187, "duration": 1, "velocity": 89 },
                { "note": 66, "start": 187.5, "duration": 0.25, "velocity": 107 },
                { "note": 70, "start": 187.5, "duration": 0.25, "velocity": 121 },
                { "note": 83, "start": 188, "duration": 0.5, "velocity": 93 },
                { "note": 63, "start": 188.5, "duration": 0.25, "velocity": 107 },
                { "note": 66, "start": 188.5, "duration": 0.25, "velocity": 117 },
                { "note": 82, "start": 188.5, "duration": 0.5, "velocity": 88 },
                { "note": 63, "start": 189, "duration": 0.25, "velocity": 108 },
                { "note": 66, "start": 189, "duration": 0.25, "velocity": 118 },
                { "note": 83, "start": 189, "duration": 0.5, "velocity": 89 },
                { "note": 63, "start": 189.5, "duration": 0.25, "velocity": 107 },
                { "note": 66, "start": 189.5, "duration": 0.25, "velocity": 117 },
                { "note": 87, "start": 189.5, "duration": 0.5, "velocity": 88 },
                { "note": 61, "start": 190, "duration": 0.5, "velocity": 118 },
                { "note": 85, "start": 190, "duration": 1, "velocity": 91 },
                { "note": 65, "start": 190.5, "duration": 0.25, "velocity": 107 },
                { "note": 68, "start": 190.5, "duration": 0.25, "velocity": 117 },
                { "note": 65, "start": 191, "duration": 0.25, "velocity": 108 },
                { "note": 68, "start": 191, "duration": 0.5, "velocity": 118 },
                { "note": 80, "start": 191, "duration": 0.25, "velocity": 89 },
                { "note": 65, "start": 191.5, "duration": 0.25, "velocity": 107 },
                { "note": 68, "start": 191.5, "duration": 0.25, "velocity": 117 },
                { "note": 83, "start": 191.5, "duration": 0.5, "velocity": 88 },
                { "note": 83, "start": 192, "duration": 1.5, "velocity": 93 },
                { "note": 64, "start": 192.5, "duration": 0.25, "velocity": 121 },
                { "note": 64, "start": 193, "duration": 0.25, "velocity": 108 },
                { "note": 68, "start": 193, "duration": 0.25, "velocity": 122 },
                { "note": 68, "start": 193.5, "duration": 0.25, "velocity": 107 },
                { "note": 71, "start": 193.5, "duration": 0.5, "velocity": 121 },
                { "note": 70, "start": 194, "duration": 0.25, "velocity": 110 },
                { "note": 73, "start": 194, "duration": 1.5, "velocity": 124 },
                { "note": 85, "start": 194, "duration": 0.25, "velocity": 91 },
                { "note": 68, "start": 194.5, "duration": 0.25, "velocity": 107 },
                { "note": 71, "start": 194.5, "duration": 0.25, "velocity": 121 },
                { "note": 66, "start": 195, "duration": 0.25, "velocity": 108 },
                { "note": 70, "start": 195, "duration": 0.25, "velocity": 122 },
                { "note": 61, "start": 195.5, "duration": 0.25, "velocity": 107 },
                { "note": 66, "start": 195.5, "duration": 0.25, "velocity": 121 },
                { "note": 90, "start": 195.5, "duration": 0.5, "velocity": 88 },
                { "note": 64, "start": 196, "duration": 0.5, "velocity": 120 },
                { "note": 92, "start": 196, "duration": 1, "velocity": 93 },
                { "note": 68, "start": 196.5, "duration": 0.25, "velocity": 107 },
                { "note": 71, "start": 196.5, "duration": 0.25, "velocity": 117 },
                { "note": 68, "start": 197, "duration": 0.25, "velocity": 108 },
                { "note": 71, "start": 197, "duration": 0.25, "velocity": 118 },
                { "note": 90, "start": 197, "duration": 0.5, "velocity": 89 },
                { "note": 68, "start": 197.5, "duration": 0.25, "velocity": 107 },
                { "note": 71, "start": 197.5, "duration": 0.25, "velocity": 117 },
                { "note": 92, "start": 197.5, "duration": 0.5, "velocity": 88 },
                { "note": 66, "start": 198, "duration": 0.5, "velocity": 118 },
                { "note": 90, "start": 198, "duration": 1, "velocity": 91 },
                { "note": 70, "start": 198.5, "duration": 0.25, "velocity": 107 },
                { "note": 73, "start": 198.5, "duration": 0.25, "velocity": 117 },
                { "note": 70, "start": 199, "duration": 0.25, "velocity": 108 },
                { "note": 73, "start": 199, "duration": 0.5, "velocity": 118 },
                { "note": 85, "start": 199, "duration": 0.25, "velocity": 89 },
                { "note": 70, "start": 199.5, "duration": 0.25, "velocity": 107 },
                { "note": 73, "start": 199.5, "duration": 0.25, "velocity": 117 },
                { "note": 88, "start": 199.5, "duration": 0.5, "velocity": 88 },
                { "note": 88, "start": 200, "duration": 1, "velocity": 93 },
                { "note": 64, "start": 200.5, "duration": 0.25, "velocity": 121 },
                { "note": 87, "start": 201, "duration": 0.5, "velocity": 89 },
                { "note": 63, "start": 201.5, "duration": 0.25, "velocity": 107 },
                { "note": 66, "start": 201.5, "duration": 0.25, "velocity": 121 },
                { "note": 85, "start": 201.5, "duration": 0.5, "velocity": 88 },
                { "note": 84, "start": 202, "duration": 1, "velocity": 91 },
                { "note": 60, "start": 202.5, "duration": 0.25, "velocity": 107 },
                { "note": 63, "start": 202.5, "duration": 0.25, "velocity": 117 },
                { "note": 60, "start": 203, "duration": 0.25, "velocity": 108 },
                { "note": 63, "start": 203, "duration": 0.25, "velocity": 118 },
                { "note": 85, "start": 203, "duration": 0.5, "velocity": 89 },
                { "note": 60, "start": 203.5, "duration": 0.25, "velocity": 107 },
                { "note": 63, "start": 203.5, "duration": 0.25, "velocity": 117 },
                { "note": 87, "start": 203.5, "duration": 0.5, "velocity": 88 },
                { "note": 61, "start": 204, "duration": 0.5, "velocity": 120 },
                { "note": 88, "start": 204, "duration": 1, "velocity": 93 },
                { "note": 64, "start": 204.5, "duration": 0.25, "velocity": 107 },
                { "note": 68, "start": 204.5, "duration": 0.25, "velocity": 117 },
                { "note": 64, "start": 205, "duration": 0.25, "velocity": 108 },
                { "note": 68, "start": 205, "duration": 0.25, "velocity": 118 },
                { "note": 87, "start": 205, "duration": 0.5, "velocity": 89 },
                { "note": 64, "start": 205.5, "duration": 0.25, "velocity": 107 },
                { "note": 68, "start": 205.5, "duration": 0.25, "velocity": 117 },
                { "note": 85, "start": 205.5, "duration": 0.5, "velocity": 88 },
                { "note": 83, "start": 206, "duration": 1, "velocity": 91 },
                { "note": 61, "start": 206.5, "duration": 0.25, "velocity": 107 },
                { "note": 64, "start": 206.5, "duration": 0.25, "velocity": 117 },
                { "note": 61, "start": 207, "duration": 0.25, "velocity": 108 },
                { "note": 64, "start": 207, "duration": 0.25, "velocity": 118 },
                { "note": 85, "start": 207, "duration": 1, "velocity": 89 },
                { "note": 61, "start": 207.5, "duration": 0.25, "velocity": 107 },
                { "note": 64, "start": 207.5, "duration": 0.25, "velocity": 117 },
                { "note": 83, "start": 208, "duration": 3.5, "velocity": 88 },
                { "note": 63, "start": 208.5, "duration": 0.25, "velocity": 127 },
                { "note": 63, "start": 209, "duration": 0.25, "velocity": 117 },
                { "note": 66, "start": 209, "duration": 0.25, "velocity": 127 },
                { "note": 61, "start": 209.5, "duration": 0.25, "velocity": 116 },
                { "note": 64, "start": 209.5, "duration": 0.25, "velocity": 127 },
                { "note": 63, "start": 210, "duration": 1.5, "velocity": 127 },
                { "note": 87, "start": 211.5, "duration": 0.5, "velocity": 88 },
                { "note": 61, "start": 212, "duration": 0.5, "velocity": 120 },
                { "note": 88, "start": 212, "duration": 1, "velocity": 93 },
                { "note": 64, "start": 212.5, "duration": 0.25, "velocity": 107 },
                { "note": 68, "start": 212.5, "duration": 0.25, "velocity": 117 },
                { "note": 64, "start": 213, "duration": 0.25, "velocity": 108 },
                { "note": 68, "start": 213, "duration": 0.25, "velocity": 118 },
                { "note": 87, "start": 213, "duration": 0.5, "velocity": 89 },
                { "note": 64, "start": 213.5, "duration": 0.25, "velocity": 107 },
                { "note": 68, "start": 213.5, "duration": 0.25, "velocity": 117 },
                { "note": 85, "start": 213.5, "duration": 0.5, "velocity": 88 },
                { "note": 83, "start": 214, "duration": 1, "velocity": 91 },
                { "note": 61, "start": 214.5, "duration": 0.25, "velocity": 107 },
                { "note": 64, "start": 214.5, "duration": 0.25, "velocity": 117 },
                { "note": 61, "start": 215, "duration": 0.25, "velocity": 108 },
                { "note": 64, "start": 215, "duration": 0.25, "velocity": 118 },
                { "note": 85, "start": 215, "duration": 1, "velocity": 89 },
                { "note": 61, "start": 215.5, "duration": 0.25, "velocity": 107 },
                { "note": 64, "start": 215.5, "duration": 0.25, "velocity": 117 },
                { "note": 83, "start": 216, "duration": 4, "velocity": 88 },
                { "note": 63, "start": 216.5, "duration": 0.25, "velocity": 127 },
                { "note": 63, "start": 217, "duration": 0.25, "velocity": 117 },
                { "note": 66, "start": 217, "duration": 0.25, "velocity": 127 },
                { "note": 61, "start": 217.5, "duration": 0.25, "velocity": 116 },
                { "note": 64, "start": 217.5, "duration": 0.25, "velocity": 127 },
                { "note": 63, "start": 218, "duration": 1.5, "velocity": 127 }
            ]
        },
        {
            "id": "left-simplified",
            "name": "Acompanhamento (simplificado)",
            "hand": "left",
            "difficulty": "beginner",
            "notes": [
                { "note": 59, "start": 12, "duration": 0.5, "velocity": 107 },
                { "note": 56, "start": 14, "duration": 0.5, "velocity": 105 },
                { "note": 59, "start": 14.5, "duration": 0.5, "velocity": 102 },
                { "note": 54, "start": 18, "duration": 0.5, "velocity": 105 },
                { "note": 58, "start": 18.5, "duration": 0.5, "velocity": 102 },
                { "note": 59, "start": 20, "duration": 0.5, "velocity": 107 },
                { "note": 56, "start": 22, "duration": 0.5, "velocity": 105 },
                { "note": 59, "start": 22.5, "duration": 0.5, "velocity": 102 },
                { "note": 58, "start": 24, "duration": 0.5, "velocity": 107 },
                { "note": 56, "start": 28, "duration": 0.5, "velocity": 107 },
                { "note": 59, "start": 28.5, "duration": 0.5, "velocity": 102 },
                { "note": 58, "start": 30, "duration": 0.5, "velocity": 105 },
                { "note": 59, "start": 34, "duration": 0.5, "velocity": 105 },
                { "note": 56, "start": 36, "duration": 0.5, "velocity": 107 },
                { "note": 59, "start": 36.5, "duration": 0.5, "velocity": 102 },
                { "note": 59, "start": 40, "duration": 0.5, "velocity": 107 },
                { "note": 58, "start": 46, "duration": 0.5, "velocity": 105 },
                { "note": 59, "start": 54, "duration": 0.5, "velocity": 105 },
                { "note": 59, "start": 56, "duration": 0.5, "velocity": 107 },
                { "note": 59, "start": 60, "duration": 0.5, "velocity": 120 },
                { "note": 56, "start": 62, "duration": 0.5, "velocity": 118 },
                { "note": 54, "start": 66, "duration": 0.5, "velocity": 118 },
                { "note": 59, "start": 68, "duration": 0.5, "velocity": 120 },
                { "note": 56, "start": 70, "duration": 0.5, "velocity": 118 },
                { "note": 56, "start": 76, "duration": 0.5, "velocity": 120 },
                { "note": 52, "start": 80, "duration": 0.5, "velocity": 120 },
                { "note": 59, "start": 82, "duration": 0.5, "velocity": 118 },
                { "note": 58, "start": 83, "duration": 0.5, "velocity": 116 },
                { "note": 56, "start": 84, "duration": 0.5, "velocity": 120 },
                { "note": 54, "start": 88, "duration": 0.5, "velocity": 120 },
                { "note": 59, "start": 88.5, "duration": 0.5, "velocity": 107 },
                { "note": 59, "start": 96, "duration": 0.5, "velocity": 120 },
                { "note": 59, "start": 96.5, "duration": 0.5, "velocity": 107 },
                { "note": 57, "start": 97, "duration": 0.5, "velocity": 116 },
                { "note": 56, "start": 98, "duration": 0.5, "velocity": 118 },
                { "note": 54, "start": 102, "duration": 0.5, "velocity": 118 },
                { "note": 59, "start": 104, "duration": 0.5, "velocity": 120 },
                { "note": 59, "start": 104.5, "duration": 0.5, "velocity": 116 },
                { "note": 59, "start": 106, "duration": 1.5, "velocity": 119 },
                { "note": 54, "start": 110, "duration": 0.5, "velocity": 118 },
                { "note": 59, "start": 112, "duration": 0.5, "velocity": 120 },
                { "note": 59, "start": 112.5, "duration": 0.5, "velocity": 116 },
                { "note": 59, "start": 114, "duration": 1.5, "velocity": 119 },
                { "note": 59, "start": 116, "duration": 0.5, "velocity": 107 },
                { "note": 56, "start": 118, "duration": 0.5, "velocity": 105 },
                { "note": 59, "start": 118.5, "duration": 0.5, "velocity": 102 },
                { "note": 54, "start": 122, "duration": 0.5, "velocity": 105 },
                { "note": 58, "start": 122.5, "duration": 0.5, "velocity": 102 },
                { "note": 59, "start": 124, "duration": 0.5, "velocity": 107 },
                { "note": 56, "start": 126, "duration": 0.5, "velocity": 105 },
                { "note": 59, "start": 126.5, "duration": 0.5, "velocity": 102 },
                { "note": 58, "start": 128, "duration": 0.5, "velocity": 107 },
                { "note": 56, "start": 132, "duration": 0.5, "velocity": 107 },
                { "note": 59, "start": 132.5, "duration": 0.5, "velocity": 102 },
                { "note": 58, "start": 134, "duration": 0.5, "velocity": 105 },
                { "note": 59, "start": 138, "duration": 0.5, "velocity": 105 },
                { "note": 56, "start": 140, "duration": 0.5, "velocity": 107 },
                { "note": 59, "start": 140.5, "duration": 0.5, "velocity": 102 },
                { "note": 59, "start": 144, "duration": 0.5, "velocity": 107 },
                { "note": 58, "start": 150, "duration": 0.5, "velocity": 105 },
                { "note": 59, "start": 158, "duration": 0.5, "velocity": 105 },
                { "note": 59, "start": 160, "duration": 0.5, "velocity": 107 },
                { "note": 59, "start": 164, "duration": 0.5, "velocity": 120 },
                { "note": 56, "start": 166, "duration": 0.5, "velocity": 118 },
                { "note": 54, "start": 170, "duration": 0.5, "velocity": 118 },
                { "note": 59, "start": 172, "duration": 0.5, "velocity": 120 },
                { "note": 56, "start": 174, "duration": 0.5, "velocity": 118 },
                { "note": 56, "start": 180, "duration": 0.5, "velocity": 120 },
                { "note": 52, "start": 184, "duration": 0.5, "velocity": 120 },
                { "note": 59, "start": 186, "duration": 0.5, "velocity": 118 },
                { "note": 58, "start": 187, "duration": 0.5, "velocity": 116 },
                { "note": 56, "start": 188, "duration": 0.5, "velocity": 120 },
                { "note": 54, "start": 192, "duration": 0.5, "velocity": 120 },
                { "note": 59, "start": 192.5, "duration": 0.5, "velocity": 107 },
                { "note": 59, "start": 200, "duration": 0.5, "velocity": 120 },
                { "note": 59, "start": 200.5, "duration": 0.5, "velocity": 107 },
                { "note": 57, "start": 201, "duration": 0.5, "velocity": 116 },
                { "note": 56, "start": 202, "duration": 0.5, "velocity": 118 },
                { "note": 54, "start": 206, "duration": 0.5, "velocity": 118 },
                { "note": 59, "start": 208, "duration": 0.5, "velocity": 120 },
                { "note": 59, "start": 208.5, "duration": 0.5, "velocity": 116 },
                { "note": 59, "start": 210, "duration": 1.5, "velocity": 119 },
                { "note": 54, "start": 214, "duration": 0.5, "velocity": 118 },
                { "note": 59, "start": 216, "duration": 0.5, "velocity": 120 },
                { "note": 59, "start": 216.5, "duration": 0.5, "velocity": 116 },
                { "note": 59, "start": 218, "duration": 1.5, "velocity": 119 }
            ]
        },
        {
            "id": "left-standard",
            "name": "Acompanhamento",
            "hand": "left",
            "difficulty": "intermediate",
            "notes": [
                { "note": 59, "start": 12, "duration": 0.5, "velocity": 107 },
                { "note": 56, "start": 14, "duration": 0.5, "velocity": 105 },
                { "note": 59, "start": 14.5, "duration": 0.5, "velocity": 102 },
                { "note": 54, "start": 18, "duration": 0.5, "velocity": 105 },
                { "note": 58, "start": 18.5, "duration": 0.5, "velocity": 102 },
                { "note": 59, "start": 20, "duration": 0.5, "velocity": 107 },
                { "note": 56, "start": 22, "duration": 0.5, "velocity": 105 },
                { "note": 59, "start": 22.5, "duration": 0.5, "velocity": 102 },
                { "note": 58, "start": 24, "duration": 0.5, "velocity": 107 },
                { "note": 56, "start": 28, "duration": 0.5, "velocity": 107 },
                { "note": 59, "start": 28.5, "duration": 0.5, "velocity": 102 },
                { "note": 58, "start": 30, "duration": 0.5, "velocity": 105 },
                { "note": 59, "start": 34, "duration": 0.5, "velocity": 105 },
                { "note": 56, "start": 36, "duration": 0.5, "velocity": 107 },
                { "note": 59, "start": 36.5, "duration": 0.5, "velocity": 102 },
                { "note": 59, "start": 40, "duration": 0.5, "velocity": 107 },
                { "note": 58, "start": 46, "duration": 0.5, "velocity": 105 },
                { "note": 59, "start": 54, "duration": 0.5, "velocity": 105 },
                { "note": 59, "start": 56, "duration": 0.5, "velocity": 107 },
                { "note": 59, "start": 60, "duration": 0.5, "velocity": 120 },
                { "note": 56, "start": 62, "duration": 0.5, "velocity": 118 },
                { "note": 54, "start": 66, "duration": 0.5, "velocity": 118 },
                { "note": 59, "start": 68, "duration": 0.5, "velocity": 120 },
                { "note": 56, "start": 70, "duration": 0.5, "velocity": 118 },
                { "note": 56, "start": 76, "duration": 0.5, "velocity": 120 },
                { "note": 52, "start": 80, "duration": 0.5, "velocity": 120 },
                { "note": 59, "start": 82, "duration": 0.5, "velocity": 118 },
                { "note": 58, "start": 83, "duration": 0.5, "velocity": 116 },
                { "note": 56, "start": 84, "duration": 0.5, "velocity": 120 },
                { "note": 54, "start": 88, "duration": 0.5, "velocity": 120 },
                { "note": 59, "start": 88.5, "duration": 0.25, "velocity": 107 },
                { "note": 59, "start": 96, "duration": 0.5, "velocity": 120 },
                { "note": 59, "start": 96.5, "duration": 0.25, "velocity": 107 },
                { "note": 57, "start": 97, "duration": 0.5, "velocity": 116 },
                { "note": 56, "start": 98, "duration": 0.5, "velocity": 118 },
                { "note": 54, "start": 102, "duration": 0.5, "velocity": 118 },
                { "note": 59, "start": 104, "duration": 0.5, "velocity": 120 },
                { "note": 59, "start": 104.5, "duration": 0.25, "velocity": 116 },
                { "note": 59, "start": 106, "duration": 1.5, "velocity": 119 },
                { "note": 54, "start": 110, "duration": 0.5, "velocity": 118 },
                { "note": 59, "start": 112, "duration": 0.5, "velocity": 120 },
                { "note": 59, "start": 112.5, "duration": 0.25, "velocity": 116 },
                { "note": 59, "start": 114, "duration": 1.5, "velocity": 119 },
                { "note": 59, "start": 116, "duration": 0.5, "velocity": 107 },
                { "note": 56, "start": 118, "duration": 0.5, "velocity": 105 },
                { "note": 59, "start": 118.5, "duration": 0.5, "velocity": 102 },
                { "note": 54, "start": 122, "duration": 0.5, "velocity": 105 },
                { "note": 58, "start": 122.5, "duration": 0.5, "velocity": 102 },
                { "note": 59, "start": 124, "duration": 0.5, "velocity": 107 },
                { "note": 56, "start": 126, "duration": 0.5, "velocity": 105 },
                { "note": 59, "start": 126.5, "duration": 0.5, "velocity": 102 },
                { "note": 58, "start": 128, "duration": 0.5, "velocity": 107 },
                { "note": 56, "start": 132, "duration": 0.5, "velocity": 107 },
                { "note": 59, "start": 132.5, "duration": 0.5, "velocity": 102 },
                { "note": 58, "start": 134, "duration": 0.5, "velocity": 105 },
                { "note": 59, "start": 138, "duration": 0.5, "velocity": 105 },
                { "note": 56, "start": 140, "duration": 0.5, "velocity": 107 },
                { "note": 59, "start": 140.5, "duration": 0.5, "velocity": 102 },
                { "note": 59, "start": 144, "duration": 0.5, "velocity": 107 },
                { "note": 58, "start": 150, "duration": 0.5, "velocity": 105 },
                { "note": 59, "start": 158, "duration": 0.5, "velocity": 105 },
                { "note": 59, "start": 160, "duration": 0.5, "velocity": 107 },
                { "note": 59, "start": 164, "duration": 0.5, "velocity": 120 },
                { "note": 56, "start": 166, "duration": 0.5, "velocity": 118 },
                { "note": 54, "start": 170, "duration": 0.5, "velocity": 118 },
                { "note": 59, "start": 172, "duration": 0.5, "velocity": 120 },
                { "note": 56, "start": 174, "duration": 0.5, "velocity": 118 },
                { "note": 56, "start": 180, "duration": 0.5, "velocity": 120 },
                { "note": 52, "start": 184, "duration": 0.5, "velocity": 120 },
                { "note": 59, "start": 186, "duration": 0.5, "velocity": 118 },
                { "note": 58, "start": 187, "duration": 0.5, "velocity": 116 },
                { "note": 56, "start": 188, "duration": 0.5, "velocity": 120 },
                { "note": 54, "start": 192, "duration": 0.5, "velocity": 120 },
                { "note": 59, "start": 192.5, "duration": 0.25, "velocity": 107 },
                { "note": 59, "start": 200, "duration": 0.5, "velocity": 120 },
                { "note": 59, "start": 200.5, "duration": 0.25, "velocity": 107 },
                { "note": 57, "start": 201, "duration": 0.5, "velocity": 116 },
                { "note": 56, "start": 202, "duration": 0.5, "velocity": 118 },
                { "note": 54, "start": 206, "duration": 0.5, "velocity": 118 },
                { "note": 59, "start": 208, "duration": 0.5, "velocity": 120 },
                { "note": 59, "start": 208.5, "duration": 0.25, "velocity": 116 },
                { "note": 59, "start": 210, "duration": 1.5, "velocity": 119 },
                { "note": 54, "start": 214, "duration": 0.5, "velocity": 118 },
                { "note": 59, "start": 216, "duration": 0.5, "velocity": 120 },
                { "note": 59, "start": 216.5, "duration": 0.25, "velocity": 116 },
                { "note": 59, "start": 218, "duration": 1.5, "velocity": 119 }
            ]
        }
    ]
}
