{
    "id": "stickerbrush-symphony",
    "title": "Stickerbrush Symphony",
    "artist": "David Wise",
    "source": "Donkey Kong Country 2",
    "category": "games",
    "bpm": 90,
    "timeSignature": [4, 4],
    "difficulty": "intermediate",
    "keySignature": "Bb",
    "totalDurationBeats": 420,
    "midiRange": { "lowest": 36, "highest": 93 },
    "tracks": [
        {
            "id": "right-simplified",
            "name": "Melodia (simplificada)",
            "hand": "right",
            "difficulty": "beginner",
            "notes": [
                { "note": 83, "start": 0.5, "duration": 0.5, "velocity": 49 },
                { "note": 84, "start": 1, "duration": 0.5, "velocity": 50 },
                { "note": 84, "start": 2.5, "duration": 0.5, "velocity": 49 },
                { "note": 79, "start": 3, "duration": 1, "velocity": 50 },
                { "note": 83, "start": 4.5, "duration": 0.5, "velocity": 49 },
                { "note": 84, "start": 5, "duration": 0.5, "velocity": 50 },
                { "note": 84, "start": 6.5, "duration": 0.5, "velocity": 49 },
                { "note": 79, "start": 7, "duration": 1, "velocity": 50 },
                { "note": 83, "start": 8.5, "duration": 0.5, "velocity": 49 },
                { "note": 84, "start": 9, "duration": 0.5, "velocity": 50 },
                { "note": 84, "start": 10.5, "duration": 0.5, "velocity": 49 },
                { "note": 79, "start": 11, "duration": 1, "velocity": 50 },
                { "note": 83, "start": 12.5, "duration": 0.5, "velocity": 49 },
                { "note": 84, "start": 13, "duration": 0.5, "velocity": 50 },
                { "note": 84, "start": 14.5, "duration": 0.5, "velocity": 49 },
                { "note": 79, "start": 15, "duration": 0.5, "velocity": 50 },
                { "note": 91, "start": 15.5, "duration": 0.5, "velocity": 49 },
                { "note": 69, "start": 16.5, "duration": 0.5, "velocity": 41 },
                { "note": 72, "start": 16.5, "duration": 0.5, "velocity": 51 },
                { "note": 69, "start": 17, "duration": 0.5, "velocity": 42 },
                { "note": 72, "start": 17, "duration": 0.5, "velocity": 52 },
                { "note": 69, "start": 17.5, "duration": 0.5, "velocity": 41 },
                { "note": 72, "start": 17.5, "duration": 0.5, "velocity": 51 },
                { "note": 69, "start": 19, "duration": 0.5, "velocity": 42 },
                { "note": 72, "start": 19, "duration": 0.5, "velocity": 52 },
                { "note": 69, "start": 19.5, "duration": 0.5, "velocity": 41 },
                { "note": 72, "start": 19.5, "duration": 0.5, "velocity": 51 },
                { "note": 69, "start": 20.5, "duration": 0.5, "velocity": 41 },
                { "note": 72, "start": 20.5, "duration": 0.5, "velocity": 51 },
                { "note": 69, "start": 21, "duration": 0.5, "velocity": 42 },
                { "note": 72, "start": 21, "duration": 0.5, "velocity": 52 },
                { "note": 69, "start": 21.5, "duration": 0.5, "velocity": 41 },
                { "note": 72, "start": 21.5, "duration": 0.5, "velocity": 51 },
                { "note": 69, "start": 23, "duration": 0.5, "velocity": 42 },
                { "note": 72, "start": 23, "duration": 0.5, "velocity": 52 },
                { "note": 69, "start": 23.5, "duration": 0.5, "velocity": 41 },
                { "note": 72, "start": 23.5, "duration": 0.5, "velocity": 51 },
                { "note": 72, "start": 24.5, "duration": 0.5, "velocity": 41 },
                { "note": 76, "start": 24.5, "duration": 0.5, "velocity": 51 },
                { "note": 72, "start": 25, "duration": 0.5, "velocity": 42 },
                { "note": 76, "start": 25, "duration": 0.5, "velocity": 52 },
                { "note": 72, "start": 25.5, "duration": 0.5, "velocity": 41 },
                { "note": 76, "start": 25.5, "duration": 0.5, "velocity": 51 },
                { "note": 72, "start": 27, "duration": 0.5, "velocity": 42 },
                { "note": 76, "start": 27, "duration": 0.5, "velocity": 52 },
                { "note": 72, "start": 27.5, "duration": 0.5, "velocity": 41 },
                { "note": 76, "start": 27.5, "duration": 0.5, "velocity": 51 },
                { "note": 72, "start": 28.5, "duration": 0.5, "velocity": 41 },
                { "note": 76, "start": 28.5, "duration": 0.5, "velocity": 51 },
                { "note": 72, "start": 29, "duration": 0.5, "velocity": 42 },
                { "note": 76, "start": 29, "duration": 0.5, "velocity": 52 },
                { "note": 72, "start": 29.5, "duration": 0.5, "velocity": 41 },
                { "note": 76, "start": 29.5, "duration": 0.5, "velocity": 51 },
                { "note": 72, "start": 31, "duration": 0.5, "velocity": 42 },
                { "note": 76, "start": 31, "duration": 0.5, "velocity": 52 },
                { "note": 72, "start": 31.5, "duration": 0.5, "velocity": 41 },
                { "note": 76, "start": 31.5, "duration": 0.5, "velocity": 51 },
                { "note": 71, "start": 34.5, "duration": 0.5, "velocity": 62 },
                { "note": 72, "start": 35, "duration": 0.5, "velocity": 63 },
                { "note": 79, "start": 35.5, "duration": 0.5, "velocity": 62 },
                { "note": 79, "start": 36, "duration": 0.5, "velocity": 67 },
                { "note": 71, "start": 36.5, "duration": 0.5, "velocity": 62 },
                { "note": 72, "start": 37, "duration": 0.5, "velocity": 63 },
                { "note": 79, "start": 37.5, "duration": 0.5, "velocity": 62 },
                { "note": 79, "start": 38, "duration": 2, "velocity": 65 },
                { "note": 59, "start": 40.5, "duration": 0.5, "velocity": 62 },
                { "note": 60, "start": 41, "duration": 0.5, "velocity": 63 },
                { "note": 79, "start": 42.5, "duration": 0.5, "velocity": 62 },
                { "note": 81, "start": 43, "duration": 0.5, "velocity": 63 },
                { "note": 76, "start": 43.5, "duration": 0.5, "velocity": 62 },
                { "note": 76, "start": 44, "duration": 2, "velocity": 67 },
                { "note": 67, "start": 47.5, "duration": 0.5, "velocity": 62 },
                { "note": 83, "start": 50.5, "duration": 0.5, "velocity": 62 },
                { "note": 84, "start": 51, "duration": 0.5, "velocity": 63 },
                { "note": 91, "start": 51.5, "duration": 0.5, "velocity": 62 },
                { "note": 91, "start": 52, "duration": 0.5, "velocity": 67 },
                { "note": 83, "start": 52.5, "duration": 0.5, "velocity": 62 },
                { "note": 84, "start": 53, "duration": 0.5, "velocity": 63 },
                { "note": 91, "start": 53.5, "duration": 0.5, "velocity": 62 },
                { "note": 91, "start": 54, "duration": 2, "velocity": 65 },
                { "note": 84, "start": 57.5, "duration": 0.5, "velocity": 62 },
                { "note": 83, "start": 58, "duration": 0.5, "velocity": 65 },
                { "note": 79, "start": 58.5, "duration": 0.5, "velocity": 62 },
                { "note": 76, "start": 59, "duration": 0.5, "velocity": 63 },
                { "note": 81, "start": 59.5, "duration": 0.5, "velocity": 62 },
                { "note": 81, "start": 60, "duration": 2, "velocity": 67 },
                { "note": 67, "start": 63.5, "duration": 0.5, "velocity": 62 },
                { "note": 67, "start": 67, "duration": 0.5, "velocity": 63 },
                { "note": 76, "start": 67.5, "duration": 0.5, "velocity": 62 },
                { "note": 74, "start": 68, "duration": 3, "velocity": 62 },
                { "note": 67, "start": 71, "duration": 0.5, "velocity": 63 },
                { "note": 79, "start": 71.5, "duration": 0.5, "velocity": 62 },
                { "note": 79, "start": 72, "duration": 2, "velocity": 67 },
                { "note": 79, "start": 74, "duration": 0.75, "velocity": 65 },
                { "note": 76, "start": 75.5, "duration": 0.5, "velocity": 62 },
                { "note": 74, "start": 76, "duration": 1.5, "velocity": 67 },
                { "note": 76, "start": 77.5, "duration": 0.5, "velocity": 62 },
                { "note": 72, "start": 78, "duration": 0.75, "velocity": 65 },
                { "note": 72, "start": 79.5, "duration": 0.5, "velocity": 62 },
                { "note": 81, "start": 80, "duration": 2, "velocity": 67 },
                { "note": 81, "start": 82.5, "duration": 0.5, "velocity": 62 },
                { "note": 81, "start": 83, "duration": 0.5, "velocity": 63 },
                { "note": 76, "start": 83.5, "duration": 0.5, "velocity": 62 },
                { "note": 74, "start": 84, "duration": 0.5, "velocity": 67 },
                { "note": 93, "start": 84.5, "duration": 0.5, "velocity": 62 },
                { "note": 93, "start": 85, "duration": 0.5, "velocity": 63 },
                { "note": 88, "start": 85.5, "duration": 0.5, "velocity": 62 },
                { "note": 86, "start": 86, "duration": 1, "velocity": 65 },
                { "note": 67, "start": 87, "duration": 0.5, "velocity": 63 },
                { "note": 79, "start": 87.5, "duration": 0.5, "velocity": 62 },
                { "note": 79, "start": 88, "duration": 2, "velocity": 67 },
                { "note": 71, "start": 90, "duration": 0.75, "velocity": 57 },
                { "note": 79, "start": 90, "duration": 0.75, "velocity": 71 },
                { "note": 74, "start": 91.5, "duration": 0.5, "velocity": 54 },
                { "note": 83, "start": 91.5, "duration": 0.5, "velocity": 68 },
                { "note": 74, "start": 92, "duration": 1, "velocity": 59 },
                { "note": 83, "start": 92, "duration": 1, "velocity": 73 },
                { "note": 76, "start": 93, "duration": 0.5, "velocity": 55 },
                { "note": 84, "start": 93, "duration": 0.5, "velocity": 69 },
                { "note": 74, "start": 93.5, "duration": 1, "velocity": 54 },
                { "note": 83, "start": 93.5, "duration": 1, "velocity": 68 },
                { "note": 71, "start": 94.5, "duration": 1, "velocity": 54 },
                { "note": 79, "start": 94.5, "duration": 1, "velocity": 68 },
                { "note": 72, "start": 95.5, "duration": 0.5, "velocity": 54 },
                { "note": 76, "start": 95.5, "duration": 0.5, "velocity": 68 },
                { "note": 77, "start": 96, "duration": 2, "velocity": 59 },
                { "note": 81, "start": 96, "duration": 2, "velocity": 73 },
                { "note": 72, "start": 98, "duration": 0.75, "velocity": 65 },
                { "note": 76, "start": 99.5, "duration": 0.5, "velocity": 62 },
                { "note": 79, "start": 100, "duration": 1.5, "velocity": 67 },
                { "note": 72, "start": 101.5, "duration": 0.5, "velocity": 62 },
                { "note": 71, "start": 102, "duration": 0.75, "velocity": 65 },
                { "note": 76, "start": 103.5, "duration": 0.5, "velocity": 62 },
                { "note": 81, "start": 104, "duration": 1.5, "velocity": 67 },
                { "note": 72, "start": 105.5, "duration": 0.5, "velocity": 62 },
                { "note": 69, "start": 106, "duration": 0.75, "velocity": 65 },
                { "note": 72, "start": 107.5, "duration": 0.5, "velocity": 62 },
                { "note": 76, "start": 108, "duration": 1, "velocity": 67 },
                { "note": 74, "start": 109, "duration": 0.5, "velocity": 55 },
                { "note": 77, "start": 109, "duration": 0.5, "velocity": 69 },
                { "note": 72, "start": 109.5, "duration": 1, "velocity": 54 },
                { "note": 76, "start": 109.5, "duration": 1, "velocity": 68 },
                { "note": 71, "start": 110.5, "duration": 1, "velocity": 58 },
                { "note": 74, "start": 110.5, "duration": 1, "velocity": 72 },
                { "note": 69, "start": 111.5, "duration": 0.5, "velocity": 64 },
                { "note": 72, "start": 111.5, "duration": 0.5, "velocity": 78 },
                { "note": 72, "start": 112, "duration": 4, "velocity": 67 },
                { "note": 76, "start": 112, "duration": 4, "velocity": 81 },
                { "note": 69, "start": 128.5, "duration": 0.5, "velocity": 67 },
                { "note": 72, "start": 128.5, "duration": 0.5, "velocity": 77 },
                { "note": 69, "start": 129, "duration": 0.5, "velocity": 68 },
                { "note": 72, "start": 129, "duration": 0.5, "velocity": 78 },
                { "note": 69, "start": 129.5, "duration": 0.5, "velocity": 67 },
                { "note": 72, "start": 129.5, "duration": 0.5, "velocity": 77 },
                { "note": 69, "start": 131, "duration": 0.5, "velocity": 68 },
                { "note": 72, "start": 131, "duration": 0.5, "velocity": 78 },
                { "note": 69, "start": 131.5, "duration": 0.5, "velocity": 67 },
                { "note": 72, "start": 131.5, "duration": 0.5, "velocity": 77 },
                { "note": 69, "start": 132.5, "duration": 0.5, "velocity": 67 },
                { "note": 72, "start": 132.5, "duration": 0.5, "velocity": 77 },
                { "note": 69, "start": 133, "duration": 0.5, "velocity": 68 },
                { "note": 72, "start": 133, "duration": 0.5, "velocity": 78 },
                { "note": 69, "start": 133.5, "duration": 0.5, "velocity": 67 },
                { "note": 72, "start": 133.5, "duration": 0.5, "velocity": 77 },
                { "note": 69, "start": 135, "duration": 0.5, "velocity": 68 },
                { "note": 72, "start": 135, "duration": 0.5, "velocity": 78 },
                { "note": 69, "start": 135.5, "duration": 0.5, "velocity": 67 },
                { "note": 72, "start": 135.5, "duration": 0.5, "velocity": 77 },
                { "note": 72, "start": 136.5, "duration": 0.5, "velocity": 67 },
                { "note": 76, "start": 136.5, "duration": 0.5, "velocity": 77 },
                { "note": 72, "start": 137, "duration": 0.5, "velocity": 68 },
                { "note": 76, "start": 137, "duration": 0.5, "velocity": 78 },
                { "note": 72, "start": 137.5, "duration": 0.5, "velocity": 67 },
                { "note": 76, "start": 137.5, "duration": 0.5, "velocity": 77 },
                { "note": 72, "start": 139, "duration": 0.5, "velocity": 68 },
                { "note": 76, "start": 139, "duration": 0.5, "velocity": 78 },
                { "note": 72, "start": 139.5, "duration": 0.5, "velocity": 67 },
                { "note": 76, "start": 139.5, "duration": 0.5, "velocity": 77 },
                { "note": 72, "start": 140.5, "duration": 0.5, "velocity": 67 },
                { "note": 76, "start": 140.5, "duration": 0.5, "velocity": 77 },
                { "note": 72, "start": 141, "duration": 0.5, "velocity": 68 },
                { "note": 76, "start": 141, "duration": 0.5, "velocity": 78 },
                { "note": 72, "start": 141.5, "duration": 0.5, "velocity": 67 },
                { "note": 76, "start": 141.5, "duration": 0.5, "velocity": 77 },
                { "note": 72, "start": 143, "duration": 0.5, "velocity": 68 },
                { "note": 76, "start": 143, "duration": 0.5, "velocity": 78 },
                { "note": 72, "start": 143.5, "duration": 0.5, "velocity": 67 },
                { "note": 76, "start": 143.5, "duration": 0.5, "velocity": 77 },
                { "note": 74, "start": 146, "duration": 0.5, "velocity": 78 },
                { "note": 76, "start": 146.5, "duration": 0.5, "velocity": 75 },
                { "note": 74, "start": 147, "duration": 0.5, "velocity": 76 },
                { "note": 72, "start": 147.5, "duration": 0.5, "velocity": 75 },
                { "note": 76, "start": 148.5, "duration": 0.5, "velocity": 75 },
                { "note": 74, "start": 149, "duration": 0.5, "velocity": 76 },
                { "note": 72, "start": 149.5, "duration": 0.5, "velocity": 75 },
                { "note": 76, "start": 150.5, "duration": 0.5, "velocity": 75 },
                { "note": 74, "start": 151, "duration": 0.5, "velocity": 76 },
                { "note": 72, "start": 151.5, "duration": 0.5, "velocity": 75 },
                { "note": 76, "start": 152.5, "duration": 0.5, "velocity": 75 },
                { "note": 74, "start": 153, "duration": 0.5, "velocity": 76 },
                { "note": 74, "start": 154, "duration": 0.5, "velocity": 78 },
                { "note": 76, "start": 154.5, "duration": 0.5, "velocity": 75 },
                { "note": 79, "start": 155, "duration": 0.5, "velocity": 76 },
                { "note": 76, "start": 155.5, "duration": 0.5, "velocity": 75 },
                { "note": 74, "start": 156, "duration": 1.5, "velocity": 80 },
                { "note": 76, "start": 157.5, "duration": 0.5, "velocity": 75 },
                { "note": 72, "start": 158, "duration": 1, "velocity": 78 },
                { "note": 71, "start": 159, "duration": 0.5, "velocity": 76 },
                { "note": 72, "start": 159.5, "duration": 0.5, "velocity": 75 },
                { "note": 81, "start": 160, "duration": 1, "velocity": 80 },
                { "note": 81, "start": 162.5, "duration": 1, "velocity": 75 },
                { "note": 76, "start": 163.5, "duration": 0.5, "velocity": 75 },
                { "note": 74, "start": 164, "duration": 1, "velocity": 80 },
                { "note": 67, "start": 166.5, "duration": 1, "velocity": 75 },
                { "note": 79, "start": 167.5, "duration": 0.5, "velocity": 75 },
                { "note": 79, "start": 168, "duration": 2, "velocity": 80 },
                { "note": 79, "start": 170, "duration": 0.75, "velocity": 78 },
                { "note": 83, "start": 171.5, "duration": 0.5, "velocity": 75 },
                { "note": 83, "start": 172, "duration": 1, "velocity": 80 },
                { "note": 84, "start": 173, "duration": 0.5, "velocity": 76 },
                { "note": 83, "start": 173.5, "duration": 1, "velocity": 75 },
                { "note": 79, "start": 174.5, "duration": 0.5, "velocity": 75 },
                { "note": 76, "start": 175, "duration": 0.5, "velocity": 76 },
                { "note": 81, "start": 175.5, "duration": 2.5, "velocity": 75 },
                { "note": 60, "start": 178, "duration": 0.75, "velocity": 78 },
                { "note": 64, "start": 179.5, "duration": 0.5, "velocity": 75 },
                { "note": 67, "start": 180, "duration": 1.5, "velocity": 80 },
                { "note": 72, "start": 181.5, "duration": 0.5, "velocity": 75 },
                { "note": 71, "start": 182, "duration": 0.75, "velocity": 78 },
                { "note": 76, "start": 183.5, "duration": 0.5, "velocity": 75 },
                { "note": 81, "start": 184, "duration": 1.5, "velocity": 80 },
                { "note": 72, "start": 185.5, "duration": 0.5, "velocity": 75 },
                { "note": 69, "start": 186, "duration": 0.75, "velocity": 78 },
                { "note": 72, "start": 187.5, "duration": 0.5, "velocity": 75 },
                { "note": 76, "start": 188, "duration": 1, "velocity": 80 },
                { "note": 77, "start": 189, "duration": 0.5, "velocity": 76 },
                { "note": 76, "start": 189.5, "duration": 1, "velocity": 75 },
                { "note": 74, "start": 190.5, "duration": 1, "velocity": 75 },
                { "note": 72, "start": 191.5, "duration": 0.5, "velocity": 75 },
                { "note": 76, "start": 192, "duration": 2, "velocity": 67 },
                { "note": 72, "start": 194, "duration": 0.75, "velocity": 65 },
                { "note": 76, "start": 195.5, "duration": 0.5, "velocity": 62 },
                { "note": 79, "start": 196, "duration": 1.5, "velocity": 67 },
                { "note": 60, "start": 197.5, "duration": 0.5, "velocity": 62 },
                { "note": 59, "start": 198, "duration": 0.75, "velocity": 65 },
                { "note": 64, "start": 199.5, "duration": 0.5, "velocity": 62 },
                { "note": 69, "start": 200, "duration": 1.5, "velocity": 67 },
                { "note": 72, "start": 201.5, "duration": 0.5, "velocity": 54 },
                { "note": 84, "start": 201.5, "duration": 0.5, "velocity": 68 },
                { "note": 69, "start": 202, "duration": 0.75, "velocity": 57 },
                { "note": 81, "start": 202, "duration": 0.75, "velocity": 71 },
                { "note": 72, "start": 203.5, "duration": 0.5, "velocity": 54 },
                { "note": 84, "start": 203.5, "duration": 0.5, "velocity": 68 },
                { "note": 76, "start": 204, "duration": 1, "velocity": 59 },
                { "note": 88, "start": 204, "duration": 1, "velocity": 73 },
                { "note": 77, "start": 205, "duration": 0.5, "velocity": 55 },
                { "note": 89, "start": 205, "duration": 0.5, "velocity": 69 },
                { "note": 76, "start": 205.5, "duration": 1, "velocity": 52 },
                { "note": 88, "start": 205.5, "duration": 1, "velocity": 66 },
                { "note": 77, "start": 206.5, "duration": 0.5, "velocity": 42 },
                { "note": 89, "start": 206.5, "duration": 0.5, "velocity": 56 },
                { "note": 74, "start": 207, "duration": 1, "velocity": 38 },
                { "note": 86, "start": 207, "duration": 1, "velocity": 52 },
                { "note": 83, "start": 208.5, "duration": 0.5, "velocity": 49 },
                { "note": 84, "start": 209, "duration": 0.5, "velocity": 50 },
                { "note": 84, "start": 210.5, "duration": 0.5, "velocity": 49 },
                { "note": 79, "start": 211, "duration": 1, "velocity": 50 },
                { "note": 83, "start": 212.5, "duration": 0.5, "velocity": 49 },
                { "note": 84, "start": 213, "duration": 0.5, "velocity": 50 },
                { "note": 84, "start": 214.5, "duration": 0.5, "velocity": 49 },
                { "note": 79, "start": 215, "duration": 1, "velocity": 50 },
                { "note": 83, "start": 216.5, "duration": 0.5, "velocity": 49 },
                { "note": 84, "start": 217, "duration": 0.5, "velocity": 50 },
                { "note": 84, "start": 218.5, "duration": 0.5, "velocity": 49 },
                { "note": 79, "start": 219, "duration": 1, "velocity": 50 },
                { "note": 83, "start": 220.5, "duration": 0.5, "velocity": 49 },
                { "note": 84, "start": 221, "duration": 0.5, "velocity": 50 },
                { "note": 84, "start": 222.5, "duration": 0.5, "velocity": 49 },
                { "note": 79, "start": 223, "duration": 0.5, "velocity": 50 },
                { "note": 91, "start": 223.5, "duration": 0.5, "velocity": 49 },
                { "note": 69, "start": 224.5, "duration": 0.5, "velocity": 41 },
                { "note": 72, "start": 224.5, "duration": 0.5, "velocity": 51 },
                { "note": 69, "start": 225, "duration": 0.5, "velocity": 42 },
                { "note": 72, "start": 225, "duration": 0.5, "velocity": 52 },
                { "note": 69, "start": 225.5, "duration": 0.5, "velocity": 41 },
                { "note": 72, "start": 225.5, "duration": 0.5, "velocity": 51 },
                { "note": 69, "start": 227, "duration": 0.5, "velocity": 42 },
                { "note": 72, "start": 227, "duration": 0.5, "velocity": 52 },
                { "note": 69, "start": 227.5, "duration": 0.5, "velocity": 41 },
                { "note": 72, "start": 227.5, "duration": 0.5, "velocity": 51 },
                { "note": 69, "start": 228.5, "duration": 0.5, "velocity": 41 },
                { "note": 72, "start": 228.5, "duration": 0.5, "velocity": 51 },
                { "note": 69, "start": 229, "duration": 0.5, "velocity": 42 },
                { "note": 72, "start": 229, "duration": 0.5, "velocity": 52 },
                { "note": 69, "start": 229.5, "duration": 0.5, "velocity": 41 },
                { "note": 72, "start": 229.5, "duration": 0.5, "velocity": 51 },
                { "note": 69, "start": 231, "duration": 0.5, "velocity": 42 },
                { "note": 72, "start": 231, "duration": 0.5, "velocity": 52 },
                { "note": 69, "start": 231.5, "duration": 0.5, "velocity": 41 },
                { "note": 72, "start": 231.5, "duration": 0.5, "velocity": 51 },
                { "note": 72, "start": 232.5, "duration": 0.5, "velocity": 41 },
                { "note": 76, "start": 232.5, "duration": 0.5, "velocity": 51 },
                { "note": 72, "start": 233, "duration": 0.5, "velocity": 42 },
                { "note": 76, "start": 233, "duration": 0.5, "velocity": 52 },
                { "note": 72, "start": 233.5, "duration": 0.5, "velocity": 41 },
                { "note": 76, "start": 233.5, "duration": 0.5, "velocity": 51 },
                { "note": 72, "start": 235, "duration": 0.5, "velocity": 42 },
                { "note": 76, "start": 235, "duration": 0.5, "velocity": 52 },
                { "note": 72, "start": 235.5, "duration": 0.5, "velocity": 41 },
                { "note": 76, "start": 235.5, "duration": 0.5, "velocity": 51 },
                { "note": 72, "start": 236.5, "duration": 0.5, "velocity": 41 },
                { "note": 76, "start": 236.5, "duration": 0.5, "velocity": 51 },
                { "note": 72, "start": 237, "duration": 0.5, "velocity": 42 },
                { "note": 76, "start": 237, "duration": 0.5, "velocity": 52 },
                { "note": 72, "start": 237.5, "duration": 0.5, "velocity": 41 },
                { "note": 76, "start": 237.5, "duration": 0.5, "velocity": 51 },
                { "note": 72, "start": 239, "duration": 0.5, "velocity": 42 },
                { "note": 76, "start": 239, "duration": 0.5, "velocity": 52 },
                { "note": 72, "start": 239.5, "duration": 0.5, "velocity": 41 },
                { "note": 76, "start": 239.5, "duration": 0.5, "velocity": 51 },
                { "note": 71, "start": 242.5, "duration": 0.5, "velocity": 62 },
                { "note": 72, "start": 243, "duration": 0.5, "velocity": 63 },
                { "note": 79, "start": 243.5, "duration": 0.5, "velocity": 62 },
                { "note": 79, "start": 244, "duration": 0.5, "velocity": 67 },
                { "note": 71, "start": 244.5, "duration": 0.5, "velocity": 62 },
                { "note": 72, "start": 245, "duration": 0.5, "velocity": 63 },
                { "note": 79, "start": 245.5, "duration": 0.5, "velocity": 62 },
                { "note": 79, "start": 246, "duration": 2, "velocity": 65 },
                { "note": 59, "start": 248.5, "duration": 0.5, "velocity": 62 },
                { "note": 60, "start": 249, "duration": 0.5, "velocity": 63 },
                { "note": 79, "start": 250.5, "duration": 0.5, "velocity": 62 },
                { "note": 81, "start": 251, "duration": 0.5, "velocity": 63 },
                { "note": 76, "start": 251.5, "duration": 0.5, "velocity": 62 },
                { "note": 76, "start": 252, "duration": 2, "velocity": 67 },
                { "note": 67, "start": 255.5, "duration": 0.5, "velocity": 62 },
                { "note": 83, "start": 258.5, "duration": 0.5, "velocity": 62 },
                { "note": 84, "start": 259, "duration": 0.5, "velocity": 63 },
                { "note": 91, "start": 259.5, "duration": 0.5, "velocity": 62 },
                { "note": 91, "start": 260, "duration": 0.5, "velocity": 67 },
                { "note": 83, "start": 260.5, "duration": 0.5, "velocity": 62 },
                { "note": 84, "start": 261, "duration": 0.5, "velocity": 63 },
                { "note": 91, "start": 261.5, "duration": 0.5, "velocity": 62 },
                { "note": 91, "start": 262, "duration": 2, "velocity": 65 },
                { "note": 84, "start": 265.5, "duration": 0.5, "velocity": 62 },
                { "note": 83, "start": 266, "duration": 0.5, "velocity": 65 },
                { "note": 79, "start": 266.5, "duration": 0.5, "velocity": 62 },
                { "note": 76, "start": 267, "duration": 0.5, "velocity": 63 },
                { "note": 81, "start": 267.5, "duration": 0.5, "velocity": 62 },
                { "note": 81, "start": 268, "duration": 2, "velocity": 67 },
                { "note": 67, "start": 271.5, "duration": 0.5, "velocity": 62 },
                { "note": 67, "start": 275, "duration": 0.5, "velocity": 63 },
                { "note": 76, "start": 275.5, "duration": 0.5, "velocity": 62 },
                { "note": 74, "start": 276, "duration": 3, "velocity": 62 },
                { "note": 67, "start": 279, "duration": 0.5, "velocity": 63 },
                { "note": 79, "start": 279.5, "duration": 0.5, "velocity": 62 },
                { "note": 79, "start": 280, "duration": 2, "velocity": 67 },
                { "note": 79, "start": 282, "duration": 0.75, "velocity": 65 },
                { "note": 76, "start": 283.5, "duration": 0.5, "velocity": 62 },
                { "note": 74, "start": 284, "duration": 1.5, "velocity": 67 },
                { "note": 76, "start": 285.5, "duration": 0.5, "velocity": 62 },
                { "note": 72, "start": 286, "duration": 0.75, "velocity": 65 },
                { "note": 72, "start": 287.5, "duration": 0.5, "velocity": 62 },
                { "note": 81, "start": 288, "duration": 2, "velocity": 67 },
                { "note": 81, "start": 290.5, "duration": 0.5, "velocity": 62 },
                { "note": 81, "start": 291, "duration": 0.5, "velocity": 63 },
                { "note": 76, "start": 291.5, "duration": 0.5, "velocity": 62 },
                { "note": 74, "start": 292, "duration": 0.5, "velocity": 67 },
                { "note": 93, "start": 292.5, "duration": 0.5, "velocity": 62 },
                { "note": 93, "start": 293, "duration": 0.5, "velocity": 63 },
                { "note": 88, "start": 293.5, "duration": 0.5, "velocity": 62 },
                { "note": 86, "start": 294, "duration": 1, "velocity": 65 },
                { "note": 67, "start": 295, "duration": 0.5, "velocity": 63 },
                { "note": 79, "start": 295.5, "duration": 0.5, "velocity": 62 },
                { "note": 79, "start": 296, "duration": 2, "velocity": 67 },
                { "note": 71, "start": 298, "duration": 0.75, "velocity": 57 },
                { "note": 79, "start": 298, "duration": 0.75, "velocity": 71 },
                { "note": 74, "start": 299.5, "duration": 0.5, "velocity": 54 },
                { "note": 83, "start": 299.5, "duration": 0.5, "velocity": 68 },
                { "note": 74, "start": 300, "duration": 1, "velocity": 59 },
                { "note": 83, "start": 300, "duration": 1, "velocity": 73 },
                { "note": 76, "start": 301, "duration": 0.5, "velocity": 55 },
                { "note": 84, "start": 301, "duration": 0.5, "velocity": 69 },
                { "note": 74, "start": 301.5, "duration": 1, "velocity": 54 },
                { "note": 83, "start": 301.5, "duration": 1, "velocity": 68 },
                { "note": 71, "start": 302.5, "duration": 1, "velocity": 54 },
                { "note": 79, "start": 302.5, "duration": 1, "velocity": 68 },
                { "note": 72, "start": 303.5, "duration": 0.5, "velocity": 54 },
                { "note": 76, "start": 303.5, "duration": 0.5, "velocity": 68 },
                { "note": 77, "start": 304, "duration": 2, "velocity": 59 },
                { "note": 81, "start": 304, "duration": 2, "velocity": 73 },
                { "note": 72, "start": 306, "duration": 0.75, "velocity": 65 },
                { "note": 76, "start": 307.5, "duration": 0.5, "velocity": 62 },
                { "note": 79, "start": 308, "duration": 1.5, "velocity": 67 },
                { "note": 72, "start": 309.5, "duration": 0.5, "velocity": 62 },
                { "note": 71, "start": 310, "duration": 0.75, "velocity": 65 },
                { "note": 76, "start": 311.5, "duration": 0.5, "velocity": 62 },
                { "note": 81, "start": 312, "duration": 1.5, "velocity": 67 },
                { "note": 72, "start": 313.5, "duration": 0.5, "velocity": 62 },
                { "note": 69, "start": 314, "duration": 0.75, "velocity": 65 },
                { "note": 72, "start": 315.5, "duration": 0.5, "velocity": 62 },
                { "note": 76, "start": 316, "duration": 1, "velocity": 67 },
                { "note": 74, "start": 317, "duration": 0.5, "velocity": 55 },
                { "note": 77, "start": 317, "duration": 0.5, "velocity": 69 },
                { "note": 72, "start": 317.5, "duration": 1, "velocity": 54 },
                { "note": 76, "start": 317.5, "duration": 1, "velocity": 68 },
                { "note": 71, "start": 318.5, "duration": 1, "velocity": 58 },
                { "note": 74, "start": 318.5, "duration": 1, "velocity": 72 },
                { "note": 69, "start": 319.5, "duration": 0.5, "velocity": 64 },
                { "note": 72, "start": 319.5, "duration": 0.5, "velocity": 78 },
                { "note": 72, "start": 320, "duration": 4, "velocity": 67 },
                { "note": 76, "start": 320, "duration": 4, "velocity": 81 },
                { "note": 69, "start": 336.5, "duration": 0.5, "velocity": 67 },
                { "note": 72, "start": 336.5, "duration": 0.5, "velocity": 77 },
                { "note": 69, "start": 337, "duration": 0.5, "velocity": 68 },
                { "note": 72, "start": 337, "duration": 0.5, "velocity": 78 },
                { "note": 69, "start": 337.5, "duration": 0.5, "velocity": 67 },
                { "note": 72, "start": 337.5, "duration": 0.5, "velocity": 77 },
                { "note": 69, "start": 339, "duration": 0.5, "velocity": 68 },
                { "note": 72, "start": 339, "duration": 0.5, "velocity": 78 },
                { "note": 69, "start": 339.5, "duration": 0.5, "velocity": 67 },
                { "note": 72, "start": 339.5, "duration": 0.5, "velocity": 77 },
                { "note": 69, "start": 340.5, "duration": 0.5, "velocity": 67 },
                { "note": 72, "start": 340.5, "duration": 0.5, "velocity": 77 },
                { "note": 69, "start": 341, "duration": 0.5, "velocity": 68 },
                { "note": 72, "start": 341, "duration": 0.5, "velocity": 78 },
                { "note": 69, "start": 341.5, "duration": 0.5, "velocity": 67 },
                { "note": 72, "start": 341.5, "duration": 0.5, "velocity": 77 },
                { "note": 69, "start": 343, "duration": 0.5, "velocity": 68 },
                { "note": 72, "start": 343, "duration": 0.5, "velocity": 78 },
                { "note": 69, "start": 343.5, "duration": 0.5, "velocity": 67 },
                { "note": 72, "start": 343.5, "duration": 0.5, "velocity": 77 },
                { "note": 72, "start": 344.5, "duration": 0.5, "velocity": 67 },
                { "note": 76, "start": 344.5, "duration": 0.5, "velocity": 77 },
                { "note": 72, "start": 345, "duration": 0.5, "velocity": 68 },
                { "note": 76, "start": 345, "duration": 0.5, "velocity": 78 },
                { "note": 72, "start": 345.5, "duration": 0.5, "velocity": 67 },
                { "note": 76, "start": 345.5, "duration": 0.5, "velocity": 77 },
                { "note": 72, "start": 347, "duration": 0.5, "velocity": 68 },
                { "note": 76, "start": 347, "duration": 0.5, "velocity": 78 },
                { "note": 72, "start": 347.5, "duration": 0.5, "velocity": 67 },
                { "note": 76, "start": 347.5, "duration": 0.5, "velocity": 77 },
                { "note": 72, "start": 348.5, "duration": 0.5, "velocity": 67 },
                { "note": 76, "start": 348.5, "duration": 0.5, "velocity": 77 },
                { "note": 72, "start": 349, "duration": 0.5, "velocity": 68 },
                { "note": 76, "start": 349, "duration": 0.5, "velocity": 78 },
                { "note": 72, "start": 349.5, "duration": 0.5, "velocity": 67 },
                { "note": 76, "start": 349.5, "duration": 0.5, "velocity": 77 },
                { "note": 72, "start": 351, "duration": 0.5, "velocity": 68 },
                { "note": 76, "start": 351, "duration": 0.5, "velocity": 78 },
                { "note": 72, "start": 351.5, "duration": 0.5, "velocity": 67 },
                { "note": 76, "start": 351.5, "duration": 0.5, "velocity": 77 },
                { "note": 74, "start": 354, "duration": 0.5, "velocity": 78 },
                { "note": 76, "start": 354.5, "duration": 0.5, "velocity": 75 },
                { "note": 74, "start": 355, "duration": 0.5, "velocity": 76 },
                { "note": 72, "start": 355.5, "duration": 0.5, "velocity": 75 },
                { "note": 76, "start": 356.5, "duration": 0.5, "velocity": 75 },
                { "note": 74, "start": 357, "duration": 0.5, "velocity": 76 },
                { "note": 72, "start": 357.5, "duration": 0.5, "velocity": 75 },
                { "note": 76, "start": 358.5, "duration": 0.5, "velocity": 75 },
                { "note": 74, "start": 359, "duration": 0.5, "velocity": 76 },
                { "note": 72, "start": 359.5, "duration": 0.5, "velocity": 75 },
                { "note": 76, "start": 360.5, "duration": 0.5, "velocity": 75 },
                { "note": 74, "start": 361, "duration": 0.5, "velocity": 76 },
                { "note": 74, "start": 362, "duration": 0.5, "velocity": 78 },
                { "note": 76, "start": 362.5, "duration": 0.5, "velocity": 75 },
                { "note": 79, "start": 363, "duration": 0.5, "velocity": 76 },
                { "note": 76, "start": 363.5, "duration": 0.5, "velocity": 75 },
                { "note": 74, "start": 364, "duration": 1.5, "velocity": 80 },
                { "note": 76, "start": 365.5, "duration": 0.5, "velocity": 75 },
                { "note": 72, "start": 366, "duration": 1, "velocity": 78 },
                { "note": 71, "start": 367, "duration": 0.5, "velocity": 76 },
                { "note": 72, "start": 367.5, "duration": 0.5, "velocity": 75 },
                { "note": 81, "start": 368, "duration": 1, "velocity": 80 },
                { "note": 81, "start": 370.5, "duration": 1, "velocity": 75 },
                { "note": 76, "start": 371.5, "duration": 0.5, "velocity": 75 },
                { "note": 74, "start": 372, "duration": 1, "velocity": 80 },
                { "note": 67, "start": 374.5, "duration": 1, "velocity": 75 },
                { "note": 79, "start": 375.5, "duration": 0.5, "velocity": 75 },
                { "note": 79, "start": 376, "duration": 2, "velocity": 80 },
                { "note": 79, "start": 378, "duration": 0.75, "velocity": 78 },
                { "note": 83, "start": 379.5, "duration": 0.5, "velocity": 75 },
                { "note": 83, "start": 380, "duration": 1, "velocity": 80 },
                { "note": 84, "start": 381, "duration": 0.5, "velocity": 76 },
                { "note": 83, "start": 381.5, "duration": 1, "velocity": 75 },
                { "note": 79, "start": 382.5, "duration": 0.5, "velocity": 75 },
                { "note": 76, "start": 383, "duration": 0.5, "velocity": 76 },
                { "note": 81, "start": 383.5, "duration": 2.5, "velocity": 75 },
                { "note": 60, "start": 386, "duration": 0.75, "velocity": 78 },
                { "note": 64, "start": 387.5, "duration": 0.5, "velocity": 75 },
                { "note": 67, "start": 388, "duration": 1.5, "velocity": 80 },
                { "note": 72, "start": 389.5, "duration": 0.5, "velocity": 75 },
                { "note": 71, "start": 390, "duration": 0.75, "velocity": 78 },
                { "note": 76, "start": 391.5, "duration": 0.5, "velocity": 75 },
                { "note": 81, "start": 392, "duration": 1.5, "velocity": 80 },
                { "note": 72, "start": 393.5, "duration": 0.5, "velocity": 75 },
                { "note": 69, "start": 394, "duration": 0.75, "velocity": 78 },
                { "note": 72, "start": 395.5, "duration": 0.5, "velocity": 75 },
                { "note": 76, "start": 396, "duration": 1, "velocity": 80 },
                { "note": 77, "start": 397, "duration": 0.5, "velocity": 76 },
                { "note": 76, "start": 397.5, "duration": 1, "velocity": 75 },
                { "note": 74, "start": 398.5, "duration": 1, "velocity": 75 },
                { "note": 72, "start": 399.5, "duration": 0.5, "velocity": 75 },
                { "note": 76, "start": 400, "duration": 2, "velocity": 67 },
                { "note": 72, "start": 402, "duration": 0.75, "velocity": 65 },
                { "note": 76, "start": 403.5, "duration": 0.5, "velocity": 62 },
                { "note": 79, "start": 404, "duration": 1.5, "velocity": 67 },
                { "note": 60, "start": 405.5, "duration": 0.5, "velocity": 62 },
                { "note": 59, "start": 406, "duration": 0.75, "velocity": 65 },
                { "note": 64, "start": 407.5, "duration": 0.5, "velocity": 62 },
                { "note": 69, "start": 408, "duration": 1.5, "velocity": 67 },
                { "note": 72, "start": 409.5, "duration": 0.5, "velocity": 54 },
                { "note": 84, "start": 409.5, "duration": 0.5, "velocity": 68 },
                { "note": 69, "start": 410, "duration": 0.75, "velocity": 57 },
                { "note": 81, "start": 410, "duration": 0.75, "velocity": 71 },
                { "note": 72, "start": 411.5, "duration": 0.5, "velocity": 54 },
                { "note": 84, "start": 411.5, "duration": 0.5, "velocity": 68 },
                { "note": 76, "start": 412, "duration": 1, "velocity": 59 },
                { "note": 88, "start": 412, "duration": 1, "velocity": 73 },
                { "note": 77, "start": 413, "duration": 0.5, "velocity": 55 },
                { "note": 89, "start": 413, "duration": 0.5, "velocity": 69 },
                { "note": 76, "start": 413.5, "duration": 1, "velocity": 52 },
                { "note": 88, "start": 413.5, "duration": 1, "velocity": 66 },
                { "note": 77, "start": 414.5, "duration": 0.5, "velocity": 42 },
                { "note": 89, "start": 414.5, "duration": 0.5, "velocity": 56 },
                { "note": 74, "start": 415, "duration": 1, "velocity": 38 },
                { "note": 86, "start": 415, "duration": 1, "velocity": 52 },
                { "note": 69, "start": 416, "duration": 4, "velocity": 62 }
            ]
        },
        {
            "id": "right-standard",
            "name": "Melodia",
            "hand": "right",
            "difficulty": "intermediate",
            "notes": [
                { "note": 83, "start": 0.5, "duration": 0.5, "velocity": 49 },
                { "note": 84, "start": 1, "duration": 0.5, "velocity": 50 },
                { "note": 83, "start": 1.75, "duration": 0.25, "velocity": 49 },
                { "note": 84, "start": 2.5, "duration": 0.5, "velocity": 49 },
                { "note": 79, "start": 3, "duration": 1, "velocity": 50 },
                { "note": 83, "start": 4.5, "duration": 0.5, "velocity": 49 },
                { "note": 84, "start": 5, "duration": 0.5, "velocity": 50 },
                { "note": 83, "start": 5.75, "duration": 0.25, "velocity": 49 },
                { "note": 84, "start": 6.5, "duration": 0.5, "velocity": 49 },
                { "note": 79, "start": 7, "duration": 1, "velocity": 50 },
                { "note": 83, "start": 8.5, "duration": 0.5, "velocity": 49 },
                { "note": 84, "start": 9, "duration": 0.5, "velocity": 50 },
                { "note": 83, "start": 9.75, "duration": 0.25, "velocity": 49 },
                { "note": 84, "start": 10.5, "duration": 0.5, "velocity": 49 },
                { "note": 79, "start": 11, "duration": 1, "velocity": 50 },
                { "note": 83, "start": 12.5, "duration": 0.5, "velocity": 49 },
                { "note": 84, "start": 13, "duration": 0.5, "velocity": 50 },
                { "note": 83, "start": 13.75, "duration": 0.25, "velocity": 49 },
                { "note": 84, "start": 14.5, "duration": 0.5, "velocity": 49 },
                { "note": 79, "start": 15, "duration": 0.5, "velocity": 50 },
                { "note": 91, "start": 15.5, "duration": 0.25, "velocity": 49 },
                { "note": 91, "start": 15.75, "duration": 0.25, "velocity": 49 },
                { "note": 64, "start": 16.25, "duration": 0.25, "velocity": 41 },
                { "note": 69, "start": 16.25, "duration": 0.25, "velocity": 41 },
                { "note": 72, "start": 16.25, "duration": 0.25, "velocity": 51 },
                { "note": 64, "start": 16.5, "duration": 0.25, "velocity": 41 },
                { "note": 69, "start": 16.5, "duration": 0.25, "velocity": 41 },
                { "note": 72, "start": 16.5, "duration": 0.25, "velocity": 51 },
                { "note": 64, "start": 17, "duration": 0.25, "velocity": 42 },
                { "note": 69, "start": 17, "duration": 0.25, "velocity": 42 },
                { "note": 72, "start": 17, "duration": 0.25, "velocity": 52 },
                { "note": 64, "start": 17.5, "duration": 0.25, "velocity": 41 },
                { "note": 69, "start": 17.5, "duration": 0.25, "velocity": 41 },
                { "note": 72, "start": 17.5, "duration": 0.25, "velocity": 51 },
                { "note": 64, "start": 17.75, "duration": 0.25, "velocity": 41 },
                { "note": 69, "start": 17.75, "duration": 0.25, "velocity": 41 },
                { "note": 72, "start": 17.75, "duration": 0.25, "velocity": 51 },
                { "note": 64, "start": 18.25, "duration": 0.25, "velocity": 41 },
                { "note": 69, "start": 18.25, "duration": 0.25, "velocity": 41 },
                { "note": 72, "start": 18.25, "duration": 0.25, "velocity": 51 },
                { "note": 64, "start": 18.75, "duration": 0.25, "velocity": 41 },
                { "note": 69, "start": 18.75, "duration": 0.25, "velocity": 41 },
                { "note": 72, "start": 18.75, "duration": 0.25, "velocity": 51 },
                { "note": 64, "start": 19, "duration": 0.25, "velocity": 42 },
                { "note": 69, "start": 19, "duration": 0.25, "velocity": 42 },
                { "note": 72, "start": 19, "duration": 0.25, "velocity": 52 },
                { "note": 64, "start": 19.5, "duration": 0.25, "velocity": 41 },
                { "note": 69, "start": 19.5, "duration": 0.25, "velocity": 41 },
                { "note": 72, "start": 19.5, "duration": 0.25, "velocity": 51 },
                { "note": 64, "start": 19.75, "duration": 0.25, "velocity": 41 },
                { "note": 69, "start": 19.75, "duration": 0.25, "velocity": 41 },
                { "note": 72, "start": 19.75, "duration": 0.25, "velocity": 51 },
                { "note": 64, "start": 20.25, "duration": 0.25, "velocity": 41 },
                { "note": 69, "start": 20.25, "duration": 0.25, "velocity": 41 },
                { "note": 72, "start": 20.25, "duration": 0.25, "velocity": 51 },
                { "note": 64, "start": 20.5, "duration": 0.25, "velocity": 41 },
                { "note": 69, "start": 20.5, "duration": 0.25, "velocity": 41 },
                { "note": 72, "start": 20.5, "duration": 0.25, "velocity": 51 },
                { "note": 64, "start": 21, "duration": 0.25, "velocity": 42 },
                { "note": 69, "start": 21, "duration": 0.25, "velocity": 42 },
                { "note": 72, "start": 21, "duration": 0.25, "velocity": 52 },
                { "note": 64, "start": 21.5, "duration": 0.25, "velocity": 41 },
                { "note": 69, "start": 21.5, "duration": 0.25, "velocity": 41 },
                { "note": 72, "start": 21.5, "duration": 0.25, "velocity": 51 },
                { "note": 64, "start": 21.75, "duration": 0.25, "velocity": 41 },
                { "note": 69, "start": 21.75, "duration": 0.25, "velocity": 41 },
                { "note": 72, "start": 21.75, "duration": 0.25, "velocity": 51 },
                { "note": 64, "start": 22.25, "duration": 0.25, "velocity": 41 },
                { "note": 69, "start": 22.25, "duration": 0.25, "velocity": 41 },
                { "note": 72, "start": 22.25, "duration": 0.25, "velocity": 51 },
                { "note": 64, "start": 22.75, "duration": 0.25, "velocity": 41 },
                { "note": 69, "start": 22.75, "duration": 0.25, "velocity": 41 },
                { "note": 72, "start": 22.75, "duration": 0.25, "velocity": 51 },
                { "note": 64, "start": 23, "duration": 0.25, "velocity": 42 },
                { "note": 69, "start": 23, "duration": 0.25, "velocity": 42 },
                { "note": 72, "start": 23, "duration": 0.25, "velocity": 52 },
                { "note": 64, "start": 23.5, "duration": 0.25, "velocity": 41 },
                { "note": 69, "start": 23.5, "duration": 0.25, "velocity": 41 },
                { "note": 72, "start": 23.5, "duration": 0.25, "velocity": 51 },
                { "note": 64, "start": 23.75, "duration": 0.25, "velocity": 41 },
                { "note": 69, "start": 23.75, "duration": 0.25, "velocity": 41 },
                { "note": 72, "start": 23.75, "duration": 0.25, "velocity": 55 },
                { "note": 67, "start": 24.25, "duration": 0.25, "velocity": 41 },
                { "note": 72, "start": 24.25, "duration": 0.25, "velocity": 41 },
                { "note": 76, "start": 24.25, "duration": 0.25, "velocity": 55 },
                { "note": 67, "start": 24.5, "duration": 0.25, "velocity": 41 },
                { "note": 72, "start": 24.5, "duration": 0.25, "velocity": 41 },
                { "note": 76, "start": 24.5, "duration": 0.25, "velocity": 51 },
                { "note": 67, "start": 25, "duration": 0.25, "velocity": 42 },
                { "note": 72, "start": 25, "duration": 0.25, "velocity": 42 },
                { "note": 76, "start": 25, "duration": 0.25, "velocity": 52 },
                { "note": 67, "start": 25.5, "duration": 0.25, "velocity": 41 },
                { "note": 72, "start": 25.5, "duration": 0.25, "velocity": 41 },
                { "note": 76, "start": 25.5, "duration": 0.25, "velocity": 51 },
                { "note": 67, "start": 25.75, "duration": 0.25, "velocity": 41 },
                { "note": 72, "start": 25.75, "duration": 0.25, "velocity": 41 },
                { "note": 76, "start": 25.75, "duration": 0.25, "velocity": 51 },
                { "note": 67, "start": 26.25, "duration": 0.25, "velocity": 41 },
                { "note": 72, "start": 26.25, "duration": 0.25, "velocity": 41 },
                { "note": 76, "start": 26.25, "duration": 0.25, "velocity": 51 },
                { "note": 67, "start": 26.75, "duration": 0.25, "velocity": 41 },
                { "note": 72, "start": 26.75, "duration": 0.25, "velocity": 41 },
                { "note": 76, "start": 26.75, "duration": 0.25, "velocity": 51 },
                { "note": 67, "start": 27, "duration": 0.25, "velocity": 42 },
                { "note": 72, "start": 27, "duration": 0.25, "velocity": 42 },
                { "note": 76, "start": 27, "duration": 0.25, "velocity": 52 },
                { "note": 67, "start": 27.5, "duration": 0.25, "velocity": 41 },
                { "note": 72, "start": 27.5, "duration": 0.25, "velocity": 41 },
                { "note": 76, "start": 27.5, "duration": 0.25, "velocity": 51 },
                { "note": 67, "start": 27.75, "duration": 0.25, "velocity": 41 },
                { "note": 72, "start": 27.75, "duration": 0.25, "velocity": 41 },
                { "note": 76, "start": 27.75, "duration": 0.25, "velocity": 51 },
                { "note": 67, "start": 28.25, "duration": 0.25, "velocity": 41 },
                { "note": 72, "start": 28.25, "duration": 0.25, "velocity": 41 },
                { "note": 76, "start": 28.25, "duration": 0.25, "velocity": 51 },
                { "note": 67, "start": 28.5, "duration": 0.25, "velocity": 41 },
                { "note": 72, "start": 28.5, "duration": 0.25, "velocity": 41 },
                { "note": 76, "start": 28.5, "duration": 0.25, "velocity": 51 },
                { "note": 67, "start": 29, "duration": 0.25, "velocity": 42 },
                { "note": 72, "start": 29, "duration": 0.25, "velocity": 42 },
                { "note": 76, "start": 29, "duration": 0.25, "velocity": 52 },
                { "note": 67, "start": 29.5, "duration": 0.25, "velocity": 41 },
                { "note": 72, "start": 29.5, "duration": 0.25, "velocity": 41 },
                { "note": 76, "start": 29.5, "duration": 0.25, "velocity": 51 },
                { "note": 67, "start": 29.75, "duration": 0.25, "velocity": 41 },
                { "note": 72, "start": 29.75, "duration": 0.25, "velocity": 41 },
                { "note": 76, "start": 29.75, "duration": 0.25, "velocity": 51 },
                { "note": 67, "start": 30.25, "duration": 0.25, "velocity": 41 },
                { "note": 72, "start": 30.25, "duration": 0.25, "velocity": 41 },
                { "note": 76, "start": 30.25, "duration": 0.25, "velocity": 51 },
                { "note": 67, "start": 30.75, "duration": 0.25, "velocity": 41 },
                { "note": 72, "start": 30.75, "duration": 0.25, "velocity": 41 },
                { "note": 76, "start": 30.75, "duration": 0.25, "velocity": 51 },
                { "note": 67, "start": 31, "duration": 0.25, "velocity": 42 },
                { "note": 72, "start": 31, "duration": 0.25, "velocity": 42 },
                { "note": 76, "start": 31, "duration": 0.25, "velocity": 52 },
                { "note": 67, "start": 31.5, "duration": 0.25, "velocity": 41 },
                { "note": 72, "start": 31.5, "duration": 0.25, "velocity": 41 },
                { "note": 76, "start": 31.5, "duration": 0.25, "velocity": 51 },
                { "note": 67, "start": 31.75, "duration": 0.25, "velocity": 41 },
                { "note": 72, "start": 31.75, "duration": 0.25, "velocity": 41 },
                { "note": 76, "start": 31.75, "duration": 0.25, "velocity": 51 },
                { "note": 71, "start": 34.5, "duration": 0.5, "velocity": 62 },
                { "note": 72, "start": 35, "duration": 0.5, "velocity": 63 },
                { "note": 79, "start": 35.5, "duration": 0.5, "velocity": 62 },
                { "note": 79, "start": 36, "duration": 0.5, "velocity": 67 },
                { "note": 71, "start": 36.5, "duration": 0.5, "velocity": 62 },
                { "note": 72, "start": 37, "duration": 0.5, "velocity": 63 },
                { "note": 79, "start": 37.5, "duration": 0.5, "velocity": 62 },
                { "note": 79, "start": 38, "duration": 2, "velocity": 65 },
                { "note": 59, "start": 40.5, "duration": 0.5, "velocity": 62 },
                { "note": 60, "start": 41, "duration": 0.5, "velocity": 63 },
                { "note": 59, "start": 41.75, "duration": 0.25, "velocity": 62 },
                { "note": 79, "start": 42.5, "duration": 0.5, "velocity": 62 },
                { "note": 81, "start": 43, "duration": 0.5, "velocity": 63 },
                { "note": 76, "start": 43.5, "duration": 0.5, "velocity": 62 },
                { "note": 76, "start": 44, "duration": 2, "velocity": 67 },
                { "note": 67, "start": 47.5, "duration": 0.25, "velocity": 62 },
                { "note": 79, "start": 47.75, "duration": 0.25, "velocity": 62 },
                { "note": 83, "start": 50.5, "duration": 0.5, "velocity": 62 },
                { "note": 84, "start": 51, "duration": 0.5, "velocity": 63 },
                { "note": 91, "start": 51.5, "duration": 0.5, "velocity": 62 },
                { "note": 91, "start": 52, "duration": 0.5, "velocity": 67 },
                { "note": 83, "start": 52.5, "duration": 0.5, "velocity": 62 },
                { "note": 84, "start": 53, "duration": 0.5, "velocity": 63 },
                { "note": 91, "start": 53.5, "duration": 0.5, "velocity": 62 },
                { "note": 91, "start": 54, "duration": 2, "velocity": 65 },
                { "note": 84, "start": 57.5, "duration": 0.5, "velocity": 62 },
                { "note": 83, "start": 58, "duration": 0.5, "velocity": 65 },
                { "note": 79, "start": 58.5, "duration": 0.5, "velocity": 62 },
                { "note": 76, "start": 59, "duration": 0.5, "velocity": 63 },
                { "note": 81, "start": 59.5, "duration": 0.5, "velocity": 62 },
                { "note": 81, "start": 60, "duration": 2, "velocity": 67 },
                { "note": 67, "start": 63.5, "duration": 0.25, "velocity": 62 },
                { "note": 79, "start": 63.75, "duration": 0.25, "velocity": 62 },
                { "note": 67, "start": 67, "duration": 0.5, "velocity": 63 },
                { "note": 76, "start": 67.5, "duration": 0.5, "velocity": 62 },
                { "note": 74, "start": 68, "duration": 3, "velocity": 62 },
                { "note": 67, "start": 71, "duration": 0.5, "velocity": 63 },
                { "note": 79, "start": 71.5, "duration": 0.5, "velocity": 62 },
                { "note": 79, "start": 72, "duration": 2, "velocity": 67 },
                { "note": 79, "start": 74, "duration": 0.75, "velocity": 65 },
                { "note": 77, "start": 74.75, "duration": 0.75, "velocity": 62 },
                { "note": 76, "start": 75.5, "duration": 0.5, "velocity": 62 },
                { "note": 74, "start": 76, "duration": 1.5, "velocity": 67 },
                { "note": 76, "start": 77.5, "duration": 0.25, "velocity": 62 },
                { "note": 74, "start": 77.75, "duration": 0.25, "velocity": 62 },
                { "note": 72, "start": 78, "duration": 0.75, "velocity": 65 },
                { "note": 71, "start": 78.75, "duration": 0.75, "velocity": 62 },
                { "note": 72, "start": 79.5, "duration": 0.5, "velocity": 62 },
                { "note": 81, "start": 80, "duration": 2, "velocity": 67 },
                { "note": 81, "start": 82.5, "duration": 0.5, "velocity": 62 },
                { "note": 81, "start": 83, "duration": 0.5, "velocity": 63 },
                { "note": 76, "start": 83.5, "duration": 0.5, "velocity": 62 },
                { "note": 74, "start": 84, "duration": 0.5, "velocity": 67 },
                { "note": 93, "start": 84.5, "duration": 0.5, "velocity": 62 },
                { "note": 93, "start": 85, "duration": 0.5, "velocity": 63 },
                { "note": 88, "start": 85.5, "duration": 0.5, "velocity": 62 },
                { "note": 86, "start": 86, "duration": 1, "velocity": 65 },
                { "note": 67, "start": 87, "duration": 0.5, "velocity": 63 },
                { "note": 79, "start": 87.5, "duration": 0.5, "velocity": 62 },
                { "note": 79, "start": 88, "duration": 2, "velocity": 67 },
                { "note": 71, "start": 90, "duration": 0.75, "velocity": 57 },
                { "note": 79, "start": 90, "duration": 0.75, "velocity": 71 },
                { "note": 72, "start": 90.75, "duration": 0.75, "velocity": 54 },
                { "note": 81, "start": 90.75, "duration": 0.75, "velocity": 68 },
                { "note": 74, "start": 91.5, "duration": 0.5, "velocity": 54 },
                { "note": 83, "start": 91.5, "duration": 0.5, "velocity": 68 },
                { "note": 74, "start": 92, "duration": 1, "velocity": 59 },
                { "note": 83, "start": 92, "duration": 1, "velocity": 73 },
                { "note": 76, "start": 93, "duration": 0.5, "velocity": 55 },
                { "note": 84, "start": 93, "duration": 0.5, "velocity": 69 },
                { "note": 74, "start": 93.5, "duration": 1, "velocity": 54 },
                { "note": 83, "start": 93.5, "duration": 1, "velocity": 68 },
                { "note": 71, "start": 94.5, "duration": 1, "velocity": 54 },
                { "note": 79, "start": 94.5, "duration": 1, "velocity": 68 },
                { "note": 72, "start": 95.5, "duration": 0.5, "velocity": 54 },
                { "note": 76, "start": 95.5, "duration": 0.5, "velocity": 68 },
                { "note": 69, "start": 96, "duration": 2, "velocity": 59 },
                { "note": 77, "start": 96, "duration": 2, "velocity": 59 },
                { "note": 81, "start": 96, "duration": 2, "velocity": 73 },
                { "note": 72, "start": 98, "duration": 0.75, "velocity": 65 },
                { "note": 74, "start": 98.75, "duration": 0.75, "velocity": 62 },
                { "note": 76, "start": 99.5, "duration": 0.5, "velocity": 62 },
                { "note": 79, "start": 100, "duration": 1.5, "velocity": 67 },
                { "note": 72, "start": 101.5, "duration": 0.5, "velocity": 62 },
                { "note": 71, "start": 102, "duration": 0.75, "velocity": 65 },
                { "note": 72, "start": 102.75, "duration": 0.75, "velocity": 62 },
                { "note": 76, "start": 103.5, "duration": 0.5, "velocity": 62 },
                { "note": 81, "start": 104, "duration": 1.5, "velocity": 67 },
                { "note": 72, "start": 105.5, "duration": 0.5, "velocity": 62 },
                { "note": 69, "start": 106, "duration": 0.75, "velocity": 65 },
                { "note": 71, "start": 106.75, "duration": 0.75, "velocity": 62 },
                { "note": 72, "start": 107.5, "duration": 0.5, "velocity": 62 },
                { "note": 76, "start": 108, "duration": 1, "velocity": 67 },
                { "note": 74, "start": 109, "duration": 0.5, "velocity": 55 },
                { "note": 77, "start": 109, "duration": 0.5, "velocity": 69 },
                { "note": 72, "start": 109.5, "duration": 1, "velocity": 54 },
                { "note": 76, "start": 109.5, "duration": 1, "velocity": 68 },
                { "note": 71, "start": 110.5, "duration": 1, "velocity": 58 },
                { "note": 74, "start": 110.5, "duration": 1, "velocity": 72 },
                { "note": 69, "start": 111.5, "duration": 0.5, "velocity": 64 },
                { "note": 72, "start": 111.5, "duration": 0.5, "velocity": 78 },
                { "note": 64, "start": 112, "duration": 4, "velocity": 67 },
                { "note": 69, "start": 112, "duration": 4, "velocity": 67 },
                { "note": 72, "start": 112, "duration": 4, "velocity": 67 },
                { "note": 76, "start": 112, "duration": 4, "velocity": 81 },
                { "note": 64, "start": 128.25, "duration": 0.25, "velocity": 67 },
                { "note": 69, "start": 128.25, "duration": 0.25, "velocity": 67 },
                { "note": 72, "start": 128.25, "duration": 0.25, "velocity": 77 },
                { "note": 64, "start": 128.5, "duration": 0.25, "velocity": 67 },
                { "note": 69, "start": 128.5, "duration": 0.25, "velocity": 67 },
                { "note": 72, "start": 128.5, "duration": 0.25, "velocity": 77 },
                { "note": 64, "start": 129, "duration": 0.25, "velocity": 68 },
                { "note": 69, "start": 129, "duration": 0.25, "velocity": 68 },
                { "note": 72, "start": 129, "duration": 0.25, "velocity": 78 },
                { "note": 64, "start": 129.5, "duration": 0.25, "velocity": 67 },
                { "note": 69, "start": 129.5, "duration": 0.25, "velocity": 67 },
                { "note": 72, "start": 129.5, "duration": 0.25, "velocity": 77 },
                { "note": 64, "start": 129.75, "duration": 0.25, "velocity": 67 },
                { "note": 69, "start": 129.75, "duration": 0.25, "velocity": 67 },
                { "note": 72, "start": 129.75, "duration": 0.25, "velocity": 77 },
                { "note": 64, "start": 130.25, "duration": 0.25, "velocity": 67 },
                { "note": 69, "start": 130.25, "duration": 0.25, "velocity": 67 },
                { "note": 72, "start": 130.25, "duration": 0.25, "velocity": 77 },
                { "note": 64, "start": 130.75, "duration": 0.25, "velocity": 67 },
                { "note": 69, "start": 130.75, "duration": 0.25, "velocity": 67 },
                { "note": 72, "start": 130.75, "duration": 0.25, "velocity": 77 },
                { "note": 64, "start": 131, "duration": 0.25, "velocity": 68 },
                { "note": 69, "start": 131, "duration": 0.25, "velocity": 68 },
                { "note": 72, "start": 131, "duration": 0.25, "velocity": 78 },
                { "note": 64, "start": 131.5, "duration": 0.25, "velocity": 67 },
                { "note": 69, "start": 131.5, "duration": 0.25, "velocity": 67 },
                { "note": 72, "start": 131.5, "duration": 0.25, "velocity": 77 },
                { "note": 64, "start": 131.75, "duration": 0.25, "velocity": 67 },
                { "note": 69, "start": 131.75, "duration": 0.25, "velocity": 67 },
                { "note": 72, "start": 131.75, "duration": 0.25, "velocity": 77 },
                { "note": 64, "start": 132.25, "duration": 0.25, "velocity": 67 },
                { "note": 69, "start": 132.25, "duration": 0.25, "velocity": 67 },
                { "note": 72, "start": 132.25, "duration": 0.25, "velocity": 77 },
                { "note": 64, "start": 132.5, "duration": 0.25, "velocity": 67 },
                { "note": 69, "start": 132.5, "duration": 0.25, "velocity": 67 },
                { "note": 72, "start": 132.5, "duration": 0.25, "velocity": 77 },
                { "note": 64, "start": 133, "duration": 0.25, "velocity": 68 },
                { "note": 69, "start": 133, "duration": 0.25, "velocity": 68 },
                { "note": 72, "start": 133, "duration": 0.25, "velocity": 78 },
                { "note": 64, "start": 133.5, "duration": 0.25, "velocity": 67 },
                { "note": 69, "start": 133.5, "duration": 0.25, "velocity": 67 },
                { "note": 72, "start": 133.5, "duration": 0.25, "velocity": 77 },
                { "note": 64, "start": 133.75, "duration": 0.25, "velocity": 67 },
                { "note": 69, "start": 133.75, "duration": 0.25, "velocity": 67 },
                { "note": 72, "start": 133.75, "duration": 0.25, "velocity": 77 },
                { "note": 64, "start": 134.25, "duration": 0.25, "velocity": 67 },
                { "note": 69, "start": 134.25, "duration": 0.25, "velocity": 67 },
                { "note": 72, "start": 134.25, "duration": 0.25, "velocity": 77 },
                { "note": 64, "start": 134.75, "duration": 0.25, "velocity": 67 },
                { "note": 69, "start": 134.75, "duration": 0.25, "velocity": 67 },
                { "note": 72, "start": 134.75, "duration": 0.25, "velocity": 77 },
                { "note": 64, "start": 135, "duration": 0.25, "velocity": 68 },
                { "note": 69, "start": 135, "duration": 0.25, "velocity": 68 },
                { "note": 72, "start": 135, "duration": 0.25, "velocity": 78 },
                { "note": 64, "start": 135.5, "duration": 0.25, "velocity": 67 },
                { "note": 69, "start": 135.5, "duration": 0.25, "velocity": 67 },
                { "note": 72, "start": 135.5, "duration": 0.25, "velocity": 77 },
                { "note": 64, "start": 135.75, "duration": 0.25, "velocity": 67 },
                { "note": 69, "start": 135.75, "duration": 0.25, "velocity": 67 },
                { "note": 72, "start": 135.75, "duration": 0.25, "velocity": 81 },
                { "note": 67, "start": 136.25, "duration": 0.25, "velocity": 67 },
                { "note": 72, "start": 136.25, "duration": 0.25, "velocity": 67 },
                { "note": 76, "start": 136.25, "duration": 0.25, "velocity": 81 },
                { "note": 67, "start": 136.5, "duration": 0.25, "velocity": 67 },
                { "note": 72, "start": 136.5, "duration": 0.25, "velocity": 67 },
                { "note": 76, "start": 136.5, "duration": 0.25, "velocity": 77 },
                { "note": 67, "start": 137, "duration": 0.25, "velocity": 68 },
                { "note": 72, "start": 137, "duration": 0.25, "velocity": 68 },
                { "note": 76, "start": 137, "duration": 0.25, "velocity": 78 },
                { "note": 67, "start": 137.5, "duration": 0.25, "velocity": 67 },
                { "note": 72, "start": 137.5, "duration": 0.25, "velocity": 67 },
                { "note": 76, "start": 137.5, "duration": 0.25, "velocity": 77 },
                { "note": 67, "start": 137.75, "duration": 0.25, "velocity": 67 },
                { "note": 72, "start": 137.75, "duration": 0.25, "velocity": 67 },
                { "note": 76, "start": 137.75, "duration": 0.25, "velocity": 77 },
                { "note": 67, "start": 138.25, "duration": 0.25, "velocity": 67 },
                { "note": 72, "start": 138.25, "duration": 0.25, "velocity": 67 },
                { "note": 76, "start": 138.25, "duration": 0.25, "velocity": 77 },
                { "note": 67, "start": 138.75, "duration": 0.25, "velocity": 67 },
                { "note": 72, "start": 138.75, "duration": 0.25, "velocity": 67 },
                { "note": 76, "start": 138.75, "duration": 0.25, "velocity": 77 },
                { "note": 67, "start": 139, "duration": 0.25, "velocity": 68 },
                { "note": 72, "start": 139, "duration": 0.25, "velocity": 68 },
                { "note": 76, "start": 139, "duration": 0.25, "velocity": 78 },
                { "note": 67, "start": 139.5, "duration": 0.25, "velocity": 67 },
                { "note": 72, "start": 139.5, "duration": 0.25, "velocity": 67 },
                { "note": 76, "start": 139.5, "duration": 0.25, "velocity": 77 },
                { "note": 67, "start": 139.75, "duration": 0.25, "velocity": 67 },
                { "note": 72, "start": 139.75, "duration": 0.25, "velocity": 67 },
                { "note": 76, "start": 139.75, "duration": 0.25, "velocity": 77 },
                { "note": 67, "start": 140.25, "duration": 0.25, "velocity": 67 },
                { "note": 72, "start": 140.25, "duration": 0.25, "velocity": 67 },
                { "note": 76, "start": 140.25, "duration": 0.25, "velocity": 77 },
                { "note": 67, "start": 140.5, "duration": 0.25, "velocity": 67 },
                { "note": 72, "start": 140.5, "duration": 0.25, "velocity": 67 },
                { "note": 76, "start": 140.5, "duration": 0.25, "velocity": 77 },
                { "note": 67, "start": 141, "duration": 0.25, "velocity": 68 },
                { "note": 72, "start": 141, "duration": 0.25, "velocity": 68 },
                { "note": 76, "start": 141, "duration": 0.25, "velocity": 78 },
                { "note": 67, "start": 141.5, "duration": 0.25, "velocity": 67 },
                { "note": 72, "start": 141.5, "duration": 0.25, "velocity": 67 },
                { "note": 76, "start": 141.5, "duration": 0.25, "velocity": 77 },
                { "note": 67, "start": 141.75, "duration": 0.25, "velocity": 67 },
                { "note": 72, "start": 141.75, "duration": 0.25, "velocity": 67 },
                { "note": 76, "start": 141.75, "duration": 0.25, "velocity": 77 },
                { "note": 67, "start": 142.25, "duration": 0.25, "velocity": 67 },
                { "note": 72, "start": 142.25, "duration": 0.25, "velocity": 67 },
                { "note": 76, "start": 142.25, "duration": 0.25, "velocity": 77 },
                { "note": 67, "start": 142.75, "duration": 0.25, "velocity": 67 },
                { "note": 72, "start": 142.75, "duration": 0.25, "velocity": 67 },
                { "note": 76, "start": 142.75, "duration": 0.25, "velocity": 77 },
                { "note": 67, "start": 143, "duration": 0.25, "velocity": 68 },
                { "note": 72, "start": 143, "duration": 0.25, "velocity": 68 },
                { "note": 76, "start": 143, "duration": 0.25, "velocity": 78 },
                { "note": 67, "start": 143.5, "duration": 0.25, "velocity": 67 },
                { "note": 72, "start": 143.5, "duration": 0.25, "velocity": 67 },
                { "note": 76, "start": 143.5, "duration": 0.25, "velocity": 77 },
                { "note": 67, "start": 143.75, "duration": 0.25, "velocity": 67 },
                { "note": 72, "start": 143.75, "duration": 0.25, "velocity": 67 },
                { "note": 76, "start": 143.75, "duration": 0.25, "velocity": 77 },
                { "note": 74, "start": 146, "duration": 0.5, "velocity": 78 },
                { "note": 76, "start": 146.5, "duration": 0.5, "velocity": 75 },
                { "note": 74, "start": 147, "duration": 0.5, "velocity": 76 },
                { "note": 72, "start": 147.5, "duration": 0.25, "velocity": 75 },
                { "note": 74, "start": 147.75, "duration": 0.75, "velocity": 75 },
                { "note": 76, "start": 148.5, "duration": 0.5, "velocity": 75 },
                { "note": 74, "start": 149, "duration": 0.5, "velocity": 76 },
                { "note": 72, "start": 149.5, "duration": 0.25, "velocity": 75 },
                { "note": 74, "start": 149.75, "duration": 0.75, "velocity": 75 },
                { "note": 76, "start": 150.5, "duration": 0.5, "velocity": 75 },
                { "note": 74, "start": 151, "duration": 0.5, "velocity": 76 },
                { "note": 72, "start": 151.5, "duration": 0.25, "velocity": 75 },
                { "note": 74, "start": 151.75, "duration": 0.75, "velocity": 75 },
                { "note": 76, "start": 152.5, "duration": 0.5, "velocity": 75 },
                { "note": 74, "start": 153, "duration": 0.5, "velocity": 76 },
                { "note": 74, "start": 154, "duration": 0.5, "velocity": 78 },
                { "note": 76, "start": 154.5, "duration": 0.5, "velocity": 75 },
                { "note": 79, "start": 155, "duration": 0.5, "velocity": 76 },
                { "note": 76, "start": 155.5, "duration": 0.5, "velocity": 75 },
                { "note": 74, "start": 156, "duration": 1.5, "velocity": 80 },
                { "note": 76, "start": 157.5, "duration": 0.25, "velocity": 75 },
                { "note": 74, "start": 157.75, "duration": 0.25, "velocity": 75 },
                { "note": 72, "start": 158, "duration": 1, "velocity": 78 },
                { "note": 71, "start": 159, "duration": 0.5, "velocity": 76 },
                { "note": 72, "start": 159.5, "duration": 0.5, "velocity": 75 },
                { "note": 81, "start": 160, "duration": 1, "velocity": 80 },
                { "note": 81, "start": 162.5, "duration": 1, "velocity": 75 },
                { "note": 76, "start": 163.5, "duration": 0.5, "velocity": 75 },
                { "note": 74, "start": 164, "duration": 1, "velocity": 80 },
                { "note": 67, "start": 166.5, "duration": 1, "velocity": 75 },
                { "note": 79, "start": 167.5, "duration": 0.5, "velocity": 75 },
                { "note": 79, "start": 168, "duration": 2, "velocity": 80 },
                { "note": 79, "start": 170, "duration": 0.75, "velocity": 78 },
                { "note": 81, "start": 170.75, "duration": 0.75, "velocity": 75 },
                { "note": 83, "start": 171.5, "duration": 0.5, "velocity": 75 },
                { "note": 83, "start": 172, "duration": 1, "velocity": 80 },
                { "note": 84, "start": 173, "duration": 0.5, "velocity": 76 },
                { "note": 83, "start": 173.5, "duration": 1, "velocity": 75 },
                { "note": 79, "start": 174.5, "duration": 0.5, "velocity": 75 },
                { "note": 76, "start": 175, "duration": 0.5, "velocity": 76 },
                { "note": 81, "start": 175.5, "duration": 2.5, "velocity": 75 },
                { "note": 60, "start": 178, "duration": 0.75, "velocity": 78 },
                { "note": 62, "start": 178.75, "duration": 0.75, "velocity": 75 },
                { "note": 64, "start": 179.5, "duration": 0.5, "velocity": 75 },
                { "note": 67, "start": 180, "duration": 1.5, "velocity": 80 },
                { "note": 72, "start": 181.5, "duration": 0.5, "velocity": 75 },
                { "note": 71, "start": 182, "duration": 0.75, "velocity": 78 },
                { "note": 72, "start": 182.75, "duration": 0.75, "velocity": 75 },
                { "note": 76, "start": 183.5, "duration": 0.5, "velocity": 75 },
                { "note": 81, "start": 184, "duration": 1.5, "velocity": 80 },
                { "note": 72, "start": 185.5, "duration": 0.5, "velocity": 75 },
                { "note": 69, "start": 186, "duration": 0.75, "velocity": 78 },
                { "note": 71, "start": 186.75, "duration": 0.75, "velocity": 75 },
                { "note": 72, "start": 187.5, "duration": 0.5, "velocity": 75 },
                { "note": 76, "start": 188, "duration": 1, "velocity": 80 },
                { "note": 77, "start": 189, "duration": 0.5, "velocity": 76 },
                { "note": 76, "start": 189.5, "duration": 1, "velocity": 75 },
                { "note": 74, "start": 190.5, "duration": 1, "velocity": 75 },
                { "note": 72, "start": 191.5, "duration": 0.5, "velocity": 75 },
                { "note": 76, "start": 192, "duration": 2, "velocity": 67 },
                { "note": 72, "start": 194, "duration": 0.75, "velocity": 65 },
                { "note": 74, "start": 194.75, "duration": 0.75, "velocity": 62 },
                { "note": 76, "start": 195.5, "duration": 0.5, "velocity": 62 },
                { "note": 79, "start": 196, "duration": 1.5, "velocity": 67 },
                { "note": 60, "start": 197.5, "duration": 0.5, "velocity": 62 },
                { "note": 59, "start": 198, "duration": 0.75, "velocity": 65 },
                { "note": 60, "start": 198.75, "duration": 0.75, "velocity": 62 },
                { "note": 64, "start": 199.5, "duration": 0.5, "velocity": 62 },
                { "note": 69, "start": 200, "duration": 1.5, "velocity": 67 },
                { "note": 72, "start": 201.5, "duration": 0.5, "velocity": 54 },
                { "note": 84, "start": 201.5, "duration": 0.5, "velocity": 68 },
                { "note": 69, "start": 202, "duration": 0.75, "velocity": 57 },
                { "note": 81, "start": 202, "duration": 0.75, "velocity": 71 },
                { "note": 71, "start": 202.75, "duration": 0.75, "velocity": 54 },
                { "note": 83, "start": 202.75, "duration": 0.75, "velocity": 68 },
                { "note": 72, "start": 203.5, "duration": 0.5, "velocity": 54 },
                { "note": 84, "start": 203.5, "duration": 0.5, "velocity": 68 },
                { "note": 76, "start": 204, "duration": 1, "velocity": 59 },
                { "note": 88, "start": 204, "duration": 1, "velocity": 73 },
                { "note": 77, "start": 205, "duration": 0.5, "velocity": 55 },
                { "note": 89, "start": 205, "duration": 0.5, "velocity": 69 },
                { "note": 76, "start": 205.5, "duration": 1, "velocity": 52 },
                { "note": 88, "start": 205.5, "duration": 1, "velocity": 66 },
                { "note": 77, "start": 206.5, "duration": 0.5, "velocity": 42 },
                { "note": 89, "start": 206.5, "duration": 0.5, "velocity": 56 },
                { "note": 74, "start": 207, "duration": 1, "velocity": 38 },
                { "note": 86, "start": 207, "duration": 1, "velocity": 52 },
                { "note": 83, "start": 208.5, "duration": 0.5, "velocity": 49 },
                { "note": 84, "start": 209, "duration": 0.5, "velocity": 50 },
                { "note": 83, "start": 209.75, "duration": 0.25, "velocity": 49 },
                { "note": 84, "start": 210.5, "duration": 0.5, "velocity": 49 },
                { "note": 79, "start": 211, "duration": 1, "velocity": 50 },
                { "note": 83, "start": 212.5, "duration": 0.5, "velocity": 49 },
                { "note": 84, "start": 213, "duration": 0.5, "velocity": 50 },
                { "note": 83, "start": 213.75, "duration": 0.25, "velocity": 49 },
                { "note": 84, "start": 214.5, "duration": 0.5, "velocity": 49 },
                { "note": 79, "start": 215, "duration": 1, "velocity": 50 },
                { "note": 83, "start": 216.5, "duration": 0.5, "velocity": 49 },
                { "note": 84, "start": 217, "duration": 0.5, "velocity": 50 },
                { "note": 83, "start": 217.75, "duration": 0.25, "velocity": 49 },
                { "note": 84, "start": 218.5, "duration": 0.5, "velocity": 49 },
                { "note": 79, "start": 219, "duration": 1, "velocity": 50 },
                { "note": 83, "start": 220.5, "duration": 0.5, "velocity": 49 },
                { "note": 84, "start": 221, "duration": 0.5, "velocity": 50 },
                { "note": 83, "start": 221.75, "duration": 0.25, "velocity": 49 },
                { "note": 84, "start": 222.5, "duration": 0.5, "velocity": 49 },
                { "note": 79, "start": 223, "duration": 0.5, "velocity": 50 },
                { "note": 91, "start": 223.5, "duration": 0.25, "velocity": 49 },
                { "note": 91, "start": 223.75, "duration": 0.25, "velocity": 49 },
                { "note": 64, "start": 224.25, "duration": 0.25, "velocity": 41 },
                { "note": 69, "start": 224.25, "duration": 0.25, "velocity": 41 },
                { "note": 72, "start": 224.25, "duration": 0.25, "velocity": 51 },
                { "note": 64, "start": 224.5, "duration": 0.25, "velocity": 41 },
                { "note": 69, "start": 224.5, "duration": 0.25, "velocity": 41 },
                { "note": 72, "start": 224.5, "duration": 0.25, "velocity": 51 },
                { "note": 64, "start": 225, "duration": 0.25, "velocity": 42 },
                { "note": 69, "start": 225, "duration": 0.25, "velocity": 42 },
                { "note": 72, "start": 225, "duration": 0.25, "velocity": 52 },
                { "note": 64, "start": 225.5, "duration": 0.25, "velocity": 41 },
                { "note": 69, "start": 225.5, "duration": 0.25, "velocity": 41 },
                { "note": 72, "start": 225.5, "duration": 0.25, "velocity": 51 },
                { "note": 64, "start": 225.75, "duration": 0.25, "velocity": 41 },
                { "note": 69, "start": 225.75, "duration": 0.25, "velocity": 41 },
                { "note": 72, "start": 225.75, "duration": 0.25, "velocity": 51 },
                { "note": 64, "start": 226.25, "duration": 0.25, "velocity": 41 },
                { "note": 69, "start": 226.25, "duration": 0.25, "velocity": 41 },
                { "note": 72, "start": 226.25, "duration": 0.25, "velocity": 51 },
                { "note": 64, "start": 226.75, "duration": 0.25, "velocity": 41 },
                { "note": 69, "start": 226.75, "duration": 0.25, "velocity": 41 },
                { "note": 72, "start": 226.75, "duration": 0.25, "velocity": 51 },
                { "note": 64, "start": 227, "duration": 0.25, "velocity": 42 },
                { "note": 69, "start": 227, "duration": 0.25, "velocity": 42 },
                { "note": 72, "start": 227, "duration": 0.25, "velocity": 52 },
                { "note": 64, "start": 227.5, "duration": 0.25, "velocity": 41 },
                { "note": 69, "start": 227.5, "duration": 0.25, "velocity": 41 },
                { "note": 72, "start": 227.5, "duration": 0.25, "velocity": 51 },
                { "note": 64, "start": 227.75, "duration": 0.25, "velocity": 41 },
                { "note": 69, "start": 227.75, "duration": 0.25, "velocity": 41 },
                { "note": 72, "start": 227.75, "duration": 0.25, "velocity": 51 },
                { "note": 64, "start": 228.25, "duration": 0.25, "velocity": 41 },
                { "note": 69, "start": 228.25, "duration": 0.25, "velocity": 41 },
                { "note": 72, "start": 228.25, "duration": 0.25, "velocity": 51 },
                { "note": 64, "start": 228.5, "duration": 0.25, "velocity": 41 },
                { "note": 69, "start": 228.5, "duration": 0.25, "velocity": 41 },
                { "note": 72, "start": 228.5, "duration": 0.25, "velocity": 51 },
                { "note": 64, "start": 229, "duration": 0.25, "velocity": 42 },
                { "note": 69, "start": 229, "duration": 0.25, "velocity": 42 },
                { "note": 72, "start": 229, "duration": 0.25, "velocity": 52 },
                { "note": 64, "start": 229.5, "duration": 0.25, "velocity": 41 },
                { "note": 69, "start": 229.5, "duration": 0.25, "velocity": 41 },
                { "note": 72, "start": 229.5, "duration": 0.25, "velocity": 51 },
                { "note": 64, "start": 229.75, "duration": 0.25, "velocity": 41 },
                { "note": 69, "start": 229.75, "duration": 0.25, "velocity": 41 },
                { "note": 72, "start": 229.75, "duration": 0.25, "velocity": 51 },
                { "note": 64, "start": 230.25, "duration": 0.25, "velocity": 41 },
                { "note": 69, "start": 230.25, "duration": 0.25, "velocity": 41 },
                { "note": 72, "start": 230.25, "duration": 0.25, "velocity": 51 },
                { "note": 64, "start": 230.75, "duration": 0.25, "velocity": 41 },
                { "note": 69, "start": 230.75, "duration": 0.25, "velocity": 41 },
                { "note": 72, "start": 230.75, "duration": 0.25, "velocity": 51 },
                { "note": 64, "start": 231, "duration": 0.25, "velocity": 42 },
                { "note": 69, "start": 231, "duration": 0.25, "velocity": 42 },
                { "note": 72, "start": 231, "duration": 0.25, "velocity": 52 },
                { "note": 64, "start": 231.5, "duration": 0.25, "velocity": 41 },
                { "note": 69, "start": 231.5, "duration": 0.25, "velocity": 41 },
                { "note": 72, "start": 231.5, "duration": 0.25, "velocity": 51 },
                { "note": 64, "start": 231.75, "duration": 0.25, "velocity": 41 },
                { "note": 69, "start": 231.75, "duration": 0.25, "velocity": 41 },
                { "note": 72, "start": 231.75, "duration": 0.25, "velocity": 55 },
                { "note": 67, "start": 232.25, "duration": 0.25, "velocity": 41 },
                { "note": 72, "start": 232.25, "duration": 0.25, "velocity": 41 },
                { "note": 76, "start": 232.25, "duration": 0.25, "velocity": 55 },
                { "note": 67, "start": 232.5, "duration": 0.25, "velocity": 41 },
                { "note": 72, "start": 232.5, "duration": 0.25, "velocity": 41 },
                { "note": 76, "start": 232.5, "duration": 0.25, "velocity": 51 },
                { "note": 67, "start": 233, "duration": 0.25, "velocity": 42 },
                { "note": 72, "start": 233, "duration": 0.25, "velocity": 42 },
                { "note": 76, "start": 233, "duration": 0.25, "velocity": 52 },
                { "note": 67, "start": 233.5, "duration": 0.25, "velocity": 41 },
                { "note": 72, "start": 233.5, "duration": 0.25, "velocity": 41 },
                { "note": 76, "start": 233.5, "duration": 0.25, "velocity": 51 },
                { "note": 67, "start": 233.75, "duration": 0.25, "velocity": 41 },
                { "note": 72, "start": 233.75, "duration": 0.25, "velocity": 41 },
                { "note": 76, "start": 233.75, "duration": 0.25, "velocity": 51 },
                { "note": 67, "start": 234.25, "duration": 0.25, "velocity": 41 },
                { "note": 72, "start": 234.25, "duration": 0.25, "velocity": 41 },
                { "note": 76, "start": 234.25, "duration": 0.25, "velocity": 51 },
                { "note": 67, "start": 234.75, "duration": 0.25, "velocity": 41 },
                { "note": 72, "start": 234.75, "duration": 0.25, "velocity": 41 },
                { "note": 76, "start": 234.75, "duration": 0.25, "velocity": 51 },
                { "note": 67, "start": 235, "duration": 0.25, "velocity": 42 },
                { "note": 72, "start": 235, "duration": 0.25, "velocity": 42 },
                { "note": 76, "start": 235, "duration": 0.25, "velocity": 52 },
                { "note": 67, "start": 235.5, "duration": 0.25, "velocity": 41 },
                { "note": 72, "start": 235.5, "duration": 0.25, "velocity": 41 },
                { "note": 76, "start": 235.5, "duration": 0.25, "velocity": 51 },
                { "note": 67, "start": 235.75, "duration": 0.25, "velocity": 41 },
                { "note": 72, "start": 235.75, "duration": 0.25, "velocity": 41 },
                { "note": 76, "start": 235.75, "duration": 0.25, "velocity": 51 },
                { "note": 67, "start": 236.25, "duration": 0.25, "velocity": 41 },
                { "note": 72, "start": 236.25, "duration": 0.25, "velocity": 41 },
                { "note": 76, "start": 236.25, "duration": 0.25, "velocity": 51 },
                { "note": 67, "start": 236.5, "duration": 0.25, "velocity": 41 },
                { "note": 72, "start": 236.5, "duration": 0.25, "velocity": 41 },
                { "note": 76, "start": 236.5, "duration": 0.25, "velocity": 51 },
                { "note": 67, "start": 237, "duration": 0.25, "velocity": 42 },
                { "note": 72, "start": 237, "duration": 0.25, "velocity": 42 },
                { "note": 76, "start": 237, "duration": 0.25, "velocity": 52 },
                { "note": 67, "start": 237.5, "duration": 0.25, "velocity": 41 },
                { "note": 72, "start": 237.5, "duration": 0.25, "velocity": 41 },
                { "note": 76, "start": 237.5, "duration": 0.25, "velocity": 51 },
                { "note": 67, "start": 237.75, "duration": 0.25, "velocity": 41 },
                { "note": 72, "start": 237.75, "duration": 0.25, "velocity": 41 },
                { "note": 76, "start": 237.75, "duration": 0.25, "velocity": 51 },
                { "note": 67, "start": 238.25, "duration": 0.25, "velocity": 41 },
                { "note": 72, "start": 238.25, "duration": 0.25, "velocity": 41 },
                { "note": 76, "start": 238.25, "duration": 0.25, "velocity": 51 },
                { "note": 67, "start": 238.75, "duration": 0.25, "velocity": 41 },
                { "note": 72, "start": 238.75, "duration": 0.25, "velocity": 41 },
                { "note": 76, "start": 238.75, "duration": 0.25, "velocity": 51 },
                { "note": 67, "start": 239, "duration": 0.25, "velocity": 42 },
                { "note": 72, "start": 239, "duration": 0.25, "velocity": 42 },
                { "note": 76, "start": 239, "duration": 0.25, "velocity": 52 },
                { "note": 67, "start": 239.5, "duration": 0.25, "velocity": 41 },
                { "note": 72, "start": 239.5, "duration": 0.25, "velocity": 41 },
                { "note": 76, "start": 239.5, "duration": 0.25, "velocity": 51 },
                { "note": 67, "start": 239.75, "duration": 0.25, "velocity": 41 },
                { "note": 72, "start": 239.75, "duration": 0.25, "velocity": 41 },
                { "note": 76, "start": 239.75, "duration": 0.25, "velocity": 51 },
                { "note": 71, "start": 242.5, "duration": 0.5, "velocity": 62 },
                { "note": 72, "start": 243, "duration": 0.5, "velocity": 63 },
                { "note": 79, "start": 243.5, "duration": 0.5, "velocity": 62 },
                { "note": 79, "start": 244, "duration": 0.5, "velocity": 67 },
                { "note": 71, "start": 244.5, "duration": 0.5, "velocity": 62 },
                { "note": 72, "start": 245, "duration": 0.5, "velocity": 63 },
                { "note": 79, "start": 245.5, "duration": 0.5, "velocity": 62 },
                { "note": 79, "start": 246, "duration": 2, "velocity": 65 },
                { "note": 59, "start": 248.5, "duration": 0.5, "velocity": 62 },
                { "note": 60, "start": 249, "duration": 0.5, "velocity": 63 },
                { "note": 59, "start": 249.75, "duration": 0.25, "velocity": 62 },
                { "note": 79, "start": 250.5, "duration": 0.5, "velocity": 62 },
                { "note": 81, "start": 251, "duration": 0.5, "velocity": 63 },
                { "note": 76, "start": 251.5, "duration": 0.5, "velocity": 62 },
                { "note": 76, "start": 252, "duration": 2, "velocity": 67 },
                { "note": 67, "start": 255.5, "duration": 0.25, "velocity": 62 },
                { "note": 79, "start": 255.75, "duration": 0.25, "velocity": 62 },
                { "note": 83, "start": 258.5, "duration": 0.5, "velocity": 62 },
                { "note": 84, "start": 259, "duration": 0.5, "velocity": 63 },
                { "note": 91, "start": 259.5, "duration": 0.5, "velocity": 62 },
                { "note": 91, "start": 260, "duration": 0.5, "velocity": 67 },
                { "note": 83, "start": 260.5, "duration": 0.5, "velocity": 62 },
                { "note": 84, "start": 261, "duration": 0.5, "velocity": 63 },
                { "note": 91, "start": 261.5, "duration": 0.5, "velocity": 62 },
                { "note": 91, "start": 262, "duration": 2, "velocity": 65 },
                { "note": 84, "start": 265.5, "duration": 0.5, "velocity": 62 },
                { "note": 83, "start": 266, "duration": 0.5, "velocity": 65 },
                { "note": 79, "start": 266.5, "duration": 0.5, "velocity": 62 },
                { "note": 76, "start": 267, "duration": 0.5, "velocity": 63 },
                { "note": 81, "start": 267.5, "duration": 0.5, "velocity": 62 },
                { "note": 81, "start": 268, "duration": 2, "velocity": 67 },
                { "note": 67, "start": 271.5, "duration": 0.25, "velocity": 62 },
                { "note": 79, "start": 271.75, "duration": 0.25, "velocity": 62 },
                { "note": 67, "start": 275, "duration": 0.5, "velocity": 63 },
                { "note": 76, "start": 275.5, "duration": 0.5, "velocity": 62 },
                { "note": 74, "start": 276, "duration": 3, "velocity": 62 },
                { "note": 67, "start": 279, "duration": 0.5, "velocity": 63 },
                { "note": 79, "start": 279.5, "duration": 0.5, "velocity": 62 },
                { "note": 79, "start": 280, "duration": 2, "velocity": 67 },
                { "note": 79, "start": 282, "duration": 0.75, "velocity": 65 },
                { "note": 77, "start": 282.75, "duration": 0.75, "velocity": 62 },
                { "note": 76, "start": 283.5, "duration": 0.5, "velocity": 62 },
                { "note": 74, "start": 284, "duration": 1.5, "velocity": 67 },
                { "note": 76, "start": 285.5, "duration": 0.25, "velocity": 62 },
                { "note": 74, "start": 285.75, "duration": 0.25, "velocity": 62 },
                { "note": 72, "start": 286, "duration": 0.75, "velocity": 65 },
                { "note": 71, "start": 286.75, "duration": 0.75, "velocity": 62 },
                { "note": 72, "start": 287.5, "duration": 0.5, "velocity": 62 },
                { "note": 81, "start": 288, "duration": 2, "velocity": 67 },
                { "note": 81, "start": 290.5, "duration": 0.5, "velocity": 62 },
                { "note": 81, "start": 291, "duration": 0.5, "velocity": 63 },
                { "note": 76, "start": 291.5, "duration": 0.5, "velocity": 62 },
                { "note": 74, "start": 292, "duration": 0.5, "velocity": 67 },
                { "note": 93, "start": 292.5, "duration": 0.5, "velocity": 62 },
                { "note": 93, "start": 293, "duration": 0.5, "velocity": 63 },
                { "note": 88, "start": 293.5, "duration": 0.5, "velocity": 62 },
                { "note": 86, "start": 294, "duration": 1, "velocity": 65 },
                { "note": 67, "start": 295, "duration": 0.5, "velocity": 63 },
                { "note": 79, "start": 295.5, "duration": 0.5, "velocity": 62 },
                { "note": 79, "start": 296, "duration": 2, "velocity": 67 },
                { "note": 71, "start": 298, "duration": 0.75, "velocity": 57 },
                { "note": 79, "start": 298, "duration": 0.75, "velocity": 71 },
                { "note": 72, "start": 298.75, "duration": 0.75, "velocity": 54 },
                { "note": 81, "start": 298.75, "duration": 0.75, "velocity": 68 },
                { "note": 74, "start": 299.5, "duration": 0.5, "velocity": 54 },
                { "note": 83, "start": 299.5, "duration": 0.5, "velocity": 68 },
                { "note": 74, "start": 300, "duration": 1, "velocity": 59 },
                { "note": 83, "start": 300, "duration": 1, "velocity": 73 },
                { "note": 76, "start": 301, "duration": 0.5, "velocity": 55 },
                { "note": 84, "start": 301, "duration": 0.5, "velocity": 69 },
                { "note": 74, "start": 301.5, "duration": 1, "velocity": 54 },
                { "note": 83, "start": 301.5, "duration": 1, "velocity": 68 },
                { "note": 71, "start": 302.5, "duration": 1, "velocity": 54 },
                { "note": 79, "start": 302.5, "duration": 1, "velocity": 68 },
                { "note": 72, "start": 303.5, "duration": 0.5, "velocity": 54 },
                { "note": 76, "start": 303.5, "duration": 0.5, "velocity": 68 },
                { "note": 69, "start": 304, "duration": 2, "velocity": 59 },
                { "note": 77, "start": 304, "duration": 2, "velocity": 59 },
                { "note": 81, "start": 304, "duration": 2, "velocity": 73 },
                { "note": 72, "start": 306, "duration": 0.75, "velocity": 65 },
                { "note": 74, "start": 306.75, "duration": 0.75, "velocity": 62 },
                { "note": 76, "start": 307.5, "duration": 0.5, "velocity": 62 },
                { "note": 79, "start": 308, "duration": 1.5, "velocity": 67 },
                { "note": 72, "start": 309.5, "duration": 0.5, "velocity": 62 },
                { "note": 71, "start": 310, "duration": 0.75, "velocity": 65 },
                { "note": 72, "start": 310.75, "duration": 0.75, "velocity": 62 },
                { "note": 76, "start": 311.5, "duration": 0.5, "velocity": 62 },
                { "note": 81, "start": 312, "duration": 1.5, "velocity": 67 },
                { "note": 72, "start": 313.5, "duration": 0.5, "velocity": 62 },
                { "note": 69, "start": 314, "duration": 0.75, "velocity": 65 },
                { "note": 71, "start": 314.75, "duration": 0.75, "velocity": 62 },
                { "note": 72, "start": 315.5, "duration": 0.5, "velocity": 62 },
                { "note": 76, "start": 316, "duration": 1, "velocity": 67 },
                { "note": 74, "start": 317, "duration": 0.5, "velocity": 55 },
                { "note": 77, "start": 317, "duration": 0.5, "velocity": 69 },
                { "note": 72, "start": 317.5, "duration": 1, "velocity": 54 },
                { "note": 76, "start": 317.5, "duration": 1, "velocity": 68 },
                { "note": 71, "start": 318.5, "duration": 1, "velocity": 58 },
                { "note": 74, "start": 318.5, "duration": 1, "velocity": 72 },
                { "note": 69, "start": 319.5, "duration": 0.5, "velocity": 64 },
                { "note": 72, "start": 319.5, "duration": 0.5, "velocity": 78 },
                { "note": 64, "start": 320, "duration": 4, "velocity": 67 },
                { "note": 69, "start": 320, "duration": 4, "velocity": 67 },
                { "note": 72, "start": 320, "duration": 4, "velocity": 67 },
                { "note": 76, "start": 320, "duration": 4, "velocity": 81 },
                { "note": 64, "start": 336.25, "duration": 0.25, "velocity": 67 },
                { "note": 69, "start": 336.25, "duration": 0.25, "velocity": 67 },
                { "note": 72, "start": 336.25, "duration": 0.25, "velocity": 77 },
                { "note": 64, "start": 336.5, "duration": 0.25, "velocity": 67 },
                { "note": 69, "start": 336.5, "duration": 0.25, "velocity": 67 },
                { "note": 72, "start": 336.5, "duration": 0.25, "velocity": 77 },
                { "note": 64, "start": 337, "duration": 0.25, "velocity": 68 },
                { "note": 69, "start": 337, "duration": 0.25, "velocity": 68 },
                { "note": 72, "start": 337, "duration": 0.25, "velocity": 78 },
                { "note": 64, "start": 337.5, "duration": 0.25, "velocity": 67 },
                { "note": 69, "start": 337.5, "duration": 0.25, "velocity": 67 },
                { "note": 72, "start": 337.5, "duration": 0.25, "velocity": 77 },
                { "note": 64, "start": 337.75, "duration": 0.25, "velocity": 67 },
                { "note": 69, "start": 337.75, "duration": 0.25, "velocity": 67 },
                { "note": 72, "start": 337.75, "duration": 0.25, "velocity": 77 },
                { "note": 64, "start": 338.25, "duration": 0.25, "velocity": 67 },
                { "note": 69, "start": 338.25, "duration": 0.25, "velocity": 67 },
                { "note": 72, "start": 338.25, "duration": 0.25, "velocity": 77 },
                { "note": 64, "start": 338.75, "duration": 0.25, "velocity": 67 },
                { "note": 69, "start": 338.75, "duration": 0.25, "velocity": 67 },
                { "note": 72, "start": 338.75, "duration": 0.25, "velocity": 77 },
                { "note": 64, "start": 339, "duration": 0.25, "velocity": 68 },
                { "note": 69, "start": 339, "duration": 0.25, "velocity": 68 },
                { "note": 72, "start": 339, "duration": 0.25, "velocity": 78 },
                { "note": 64, "start": 339.5, "duration": 0.25, "velocity": 67 },
                { "note": 69, "start": 339.5, "duration": 0.25, "velocity": 67 },
                { "note": 72, "start": 339.5, "duration": 0.25, "velocity": 77 },
                { "note": 64, "start": 339.75, "duration": 0.25, "velocity": 67 },
                { "note": 69, "start": 339.75, "duration": 0.25, "velocity": 67 },
                { "note": 72, "start": 339.75, "duration": 0.25, "velocity": 77 },
                { "note": 64, "start": 340.25, "duration": 0.25, "velocity": 67 },
                { "note": 69, "start": 340.25, "duration": 0.25, "velocity": 67 },
                { "note": 72, "start": 340.25, "duration": 0.25, "velocity": 77 },
                { "note": 64, "start": 340.5, "duration": 0.25, "velocity": 67 },
                { "note": 69, "start": 340.5, "duration": 0.25, "velocity": 67 },
                { "note": 72, "start": 340.5, "duration": 0.25, "velocity": 77 },
                { "note": 64, "start": 341, "duration": 0.25, "velocity": 68 },
                { "note": 69, "start": 341, "duration": 0.25, "velocity": 68 },
                { "note": 72, "start": 341, "duration": 0.25, "velocity": 78 },
                { "note": 64, "start": 341.5, "duration": 0.25, "velocity": 67 },
                { "note": 69, "start": 341.5, "duration": 0.25, "velocity": 67 },
                { "note": 72, "start": 341.5, "duration": 0.25, "velocity": 77 },
                { "note": 64, "start": 341.75, "duration": 0.25, "velocity": 67 },
                { "note": 69, "start": 341.75, "duration": 0.25, "velocity": 67 },
                { "note": 72, "start": 341.75, "duration": 0.25, "velocity": 77 },
                { "note": 64, "start": 342.25, "duration": 0.25, "velocity": 67 },
                { "note": 69, "start": 342.25, "duration": 0.25, "velocity": 67 },
                { "note": 72, "start": 342.25, "duration": 0.25, "velocity": 77 },
                { "note": 64, "start": 342.75, "duration": 0.25, "velocity": 67 },
                { "note": 69, "start": 342.75, "duration": 0.25, "velocity": 67 },
                { "note": 72, "start": 342.75, "duration": 0.25, "velocity": 77 },
                { "note": 64, "start": 343, "duration": 0.25, "velocity": 68 },
                { "note": 69, "start": 343, "duration": 0.25, "velocity": 68 },
                { "note": 72, "start": 343, "duration": 0.25, "velocity": 78 },
                { "note": 64, "start": 343.5, "duration": 0.25, "velocity": 67 },
                { "note": 69, "start": 343.5, "duration": 0.25, "velocity": 67 },
                { "note": 72, "start": 343.5, "duration": 0.25, "velocity": 77 },
                { "note": 64, "start": 343.75, "duration": 0.25, "velocity": 67 },
                { "note": 69, "start": 343.75, "duration": 0.25, "velocity": 67 },
                { "note": 72, "start": 343.75, "duration": 0.25, "velocity": 81 },
                { "note": 67, "start": 344.25, "duration": 0.25, "velocity": 67 },
                { "note": 72, "start": 344.25, "duration": 0.25, "velocity": 67 },
                { "note": 76, "start": 344.25, "duration": 0.25, "velocity": 81 },
                { "note": 67, "start": 344.5, "duration": 0.25, "velocity": 67 },
                { "note": 72, "start": 344.5, "duration": 0.25, "velocity": 67 },
                { "note": 76, "start": 344.5, "duration": 0.25, "velocity": 77 },
                { "note": 67, "start": 345, "duration": 0.25, "velocity": 68 },
                { "note": 72, "start": 345, "duration": 0.25, "velocity": 68 },
                { "note": 76, "start": 345, "duration": 0.25, "velocity": 78 },
                { "note": 67, "start": 345.5, "duration": 0.25, "velocity": 67 },
                { "note": 72, "start": 345.5, "duration": 0.25, "velocity": 67 },
                { "note": 76, "start": 345.5, "duration": 0.25, "velocity": 77 },
                { "note": 67, "start": 345.75, "duration": 0.25, "velocity": 67 },
                { "note": 72, "start": 345.75, "duration": 0.25, "velocity": 67 },
                { "note": 76, "start": 345.75, "duration": 0.25, "velocity": 77 },
                { "note": 67, "start": 346.25, "duration": 0.25, "velocity": 67 },
                { "note": 72, "start": 346.25, "duration": 0.25, "velocity": 67 },
                { "note": 76, "start": 346.25, "duration": 0.25, "velocity": 77 },
                { "note": 67, "start": 346.75, "duration": 0.25, "velocity": 67 },
                { "note": 72, "start": 346.75, "duration": 0.25, "velocity": 67 },
                { "note": 76, "start": 346.75, "duration": 0.25, "velocity": 77 },
                { "note": 67, "start": 347, "duration": 0.25, "velocity": 68 },
                { "note": 72, "start": 347, "duration": 0.25, "velocity": 68 },
                { "note": 76, "start": 347, "duration": 0.25, "velocity": 78 },
                { "note": 67, "start": 347.5, "duration": 0.25, "velocity": 67 },
                { "note": 72, "start": 347.5, "duration": 0.25, "velocity": 67 },
                { "note": 76, "start": 347.5, "duration": 0.25, "velocity": 77 },
                { "note": 67, "start": 347.75, "duration": 0.25, "velocity": 67 },
                { "note": 72, "start": 347.75, "duration": 0.25, "velocity": 67 },
                { "note": 76, "start": 347.75, "duration": 0.25, "velocity": 77 },
                { "note": 67, "start": 348.25, "duration": 0.25, "velocity": 67 },
                { "note": 72, "start": 348.25, "duration": 0.25, "velocity": 67 },
                { "note": 76, "start": 348.25, "duration": 0.25, "velocity": 77 },
                { "note": 67, "start": 348.5, "duration": 0.25, "velocity": 67 },
                { "note": 72, "start": 348.5, "duration": 0.25, "velocity": 67 },
                { "note": 76, "start": 348.5, "duration": 0.25, "velocity": 77 },
                { "note": 67, "start": 349, "duration": 0.25, "velocity": 68 },
                { "note": 72, "start": 349, "duration": 0.25, "velocity": 68 },
                { "note": 76, "start": 349, "duration": 0.25, "velocity": 78 },
                { "note": 67, "start": 349.5, "duration": 0.25, "velocity": 67 },
                { "note": 72, "start": 349.5, "duration": 0.25, "velocity": 67 },
                { "note": 76, "start": 349.5, "duration": 0.25, "velocity": 77 },
                { "note": 67, "start": 349.75, "duration": 0.25, "velocity": 67 },
                { "note": 72, "start": 349.75, "duration": 0.25, "velocity": 67 },
                { "note": 76, "start": 349.75, "duration": 0.25, "velocity": 77 },
                { "note": 67, "start": 350.25, "duration": 0.25, "velocity": 67 },
                { "note": 72, "start": 350.25, "duration": 0.25, "velocity": 67 },
                { "note": 76, "start": 350.25, "duration": 0.25, "velocity": 77 },
                { "note": 67, "start": 350.75, "duration": 0.25, "velocity": 67 },
                { "note": 72, "start": 350.75, "duration": 0.25, "velocity": 67 },
                { "note": 76, "start": 350.75, "duration": 0.25, "velocity": 77 },
                { "note": 67, "start": 351, "duration": 0.25, "velocity": 68 },
                { "note": 72, "start": 351, "duration": 0.25, "velocity": 68 },
                { "note": 76, "start": 351, "duration": 0.25, "velocity": 78 },
                { "note": 67, "start": 351.5, "duration": 0.25, "velocity": 67 },
                { "note": 72, "start": 351.5, "duration": 0.25, "velocity": 67 },
                { "note": 76, "start": 351.5, "duration": 0.25, "velocity": 77 },
                { "note": 67, "start": 351.75, "duration": 0.25, "velocity": 67 },
                { "note": 72, "start": 351.75, "duration": 0.25, "velocity": 67 },
                { "note": 76, "start": 351.75, "duration": 0.25, "velocity": 77 },
                { "note": 74, "start": 354, "duration": 0.5, "velocity": 78 },
                { "note": 76, "start": 354.5, "duration": 0.5, "velocity": 75 },
                { "note": 74, "start": 355, "duration": 0.5, "velocity": 76 },
                { "note": 72, "start": 355.5, "duration": 0.25, "velocity": 75 },
                { "note": 74, "start": 355.75, "duration": 0.75, "velocity": 75 },
                { "note": 76, "start": 356.5, "duration": 0.5, "velocity": 75 },
                { "note": 74, "start": 357, "duration": 0.5, "velocity": 76 },
                { "note": 72, "start": 357.5, "duration": 0.25, "velocity": 75 },
                { "note": 74, "start": 357.75, "duration": 0.75, "velocity": 75 },
                { "note": 76, "start": 358.5, "duration": 0.5, "velocity": 75 },
                { "note": 74, "start": 359, "duration": 0.5, "velocity": 76 },
                { "note": 72, "start": 359.5, "duration": 0.25, "velocity": 75 },
                { "note": 74, "start": 359.75, "duration": 0.75, "velocity": 75 },
                { "note": 76, "start": 360.5, "duration": 0.5, "velocity": 75 },
                { "note": 74, "start": 361, "duration": 0.5, "velocity": 76 },
                { "note": 74, "start": 362, "duration": 0.5, "velocity": 78 },
                { "note": 76, "start": 362.5, "duration": 0.5, "velocity": 75 },
                { "note": 79, "start": 363, "duration": 0.5, "velocity": 76 },
                { "note": 76, "start": 363.5, "duration": 0.5, "velocity": 75 },
                { "note": 74, "start": 364, "duration": 1.5, "velocity": 80 },
                { "note": 76, "start": 365.5, "duration": 0.25, "velocity": 75 },
                { "note": 74, "start": 365.75, "duration": 0.25, "velocity": 75 },
                { "note": 72, "start": 366, "duration": 1, "velocity": 78 },
                { "note": 71, "start": 367, "duration": 0.5, "velocity": 76 },
                { "note": 72, "start": 367.5, "duration": 0.5, "velocity": 75 },
                { "note": 81, "start": 368, "duration": 1, "velocity": 80 },
                { "note": 81, "start": 370.5, "duration": 1, "velocity": 75 },
                { "note": 76, "start": 371.5, "duration": 0.5, "velocity": 75 },
                { "note": 74, "start": 372, "duration": 1, "velocity": 80 },
                { "note": 67, "start": 374.5, "duration": 1, "velocity": 75 },
                { "note": 79, "start": 375.5, "duration": 0.5, "velocity": 75 },
                { "note": 79, "start": 376, "duration": 2, "velocity": 80 },
                { "note": 79, "start": 378, "duration": 0.75, "velocity": 78 },
                { "note": 81, "start": 378.75, "duration": 0.75, "velocity": 75 },
                { "note": 83, "start": 379.5, "duration": 0.5, "velocity": 75 },
                { "note": 83, "start": 380, "duration": 1, "velocity": 80 },
                { "note": 84, "start": 381, "duration": 0.5, "velocity": 76 },
                { "note": 83, "start": 381.5, "duration": 1, "velocity": 75 },
                { "note": 79, "start": 382.5, "duration": 0.5, "velocity": 75 },
                { "note": 76, "start": 383, "duration": 0.5, "velocity": 76 },
                { "note": 81, "start": 383.5, "duration": 2.5, "velocity": 75 },
                { "note": 60, "start": 386, "duration": 0.75, "velocity": 78 },
                { "note": 62, "start": 386.75, "duration": 0.75, "velocity": 75 },
                { "note": 64, "start": 387.5, "duration": 0.5, "velocity": 75 },
                { "note": 67, "start": 388, "duration": 1.5, "velocity": 80 },
                { "note": 72, "start": 389.5, "duration": 0.5, "velocity": 75 },
                { "note": 71, "start": 390, "duration": 0.75, "velocity": 78 },
                { "note": 72, "start": 390.75, "duration": 0.75, "velocity": 75 },
                { "note": 76, "start": 391.5, "duration": 0.5, "velocity": 75 },
                { "note": 81, "start": 392, "duration": 1.5, "velocity": 80 },
                { "note": 72, "start": 393.5, "duration": 0.5, "velocity": 75 },
                { "note": 69, "start": 394, "duration": 0.75, "velocity": 78 },
                { "note": 71, "start": 394.75, "duration": 0.75, "velocity": 75 },
                { "note": 72, "start": 395.5, "duration": 0.5, "velocity": 75 },
                { "note": 76, "start": 396, "duration": 1, "velocity": 80 },
                { "note": 77, "start": 397, "duration": 0.5, "velocity": 76 },
                { "note": 76, "start": 397.5, "duration": 1, "velocity": 75 },
                { "note": 74, "start": 398.5, "duration": 1, "velocity": 75 },
                { "note": 72, "start": 399.5, "duration": 0.5, "velocity": 75 },
                { "note": 76, "start": 400, "duration": 2, "velocity": 67 },
                { "note": 72, "start": 402, "duration": 0.75, "velocity": 65 },
                { "note": 74, "start": 402.75, "duration": 0.75, "velocity": 62 },
                { "note": 76, "start": 403.5, "duration": 0.5, "velocity": 62 },
                { "note": 79, "start": 404, "duration": 1.5, "velocity": 67 },
                { "note": 60, "start": 405.5, "duration": 0.5, "velocity": 62 },
                { "note": 59, "start": 406, "duration": 0.75, "velocity": 65 },
                { "note": 60, "start": 406.75, "duration": 0.75, "velocity": 62 },
                { "note": 64, "start": 407.5, "duration": 0.5, "velocity": 62 },
                { "note": 69, "start": 408, "duration": 1.5, "velocity": 67 },
                { "note": 72, "start": 409.5, "duration": 0.5, "velocity": 54 },
                { "note": 84, "start": 409.5, "duration": 0.5, "velocity": 68 },
                { "note": 69, "start": 410, "duration": 0.75, "velocity": 57 },
                { "note": 81, "start": 410, "duration": 0.75, "velocity": 71 },
                { "note": 71, "start": 410.75, "duration": 0.75, "velocity": 54 },
                { "note": 83, "start": 410.75, "duration": 0.75, "velocity": 68 },
                { "note": 72, "start": 411.5, "duration": 0.5, "velocity": 54 },
                { "note": 84, "start": 411.5, "duration": 0.5, "velocity": 68 },
                { "note": 76, "start": 412, "duration": 1, "velocity": 59 },
                { "note": 88, "start": 412, "duration": 1, "velocity": 73 },
                { "note": 77, "start": 413, "duration": 0.5, "velocity": 55 },
                { "note": 89, "start": 413, "duration": 0.5, "velocity": 69 },
                { "note": 76, "start": 413.5, "duration": 1, "velocity": 52 },
                { "note": 88, "start": 413.5, "duration": 1, "velocity": 66 },
                { "note": 77, "start": 414.5, "duration": 0.5, "velocity": 42 },
                { "note": 89, "start": 414.5, "duration": 0.5, "velocity": 56 },
                { "note": 74, "start": 415, "duration": 1, "velocity": 38 },
                { "note": 86, "start": 415, "duration": 1, "velocity": 52 },
                { "note": 69, "start": 416, "duration": 4, "velocity": 62 }
            ]
        },
        {
            "id": "left-simplified",
            "name": "Acompanhamento (simplificado)",
            "hand": "left",
            "difficulty": "beginner",
            "notes": [
                { "note": 64, "start": 0, "duration": 7, "velocity": 56 },
                { "note": 67, "start": 0, "duration": 7, "velocity": 56 },
                { "note": 71, "start": 7, "duration": 1, "velocity": 65 },
                { "note": 72, "start": 8, "duration": 0.5, "velocity": 69 },
                { "note": 74, "start": 8.5, "duration": 0.5, "velocity": 64 },
                { "note": 67, "start": 9, "duration": 6, "velocity": 56 },
                { "note": 71, "start": 9, "duration": 6, "velocity": 56 },
                { "note": 57, "start": 15, "duration": 0.5, "velocity": 65 },
                { "note": 59, "start": 15.5, "duration": 0.5, "velocity": 64 },
                { "note": 52, "start": 16, "duration": 7, "velocity": 56 },
                { "note": 55, "start": 16, "duration": 7, "velocity": 56 },
                { "note": 45, "start": 17, "duration": 5, "velocity": 64 },
                { "note": 45, "start": 22, "duration": 2, "velocity": 64 },
                { "note": 60, "start": 23, "duration": 0.5, "velocity": 65 },
                { "note": 62, "start": 23.5, "duration": 0.5, "velocity": 64 },
                { "note": 55, "start": 24, "duration": 8, "velocity": 56 },
                { "note": 59, "start": 24, "duration": 8, "velocity": 56 },
                { "note": 36, "start": 25, "duration": 5, "velocity": 64 },
                { "note": 48, "start": 30, "duration": 1, "velocity": 64 },
                { "note": 38, "start": 31, "duration": 0.5, "velocity": 64 },
                { "note": 40, "start": 31.5, "duration": 0.5, "velocity": 64 },
                { "note": 41, "start": 32, "duration": 0.5, "velocity": 69 },
                { "note": 48, "start": 32.5, "duration": 0.5, "velocity": 64 },
                { "note": 53, "start": 33, "duration": 0.5, "velocity": 65 },
                { "note": 55, "start": 33.5, "duration": 0.5, "velocity": 64 },
                { "note": 53, "start": 34, "duration": 1, "velocity": 59 },
                { "note": 57, "start": 34, "duration": 1, "velocity": 73 },
                { "note": 55, "start": 35, "duration": 1, "velocity": 57 },
                { "note": 59, "start": 35, "duration": 1, "velocity": 71 },
                { "note": 47, "start": 36, "duration": 0.5, "velocity": 69 },
                { "note": 55, "start": 36.5, "duration": 0.5, "velocity": 64 },
                { "note": 59, "start": 37, "duration": 0.5, "velocity": 65 },
                { "note": 60, "start": 37.5, "duration": 0.5, "velocity": 64 },
                { "note": 59, "start": 38, "duration": 1, "velocity": 59 },
                { "note": 62, "start": 38, "duration": 1, "velocity": 73 },
                { "note": 57, "start": 39, "duration": 0.5, "velocity": 57 },
                { "note": 60, "start": 39, "duration": 0.5, "velocity": 71 },
                { "note": 59, "start": 39.5, "duration": 0.5, "velocity": 64 },
                { "note": 40, "start": 40, "duration": 0.5, "velocity": 68 },
                { "note": 47, "start": 40.5, "duration": 0.5, "velocity": 64 },
                { "note": 52, "start": 41, "duration": 0.5, "velocity": 65 },
                { "note": 54, "start": 41.5, "duration": 0.5, "velocity": 64 },
                { "note": 52, "start": 42, "duration": 0.5, "velocity": 59 },
                { "note": 55, "start": 42, "duration": 0.5, "velocity": 73 },
                { "note": 60, "start": 42.5, "duration": 0.5, "velocity": 64 },
                { "note": 55, "start": 43, "duration": 0.5, "velocity": 57 },
                { "note": 59, "start": 43, "duration": 0.5, "velocity": 71 },
                { "note": 60, "start": 43.5, "duration": 0.5, "velocity": 64 },
                { "note": 45, "start": 44, "duration": 0.5, "velocity": 69 },
                { "note": 52, "start": 44.5, "duration": 0.5, "velocity": 64 },
                { "note": 57, "start": 45, "duration": 0.5, "velocity": 57 },
                { "note": 60, "start": 45, "duration": 0.5, "velocity": 71 },
                { "note": 59, "start": 45.5, "duration": 0.5, "velocity": 64 },
                { "note": 43, "start": 46, "duration": 0.5, "velocity": 67 },
                { "note": 50, "start": 46.5, "duration": 0.5, "velocity": 56 },
                { "note": 60, "start": 46.5, "duration": 0.5, "velocity": 70 },
                { "note": 55, "start": 47, "duration": 0.5, "velocity": 57 },
                { "note": 59, "start": 47, "duration": 0.5, "velocity": 71 },
                { "note": 53, "start": 47.5, "duration": 0.5, "velocity": 56 },
                { "note": 57, "start": 47.5, "duration": 0.5, "velocity": 70 },
                { "note": 41, "start": 48, "duration": 0.5, "velocity": 69 },
                { "note": 48, "start": 48.5, "duration": 0.5, "velocity": 64 },
                { "note": 53, "start": 49, "duration": 0.5, "velocity": 65 },
                { "note": 55, "start": 49.5, "duration": 0.5, "velocity": 64 },
                { "note": 53, "start": 50, "duration": 2, "velocity": 59 },
                { "note": 57, "start": 50, "duration": 2, "velocity": 73 },
                { "note": 48, "start": 50.5, "duration": 0.5, "velocity": 64 },
                { "note": 50, "start": 51, "duration": 0.5, "velocity": 64 },
                { "note": 48, "start": 51.5, "duration": 0.5, "velocity": 64 },
                { "note": 47, "start": 52, "duration": 0.5, "velocity": 69 },
                { "note": 55, "start": 52.5, "duration": 0.5, "velocity": 64 },
                { "note": 59, "start": 53, "duration": 0.5, "velocity": 65 },
                { "note": 60, "start": 53.5, "duration": 0.5, "velocity": 64 },
                { "note": 59, "start": 54, "duration": 1, "velocity": 59 },
                { "note": 62, "start": 54, "duration": 1, "velocity": 73 },
                { "note": 60, "start": 55, "duration": 0.5, "velocity": 57 },
                { "note": 64, "start": 55, "duration": 0.5, "velocity": 71 },
                { "note": 62, "start": 55.5, "duration": 0.5, "velocity": 64 },
                { "note": 40, "start": 56, "duration": 0.5, "velocity": 68 },
                { "note": 47, "start": 56.5, "duration": 0.5, "velocity": 64 },
                { "note": 52, "start": 57, "duration": 0.5, "velocity": 65 },
                { "note": 54, "start": 57.5, "duration": 0.5, "velocity": 64 },
                { "note": 52, "start": 58, "duration": 1, "velocity": 59 },
                { "note": 55, "start": 58, "duration": 1, "velocity": 73 },
                { "note": 48, "start": 59, "duration": 0.5, "velocity": 65 },
                { "note": 47, "start": 59.5, "duration": 0.5, "velocity": 64 },
                { "note": 45, "start": 60, "duration": 0.5, "velocity": 69 },
                { "note": 52, "start": 60.5, "duration": 0.5, "velocity": 64 },
                { "note": 57, "start": 61, "duration": 1, "velocity": 57 },
                { "note": 60, "start": 61, "duration": 1, "velocity": 71 },
                { "note": 43, "start": 62, "duration": 0.5, "velocity": 67 },
                { "note": 50, "start": 62.5, "duration": 0.5, "velocity": 56 },
                { "note": 60, "start": 62.5, "duration": 0.5, "velocity": 70 },
                { "note": 55, "start": 63, "duration": 0.5, "velocity": 57 },
                { "note": 59, "start": 63, "duration": 0.5, "velocity": 71 },
                { "note": 53, "start": 63.5, "duration": 0.5, "velocity": 56 },
                { "note": 57, "start": 63.5, "duration": 0.5, "velocity": 70 },
                { "note": 41, "start": 64, "duration": 0.5, "velocity": 69 },
                { "note": 48, "start": 64.5, "duration": 0.5, "velocity": 64 },
                { "note": 53, "start": 65, "duration": 0.5, "velocity": 65 },
                { "note": 55, "start": 65.5, "duration": 0.5, "velocity": 64 },
                { "note": 53, "start": 66, "duration": 0.5, "velocity": 59 },
                { "note": 57, "start": 66, "duration": 0.5, "velocity": 73 },
                { "note": 59, "start": 66.5, "duration": 0.5, "velocity": 64 },
                { "note": 57, "start": 67, "duration": 1, "velocity": 57 },
                { "note": 60, "start": 67, "duration": 1, "velocity": 71 },
                { "note": 47, "start": 68, "duration": 0.5, "velocity": 69 },
                { "note": 55, "start": 68.5, "duration": 0.5, "velocity": 64 },
                { "note": 59, "start": 69, "duration": 0.5, "velocity": 65 },
                { "note": 60, "start": 69.5, "duration": 0.5, "velocity": 64 },
                { "note": 59, "start": 70, "duration": 1, "velocity": 59 },
                { "note": 62, "start": 70, "duration": 1, "velocity": 73 },
                { "note": 57, "start": 71, "duration": 0.5, "velocity": 57 },
                { "note": 60, "start": 71, "duration": 0.5, "velocity": 71 },
                { "note": 59, "start": 71.5, "duration": 0.5, "velocity": 64 },
                { "note": 40, "start": 72, "duration": 0.5, "velocity": 68 },
                { "note": 47, "start": 72.5, "duration": 0.5, "velocity": 64 },
                { "note": 52, "start": 73, "duration": 0.5, "velocity": 65 },
                { "note": 54, "start": 73.5, "duration": 0.5, "velocity": 64 },
                { "note": 52, "start": 74, "duration": 1, "velocity": 59 },
                { "note": 55, "start": 74, "duration": 1, "velocity": 73 },
                { "note": 55, "start": 75, "duration": 0.5, "velocity": 57 },
                { "note": 59, "start": 75, "duration": 0.5, "velocity": 71 },
                { "note": 60, "start": 75.5, "duration": 0.5, "velocity": 64 },
                { "note": 45, "start": 76, "duration": 0.5, "velocity": 69 },
                { "note": 52, "start": 76.5, "duration": 0.5, "velocity": 64 },
                { "note": 57, "start": 77, "duration": 0.5, "velocity": 57 },
                { "note": 60, "start": 77, "duration": 0.5, "velocity": 71 },
                { "note": 59, "start": 77.5, "duration": 0.5, "velocity": 64 },
                { "note": 43, "start": 78, "duration": 0.5, "velocity": 67 },
                { "note": 50, "start": 78.5, "duration": 0.5, "velocity": 64 },
                { "note": 55, "start": 79, "duration": 0.5, "velocity": 57 },
                { "note": 59, "start": 79, "duration": 0.5, "velocity": 71 },
                { "note": 57, "start": 79.5, "duration": 0.5, "velocity": 64 },
                { "note": 41, "start": 80, "duration": 0.5, "velocity": 69 },
                { "note": 48, "start": 80.5, "duration": 0.5, "velocity": 64 },
                { "note": 53, "start": 81, "duration": 0.5, "velocity": 65 },
                { "note": 55, "start": 81.5, "duration": 0.5, "velocity": 64 },
                { "note": 53, "start": 82, "duration": 0.5, "velocity": 59 },
                { "note": 57, "start": 82, "duration": 0.5, "velocity": 73 },
                { "note": 59, "start": 82.5, "duration": 0.5, "velocity": 64 },
                { "note": 57, "start": 83, "duration": 1, "velocity": 57 },
                { "note": 60, "start": 83, "duration": 1, "velocity": 71 },
                { "note": 47, "start": 84, "duration": 0.5, "velocity": 69 },
                { "note": 55, "start": 84.5, "duration": 0.5, "velocity": 64 },
                { "note": 59, "start": 85, "duration": 0.5, "velocity": 65 },
                { "note": 60, "start": 85.5, "duration": 0.5, "velocity": 64 },
                { "note": 59, "start": 86, "duration": 1, "velocity": 59 },
                { "note": 62, "start": 86, "duration": 1, "velocity": 73 },
                { "note": 57, "start": 87, "duration": 0.5, "velocity": 57 },
                { "note": 60, "start": 87, "duration": 0.5, "velocity": 71 },
                { "note": 59, "start": 87.5, "duration": 0.5, "velocity": 64 },
                { "note": 40, "start": 88, "duration": 0.5, "velocity": 68 },
                { "note": 47, "start": 88.5, "duration": 0.5, "velocity": 64 },
                { "note": 52, "start": 89, "duration": 0.5, "velocity": 65 },
                { "note": 54, "start": 89.5, "duration": 0.5, "velocity": 64 },
                { "note": 52, "start": 90, "duration": 0.5, "velocity": 59 },
                { "note": 55, "start": 90, "duration": 0.5, "velocity": 73 },
                { "note": 57, "start": 90.5, "duration": 0.5, "velocity": 64 },
                { "note": 55, "start": 91, "duration": 1, "velocity": 57 },
                { "note": 59, "start": 91, "duration": 1, "velocity": 71 },
                { "note": 45, "start": 92, "duration": 0.5, "velocity": 69 },
                { "note": 52, "start": 92.5, "duration": 0.5, "velocity": 64 },
                { "note": 57, "start": 93, "duration": 0.5, "velocity": 57 },
                { "note": 60, "start": 93, "duration": 0.5, "velocity": 71 },
                { "note": 59, "start": 93.5, "duration": 0.5, "velocity": 64 },
                { "note": 43, "start": 94, "duration": 0.5, "velocity": 67 },
                { "note": 50, "start": 94.5, "duration": 0.5, "velocity": 64 },
                { "note": 55, "start": 95, "duration": 0.5, "velocity": 57 },
                { "note": 59, "start": 95, "duration": 0.5, "velocity": 71 },
                { "note": 57, "start": 95.5, "duration": 0.5, "velocity": 64 },
                { "note": 38, "start": 96, "duration": 0.5, "velocity": 68 },
                { "note": 45, "start": 96.5, "duration": 0.5, "velocity": 64 },
                { "note": 50, "start": 97, "duration": 0.5, "velocity": 65 },
                { "note": 52, "start": 97.5, "duration": 0.5, "velocity": 64 },
                { "note": 50, "start": 98, "duration": 1, "velocity": 59 },
                { "note": 53, "start": 98, "duration": 1, "velocity": 73 },
                { "note": 53, "start": 99, "duration": 0.5, "velocity": 57 },
                { "note": 57, "start": 99, "duration": 0.5, "velocity": 71 },
                { "note": 55, "start": 99.5, "duration": 0.5, "velocity": 64 },
                { "note": 40, "start": 100, "duration": 0.5, "velocity": 68 },
                { "note": 47, "start": 100.5, "duration": 0.5, "velocity": 64 },
                { "note": 52, "start": 101, "duration": 0.5, "velocity": 65 },
                { "note": 54, "start": 101.5, "duration": 0.5, "velocity": 64 },
                { "note": 52, "start": 102, "duration": 1, "velocity": 59 },
                { "note": 55, "start": 102, "duration": 1, "velocity": 73 },
                { "note": 55, "start": 103, "duration": 0.5, "velocity": 57 },
                { "note": 59, "start": 103, "duration": 0.5, "velocity": 71 },
                { "note": 57, "start": 103.5, "duration": 0.5, "velocity": 64 },
                { "note": 41, "start": 104, "duration": 0.5, "velocity": 69 },
                { "note": 48, "start": 104.5, "duration": 0.5, "velocity": 64 },
                { "note": 53, "start": 105, "duration": 0.5, "velocity": 65 },
                { "note": 55, "start": 105.5, "duration": 0.5, "velocity": 64 },
                { "note": 53, "start": 106, "duration": 1, "velocity": 59 },
                { "note": 57, "start": 106, "duration": 1, "velocity": 73 },
                { "note": 55, "start": 107, "duration": 1, "velocity": 57 },
                { "note": 59, "start": 107, "duration": 1, "velocity": 71 },
                { "note": 43, "start": 108, "duration": 0.5, "velocity": 69 },
                { "note": 50, "start": 108.5, "duration": 0.5, "velocity": 64 },
                { "note": 55, "start": 109, "duration": 0.5, "velocity": 65 },
                { "note": 57, "start": 109.5, "duration": 0.5, "velocity": 64 },
                { "note": 48, "start": 110, "duration": 0.5, "velocity": 58 },
                { "note": 55, "start": 110, "duration": 0.5, "velocity": 58 },
                { "note": 52, "start": 110.5, "duration": 0.5, "velocity": 63 },
                { "note": 57, "start": 110.5, "duration": 0.5, "velocity": 63 },
                { "note": 55, "start": 111, "duration": 0.5, "velocity": 67 },
                { "note": 59, "start": 111, "duration": 0.5, "velocity": 67 },
                { "note": 55, "start": 111.5, "duration": 0.5, "velocity": 72 },
                { "note": 60, "start": 111.5, "duration": 0.5, "velocity": 72 },
                { "note": 45, "start": 112, "duration": 1, "velocity": 81 },
                { "note": 57, "start": 112, "duration": 1, "velocity": 95 },
                { "note": 52, "start": 113, "duration": 0.5, "velocity": 77 },
                { "note": 57, "start": 113, "duration": 0.5, "velocity": 77 },
                { "note": 45, "start": 113.5, "duration": 0.5, "velocity": 84 },
                { "note": 45, "start": 114.5, "duration": 0.5, "velocity": 84 },
                { "note": 52, "start": 115, "duration": 0.5, "velocity": 77 },
                { "note": 57, "start": 115, "duration": 0.5, "velocity": 77 },
                { "note": 45, "start": 115.5, "duration": 0.5, "velocity": 84 },
                { "note": 45, "start": 116, "duration": 1, "velocity": 89 },
                { "note": 52, "start": 117, "duration": 0.5, "velocity": 77 },
                { "note": 57, "start": 117, "duration": 0.5, "velocity": 77 },
                { "note": 45, "start": 117.5, "duration": 0.5, "velocity": 84 },
                { "note": 45, "start": 118.5, "duration": 0.5, "velocity": 84 },
                { "note": 52, "start": 119, "duration": 0.5, "velocity": 77 },
                { "note": 57, "start": 119, "duration": 0.5, "velocity": 77 },
                { "note": 45, "start": 119.5, "duration": 0.5, "velocity": 84 },
                { "note": 36, "start": 120, "duration": 1, "velocity": 87 },
                { "note": 52, "start": 121, "duration": 0.5, "velocity": 77 },
                { "note": 55, "start": 121, "duration": 0.5, "velocity": 77 },
                { "note": 36, "start": 121.5, "duration": 0.5, "velocity": 82 },
                { "note": 36, "start": 122.5, "duration": 0.5, "velocity": 82 },
                { "note": 52, "start": 123, "duration": 0.5, "velocity": 77 },
                { "note": 55, "start": 123, "duration": 0.5, "velocity": 77 },
                { "note": 36, "start": 123.5, "duration": 0.5, "velocity": 82 },
                { "note": 36, "start": 124, "duration": 1, "velocity": 87 },
                { "note": 52, "start": 125, "duration": 0.5, "velocity": 77 },
                { "note": 55, "start": 125, "duration": 0.5, "velocity": 77 },
                { "note": 36, "start": 125.5, "duration": 0.5, "velocity": 82 },
                { "note": 36, "start": 126.5, "duration": 0.5, "velocity": 82 },
                { "note": 52, "start": 127, "duration": 0.5, "velocity": 77 },
                { "note": 55, "start": 127, "duration": 0.5, "velocity": 77 },
                { "note": 36, "start": 127.5, "duration": 0.5, "velocity": 82 },
                { "note": 45, "start": 128, "duration": 1, "velocity": 89 },
                { "note": 52, "start": 129, "duration": 0.5, "velocity": 77 },
                { "note": 57, "start": 129, "duration": 0.5, "velocity": 77 },
                { "note": 45, "start": 129.5, "duration": 0.5, "velocity": 84 },
                { "note": 45, "start": 130.5, "duration": 0.5, "velocity": 84 },
                { "note": 52, "start": 131, "duration": 0.5, "velocity": 77 },
                { "note": 57, "start": 131, "duration": 0.5, "velocity": 77 },
                { "note": 45, "start": 131.5, "duration": 0.5, "velocity": 84 },
                { "note": 45, "start": 132, "duration": 1, "velocity": 89 },
                { "note": 52, "start": 133, "duration": 0.5, "velocity": 77 },
                { "note": 57, "start": 133, "duration": 0.5, "velocity": 77 },
                { "note": 45, "start": 133.5, "duration": 0.5, "velocity": 84 },
                { "note": 45, "start": 134.5, "duration": 0.5, "velocity": 84 },
                { "note": 52, "start": 135, "duration": 0.5, "velocity": 77 },
                { "note": 57, "start": 135, "duration": 0.5, "velocity": 77 },
                { "note": 45, "start": 135.5, "duration": 0.5, "velocity": 84 },
                { "note": 36, "start": 136, "duration": 1, "velocity": 87 },
                { "note": 52, "start": 137, "duration": 0.5, "velocity": 77 },
                { "note": 55, "start": 137, "duration": 0.5, "velocity": 77 },
                { "note": 36, "start": 137.5, "duration": 0.5, "velocity": 82 },
                { "note": 36, "start": 138.5, "duration": 0.5, "velocity": 82 },
                { "note": 52, "start": 139, "duration": 0.5, "velocity": 77 },
                { "note": 55, "start": 139, "duration": 0.5, "velocity": 77 },
                { "note": 36, "start": 139.5, "duration": 0.5, "velocity": 82 },
                { "note": 36, "start": 140, "duration": 1, "velocity": 87 },
                { "note": 52, "start": 141, "duration": 0.5, "velocity": 77 },
                { "note": 55, "start": 141, "duration": 0.5, "velocity": 77 },
                { "note": 36, "start": 141.5, "duration": 0.5, "velocity": 82 },
                { "note": 36, "start": 142.5, "duration": 0.5, "velocity": 82 },
                { "note": 52, "start": 143, "duration": 0.5, "velocity": 77 },
                { "note": 55, "start": 143, "duration": 0.5, "velocity": 77 },
                { "note": 36, "start": 143.5, "duration": 0.5, "velocity": 82 },
                { "note": 41, "start": 144, "duration": 1, "velocity": 89 },
                { "note": 53, "start": 145, "duration": 0.5, "velocity": 77 },
                { "note": 57, "start": 145, "duration": 0.5, "velocity": 77 },
                { "note": 41, "start": 145.5, "duration": 0.5, "velocity": 84 },
                { "note": 41, "start": 146.5, "duration": 0.5, "velocity": 84 },
                { "note": 53, "start": 147, "duration": 0.5, "velocity": 77 },
                { "note": 57, "start": 147, "duration": 0.5, "velocity": 77 },
                { "note": 41, "start": 147.5, "duration": 0.5, "velocity": 84 },
                { "note": 47, "start": 148, "duration": 1, "velocity": 89 },
                { "note": 55, "start": 149, "duration": 0.5, "velocity": 77 },
                { "note": 59, "start": 149, "duration": 0.5, "velocity": 77 },
                { "note": 47, "start": 149.5, "duration": 0.5, "velocity": 84 },
                { "note": 47, "start": 150.5, "duration": 0.5, "velocity": 84 },
                { "note": 55, "start": 151, "duration": 0.5, "velocity": 77 },
                { "note": 59, "start": 151, "duration": 0.5, "velocity": 77 },
                { "note": 47, "start": 151.5, "duration": 0.5, "velocity": 84 },
                { "note": 40, "start": 152, "duration": 1, "velocity": 88 },
                { "note": 52, "start": 153, "duration": 0.5, "velocity": 77 },
                { "note": 55, "start": 153, "duration": 0.5, "velocity": 77 },
                { "note": 40, "start": 153.5, "duration": 0.5, "velocity": 83 },
                { "note": 40, "start": 154.5, "duration": 0.5, "velocity": 83 },
                { "note": 52, "start": 155, "duration": 0.5, "velocity": 77 },
                { "note": 55, "start": 155, "duration": 0.5, "velocity": 77 },
                { "note": 40, "start": 155.5, "duration": 0.5, "velocity": 83 },
                { "note": 45, "start": 156, "duration": 1, "velocity": 89 },
                { "note": 52, "start": 157, "duration": 0.5, "velocity": 77 },
                { "note": 57, "start": 157, "duration": 0.5, "velocity": 77 },
                { "note": 45, "start": 157.5, "duration": 0.5, "velocity": 84 },
                { "note": 43, "start": 158, "duration": 1, "velocity": 87 },
                { "note": 50, "start": 159, "duration": 0.5, "velocity": 77 },
                { "note": 55, "start": 159, "duration": 0.5, "velocity": 77 },
                { "note": 43, "start": 159.5, "duration": 0.5, "velocity": 84 },
                { "note": 41, "start": 160, "duration": 1, "velocity": 89 },
                { "note": 53, "start": 161, "duration": 0.5, "velocity": 77 },
                { "note": 57, "start": 161, "duration": 0.5, "velocity": 77 },
                { "note": 41, "start": 161.5, "duration": 0.5, "velocity": 84 },
                { "note": 41, "start": 162.5, "duration": 0.5, "velocity": 84 },
                { "note": 53, "start": 163, "duration": 0.5, "velocity": 77 },
                { "note": 57, "start": 163, "duration": 0.5, "velocity": 77 },
                { "note": 41, "start": 163.5, "duration": 0.5, "velocity": 84 },
                { "note": 47, "start": 164, "duration": 1, "velocity": 89 },
                { "note": 55, "start": 165, "duration": 0.5, "velocity": 77 },
                { "note": 59, "start": 165, "duration": 0.5, "velocity": 77 },
                { "note": 47, "start": 165.5, "duration": 0.5, "velocity": 84 },
                { "note": 47, "start": 166.5, "duration": 0.5, "velocity": 84 },
                { "note": 55, "start": 167, "duration": 0.5, "velocity": 77 },
                { "note": 59, "start": 167, "duration": 0.5, "velocity": 77 },
                { "note": 47, "start": 167.5, "duration": 0.5, "velocity": 84 },
                { "note": 40, "start": 168, "duration": 1, "velocity": 88 },
                { "note": 52, "start": 169, "duration": 0.5, "velocity": 77 },
                { "note": 55, "start": 169, "duration": 0.5, "velocity": 77 },
                { "note": 40, "start": 169.5, "duration": 0.5, "velocity": 83 },
                { "note": 40, "start": 170.5, "duration": 0.5, "velocity": 83 },
                { "note": 52, "start": 171, "duration": 0.5, "velocity": 77 },
                { "note": 55, "start": 171, "duration": 0.5, "velocity": 77 },
                { "note": 40, "start": 171.5, "duration": 0.5, "velocity": 83 },
                { "note": 45, "start": 172, "duration": 1, "velocity": 89 },
                { "note": 52, "start": 173, "duration": 0.5, "velocity": 77 },
                { "note": 57, "start": 173, "duration": 0.5, "velocity": 77 },
                { "note": 45, "start": 173.5, "duration": 0.5, "velocity": 84 },
                { "note": 43, "start": 174, "duration": 1, "velocity": 87 },
                { "note": 50, "start": 175, "duration": 0.5, "velocity": 77 },
                { "note": 55, "start": 175, "duration": 0.5, "velocity": 77 },
                { "note": 43, "start": 175.5, "duration": 0.5, "velocity": 84 },
                { "note": 38, "start": 176, "duration": 1, "velocity": 88 },
                { "note": 50, "start": 177, "duration": 0.5, "velocity": 77 },
                { "note": 53, "start": 177, "duration": 0.5, "velocity": 77 },
                { "note": 38, "start": 177.5, "duration": 0.5, "velocity": 83 },
                { "note": 38, "start": 178.5, "duration": 0.5, "velocity": 83 },
                { "note": 50, "start": 179, "duration": 0.5, "velocity": 77 },
                { "note": 53, "start": 179, "duration": 0.5, "velocity": 77 },
                { "note": 38, "start": 179.5, "duration": 0.5, "velocity": 83 },
                { "note": 40, "start": 180, "duration": 1, "velocity": 88 },
                { "note": 52, "start": 181, "duration": 0.5, "velocity": 77 },
                { "note": 55, "start": 181, "duration": 0.5, "velocity": 77 },
                { "note": 40, "start": 181.5, "duration": 0.5, "velocity": 83 },
                { "note": 40, "start": 182.5, "duration": 0.5, "velocity": 83 },
                { "note": 52, "start": 183, "duration": 0.5, "velocity": 77 },
                { "note": 55, "start": 183, "duration": 0.5, "velocity": 77 },
                { "note": 40, "start": 183.5, "duration": 0.5, "velocity": 83 },
                { "note": 41, "start": 184, "duration": 1, "velocity": 89 },
                { "note": 53, "start": 185, "duration": 0.5, "velocity": 77 },
                { "note": 57, "start": 185, "duration": 0.5, "velocity": 77 },
                { "note": 41, "start": 185.5, "duration": 0.5, "velocity": 84 },
                { "note": 41, "start": 186.5, "duration": 0.5, "velocity": 84 },
                { "note": 53, "start": 187, "duration": 0.5, "velocity": 77 },
                { "note": 57, "start": 187, "duration": 0.5, "velocity": 77 },
                { "note": 41, "start": 187.5, "duration": 0.5, "velocity": 84 },
                { "note": 43, "start": 188, "duration": 1, "velocity": 89 },
                { "note": 55, "start": 189, "duration": 0.5, "velocity": 77 },
                { "note": 59, "start": 189, "duration": 0.5, "velocity": 77 },
                { "note": 43, "start": 189.5, "duration": 0.5, "velocity": 84 },
                { "note": 43, "start": 190.5, "duration": 0.5, "velocity": 84 },
                { "note": 55, "start": 191, "duration": 0.5, "velocity": 77 },
                { "note": 59, "start": 191, "duration": 0.5, "velocity": 77 },
                { "note": 43, "start": 191.5, "duration": 0.5, "velocity": 84 },
                { "note": 50, "start": 192, "duration": 4, "velocity": 76 },
                { "note": 53, "start": 192, "duration": 4, "velocity": 76 },
                { "note": 38, "start": 193, "duration": 3, "velocity": 64 },
                { "note": 52, "start": 196, "duration": 4, "velocity": 76 },
                { "note": 55, "start": 196, "duration": 4, "velocity": 76 },
                { "note": 40, "start": 197, "duration": 3, "velocity": 64 },
                { "note": 53, "start": 200, "duration": 4, "velocity": 76 },
                { "note": 57, "start": 200, "duration": 4, "velocity": 76 },
                { "note": 41, "start": 201, "duration": 3, "velocity": 64 },
                { "note": 53, "start": 204, "duration": 2, "velocity": 81 },
                { "note": 57, "start": 204, "duration": 2, "velocity": 81 },
                { "note": 41, "start": 205, "duration": 1, "velocity": 64 },
                { "note": 55, "start": 206, "duration": 2, "velocity": 59 },
                { "note": 59, "start": 206, "duration": 2, "velocity": 59 },
                { "note": 43, "start": 207, "duration": 1, "velocity": 64 },
                { "note": 64, "start": 208, "duration": 7, "velocity": 56 },
                { "note": 67, "start": 208, "duration": 7, "velocity": 56 },
                { "note": 71, "start": 215, "duration": 1, "velocity": 65 },
                { "note": 72, "start": 216, "duration": 0.5, "velocity": 69 },
                { "note": 74, "start": 216.5, "duration": 0.5, "velocity": 64 },
                { "note": 67, "start": 217, "duration": 6, "velocity": 56 },
                { "note": 71, "start": 217, "duration": 6, "velocity": 56 },
                { "note": 57, "start": 223, "duration": 0.5, "velocity": 65 },
                { "note": 59, "start": 223.5, "duration": 0.5, "velocity": 64 },
                { "note": 52, "start": 224, "duration": 7, "velocity": 56 },
                { "note": 55, "start": 224, "duration": 7, "velocity": 56 },
                { "note": 45, "start": 225, "duration": 5, "velocity": 64 },
                { "note": 45, "start": 230, "duration": 2, "velocity": 64 },
                { "note": 60, "start": 231, "duration": 0.5, "velocity": 65 },
                { "note": 62, "start": 231.5, "duration": 0.5, "velocity": 64 },
                { "note": 55, "start": 232, "duration": 8, "velocity": 56 },
                { "note": 59, "start": 232, "duration": 8, "velocity": 56 },
                { "note": 36, "start": 233, "duration": 5, "velocity": 64 },
                { "note": 48, "start": 238, "duration": 1, "velocity": 64 },
                { "note": 38, "start": 239, "duration": 0.5, "velocity": 64 },
                { "note": 40, "start": 239.5, "duration": 0.5, "velocity": 64 },
                { "note": 41, "start": 240, "duration": 0.5, "velocity": 69 },
                { "note": 48, "start": 240.5, "duration": 0.5, "velocity": 64 },
                { "note": 53, "start": 241, "duration": 0.5, "velocity": 65 },
                { "note": 55, "start": 241.5, "duration": 0.5, "velocity": 64 },
                { "note": 53, "start": 242, "duration": 1, "velocity": 59 },
                { "note": 57, "start": 242, "duration": 1, "velocity": 73 },
                { "note": 55, "start": 243, "duration": 1, "velocity": 57 },
                { "note": 59, "start": 243, "duration": 1, "velocity": 71 },
                { "note": 47, "start": 244, "duration": 0.5, "velocity": 69 },
                { "note": 55, "start": 244.5, "duration": 0.5, "velocity": 64 },
                { "note": 59, "start": 245, "duration": 0.5, "velocity": 65 },
                { "note": 60, "start": 245.5, "duration": 0.5, "velocity": 64 },
                { "note": 59, "start": 246, "duration": 1, "velocity": 59 },
                { "note": 62, "start": 246, "duration": 1, "velocity": 73 },
                { "note": 57, "start": 247, "duration": 0.5, "velocity": 57 },
                { "note": 60, "start": 247, "duration": 0.5, "velocity": 71 },
                { "note": 59, "start": 247.5, "duration": 0.5, "velocity": 64 },
                { "note": 40, "start": 248, "duration": 0.5, "velocity": 68 },
                { "note": 47, "start": 248.5, "duration": 0.5, "velocity": 64 },
                { "note": 52, "start": 249, "duration": 0.5, "velocity": 65 },
                { "note": 54, "start": 249.5, "duration": 0.5, "velocity": 64 },
                { "note": 52, "start": 250, "duration": 0.5, "velocity": 59 },
                { "note": 55, "start": 250, "duration": 0.5, "velocity": 73 },
                { "note": 60, "start": 250.5, "duration": 0.5, "velocity": 64 },
                { "note": 55, "start": 251, "duration": 0.5, "velocity": 57 },
                { "note": 59, "start": 251, "duration": 0.5, "velocity": 71 },
                { "note": 60, "start": 251.5, "duration": 0.5, "velocity": 64 },
                { "note": 45, "start": 252, "duration": 0.5, "velocity": 69 },
                { "note": 52, "start": 252.5, "duration": 0.5, "velocity": 64 },
                { "note": 57, "start": 253, "duration": 0.5, "velocity": 57 },
                { "note": 60, "start": 253, "duration": 0.5, "velocity": 71 },
                { "note": 59, "start": 253.5, "duration": 0.5, "velocity": 64 },
                { "note": 43, "start": 254, "duration": 0.5, "velocity": 67 },
                { "note": 50, "start": 254.5, "duration": 0.5, "velocity": 56 },
                { "note": 60, "start": 254.5, "duration": 0.5, "velocity": 70 },
                { "note": 55, "start": 255, "duration": 0.5, "velocity": 57 },
                { "note": 59, "start": 255, "duration": 0.5, "velocity": 71 },
                { "note": 53, "start": 255.5, "duration": 0.5, "velocity": 56 },
                { "note": 57, "start": 255.5, "duration": 0.5, "velocity": 70 },
                { "note": 41, "start": 256, "duration": 0.5, "velocity": 69 },
                { "note": 48, "start": 256.5, "duration": 0.5, "velocity": 64 },
                { "note": 53, "start": 257, "duration": 0.5, "velocity": 65 },
                { "note": 55, "start": 257.5, "duration": 0.5, "velocity": 64 },
                { "note": 53, "start": 258, "duration": 2, "velocity": 59 },
                { "note": 57, "start": 258, "duration": 2, "velocity": 73 },
                { "note": 48, "start": 258.5, "duration": 0.5, "velocity": 64 },
                { "note": 50, "start": 259, "duration": 0.5, "velocity": 64 },
                { "note": 48, "start": 259.5, "duration": 0.5, "velocity": 64 },
                { "note": 47, "start": 260, "duration": 0.5, "velocity": 69 },
                { "note": 55, "start": 260.5, "duration": 0.5, "velocity": 64 },
                { "note": 59, "start": 261, "duration": 0.5, "velocity": 65 },
                { "note": 60, "start": 261.5, "duration": 0.5, "velocity": 64 },
                { "note": 59, "start": 262, "duration": 1, "velocity": 59 },
                { "note": 62, "start": 262, "duration": 1, "velocity": 73 },
                { "note": 60, "start": 263, "duration": 0.5, "velocity": 57 },
                { "note": 64, "start": 263, "duration": 0.5, "velocity": 71 },
                { "note": 62, "start": 263.5, "duration": 0.5, "velocity": 64 },
                { "note": 40, "start": 264, "duration": 0.5, "velocity": 68 },
                { "note": 47, "start": 264.5, "duration": 0.5, "velocity": 64 },
                { "note": 52, "start": 265, "duration": 0.5, "velocity": 65 },
                { "note": 54, "start": 265.5, "duration": 0.5, "velocity": 64 },
                { "note": 52, "start": 266, "duration": 1, "velocity": 59 },
                { "note": 55, "start": 266, "duration": 1, "velocity": 73 },
                { "note": 48, "start": 267, "duration": 0.5, "velocity": 65 },
                { "note": 47, "start": 267.5, "duration": 0.5, "velocity": 64 },
                { "note": 45, "start": 268, "duration": 0.5, "velocity": 69 },
                { "note": 52, "start": 268.5, "duration": 0.5, "velocity": 64 },
                { "note": 57, "start": 269, "duration": 1, "velocity": 57 },
                { "note": 60, "start": 269, "duration": 1, "velocity": 71 },
                { "note": 43, "start": 270, "duration": 0.5, "velocity": 67 },
                { "note": 50, "start": 270.5, "duration": 0.5, "velocity": 56 },
                { "note": 60, "start": 270.5, "duration": 0.5, "velocity": 70 },
                { "note": 55, "start": 271, "duration": 0.5, "velocity": 57 },
                { "note": 59, "start": 271, "duration": 0.5, "velocity": 71 },
                { "note": 53, "start": 271.5, "duration": 0.5, "velocity": 56 },
                { "note": 57, "start": 271.5, "duration": 0.5, "velocity": 70 },
                { "note": 41, "start": 272, "duration": 0.5, "velocity": 69 },
                { "note": 48, "start": 272.5, "duration": 0.5, "velocity": 64 },
                { "note": 53, "start": 273, "duration": 0.5, "velocity": 65 },
                { "note": 55, "start": 273.5, "duration": 0.5, "velocity": 64 },
                { "note": 53, "start": 274, "duration": 0.5, "velocity": 59 },
                { "note": 57, "start": 274, "duration": 0.5, "velocity": 73 },
                { "note": 59, "start": 274.5, "duration": 0.5, "velocity": 64 },
                { "note": 57, "start": 275, "duration": 1, "velocity": 57 },
                { "note": 60, "start": 275, "duration": 1, "velocity": 71 },
                { "note": 47, "start": 276, "duration": 0.5, "velocity": 69 },
                { "note": 55, "start": 276.5, "duration": 0.5, "velocity": 64 },
                { "note": 59, "start": 277, "duration": 0.5, "velocity": 65 },
                { "note": 60, "start": 277.5, "duration": 0.5, "velocity": 64 },
                { "note": 59, "start": 278, "duration": 1, "velocity": 59 },
                { "note": 62, "start": 278, "duration": 1, "velocity": 73 },
                { "note": 57, "start": 279, "duration": 0.5, "velocity": 57 },
                { "note": 60, "start": 279, "duration": 0.5, "velocity": 71 },
                { "note": 59, "start": 279.5, "duration": 0.5, "velocity": 64 },
                { "note": 40, "start": 280, "duration": 0.5, "velocity": 68 },
                { "note": 47, "start": 280.5, "duration": 0.5, "velocity": 64 },
                { "note": 52, "start": 281, "duration": 0.5, "velocity": 65 },
                { "note": 54, "start": 281.5, "duration": 0.5, "velocity": 64 },
                { "note": 52, "start": 282, "duration": 1, "velocity": 59 },
                { "note": 55, "start": 282, "duration": 1, "velocity": 73 },
                { "note": 55, "start": 283, "duration": 0.5, "velocity": 57 },
                { "note": 59, "start": 283, "duration": 0.5, "velocity": 71 },
                { "note": 60, "start": 283.5, "duration": 0.5, "velocity": 64 },
                { "note": 45, "start": 284, "duration": 0.5, "velocity": 69 },
                { "note": 52, "start": 284.5, "duration": 0.5, "velocity": 64 },
                { "note": 57, "start": 285, "duration": 0.5, "velocity": 57 },
                { "note": 60, "start": 285, "duration": 0.5, "velocity": 71 },
                { "note": 59, "start": 285.5, "duration": 0.5, "velocity": 64 },
                { "note": 43, "start": 286, "duration": 0.5, "velocity": 67 },
                { "note": 50, "start": 286.5, "duration": 0.5, "velocity": 64 },
                { "note": 55, "start": 287, "duration": 0.5, "velocity": 57 },
                { "note": 59, "start": 287, "duration": 0.5, "velocity": 71 },
                { "note": 57, "start": 287.5, "duration": 0.5, "velocity": 64 },
                { "note": 41, "start": 288, "duration": 0.5, "velocity": 69 },
                { "note": 48, "start": 288.5, "duration": 0.5, "velocity": 64 },
                { "note": 53, "start": 289, "duration": 0.5, "velocity": 65 },
                { "note": 55, "start": 289.5, "duration": 0.5, "velocity": 64 },
                { "note": 53, "start": 290, "duration": 0.5, "velocity": 59 },
                { "note": 57, "start": 290, "duration": 0.5, "velocity": 73 },
                { "note": 59, "start": 290.5, "duration": 0.5, "velocity": 64 },
                { "note": 57, "start": 291, "duration": 1, "velocity": 57 },
                { "note": 60, "start": 291, "duration": 1, "velocity": 71 },
                { "note": 47, "start": 292, "duration": 0.5, "velocity": 69 },
                { "note": 55, "start": 292.5, "duration": 0.5, "velocity": 64 },
                { "note": 59, "start": 293, "duration": 0.5, "velocity": 65 },
                { "note": 60, "start": 293.5, "duration": 0.5, "velocity": 64 },
                { "note": 59, "start": 294, "duration": 1, "velocity": 59 },
                { "note": 62, "start": 294, "duration": 1, "velocity": 73 },
                { "note": 57, "start": 295, "duration": 0.5, "velocity": 57 },
                { "note": 60, "start": 295, "duration": 0.5, "velocity": 71 },
                { "note": 59, "start": 295.5, "duration": 0.5, "velocity": 64 },
                { "note": 40, "start": 296, "duration": 0.5, "velocity": 68 },
                { "note": 47, "start": 296.5, "duration": 0.5, "velocity": 64 },
                { "note": 52, "start": 297, "duration": 0.5, "velocity": 65 },
                { "note": 54, "start": 297.5, "duration": 0.5, "velocity": 64 },
                { "note": 52, "start": 298, "duration": 0.5, "velocity": 59 },
                { "note": 55, "start": 298, "duration": 0.5, "velocity": 73 },
                { "note": 57, "start": 298.5, "duration": 0.5, "velocity": 64 },
                { "note": 55, "start": 299, "duration": 1, "velocity": 57 },
                { "note": 59, "start": 299, "duration": 1, "velocity": 71 },
                { "note": 45, "start": 300, "duration": 0.5, "velocity": 69 },
                { "note": 52, "start": 300.5, "duration": 0.5, "velocity": 64 },
                { "note": 57, "start": 301, "duration": 0.5, "velocity": 57 },
                { "note": 60, "start": 301, "duration": 0.5, "velocity": 71 },
                { "note": 59, "start": 301.5, "duration": 0.5, "velocity": 64 },
                { "note": 43, "start": 302, "duration": 0.5, "velocity": 67 },
                { "note": 50, "start": 302.5, "duration": 0.5, "velocity": 64 },
                { "note": 55, "start": 303, "duration": 0.5, "velocity": 57 },
                { "note": 59, "start": 303, "duration": 0.5, "velocity": 71 },
                { "note": 57, "start": 303.5, "duration": 0.5, "velocity": 64 },
                { "note": 38, "start": 304, "duration": 0.5, "velocity": 68 },
                { "note": 45, "start": 304.5, "duration": 0.5, "velocity": 64 },
                { "note": 50, "start": 305, "duration": 0.5, "velocity": 65 },
                { "note": 52, "start": 305.5, "duration": 0.5, "velocity": 64 },
                { "note": 50, "start": 306, "duration": 1, "velocity": 59 },
                { "note": 53, "start": 306, "duration": 1, "velocity": 73 },
                { "note": 53, "start": 307, "duration": 0.5, "velocity": 57 },
                { "note": 57, "start": 307, "duration": 0.5, "velocity": 71 },
                { "note": 55, "start": 307.5, "duration": 0.5, "velocity": 64 },
                { "note": 40, "start": 308, "duration": 0.5, "velocity": 68 },
                { "note": 47, "start": 308.5, "duration": 0.5, "velocity": 64 },
                { "note": 52, "start": 309, "duration": 0.5, "velocity": 65 },
                { "note": 54, "start": 309.5, "duration": 0.5, "velocity": 64 },
                { "note": 52, "start": 310, "duration": 1, "velocity": 59 },
                { "note": 55, "start": 310, "duration": 1, "velocity": 73 },
                { "note": 55, "start": 311, "duration": 0.5, "velocity": 57 },
                { "note": 59, "start": 311, "duration": 0.5, "velocity": 71 },
                { "note": 57, "start": 311.5, "duration": 0.5, "velocity": 64 },
                { "note": 41, "start": 312, "duration": 0.5, "velocity": 69 },
                { "note": 48, "start": 312.5, "duration": 0.5, "velocity": 64 },
                { "note": 53, "start": 313, "duration": 0.5, "velocity": 65 },
                { "note": 55, "start": 313.5, "duration": 0.5, "velocity": 64 },
                { "note": 53, "start": 314, "duration": 1, "velocity": 59 },
                { "note": 57, "start": 314, "duration": 1, "velocity": 73 },
                { "note": 55, "start": 315, "duration": 1, "velocity": 57 },
                { "note": 59, "start": 315, "duration": 1, "velocity": 71 },
                { "note": 43, "start": 316, "duration": 0.5, "velocity": 69 },
                { "note": 50, "start": 316.5, "duration": 0.5, "velocity": 64 },
                { "note": 55, "start": 317, "duration": 0.5, "velocity": 65 },
                { "note": 57, "start": 317.5, "duration": 0.5, "velocity": 64 },
                { "note": 48, "start": 318, "duration": 0.5, "velocity": 58 },
                { "note": 55, "start": 318, "duration": 0.5, "velocity": 58 },
                { "note": 52, "start": 318.5, "duration": 0.5, "velocity": 63 },
                { "note": 57, "start": 318.5, "duration": 0.5, "velocity": 63 },
                { "note": 55, "start": 319, "duration": 0.5, "velocity": 67 },
                { "note": 59, "start": 319, "duration": 0.5, "velocity": 67 },
                { "note": 55, "start": 319.5, "duration": 0.5, "velocity": 72 },
                { "note": 60, "start": 319.5, "duration": 0.5, "velocity": 72 },
                { "note": 45, "start": 320, "duration": 1, "velocity": 81 },
                { "note": 57, "start": 320, "duration": 1, "velocity": 95 },
                { "note": 52, "start": 321, "duration": 0.5, "velocity": 77 },
                { "note": 57, "start": 321, "duration": 0.5, "velocity": 77 },
                { "note": 45, "start": 321.5, "duration": 0.5, "velocity": 84 },
                { "note": 45, "start": 322.5, "duration": 0.5, "velocity": 84 },
                { "note": 52, "start": 323, "duration": 0.5, "velocity": 77 },
                { "note": 57, "start": 323, "duration": 0.5, "velocity": 77 },
                { "note": 45, "start": 323.5, "duration": 0.5, "velocity": 84 },
                { "note": 45, "start": 324, "duration": 1, "velocity": 89 },
                { "note": 52, "start": 325, "duration": 0.5, "velocity": 77 },
                { "note": 57, "start": 325, "duration": 0.5, "velocity": 77 },
                { "note": 45, "start": 325.5, "duration": 0.5, "velocity": 84 },
                { "note": 45, "start": 326.5, "duration": 0.5, "velocity": 84 },
                { "note": 52, "start": 327, "duration": 0.5, "velocity": 77 },
                { "note": 57, "start": 327, "duration": 0.5, "velocity": 77 },
                { "note": 45, "start": 327.5, "duration": 0.5, "velocity": 84 },
                { "note": 36, "start": 328, "duration": 1, "velocity": 87 },
                { "note": 52, "start": 329, "duration": 0.5, "velocity": 77 },
                { "note": 55, "start": 329, "duration": 0.5, "velocity": 77 },
                { "note": 36, "start": 329.5, "duration": 0.5, "velocity": 82 },
                { "note": 36, "start": 330.5, "duration": 0.5, "velocity": 82 },
                { "note": 52, "start": 331, "duration": 0.5, "velocity": 77 },
                { "note": 55, "start": 331, "duration": 0.5, "velocity": 77 },
                { "note": 36, "start": 331.5, "duration": 0.5, "velocity": 82 },
                { "note": 36, "start": 332, "duration": 1, "velocity": 87 },
                { "note": 52, "start": 333, "duration": 0.5, "velocity": 77 },
                { "note": 55, "start": 333, "duration": 0.5, "velocity": 77 },
                { "note": 36, "start": 333.5, "duration": 0.5, "velocity": 82 },
                { "note": 36, "start": 334.5, "duration": 0.5, "velocity": 82 },
                { "note": 52, "start": 335, "duration": 0.5, "velocity": 77 },
                { "note": 55, "start": 335, "duration": 0.5, "velocity": 77 },
                { "note": 36, "start": 335.5, "duration": 0.5, "velocity": 82 },
                { "note": 45, "start": 336, "duration": 1, "velocity": 89 },
                { "note": 52, "start": 337, "duration": 0.5, "velocity": 77 },
                { "note": 57, "start": 337, "duration": 0.5, "velocity": 77 },
                { "note": 45, "start": 337.5, "duration": 0.5, "velocity": 84 },
                { "note": 45, "start": 338.5, "duration": 0.5, "velocity": 84 },
                { "note": 52, "start": 339, "duration": 0.5, "velocity": 77 },
                { "note": 57, "start": 339, "duration": 0.5, "velocity": 77 },
                { "note": 45, "start": 339.5, "duration": 0.5, "velocity": 84 },
                { "note": 45, "start": 340, "duration": 1, "velocity": 89 },
                { "note": 52, "start": 341, "duration": 0.5, "velocity": 77 },
                { "note": 57, "start": 341, "duration": 0.5, "velocity": 77 },
                { "note": 45, "start": 341.5, "duration": 0.5, "velocity": 84 },
                { "note": 45, "start": 342.5, "duration": 0.5, "velocity": 84 },
                { "note": 52, "start": 343, "duration": 0.5, "velocity": 77 },
                { "note": 57, "start": 343, "duration": 0.5, "velocity": 77 },
                { "note": 45, "start": 343.5, "duration": 0.5, "velocity": 84 },
                { "note": 36, "start": 344, "duration": 1, "velocity": 87 },
                { "note": 52, "start": 345, "duration": 0.5, "velocity": 77 },
                { "note": 55, "start": 345, "duration": 0.5, "velocity": 77 },
                { "note": 36, "start": 345.5, "duration": 0.5, "velocity": 82 },
                { "note": 36, "start": 346.5, "duration": 0.5, "velocity": 82 },
                { "note": 52, "start": 347, "duration": 0.5, "velocity": 77 },
                { "note": 55, "start": 347, "duration": 0.5, "velocity": 77 },
                { "note": 36, "start": 347.5, "duration": 0.5, "velocity": 82 },
                { "note": 36, "start": 348, "duration": 1, "velocity": 87 },
                { "note": 52, "start": 349, "duration": 0.5, "velocity": 77 },
                { "note": 55, "start": 349, "duration": 0.5, "velocity": 77 },
                { "note": 36, "start": 349.5, "duration": 0.5, "velocity": 82 },
                { "note": 36, "start": 350.5, "duration": 0.5, "velocity": 82 },
                { "note": 52, "start": 351, "duration": 0.5, "velocity": 77 },
                { "note": 55, "start": 351, "duration": 0.5, "velocity": 77 },
                { "note": 36, "start": 351.5, "duration": 0.5, "velocity": 82 },
                { "note": 41, "start": 352, "duration": 1, "velocity": 89 },
                { "note": 53, "start": 353, "duration": 0.5, "velocity": 77 },
                { "note": 57, "start": 353, "duration": 0.5, "velocity": 77 },
                { "note": 41, "start": 353.5, "duration": 0.5, "velocity": 84 },
                { "note": 41, "start": 354.5, "duration": 0.5, "velocity": 84 },
                { "note": 53, "start": 355, "duration": 0.5, "velocity": 77 },
                { "note": 57, "start": 355, "duration": 0.5, "velocity": 77 },
                { "note": 41, "start": 355.5, "duration": 0.5, "velocity": 84 },
                { "note": 47, "start": 356, "duration": 1, "velocity": 89 },
                { "note": 55, "start": 357, "duration": 0.5, "velocity": 77 },
                { "note": 59, "start": 357, "duration": 0.5, "velocity": 77 },
                { "note": 47, "start": 357.5, "duration": 0.5, "velocity": 84 },
                { "note": 47, "start": 358.5, "duration": 0.5, "velocity": 84 },
                { "note": 55, "start": 359, "duration": 0.5, "velocity": 77 },
                { "note": 59, "start": 359, "duration": 0.5, "velocity": 77 },
                { "note": 47, "start": 359.5, "duration": 0.5, "velocity": 84 },
                { "note": 40, "start": 360, "duration": 1, "velocity": 88 },
                { "note": 52, "start": 361, "duration": 0.5, "velocity": 77 },
                { "note": 55, "start": 361, "duration": 0.5, "velocity": 77 },
                { "note": 40, "start": 361.5, "duration": 0.5, "velocity": 83 },
                { "note": 40, "start": 362.5, "duration": 0.5, "velocity": 83 },
                { "note": 52, "start": 363, "duration": 0.5, "velocity": 77 },
                { "note": 55, "start": 363, "duration": 0.5, "velocity": 77 },
                { "note": 40, "start": 363.5, "duration": 0.5, "velocity": 83 },
                { "note": 45, "start": 364, "duration": 1, "velocity": 89 },
                { "note": 52, "start": 365, "duration": 0.5, "velocity": 77 },
                { "note": 57, "start": 365, "duration": 0.5, "velocity": 77 },
                { "note": 45, "start": 365.5, "duration": 0.5, "velocity": 84 },
                { "note": 43, "start": 366, "duration": 1, "velocity": 87 },
                { "note": 50, "start": 367, "duration": 0.5, "velocity": 77 },
                { "note": 55, "start": 367, "duration": 0.5, "velocity": 77 },
                { "note": 43, "start": 367.5, "duration": 0.5, "velocity": 84 },
                { "note": 41, "start": 368, "duration": 1, "velocity": 89 },
                { "note": 53, "start": 369, "duration": 0.5, "velocity": 77 },
                { "note": 57, "start": 369, "duration": 0.5, "velocity": 77 },
                { "note": 41, "start": 369.5, "duration": 0.5, "velocity": 84 },
                { "note": 41, "start": 370.5, "duration": 0.5, "velocity": 84 },
                { "note": 53, "start": 371, "duration": 0.5, "velocity": 77 },
                { "note": 57, "start": 371, "duration": 0.5, "velocity": 77 },
                { "note": 41, "start": 371.5, "duration": 0.5, "velocity": 84 },
                { "note": 47, "start": 372, "duration": 1, "velocity": 89 },
                { "note": 55, "start": 373, "duration": 0.5, "velocity": 77 },
                { "note": 59, "start": 373, "duration": 0.5, "velocity": 77 },
                { "note": 47, "start": 373.5, "duration": 0.5, "velocity": 84 },
                { "note": 47, "start": 374.5, "duration": 0.5, "velocity": 84 },
                { "note": 55, "start": 375, "duration": 0.5, "velocity": 77 },
                { "note": 59, "start": 375, "duration": 0.5, "velocity": 77 },
                { "note": 47, "start": 375.5, "duration": 0.5, "velocity": 84 },
                { "note": 40, "start": 376, "duration": 1, "velocity": 88 },
                { "note": 52, "start": 377, "duration": 0.5, "velocity": 77 },
                { "note": 55, "start": 377, "duration": 0.5, "velocity": 77 },
                { "note": 40, "start": 377.5, "duration": 0.5, "velocity": 83 },
                { "note": 40, "start": 378.5, "duration": 0.5, "velocity": 83 },
                { "note": 52, "start": 379, "duration": 0.5, "velocity": 77 },
                { "note": 55, "start": 379, "duration": 0.5, "velocity": 77 },
                { "note": 40, "start": 379.5, "duration": 0.5, "velocity": 83 },
                { "note": 45, "start": 380, "duration": 1, "velocity": 89 },
                { "note": 52, "start": 381, "duration": 0.5, "velocity": 77 },
                { "note": 57, "start": 381, "duration": 0.5, "velocity": 77 },
                { "note": 45, "start": 381.5, "duration": 0.5, "velocity": 84 },
                { "note": 43, "start": 382, "duration": 1, "velocity": 87 },
                { "note": 50, "start": 383, "duration": 0.5, "velocity": 77 },
                { "note": 55, "start": 383, "duration": 0.5, "velocity": 77 },
                { "note": 43, "start": 383.5, "duration": 0.5, "velocity": 84 },
                { "note": 38, "start": 384, "duration": 1, "velocity": 88 },
                { "note": 50, "start": 385, "duration": 0.5, "velocity": 77 },
                { "note": 53, "start": 385, "duration": 0.5, "velocity": 77 },
                { "note": 38, "start": 385.5, "duration": 0.5, "velocity": 83 },
                { "note": 38, "start": 386.5, "duration": 0.5, "velocity": 83 },
                { "note": 50, "start": 387, "duration": 0.5, "velocity": 77 },
                { "note": 53, "start": 387, "duration": 0.5, "velocity": 77 },
                { "note": 38, "start": 387.5, "duration": 0.5, "velocity": 83 },
                { "note": 40, "start": 388, "duration": 1, "velocity": 88 },
                { "note": 52, "start": 389, "duration": 0.5, "velocity": 77 },
                { "note": 55, "start": 389, "duration": 0.5, "velocity": 77 },
                { "note": 40, "start": 389.5, "duration": 0.5, "velocity": 83 },
                { "note": 40, "start": 390.5, "duration": 0.5, "velocity": 83 },
                { "note": 52, "start": 391, "duration": 0.5, "velocity": 77 },
                { "note": 55, "start": 391, "duration": 0.5, "velocity": 77 },
                { "note": 40, "start": 391.5, "duration": 0.5, "velocity": 83 },
                { "note": 41, "start": 392, "duration": 1, "velocity": 89 },
                { "note": 53, "start": 393, "duration": 0.5, "velocity": 77 },
                { "note": 57, "start": 393, "duration": 0.5, "velocity": 77 },
                { "note": 41, "start": 393.5, "duration": 0.5, "velocity": 84 },
                { "note": 41, "start": 394.5, "duration": 0.5, "velocity": 84 },
                { "note": 53, "start": 395, "duration": 0.5, "velocity": 77 },
                { "note": 57, "start": 395, "duration": 0.5, "velocity": 77 },
                { "note": 41, "start": 395.5, "duration": 0.5, "velocity": 84 },
                { "note": 43, "start": 396, "duration": 1, "velocity": 89 },
                { "note": 55, "start": 397, "duration": 0.5, "velocity": 77 },
                { "note": 59, "start": 397, "duration": 0.5, "velocity": 77 },
                { "note": 43, "start": 397.5, "duration": 0.5, "velocity": 84 },
                { "note": 43, "start": 398.5, "duration": 0.5, "velocity": 84 },
                { "note": 55, "start": 399, "duration": 0.5, "velocity": 77 },
                { "note": 59, "start": 399, "duration": 0.5, "velocity": 77 },
                { "note": 43, "start": 399.5, "duration": 0.5, "velocity": 84 },
                { "note": 50, "start": 400, "duration": 4, "velocity": 76 },
                { "note": 53, "start": 400, "duration": 4, "velocity": 76 },
                { "note": 38, "start": 401, "duration": 3, "velocity": 64 },
                { "note": 52, "start": 404, "duration": 4, "velocity": 76 },
                { "note": 55, "start": 404, "duration": 4, "velocity": 76 },
                { "note": 40, "start": 405, "duration": 3, "velocity": 64 },
                { "note": 53, "start": 408, "duration": 4, "velocity": 76 },
                { "note": 57, "start": 408, "duration": 4, "velocity": 76 },
                { "note": 41, "start": 409, "duration": 3, "velocity": 64 },
                { "note": 53, "start": 412, "duration": 2, "velocity": 81 },
                { "note": 57, "start": 412, "duration": 2, "velocity": 81 },
                { "note": 41, "start": 413, "duration": 1, "velocity": 64 },
                { "note": 55, "start": 414, "duration": 2, "velocity": 59 },
                { "note": 59, "start": 414, "duration": 2, "velocity": 59 },
                { "note": 43, "start": 415, "duration": 1, "velocity": 64 },
                { "note": 57, "start": 416, "duration": 4, "velocity": 56 },
                { "note": 60, "start": 416, "duration": 4, "velocity": 56 },
                { "note": 45, "start": 417, "duration": 3, "velocity": 64 }
            ]
        },
        {
            "id": "left-standard",
            "name": "Acompanhamento",
            "hand": "left",
            "difficulty": "intermediate",
            "notes": [
                { "note": 64, "start": 0, "duration": 7, "velocity": 56 },
                { "note": 67, "start": 0, "duration": 7, "velocity": 56 },
                { "note": 69, "start": 0, "duration": 7, "velocity": 56 },
                { "note": 72, "start": 0, "duration": 7, "velocity": 70 },
                { "note": 71, "start": 7, "duration": 1, "velocity": 65 },
                { "note": 72, "start": 8, "duration": 0.5, "velocity": 69 },
                { "note": 74, "start": 8.5, "duration": 0.5, "velocity": 64 },
                { "note": 67, "start": 9, "duration": 6, "velocity": 56 },
                { "note": 71, "start": 9, "duration": 6, "velocity": 56 },
                { "note": 72, "start": 9, "duration": 6, "velocity": 56 },
                { "note": 76, "start": 9, "duration": 6, "velocity": 66 },
                { "note": 57, "start": 15, "duration": 0.5, "velocity": 65 },
                { "note": 59, "start": 15.5, "duration": 0.5, "velocity": 64 },
                { "note": 52, "start": 16, "duration": 7, "velocity": 56 },
                { "note": 55, "start": 16, "duration": 7, "velocity": 56 },
                { "note": 57, "start": 16, "duration": 7, "velocity": 56 },
                { "note": 60, "start": 16, "duration": 7, "velocity": 66 },
                { "note": 45, "start": 17, "duration": 5, "velocity": 64 },
                { "note": 45, "start": 22, "duration": 2, "velocity": 64 },
                { "note": 60, "start": 23, "duration": 0.5, "velocity": 65 },
                { "note": 62, "start": 23.5, "duration": 0.5, "velocity": 64 },
                { "note": 55, "start": 24, "duration": 8, "velocity": 56 },
                { "note": 59, "start": 24, "duration": 8, "velocity": 56 },
                { "note": 60, "start": 24, "duration": 8, "velocity": 56 },
                { "note": 64, "start": 24, "duration": 8, "velocity": 66 },
                { "note": 36, "start": 25, "duration": 5, "velocity": 64 },
                { "note": 48, "start": 30, "duration": 1, "velocity": 64 },
                { "note": 38, "start": 31, "duration": 0.5, "velocity": 64 },
                { "note": 40, "start": 31.5, "duration": 0.5, "velocity": 64 },
                { "note": 41, "start": 32, "duration": 0.5, "velocity": 69 },
                { "note": 48, "start": 32.5, "duration": 0.5, "velocity": 64 },
                { "note": 53, "start": 33, "duration": 0.5, "velocity": 65 },
                { "note": 55, "start": 33.5, "duration": 0.5, "velocity": 64 },
                { "note": 53, "start": 34, "duration": 1, "velocity": 59 },
                { "note": 57, "start": 34, "duration": 1, "velocity": 73 },
                { "note": 55, "start": 35, "duration": 1, "velocity": 57 },
                { "note": 59, "start": 35, "duration": 1, "velocity": 71 },
                { "note": 47, "start": 36, "duration": 0.5, "velocity": 69 },
                { "note": 55, "start": 36.5, "duration": 0.5, "velocity": 64 },
                { "note": 59, "start": 37, "duration": 0.5, "velocity": 65 },
                { "note": 60, "start": 37.5, "duration": 0.5, "velocity": 64 },
                { "note": 59, "start": 38, "duration": 1, "velocity": 59 },
                { "note": 62, "start": 38, "duration": 1, "velocity": 73 },
                { "note": 57, "start": 39, "duration": 0.5, "velocity": 57 },
                { "note": 60, "start": 39, "duration": 0.5, "velocity": 71 },
                { "note": 59, "start": 39.5, "duration": 0.5, "velocity": 64 },
                { "note": 40, "start": 40, "duration": 0.5, "velocity": 68 },
                { "note": 47, "start": 40.5, "duration": 0.5, "velocity": 64 },
                { "note": 52, "start": 41, "duration": 0.5, "velocity": 65 },
                { "note": 54, "start": 41.5, "duration": 0.5, "velocity": 64 },
                { "note": 52, "start": 42, "duration": 0.5, "velocity": 59 },
                { "note": 55, "start": 42, "duration": 0.5, "velocity": 73 },
                { "note": 60, "start": 42.5, "duration": 0.5, "velocity": 64 },
                { "note": 55, "start": 43, "duration": 0.5, "velocity": 57 },
                { "note": 59, "start": 43, "duration": 0.5, "velocity": 71 },
                { "note": 60, "start": 43.5, "duration": 0.5, "velocity": 64 },
                { "note": 45, "start": 44, "duration": 0.5, "velocity": 69 },
                { "note": 52, "start": 44.5, "duration": 0.5, "velocity": 64 },
                { "note": 57, "start": 45, "duration": 0.5, "velocity": 57 },
                { "note": 60, "start": 45, "duration": 0.5, "velocity": 71 },
                { "note": 59, "start": 45.5, "duration": 0.5, "velocity": 64 },
                { "note": 43, "start": 46, "duration": 0.5, "velocity": 67 },
                { "note": 50, "start": 46.5, "duration": 0.5, "velocity": 56 },
                { "note": 60, "start": 46.5, "duration": 0.5, "velocity": 70 },
                { "note": 55, "start": 47, "duration": 0.5, "velocity": 57 },
                { "note": 59, "start": 47, "duration": 0.5, "velocity": 71 },
                { "note": 53, "start": 47.5, "duration": 0.5, "velocity": 56 },
                { "note": 57, "start": 47.5, "duration": 0.5, "velocity": 70 },
                { "note": 41, "start": 48, "duration": 0.5, "velocity": 69 },
                { "note": 48, "start": 48.5, "duration": 0.5, "velocity": 64 },
                { "note": 53, "start": 49, "duration": 0.5, "velocity": 65 },
                { "note": 55, "start": 49.5, "duration": 0.5, "velocity": 64 },
                { "note": 53, "start": 50, "duration": 2, "velocity": 59 },
                { "note": 57, "start": 50, "duration": 2, "velocity": 73 },
                { "note": 48, "start": 50.5, "duration": 0.5, "velocity": 64 },
                { "note": 50, "start": 51, "duration": 0.5, "velocity": 64 },
                { "note": 48, "start": 51.5, "duration": 0.5, "velocity": 64 },
                { "note": 47, "start": 52, "duration": 0.5, "velocity": 69 },
                { "note": 55, "start": 52.5, "duration": 0.5, "velocity": 64 },
                { "note": 59, "start": 53, "duration": 0.5, "velocity": 65 },
                { "note": 60, "start": 53.5, "duration": 0.5, "velocity": 64 },
                { "note": 59, "start": 54, "duration": 1, "velocity": 59 },
                { "note": 62, "start": 54, "duration": 1, "velocity": 73 },
                { "note": 60, "start": 55, "duration": 0.5, "velocity": 57 },
                { "note": 64, "start": 55, "duration": 0.5, "velocity": 71 },
                { "note": 62, "start": 55.5, "duration": 0.5, "velocity": 64 },
                { "note": 40, "start": 56, "duration": 0.5, "velocity": 68 },
                { "note": 47, "start": 56.5, "duration": 0.5, "velocity": 64 },
                { "note": 52, "start": 57, "duration": 0.5, "velocity": 65 },
                { "note": 54, "start": 57.5, "duration": 0.5, "velocity": 64 },
                { "note": 52, "start": 58, "duration": 1, "velocity": 59 },
                { "note": 55, "start": 58, "duration": 1, "velocity": 73 },
                { "note": 48, "start": 59, "duration": 0.5, "velocity": 65 },
                { "note": 47, "start": 59.5, "duration": 0.5, "velocity": 64 },
                { "note": 45, "start": 60, "duration": 0.5, "velocity": 69 },
                { "note": 52, "start": 60.5, "duration": 0.5, "velocity": 64 },
                { "note": 57, "start": 61, "duration": 1, "velocity": 57 },
                { "note": 60, "start": 61, "duration": 1, "velocity": 71 },
                { "note": 43, "start": 62, "duration": 0.5, "velocity": 67 },
                { "note": 50, "start": 62.5, "duration": 0.5, "velocity": 56 },
                { "note": 60, "start": 62.5, "duration": 0.5, "velocity": 70 },
                { "note": 55, "start": 63, "duration": 0.5, "velocity": 57 },
                { "note": 59, "start": 63, "duration": 0.5, "velocity": 71 },
                { "note": 53, "start": 63.5, "duration": 0.5, "velocity": 56 },
                { "note": 57, "start": 63.5, "duration": 0.5, "velocity": 70 },
                { "note": 41, "start": 64, "duration": 0.5, "velocity": 69 },
                { "note": 48, "start": 64.5, "duration": 0.5, "velocity": 64 },
                { "note": 53, "start": 65, "duration": 0.5, "velocity": 65 },
                { "note": 55, "start": 65.5, "duration": 0.5, "velocity": 64 },
                { "note": 53, "start": 66, "duration": 0.5, "velocity": 59 },
                { "note": 57, "start": 66, "duration": 0.5, "velocity": 73 },
                { "note": 59, "start": 66.5, "duration": 0.5, "velocity": 64 },
                { "note": 57, "start": 67, "duration": 1, "velocity": 57 },
                { "note": 60, "start": 67, "duration": 1, "velocity": 71 },
                { "note": 47, "start": 68, "duration": 0.5, "velocity": 69 },
                { "note": 55, "start": 68.5, "duration": 0.5, "velocity": 64 },
                { "note": 59, "start": 69, "duration": 0.5, "velocity": 65 },
                { "note": 60, "start": 69.5, "duration": 0.5, "velocity": 64 },
                { "note": 59, "start": 70, "duration": 1, "velocity": 59 },
                { "note": 62, "start": 70, "duration": 1, "velocity": 73 },
                { "note": 57, "start": 71, "duration": 0.5, "velocity": 57 },
                { "note": 60, "start": 71, "duration": 0.5, "velocity": 71 },
                { "note": 59, "start": 71.5, "duration": 0.5, "velocity": 64 },
                { "note": 40, "start": 72, "duration": 0.5, "velocity": 68 },
                { "note": 47, "start": 72.5, "duration": 0.5, "velocity": 64 },
                { "note": 52, "start": 73, "duration": 0.5, "velocity": 65 },
                { "note": 54, "start": 73.5, "duration": 0.5, "velocity": 64 },
                { "note": 52, "start": 74, "duration": 1, "velocity": 59 },
                { "note": 55, "start": 74, "duration": 1, "velocity": 73 },
                { "note": 55, "start": 75, "duration": 0.5, "velocity": 57 },
                { "note": 59, "start": 75, "duration": 0.5, "velocity": 71 },
                { "note": 60, "start": 75.5, "duration": 0.5, "velocity": 64 },
                { "note": 45, "start": 76, "duration": 0.5, "velocity": 69 },
                { "note": 52, "start": 76.5, "duration": 0.5, "velocity": 64 },
                { "note": 57, "start": 77, "duration": 0.5, "velocity": 57 },
                { "note": 60, "start": 77, "duration": 0.5, "velocity": 71 },
                { "note": 59, "start": 77.5, "duration": 0.5, "velocity": 64 },
                { "note": 43, "start": 78, "duration": 0.5, "velocity": 67 },
                { "note": 50, "start": 78.5, "duration": 0.5, "velocity": 64 },
                { "note": 55, "start": 79, "duration": 0.5, "velocity": 57 },
                { "note": 59, "start": 79, "duration": 0.5, "velocity": 71 },
                { "note": 57, "start": 79.5, "duration": 0.5, "velocity": 64 },
                { "note": 41, "start": 80, "duration": 0.5, "velocity": 69 },
                { "note": 48, "start": 80.5, "duration": 0.5, "velocity": 64 },
                { "note": 53, "start": 81, "duration": 0.5, "velocity": 65 },
                { "note": 55, "start": 81.5, "duration": 0.5, "velocity": 64 },
                { "note": 53, "start": 82, "duration": 0.5, "velocity": 59 },
                { "note": 57, "start": 82, "duration": 0.5, "velocity": 73 },
                { "note": 59, "start": 82.5, "duration": 0.5, "velocity": 64 },
                { "note": 57, "start": 83, "duration": 1, "velocity": 57 },
                { "note": 60, "start": 83, "duration": 1, "velocity": 71 },
                { "note": 47, "start": 84, "duration": 0.5, "velocity": 69 },
                { "note": 55, "start": 84.5, "duration": 0.5, "velocity": 64 },
                { "note": 59, "start": 85, "duration": 0.5, "velocity": 65 },
                { "note": 60, "start": 85.5, "duration": 0.5, "velocity": 64 },
                { "note": 59, "start": 86, "duration": 1, "velocity": 59 },
                { "note": 62, "start": 86, "duration": 1, "velocity": 73 },
                { "note": 57, "start": 87, "duration": 0.5, "velocity": 57 },
                { "note": 60, "start": 87, "duration": 0.5, "velocity": 71 },
                { "note": 59, "start": 87.5, "duration": 0.5, "velocity": 64 },
                { "note": 40, "start": 88, "duration": 0.5, "velocity": 68 },
                { "note": 47, "start": 88.5, "duration": 0.5, "velocity": 64 },
                { "note": 52, "start": 89, "duration": 0.5, "velocity": 65 },
                { "note": 54, "start": 89.5, "duration": 0.5, "velocity": 64 },
                { "note": 52, "start": 90, "duration": 0.5, "velocity": 59 },
                { "note": 55, "start": 90, "duration": 0.5, "velocity": 73 },
                { "note": 57, "start": 90.5, "duration": 0.5, "velocity": 64 },
                { "note": 55, "start": 91, "duration": 1, "velocity": 57 },
                { "note": 59, "start": 91, "duration": 1, "velocity": 71 },
                { "note": 45, "start": 92, "duration": 0.5, "velocity": 69 },
                { "note": 52, "start": 92.5, "duration": 0.5, "velocity": 64 },
                { "note": 57, "start": 93, "duration": 0.5, "velocity": 57 },
                { "note": 60, "start": 93, "duration": 0.5, "velocity": 71 },
                { "note": 59, "start": 93.5, "duration": 0.5, "velocity": 64 },
                { "note": 43, "start": 94, "duration": 0.5, "velocity": 67 },
                { "note": 50, "start": 94.5, "duration": 0.5, "velocity": 64 },
                { "note": 55, "start": 95, "duration": 0.5, "velocity": 57 },
                { "note": 59, "start": 95, "duration": 0.5, "velocity": 71 },
                { "note": 57, "start": 95.5, "duration": 0.5, "velocity": 64 },
                { "note": 38, "start": 96, "duration": 0.5, "velocity": 68 },
                { "note": 45, "start": 96.5, "duration": 0.5, "velocity": 64 },
                { "note": 50, "start": 97, "duration": 0.5, "velocity": 65 },
                { "note": 52, "start": 97.5, "duration": 0.5, "velocity": 64 },
                { "note": 50, "start": 98, "duration": 1, "velocity": 59 },
                { "note": 53, "start": 98, "duration": 1, "velocity": 73 },
                { "note": 53, "start": 99, "duration": 0.5, "velocity": 57 },
                { "note": 57, "start": 99, "duration": 0.5, "velocity": 71 },
                { "note": 55, "start": 99.5, "duration": 0.5, "velocity": 64 },
                { "note": 40, "start": 100, "duration": 0.5, "velocity": 68 },
                { "note": 47, "start": 100.5, "duration": 0.5, "velocity": 64 },
                { "note": 52, "start": 101, "duration": 0.5, "velocity": 65 },
                { "note": 54, "start": 101.5, "duration": 0.5, "velocity": 64 },
                { "note": 52, "start": 102, "duration": 1, "velocity": 59 },
                { "note": 55, "start": 102, "duration": 1, "velocity": 73 },
                { "note": 55, "start": 103, "duration": 0.5, "velocity": 57 },
                { "note": 59, "start": 103, "duration": 0.5, "velocity": 71 },
                { "note": 57, "start": 103.5, "duration": 0.5, "velocity": 64 },
                { "note": 41, "start": 104, "duration": 0.5, "velocity": 69 },
                { "note": 48, "start": 104.5, "duration": 0.5, "velocity": 64 },
                { "note": 53, "start": 105, "duration": 0.5, "velocity": 65 },
                { "note": 55, "start": 105.5, "duration": 0.5, "velocity": 64 },
                { "note": 53, "start": 106, "duration": 1, "velocity": 59 },
                { "note": 57, "start": 106, "duration": 1, "velocity": 73 },
                { "note": 55, "start": 107, "duration": 1, "velocity": 57 },
                { "note": 59, "start": 107, "duration": 1, "velocity": 71 },
                { "note": 43, "start": 108, "duration": 0.5, "velocity": 69 },
                { "note": 50, "start": 108.5, "duration": 0.5, "velocity": 64 },
                { "note": 55, "start": 109, "duration": 0.5, "velocity": 65 },
                { "note": 57, "start": 109.5, "duration": 0.5, "velocity": 64 },
                { "note": 48, "start": 110, "duration": 0.5, "velocity": 58 },
                { "note": 55, "start": 110, "duration": 0.5, "velocity": 58 },
                { "note": 59, "start": 110, "duration": 0.5, "velocity": 72 },
                { "note": 52, "start": 110.5, "duration": 0.5, "velocity": 63 },
                { "note": 57, "start": 110.5, "duration": 0.5, "velocity": 63 },
                { "note": 60, "start": 110.5, "duration": 0.5, "velocity": 77 },
                { "note": 55, "start": 111, "duration": 0.5, "velocity": 67 },
                { "note": 59, "start": 111, "duration": 0.5, "velocity": 67 },
                { "note": 62, "start": 111, "duration": 0.5, "velocity": 81 },
                { "note": 55, "start": 111.5, "duration": 0.5, "velocity": 72 },
                { "note": 60, "start": 111.5, "duration": 0.5, "velocity": 72 },
                { "note": 64, "start": 111.5, "duration": 0.5, "velocity": 86 },
                { "note": 45, "start": 112, "duration": 1, "velocity": 81 },
                { "note": 57, "start": 112, "duration": 1, "velocity": 95 },
                { "note": 52, "start": 113, "duration": 0.5, "velocity": 77 },
                { "note": 57, "start": 113, "duration": 0.5, "velocity": 77 },
                { "note": 60, "start": 113, "duration": 0.5, "velocity": 91 },
                { "note": 45, "start": 113.5, "duration": 0.25, "velocity": 84 },
                { "note": 45, "start": 113.75, "duration": 0.25, "velocity": 84 },
                { "note": 45, "start": 114.25, "duration": 0.25, "velocity": 84 },
                { "note": 45, "start": 114.5, "duration": 0.5, "velocity": 84 },
                { "note": 52, "start": 115, "duration": 0.5, "velocity": 77 },
                { "note": 57, "start": 115, "duration": 0.5, "velocity": 77 },
                { "note": 60, "start": 115, "duration": 0.5, "velocity": 91 },
                { "note": 45, "start": 115.5, "duration": 0.5, "velocity": 84 },
                { "note": 45, "start": 116, "duration": 1, "velocity": 89 },
                { "note": 52, "start": 117, "duration": 0.5, "velocity": 77 },
                { "note": 57, "start": 117, "duration": 0.5, "velocity": 77 },
                { "note": 60, "start": 117, "duration": 0.5, "velocity": 91 },
                { "note": 45, "start": 117.5, "duration": 0.25, "velocity": 84 },
                { "note": 45, "start": 117.75, "duration": 0.25, "velocity": 84 },
                { "note": 45, "start": 118.25, "duration": 0.25, "velocity": 84 },
                { "note": 45, "start": 118.5, "duration": 0.5, "velocity": 84 },
                { "note": 52, "start": 119, "duration": 0.5, "velocity": 77 },
                { "note": 57, "start": 119, "duration": 0.5, "velocity": 77 },
                { "note": 60, "start": 119, "duration": 0.5, "velocity": 91 },
                { "note": 45, "start": 119.5, "duration": 0.5, "velocity": 84 },
                { "note": 36, "start": 120, "duration": 1, "velocity": 87 },
                { "note": 52, "start": 121, "duration": 0.5, "velocity": 77 },
                { "note": 55, "start": 121, "duration": 0.5, "velocity": 77 },
                { "note": 60, "start": 121, "duration": 0.5, "velocity": 91 },
                { "note": 36, "start": 121.5, "duration": 0.25, "velocity": 82 },
                { "note": 36, "start": 121.75, "duration": 0.25, "velocity": 82 },
                { "note": 36, "start": 122.25, "duration": 0.25, "velocity": 82 },
                { "note": 36, "start": 122.5, "duration": 0.5, "velocity": 82 },
                { "note": 52, "start": 123, "duration": 0.5, "velocity": 77 },
                { "note": 55, "start": 123, "duration": 0.5, "velocity": 77 },
                { "note": 60, "start": 123, "duration": 0.5, "velocity": 91 },
                { "note": 36, "start": 123.5, "duration": 0.5, "velocity": 82 },
                { "note": 36, "start": 124, "duration": 1, "velocity": 87 },
                { "note": 52, "start": 125, "duration": 0.5, "velocity": 77 },
                { "note": 55, "start": 125, "duration": 0.5, "velocity": 77 },
                { "note": 60, "start": 125, "duration": 0.5, "velocity": 91 },
                { "note": 36, "start": 125.5, "duration": 0.25, "velocity": 82 },
                { "note": 36, "start": 125.75, "duration": 0.25, "velocity": 82 },
                { "note": 36, "start": 126.25, "duration": 0.25, "velocity": 82 },
                { "note": 36, "start": 126.5, "duration": 0.5, "velocity": 82 },
                { "note": 52, "start": 127, "duration": 0.5, "velocity": 77 },
                { "note": 55, "start": 127, "duration": 0.5, "velocity": 77 },
                { "note": 60, "start": 127, "duration": 0.5, "velocity": 91 },
                { "note": 36, "start": 127.5, "duration": 0.5, "velocity": 82 },
                { "note": 45, "start": 128, "duration": 1, "velocity": 89 },
                { "note": 52, "start": 129, "duration": 0.5, "velocity": 77 },
                { "note": 57, "start": 129, "duration": 0.5, "velocity": 77 },
                { "note": 60, "start": 129, "duration": 0.5, "velocity": 91 },
                { "note": 45, "start": 129.5, "duration": 0.25, "velocity": 84 },
                { "note": 45, "start": 129.75, "duration": 0.25, "velocity": 84 },
                { "note": 45, "start": 130.25, "duration": 0.25, "velocity": 84 },
                { "note": 45, "start": 130.5, "duration": 0.5, "velocity": 84 },
                { "note": 52, "start": 131, "duration": 0.5, "velocity": 77 },
                { "note": 57, "start": 131, "duration": 0.5, "velocity": 77 },
                { "note": 60, "start": 131, "duration": 0.5, "velocity": 91 },
                { "note": 45, "start": 131.5, "duration": 0.5, "velocity": 84 },
                { "note": 45, "start": 132, "duration": 1, "velocity": 89 },
                { "note": 52, "start": 133, "duration": 0.5, "velocity": 77 },
                { "note": 57, "start": 133, "duration": 0.5, "velocity": 77 },
                { "note": 60, "start": 133, "duration": 0.5, "velocity": 91 },
                { "note": 45, "start": 133.5, "duration": 0.25, "velocity": 84 },
                { "note": 45, "start": 133.75, "duration": 0.25, "velocity": 84 },
                { "note": 45, "start": 134.25, "duration": 0.25, "velocity": 84 },
                { "note": 45, "start": 134.5, "duration": 0.5, "velocity": 84 },
                { "note": 52, "start": 135, "duration": 0.5, "velocity": 77 },
                { "note": 57, "start": 135, "duration": 0.5, "velocity": 77 },
                { "note": 60, "start": 135, "duration": 0.5, "velocity": 91 },
                { "note": 45, "start": 135.5, "duration": 0.5, "velocity": 84 },
                { "note": 36, "start": 136, "duration": 1, "velocity": 87 },
                { "note": 52, "start": 137, "duration": 0.5, "velocity": 77 },
                { "note": 55, "start": 137, "duration": 0.5, "velocity": 77 },
                { "note": 60, "start": 137, "duration": 0.5, "velocity": 91 },
                { "note": 36, "start": 137.5, "duration": 0.25, "velocity": 82 },
                { "note": 36, "start": 137.75, "duration": 0.25, "velocity": 82 },
                { "note": 36, "start": 138.25, "duration": 0.25, "velocity": 82 },
                { "note": 36, "start": 138.5, "duration": 0.5, "velocity": 82 },
                { "note": 52, "start": 139, "duration": 0.5, "velocity": 77 },
                { "note": 55, "start": 139, "duration": 0.5, "velocity": 77 },
                { "note": 60, "start": 139, "duration": 0.5, "velocity": 91 },
                { "note": 36, "start": 139.5, "duration": 0.5, "velocity": 82 },
                { "note": 36, "start": 140, "duration": 1, "velocity": 87 },
                { "note": 52, "start": 141, "duration": 0.5, "velocity": 77 },
                { "note": 55, "start": 141, "duration": 0.5, "velocity": 77 },
                { "note": 60, "start": 141, "duration": 0.5, "velocity": 91 },
                { "note": 36, "start": 141.5, "duration": 0.25, "velocity": 82 },
                { "note": 36, "start": 141.75, "duration": 0.25, "velocity": 82 },
                { "note": 36, "start": 142.25, "duration": 0.25, "velocity": 82 },
                { "note": 36, "start": 142.5, "duration": 0.5, "velocity": 82 },
                { "note": 52, "start": 143, "duration": 0.5, "velocity": 77 },
                { "note": 55, "start": 143, "duration": 0.5, "velocity": 77 },
                { "note": 60, "start": 143, "duration": 0.5, "velocity": 91 },
                { "note": 36, "start": 143.5, "duration": 0.5, "velocity": 82 },
                { "note": 41, "start": 144, "duration": 1, "velocity": 89 },
                { "note": 53, "start": 145, "duration": 0.5, "velocity": 77 },
                { "note": 57, "start": 145, "duration": 0.5, "velocity": 77 },
                { "note": 60, "start": 145, "duration": 0.5, "velocity": 91 },
                { "note": 41, "start": 145.5, "duration": 0.25, "velocity": 84 },
                { "note": 41, "start": 145.75, "duration": 0.25, "velocity": 84 },
                { "note": 41, "start": 146.25, "duration": 0.25, "velocity": 84 },
                { "note": 41, "start": 146.5, "duration": 0.5, "velocity": 84 },
                { "note": 53, "start": 147, "duration": 0.5, "velocity": 77 },
                { "note": 57, "start": 147, "duration": 0.5, "velocity": 77 },
                { "note": 60, "start": 147, "duration": 0.5, "velocity": 91 },
                { "note": 41, "start": 147.5, "duration": 0.5, "velocity": 84 },
                { "note": 47, "start": 148, "duration": 1, "velocity": 89 },
                { "note": 55, "start": 149, "duration": 0.5, "velocity": 77 },
                { "note": 59, "start": 149, "duration": 0.5, "velocity": 77 },
                { "note": 62, "start": 149, "duration": 0.5, "velocity": 91 },
                { "note": 47, "start": 149.5, "duration": 0.25, "velocity": 84 },
                { "note": 47, "start": 149.75, "duration": 0.25, "velocity": 84 },
                { "note": 47, "start": 150.25, "duration": 0.25, "velocity": 84 },
                { "note": 47, "start": 150.5, "duration": 0.5, "velocity": 84 },
                { "note": 55, "start": 151, "duration": 0.5, "velocity": 77 },
                { "note": 59, "start": 151, "duration": 0.5, "velocity": 77 },
                { "note": 62, "start": 151, "duration": 0.5, "velocity": 91 },
                { "note": 47, "start": 151.5, "duration": 0.5, "velocity": 84 },
                { "note": 40, "start": 152, "duration": 1, "velocity": 88 },
                { "note": 52, "start": 153, "duration": 0.5, "velocity": 77 },
                { "note": 55, "start": 153, "duration": 0.5, "velocity": 77 },
                { "note": 59, "start": 153, "duration": 0.5, "velocity": 91 },
                { "note": 40, "start": 153.5, "duration": 0.25, "velocity": 83 },
                { "note": 40, "start": 153.75, "duration": 0.25, "velocity": 83 },
                { "note": 40, "start": 154.25, "duration": 0.25, "velocity": 83 },
                { "note": 40, "start": 154.5, "duration": 0.5, "velocity": 83 },
                { "note": 52, "start": 155, "duration": 0.5, "velocity": 77 },
                { "note": 55, "start": 155, "duration": 0.5, "velocity": 77 },
                { "note": 59, "start": 155, "duration": 0.5, "velocity": 91 },
                { "note": 40, "start": 155.5, "duration": 0.5, "velocity": 83 },
                { "note": 45, "start": 156, "duration": 1, "velocity": 89 },
                { "note": 52, "start": 157, "duration": 0.5, "velocity": 77 },
                { "note": 57, "start": 157, "duration": 0.5, "velocity": 77 },
                { "note": 60, "start": 157, "duration": 0.5, "velocity": 91 },
                { "note": 45, "start": 157.5, "duration": 0.25, "velocity": 84 },
                { "note": 45, "start": 157.75, "duration": 0.25, "velocity": 84 },
                { "note": 43, "start": 158, "duration": 1, "velocity": 87 },
                { "note": 50, "start": 159, "duration": 0.5, "velocity": 77 },
                { "note": 55, "start": 159, "duration": 0.5, "velocity": 77 },
                { "note": 59, "start": 159, "duration": 0.5, "velocity": 91 },
                { "note": 43, "start": 159.5, "duration": 0.25, "velocity": 84 },
                { "note": 43, "start": 159.75, "duration": 0.25, "velocity": 84 },
                { "note": 41, "start": 160, "duration": 1, "velocity": 89 },
                { "note": 53, "start": 161, "duration": 0.5, "velocity": 77 },
                { "note": 57, "start": 161, "duration": 0.5, "velocity": 77 },
                { "note": 60, "start": 161, "duration": 0.5, "velocity": 91 },
                { "note": 41, "start": 161.5, "duration": 0.25, "velocity": 84 },
                { "note": 41, "start": 161.75, "duration": 0.25, "velocity": 84 },
                { "note": 41, "start": 162.25, "duration": 0.25, "velocity": 84 },
                { "note": 41, "start": 162.5, "duration": 0.5, "velocity": 84 },
                { "note": 53, "start": 163, "duration": 0.5, "velocity": 77 },
                { "note": 57, "start": 163, "duration": 0.5, "velocity": 77 },
                { "note": 60, "start": 163, "duration": 0.5, "velocity": 91 },
                { "note": 41, "start": 163.5, "duration": 0.5, "velocity": 84 },
                { "note": 47, "start": 164, "duration": 1, "velocity": 89 },
                { "note": 55, "start": 165, "duration": 0.5, "velocity": 77 },
                { "note": 59, "start": 165, "duration": 0.5, "velocity": 77 },
                { "note": 62, "start": 165, "duration": 0.5, "velocity": 91 },
                { "note": 47, "start": 165.5, "duration": 0.25, "velocity": 84 },
                { "note": 47, "start": 165.75, "duration": 0.25, "velocity": 84 },
                { "note": 47, "start": 166.25, "duration": 0.25, "velocity": 84 },
                { "note": 47, "start": 166.5, "duration": 0.5, "velocity": 84 },
                { "note": 55, "start": 167, "duration": 0.5, "velocity": 77 },
                { "note": 59, "start": 167, "duration": 0.5, "velocity": 77 },
                { "note": 62, "start": 167, "duration": 0.5, "velocity": 91 },
                { "note": 47, "start": 167.5, "duration": 0.5, "velocity": 84 },
                { "note": 40, "start": 168, "duration": 1, "velocity": 88 },
                { "note": 52, "start": 169, "duration": 0.5, "velocity": 77 },
                { "note": 55, "start": 169, "duration": 0.5, "velocity": 77 },
                { "note": 59, "start": 169, "duration": 0.5, "velocity": 91 },
                { "note": 40, "start": 169.5, "duration": 0.25, "velocity": 83 },
                { "note": 40, "start": 169.75, "duration": 0.25, "velocity": 83 },
                { "note": 40, "start": 170.25, "duration": 0.25, "velocity": 83 },
                { "note": 40, "start": 170.5, "duration": 0.5, "velocity": 83 },
                { "note": 52, "start": 171, "duration": 0.5, "velocity": 77 },
                { "note": 55, "start": 171, "duration": 0.5, "velocity": 77 },
                { "note": 59, "start": 171, "duration": 0.5, "velocity": 91 },
                { "note": 40, "start": 171.5, "duration": 0.5, "velocity": 83 },
                { "note": 45, "start": 172, "duration": 1, "velocity": 89 },
                { "note": 52, "start": 173, "duration": 0.5, "velocity": 77 },
                { "note": 57, "start": 173, "duration": 0.5, "velocity": 77 },
                { "note": 60, "start": 173, "duration": 0.5, "velocity": 91 },
                { "note": 45, "start": 173.5, "duration": 0.25, "velocity": 84 },
                { "note": 45, "start": 173.75, "duration": 0.25, "velocity": 84 },
                { "note": 43, "start": 174, "duration": 1, "velocity": 87 },
                { "note": 50, "start": 175, "duration": 0.5, "velocity": 77 },
                { "note": 55, "start": 175, "duration": 0.5, "velocity": 77 },
                { "note": 59, "start": 175, "duration": 0.5, "velocity": 91 },
                { "note": 43, "start": 175.5, "duration": 0.25, "velocity": 84 },
                { "note": 43, "start": 175.75, "duration": 0.25, "velocity": 84 },
                { "note": 38, "start": 176, "duration": 1, "velocity": 88 },
                { "note": 50, "start": 177, "duration": 0.5, "velocity": 77 },
                { "note": 53, "start": 177, "duration": 0.5, "velocity": 77 },
                { "note": 57, "start": 177, "duration": 0.5, "velocity": 91 },
                { "note": 38, "start": 177.5, "duration": 0.25, "velocity": 83 },
                { "note": 38, "start": 177.75, "duration": 0.25, "velocity": 83 },
                { "note": 38, "start": 178.25, "duration": 0.25, "velocity": 83 },
                { "note": 38, "start": 178.5, "duration": 0.5, "velocity": 83 },
                { "note": 50, "start": 179, "duration": 0.5, "velocity": 77 },
                { "note": 53, "start": 179, "duration": 0.5, "velocity": 77 },
                { "note": 57, "start": 179, "duration": 0.5, "velocity": 91 },
                { "note": 38, "start": 179.5, "duration": 0.5, "velocity": 83 },
                { "note": 40, "start": 180, "duration": 1, "velocity": 88 },
                { "note": 52, "start": 181, "duration": 0.5, "velocity": 77 },
                { "note": 55, "start": 181, "duration": 0.5, "velocity": 77 },
                { "note": 59, "start": 181, "duration": 0.5, "velocity": 91 },
                { "note": 40, "start": 181.5, "duration": 0.25, "velocity": 83 },
                { "note": 40, "start": 181.75, "duration": 0.25, "velocity": 83 },
                { "note": 40, "start": 182.25, "duration": 0.25, "velocity": 83 },
                { "note": 40, "start": 182.5, "duration": 0.5, "velocity": 83 },
                { "note": 52, "start": 183, "duration": 0.5, "velocity": 77 },
                { "note": 55, "start": 183, "duration": 0.5, "velocity": 77 },
                { "note": 59, "start": 183, "duration": 0.5, "velocity": 91 },
                { "note": 40, "start": 183.5, "duration": 0.5, "velocity": 83 },
                { "note": 41, "start": 184, "duration": 1, "velocity": 89 },
                { "note": 53, "start": 185, "duration": 0.5, "velocity": 77 },
                { "note": 57, "start": 185, "duration": 0.5, "velocity": 77 },
                { "note": 60, "start": 185, "duration": 0.5, "velocity": 91 },
                { "note": 41, "start": 185.5, "duration": 0.25, "velocity": 84 },
                { "note": 41, "start": 185.75, "duration": 0.25, "velocity": 84 },
                { "note": 41, "start": 186.25, "duration": 0.25, "velocity": 84 },
                { "note": 41, "start": 186.5, "duration": 0.5, "velocity": 84 },
                { "note": 53, "start": 187, "duration": 0.5, "velocity": 77 },
                { "note": 57, "start": 187, "duration": 0.5, "velocity": 77 },
                { "note": 60, "start": 187, "duration": 0.5, "velocity": 91 },
                { "note": 41, "start": 187.5, "duration": 0.5, "velocity": 84 },
                { "note": 43, "start": 188, "duration": 1, "velocity": 89 },
                { "note": 55, "start": 189, "duration": 0.5, "velocity": 77 },
                { "note": 59, "start": 189, "duration": 0.5, "velocity": 77 },
                { "note": 62, "start": 189, "duration": 0.5, "velocity": 91 },
                { "note": 43, "start": 189.5, "duration": 0.25, "velocity": 84 },
                { "note": 43, "start": 189.75, "duration": 0.25, "velocity": 84 },
                { "note": 43, "start": 190.25, "duration": 0.25, "velocity": 84 },
                { "note": 43, "start": 190.5, "duration": 0.5, "velocity": 84 },
                { "note": 55, "start": 191, "duration": 0.5, "velocity": 77 },
                { "note": 59, "start": 191, "duration": 0.5, "velocity": 77 },
                { "note": 62, "start": 191, "duration": 0.5, "velocity": 91 },
                { "note": 43, "start": 191.5, "duration": 0.5, "velocity": 84 },
                { "note": 50, "start": 192, "duration": 4, "velocity": 76 },
                { "note": 53, "start": 192, "duration": 4, "velocity": 76 },
                { "note": 57, "start": 192, "duration": 4, "velocity": 90 },
                { "note": 38, "start": 193, "duration": 3, "velocity": 64 },
                { "note": 52, "start": 196, "duration": 4, "velocity": 76 },
                { "note": 55, "start": 196, "duration": 4, "velocity": 76 },
                { "note": 59, "start": 196, "duration": 4, "velocity": 90 },
                { "note": 40, "start": 197, "duration": 3, "velocity": 64 },
                { "note": 53, "start": 200, "duration": 4, "velocity": 76 },
                { "note": 57, "start": 200, "duration": 4, "velocity": 76 },
                { "note": 60, "start": 200, "duration": 4, "velocity": 90 },
                { "note": 41, "start": 201, "duration": 3, "velocity": 64 },
                { "note": 53, "start": 204, "duration": 2, "velocity": 81 },
                { "note": 57, "start": 204, "duration": 2, "velocity": 81 },
                { "note": 60, "start": 204, "duration": 2, "velocity": 95 },
                { "note": 41, "start": 205, "duration": 1, "velocity": 64 },
                { "note": 55, "start": 206, "duration": 2, "velocity": 59 },
                { "note": 59, "start": 206, "duration": 2, "velocity": 59 },
                { "note": 62, "start": 206, "duration": 2, "velocity": 73 },
                { "note": 43, "start": 207, "duration": 1, "velocity": 64 },
                { "note": 64, "start": 208, "duration": 7, "velocity": 56 },
                { "note": 67, "start": 208, "duration": 7, "velocity": 56 },
                { "note": 69, "start": 208, "duration": 7, "velocity": 56 },
                { "note": 72, "start": 208, "duration": 7, "velocity": 70 },
                { "note": 71, "start": 215, "duration": 1, "velocity": 65 },
                { "note": 72, "start": 216, "duration": 0.5, "velocity": 69 },
                { "note": 74, "start": 216.5, "duration": 0.5, "velocity": 64 },
                { "note": 67, "start": 217, "duration": 6, "velocity": 56 },
                { "note": 71, "start": 217, "duration": 6, "velocity": 56 },
                { "note": 72, "start": 217, "duration": 6, "velocity": 56 },
                { "note": 76, "start": 217, "duration": 6, "velocity": 66 },
                { "note": 57, "start": 223, "duration": 0.5, "velocity": 65 },
                { "note": 59, "start": 223.5, "duration": 0.5, "velocity": 64 },
                { "note": 52, "start": 224, "duration": 7, "velocity": 56 },
                { "note": 55, "start": 224, "duration": 7, "velocity": 56 },
                { "note": 57, "start": 224, "duration": 7, "velocity": 56 },
                { "note": 60, "start": 224, "duration": 7, "velocity": 66 },
                { "note": 45, "start": 225, "duration": 5, "velocity": 64 },
                { "note": 45, "start": 230, "duration": 2, "velocity": 64 },
                { "note": 60, "start": 231, "duration": 0.5, "velocity": 65 },
                { "note": 62, "start": 231.5, "duration": 0.5, "velocity": 64 },
                { "note": 55, "start": 232, "duration": 8, "velocity": 56 },
                { "note": 59, "start": 232, "duration": 8, "velocity": 56 },
                { "note": 60, "start": 232, "duration": 8, "velocity": 56 },
                { "note": 64, "start": 232, "duration": 8, "velocity": 66 },
                { "note": 36, "start": 233, "duration": 5, "velocity": 64 },
                { "note": 48, "start": 238, "duration": 1, "velocity": 64 },
                { "note": 38, "start": 239, "duration": 0.5, "velocity": 64 },
                { "note": 40, "start": 239.5, "duration": 0.5, "velocity": 64 },
                { "note": 41, "start": 240, "duration": 0.5, "velocity": 69 },
                { "note": 48, "start": 240.5, "duration": 0.5, "velocity": 64 },
                { "note": 53, "start": 241, "duration": 0.5, "velocity": 65 },
                { "note": 55, "start": 241.5, "duration": 0.5, "velocity": 64 },
                { "note": 53, "start": 242, "duration": 1, "velocity": 59 },
                { "note": 57, "start": 242, "duration": 1, "velocity": 73 },
                { "note": 55, "start": 243, "duration": 1, "velocity": 57 },
                { "note": 59, "start": 243, "duration": 1, "velocity": 71 },
                { "note": 47, "start": 244, "duration": 0.5, "velocity": 69 },
                { "note": 55, "start": 244.5, "duration": 0.5, "velocity": 64 },
                { "note": 59, "start": 245, "duration": 0.5, "velocity": 65 },
                { "note": 60, "start": 245.5, "duration": 0.5, "velocity": 64 },
                { "note": 59, "start": 246, "duration": 1, "velocity": 59 },
                { "note": 62, "start": 246, "duration": 1, "velocity": 73 },
                { "note": 57, "start": 247, "duration": 0.5, "velocity": 57 },
                { "note": 60, "start": 247, "duration": 0.5, "velocity": 71 },
                { "note": 59, "start": 247.5, "duration": 0.5, "velocity": 64 },
                { "note": 40, "start": 248, "duration": 0.5, "velocity": 68 },
                { "note": 47, "start": 248.5, "duration": 0.5, "velocity": 64 },
                { "note": 52, "start": 249, "duration": 0.5, "velocity": 65 },
                { "note": 54, "start": 249.5, "duration": 0.5, "velocity": 64 },
                { "note": 52, "start": 250, "duration": 0.5, "velocity": 59 },
                { "note": 55, "start": 250, "duration": 0.5, "velocity": 73 },
                { "note": 60, "start": 250.5, "duration": 0.5, "velocity": 64 },
                { "note": 55, "start": 251, "duration": 0.5, "velocity": 57 },
                { "note": 59, "start": 251, "duration": 0.5, "velocity": 71 },
                { "note": 60, "start": 251.5, "duration": 0.5, "velocity": 64 },
                { "note": 45, "start": 252, "duration": 0.5, "velocity": 69 },
                { "note": 52, "start": 252.5, "duration": 0.5, "velocity": 64 },
                { "note": 57, "start": 253, "duration": 0.5, "velocity": 57 },
                { "note": 60, "start": 253, "duration": 0.5, "velocity": 71 },
                { "note": 59, "start": 253.5, "duration": 0.5, "velocity": 64 },
                { "note": 43, "start": 254, "duration": 0.5, "velocity": 67 },
                { "note": 50, "start": 254.5, "duration": 0.5, "velocity": 56 },
                { "note": 60, "start": 254.5, "duration": 0.5, "velocity": 70 },
                { "note": 55, "start": 255, "duration": 0.5, "velocity": 57 },
                { "note": 59, "start": 255, "duration": 0.5, "velocity": 71 },
                { "note": 53, "start": 255.5, "duration": 0.5, "velocity": 56 },
                { "note": 57, "start": 255.5, "duration": 0.5, "velocity": 70 },
                { "note": 41, "start": 256, "duration": 0.5, "velocity": 69 },
                { "note": 48, "start": 256.5, "duration": 0.5, "velocity": 64 },
                { "note": 53, "start": 257, "duration": 0.5, "velocity": 65 },
                { "note": 55, "start": 257.5, "duration": 0.5, "velocity": 64 },
                { "note": 53, "start": 258, "duration": 2, "velocity": 59 },
                { "note": 57, "start": 258, "duration": 2, "velocity": 73 },
                { "note": 48, "start": 258.5, "duration": 0.5, "velocity": 64 },
                { "note": 50, "start": 259, "duration": 0.5, "velocity": 64 },
                { "note": 48, "start": 259.5, "duration": 0.5, "velocity": 64 },
                { "note": 47, "start": 260, "duration": 0.5, "velocity": 69 },
                { "note": 55, "start": 260.5, "duration": 0.5, "velocity": 64 },
                { "note": 59, "start": 261, "duration": 0.5, "velocity": 65 },
                { "note": 60, "start": 261.5, "duration": 0.5, "velocity": 64 },
                { "note": 59, "start": 262, "duration": 1, "velocity": 59 },
                { "note": 62, "start": 262, "duration": 1, "velocity": 73 },
                { "note": 60, "start": 263, "duration": 0.5, "velocity": 57 },
                { "note": 64, "start": 263, "duration": 0.5, "velocity": 71 },
                { "note": 62, "start": 263.5, "duration": 0.5, "velocity": 64 },
                { "note": 40, "start": 264, "duration": 0.5, "velocity": 68 },
                { "note": 47, "start": 264.5, "duration": 0.5, "velocity": 64 },
                { "note": 52, "start": 265, "duration": 0.5, "velocity": 65 },
                { "note": 54, "start": 265.5, "duration": 0.5, "velocity": 64 },
                { "note": 52, "start": 266, "duration": 1, "velocity": 59 },
                { "note": 55, "start": 266, "duration": 1, "velocity": 73 },
                { "note": 48, "start": 267, "duration": 0.5, "velocity": 65 },
                { "note": 47, "start": 267.5, "duration": 0.5, "velocity": 64 },
                { "note": 45, "start": 268, "duration": 0.5, "velocity": 69 },
                { "note": 52, "start": 268.5, "duration": 0.5, "velocity": 64 },
                { "note": 57, "start": 269, "duration": 1, "velocity": 57 },
                { "note": 60, "start": 269, "duration": 1, "velocity": 71 },
                { "note": 43, "start": 270, "duration": 0.5, "velocity": 67 },
                { "note": 50, "start": 270.5, "duration": 0.5, "velocity": 56 },
                { "note": 60, "start": 270.5, "duration": 0.5, "velocity": 70 },
                { "note": 55, "start": 271, "duration": 0.5, "velocity": 57 },
                { "note": 59, "start": 271, "duration": 0.5, "velocity": 71 },
                { "note": 53, "start": 271.5, "duration": 0.5, "velocity": 56 },
                { "note": 57, "start": 271.5, "duration": 0.5, "velocity": 70 },
                { "note": 41, "start": 272, "duration": 0.5, "velocity": 69 },
                { "note": 48, "start": 272.5, "duration": 0.5, "velocity": 64 },
                { "note": 53, "start": 273, "duration": 0.5, "velocity": 65 },
                { "note": 55, "start": 273.5, "duration": 0.5, "velocity": 64 },
                { "note": 53, "start": 274, "duration": 0.5, "velocity": 59 },
                { "note": 57, "start": 274, "duration": 0.5, "velocity": 73 },
                { "note": 59, "start": 274.5, "duration": 0.5, "velocity": 64 },
                { "note": 57, "start": 275, "duration": 1, "velocity": 57 },
                { "note": 60, "start": 275, "duration": 1, "velocity": 71 },
                { "note": 47, "start": 276, "duration": 0.5, "velocity": 69 },
                { "note": 55, "start": 276.5, "duration": 0.5, "velocity": 64 },
                { "note": 59, "start": 277, "duration": 0.5, "velocity": 65 },
                { "note": 60, "start": 277.5, "duration": 0.5, "velocity": 64 },
                { "note": 59, "start": 278, "duration": 1, "velocity": 59 },
                { "note": 62, "start": 278, "duration": 1, "velocity": 73 },
                { "note": 57, "start": 279, "duration": 0.5, "velocity": 57 },
                { "note": 60, "start": 279, "duration": 0.5, "velocity": 71 },
                { "note": 59, "start": 279.5, "duration": 0.5, "velocity": 64 },
                { "note": 40, "start": 280, "duration": 0.5, "velocity": 68 },
                { "note": 47, "start": 280.5, "duration": 0.5, "velocity": 64 },
                { "note": 52, "start": 281, "duration": 0.5, "velocity": 65 },
                { "note": 54, "start": 281.5, "duration": 0.5, "velocity": 64 },
                { "note": 52, "start": 282, "duration": 1, "velocity": 59 },
                { "note": 55, "start": 282, "duration": 1, "velocity": 73 },
                { "note": 55, "start": 283, "duration": 0.5, "velocity": 57 },
                { "note": 59, "start": 283, "duration": 0.5, "velocity": 71 },
                { "note": 60, "start": 283.5, "duration": 0.5, "velocity": 64 },
                { "note": 45, "start": 284, "duration": 0.5, "velocity": 69 },
                { "note": 52, "start": 284.5, "duration": 0.5, "velocity": 64 },
                { "note": 57, "start": 285, "duration": 0.5, "velocity": 57 },
                { "note": 60, "start": 285, "duration": 0.5, "velocity": 71 },
                { "note": 59, "start": 285.5, "duration": 0.5, "velocity": 64 },
                { "note": 43, "start": 286, "duration": 0.5, "velocity": 67 },
                { "note": 50, "start": 286.5, "duration": 0.5, "velocity": 64 },
                { "note": 55, "start": 287, "duration": 0.5, "velocity": 57 },
                { "note": 59, "start": 287, "duration": 0.5, "velocity": 71 },
                { "note": 57, "start": 287.5, "duration": 0.5, "velocity": 64 },
                { "note": 41, "start": 288, "duration": 0.5, "velocity": 69 },
                { "note": 48, "start": 288.5, "duration": 0.5, "velocity": 64 },
                { "note": 53, "start": 289, "duration": 0.5, "velocity": 65 },
                { "note": 55, "start": 289.5, "duration": 0.5, "velocity": 64 },
                { "note": 53, "start": 290, "duration": 0.5, "velocity": 59 },
                { "note": 57, "start": 290, "duration": 0.5, "velocity": 73 },
                { "note": 59, "start": 290.5, "duration": 0.5, "velocity": 64 },
                { "note": 57, "start": 291, "duration": 1, "velocity": 57 },
                { "note": 60, "start": 291, "duration": 1, "velocity": 71 },
                { "note": 47, "start": 292, "duration": 0.5, "velocity": 69 },
                { "note": 55, "start": 292.5, "duration": 0.5, "velocity": 64 },
                { "note": 59, "start": 293, "duration": 0.5, "velocity": 65 },
                { "note": 60, "start": 293.5, "duration": 0.5, "velocity": 64 },
                { "note": 59, "start": 294, "duration": 1, "velocity": 59 },
                { "note": 62, "start": 294, "duration": 1, "velocity": 73 },
                { "note": 57, "start": 295, "duration": 0.5, "velocity": 57 },
                { "note": 60, "start": 295, "duration": 0.5, "velocity": 71 },
                { "note": 59, "start": 295.5, "duration": 0.5, "velocity": 64 },
                { "note": 40, "start": 296, "duration": 0.5, "velocity": 68 },
                { "note": 47, "start": 296.5, "duration": 0.5, "velocity": 64 },
                { "note": 52, "start": 297, "duration": 0.5, "velocity": 65 },
                { "note": 54, "start": 297.5, "duration": 0.5, "velocity": 64 },
                { "note": 52, "start": 298, "duration": 0.5, "velocity": 59 },
                { "note": 55, "start": 298, "duration": 0.5, "velocity": 73 },
                { "note": 57, "start": 298.5, "duration": 0.5, "velocity": 64 },
                { "note": 55, "start": 299, "duration": 1, "velocity": 57 },
                { "note": 59, "start": 299, "duration": 1, "velocity": 71 },
                { "note": 45, "start": 300, "duration": 0.5, "velocity": 69 },
                { "note": 52, "start": 300.5, "duration": 0.5, "velocity": 64 },
                { "note": 57, "start": 301, "duration": 0.5, "velocity": 57 },
                { "note": 60, "start": 301, "duration": 0.5, "velocity": 71 },
                { "note": 59, "start": 301.5, "duration": 0.5, "velocity": 64 },
                { "note": 43, "start": 302, "duration": 0.5, "velocity": 67 },
                { "note": 50, "start": 302.5, "duration": 0.5, "velocity": 64 },
                { "note": 55, "start": 303, "duration": 0.5, "velocity": 57 },
                { "note": 59, "start": 303, "duration": 0.5, "velocity": 71 },
                { "note": 57, "start": 303.5, "duration": 0.5, "velocity": 64 },
                { "note": 38, "start": 304, "duration": 0.5, "velocity": 68 },
                { "note": 45, "start": 304.5, "duration": 0.5, "velocity": 64 },
                { "note": 50, "start": 305, "duration": 0.5, "velocity": 65 },
                { "note": 52, "start": 305.5, "duration": 0.5, "velocity": 64 },
                { "note": 50, "start": 306, "duration": 1, "velocity": 59 },
                { "note": 53, "start": 306, "duration": 1, "velocity": 73 },
                { "note": 53, "start": 307, "duration": 0.5, "velocity": 57 },
                { "note": 57, "start": 307, "duration": 0.5, "velocity": 71 },
                { "note": 55, "start": 307.5, "duration": 0.5, "velocity": 64 },
                { "note": 40, "start": 308, "duration": 0.5, "velocity": 68 },
                { "note": 47, "start": 308.5, "duration": 0.5, "velocity": 64 },
                { "note": 52, "start": 309, "duration": 0.5, "velocity": 65 },
                { "note": 54, "start": 309.5, "duration": 0.5, "velocity": 64 },
                { "note": 52, "start": 310, "duration": 1, "velocity": 59 },
                { "note": 55, "start": 310, "duration": 1, "velocity": 73 },
                { "note": 55, "start": 311, "duration": 0.5, "velocity": 57 },
                { "note": 59, "start": 311, "duration": 0.5, "velocity": 71 },
                { "note": 57, "start": 311.5, "duration": 0.5, "velocity": 64 },
                { "note": 41, "start": 312, "duration": 0.5, "velocity": 69 },
                { "note": 48, "start": 312.5, "duration": 0.5, "velocity": 64 },
                { "note": 53, "start": 313, "duration": 0.5, "velocity": 65 },
                { "note": 55, "start": 313.5, "duration": 0.5, "velocity": 64 },
                { "note": 53, "start": 314, "duration": 1, "velocity": 59 },
                { "note": 57, "start": 314, "duration": 1, "velocity": 73 },
                { "note": 55, "start": 315, "duration": 1, "velocity": 57 },
                { "note": 59, "start": 315, "duration": 1, "velocity": 71 },
                { "note": 43, "start": 316, "duration": 0.5, "velocity": 69 },
                { "note": 50, "start": 316.5, "duration": 0.5, "velocity": 64 },
                { "note": 55, "start": 317, "duration": 0.5, "velocity": 65 },
                { "note": 57, "start": 317.5, "duration": 0.5, "velocity": 64 },
                { "note": 48, "start": 318, "duration": 0.5, "velocity": 58 },
                { "note": 55, "start": 318, "duration": 0.5, "velocity": 58 },
                { "note": 59, "start": 318, "duration": 0.5, "velocity": 72 },
                { "note": 52, "start": 318.5, "duration": 0.5, "velocity": 63 },
                { "note": 57, "start": 318.5, "duration": 0.5, "velocity": 63 },
                { "note": 60, "start": 318.5, "duration": 0.5, "velocity": 77 },
                { "note": 55, "start": 319, "duration": 0.5, "velocity": 67 },
                { "note": 59, "start": 319, "duration": 0.5, "velocity": 67 },
                { "note": 62, "start": 319, "duration": 0.5, "velocity": 81 },
                { "note": 55, "start": 319.5, "duration": 0.5, "velocity": 72 },
                { "note": 60, "start": 319.5, "duration": 0.5, "velocity": 72 },
                { "note": 64, "start": 319.5, "duration": 0.5, "velocity": 86 },
                { "note": 45, "start": 320, "duration": 1, "velocity": 81 },
                { "note": 57, "start": 320, "duration": 1, "velocity": 95 },
                { "note": 52, "start": 321, "duration": 0.5, "velocity": 77 },
                { "note": 57, "start": 321, "duration": 0.5, "velocity": 77 },
                { "note": 60, "start": 321, "duration": 0.5, "velocity": 91 },
                { "note": 45, "start": 321.5, "duration": 0.25, "velocity": 84 },
                { "note": 45, "start": 321.75, "duration": 0.25, "velocity": 84 },
                { "note": 45, "start": 322.25, "duration": 0.25, "velocity": 84 },
                { "note": 45, "start": 322.5, "duration": 0.5, "velocity": 84 },
                { "note": 52, "start": 323, "duration": 0.5, "velocity": 77 },
                { "note": 57, "start": 323, "duration": 0.5, "velocity": 77 },
                { "note": 60, "start": 323, "duration": 0.5, "velocity": 91 },
                { "note": 45, "start": 323.5, "duration": 0.5, "velocity": 84 },
                { "note": 45, "start": 324, "duration": 1, "velocity": 89 },
                { "note": 52, "start": 325, "duration": 0.5, "velocity": 77 },
                { "note": 57, "start": 325, "duration": 0.5, "velocity": 77 },
                { "note": 60, "start": 325, "duration": 0.5, "velocity": 91 },
                { "note": 45, "start": 325.5, "duration": 0.25, "velocity": 84 },
                { "note": 45, "start": 325.75, "duration": 0.25, "velocity": 84 },
                { "note": 45, "start": 326.25, "duration": 0.25, "velocity": 84 },
                { "note": 45, "start": 326.5, "duration": 0.5, "velocity": 84 },
                { "note": 52, "start": 327, "duration": 0.5, "velocity": 77 },
                { "note": 57, "start": 327, "duration": 0.5, "velocity": 77 },
                { "note": 60, "start": 327, "duration": 0.5, "velocity": 91 },
                { "note": 45, "start": 327.5, "duration": 0.5, "velocity": 84 },
                { "note": 36, "start": 328, "duration": 1, "velocity": 87 },
                { "note": 52, "start": 329, "duration": 0.5, "velocity": 77 },
                { "note": 55, "start": 329, "duration": 0.5, "velocity": 77 },
                { "note": 60, "start": 329, "duration": 0.5, "velocity": 91 },
                { "note": 36, "start": 329.5, "duration": 0.25, "velocity": 82 },
                { "note": 36, "start": 329.75, "duration": 0.25, "velocity": 82 },
                { "note": 36, "start": 330.25, "duration": 0.25, "velocity": 82 },
                { "note": 36, "start": 330.5, "duration": 0.5, "velocity": 82 },
                { "note": 52, "start": 331, "duration": 0.5, "velocity": 77 },
                { "note": 55, "start": 331, "duration": 0.5, "velocity": 77 },
                { "note": 60, "start": 331, "duration": 0.5, "velocity": 91 },
                { "note": 36, "start": 331.5, "duration": 0.5, "velocity": 82 },
                { "note": 36, "start": 332, "duration": 1, "velocity": 87 },
                { "note": 52, "start": 333, "duration": 0.5, "velocity": 77 },
                { "note": 55, "start": 333, "duration": 0.5, "velocity": 77 },
                { "note": 60, "start": 333, "duration": 0.5, "velocity": 91 },
                { "note": 36, "start": 333.5, "duration": 0.25, "velocity": 82 },
                { "note": 36, "start": 333.75, "duration": 0.25, "velocity": 82 },
                { "note": 36, "start": 334.25, "duration": 0.25, "velocity": 82 },
                { "note": 36, "start": 334.5, "duration": 0.5, "velocity": 82 },
                { "note": 52, "start": 335, "duration": 0.5, "velocity": 77 },
                { "note": 55, "start": 335, "duration": 0.5, "velocity": 77 },
                { "note": 60, "start": 335, "duration": 0.5, "velocity": 91 },
                { "note": 36, "start": 335.5, "duration": 0.5, "velocity": 82 },
                { "note": 45, "start": 336, "duration": 1, "velocity": 89 },
                { "note": 52, "start": 337, "duration": 0.5, "velocity": 77 },
                { "note": 57, "start": 337, "duration": 0.5, "velocity": 77 },
                { "note": 60, "start": 337, "duration": 0.5, "velocity": 91 },
                { "note": 45, "start": 337.5, "duration": 0.25, "velocity": 84 },
                { "note": 45, "start": 337.75, "duration": 0.25, "velocity": 84 },
                { "note": 45, "start": 338.25, "duration": 0.25, "velocity": 84 },
                { "note": 45, "start": 338.5, "duration": 0.5, "velocity": 84 },
                { "note": 52, "start": 339, "duration": 0.5, "velocity": 77 },
                { "note": 57, "start": 339, "duration": 0.5, "velocity": 77 },
                { "note": 60, "start": 339, "duration": 0.5, "velocity": 91 },
                { "note": 45, "start": 339.5, "duration": 0.5, "velocity": 84 },
                { "note": 45, "start": 340, "duration": 1, "velocity": 89 },
                { "note": 52, "start": 341, "duration": 0.5, "velocity": 77 },
                { "note": 57, "start": 341, "duration": 0.5, "velocity": 77 },
                { "note": 60, "start": 341, "duration": 0.5, "velocity": 91 },
                { "note": 45, "start": 341.5, "duration": 0.25, "velocity": 84 },
                { "note": 45, "start": 341.75, "duration": 0.25, "velocity": 84 },
                { "note": 45, "start": 342.25, "duration": 0.25, "velocity": 84 },
                { "note": 45, "start": 342.5, "duration": 0.5, "velocity": 84 },
                { "note": 52, "start": 343, "duration": 0.5, "velocity": 77 },
                { "note": 57, "start": 343, "duration": 0.5, "velocity": 77 },
                { "note": 60, "start": 343, "duration": 0.5, "velocity": 91 },
                { "note": 45, "start": 343.5, "duration": 0.5, "velocity": 84 },
                { "note": 36, "start": 344, "duration": 1, "velocity": 87 },
                { "note": 52, "start": 345, "duration": 0.5, "velocity": 77 },
                { "note": 55, "start": 345, "duration": 0.5, "velocity": 77 },
                { "note": 60, "start": 345, "duration": 0.5, "velocity": 91 },
                { "note": 36, "start": 345.5, "duration": 0.25, "velocity": 82 },
                { "note": 36, "start": 345.75, "duration": 0.25, "velocity": 82 },
                { "note": 36, "start": 346.25, "duration": 0.25, "velocity": 82 },
                { "note": 36, "start": 346.5, "duration": 0.5, "velocity": 82 },
                { "note": 52, "start": 347, "duration": 0.5, "velocity": 77 },
                { "note": 55, "start": 347, "duration": 0.5, "velocity": 77 },
                { "note": 60, "start": 347, "duration": 0.5, "velocity": 91 },
                { "note": 36, "start": 347.5, "duration": 0.5, "velocity": 82 },
                { "note": 36, "start": 348, "duration": 1, "velocity": 87 },
                { "note": 52, "start": 349, "duration": 0.5, "velocity": 77 },
                { "note": 55, "start": 349, "duration": 0.5, "velocity": 77 },
                { "note": 60, "start": 349, "duration": 0.5, "velocity": 91 },
                { "note": 36, "start": 349.5, "duration": 0.25, "velocity": 82 },
                { "note": 36, "start": 349.75, "duration": 0.25, "velocity": 82 },
                { "note": 36, "start": 350.25, "duration": 0.25, "velocity": 82 },
                { "note": 36, "start": 350.5, "duration": 0.5, "velocity": 82 },
                { "note": 52, "start": 351, "duration": 0.5, "velocity": 77 },
                { "note": 55, "start": 351, "duration": 0.5, "velocity": 77 },
                { "note": 60, "start": 351, "duration": 0.5, "velocity": 91 },
                { "note": 36, "start": 351.5, "duration": 0.5, "velocity": 82 },
                { "note": 41, "start": 352, "duration": 1, "velocity": 89 },
                { "note": 53, "start": 353, "duration": 0.5, "velocity": 77 },
                { "note": 57, "start": 353, "duration": 0.5, "velocity": 77 },
                { "note": 60, "start": 353, "duration": 0.5, "velocity": 91 },
                { "note": 41, "start": 353.5, "duration": 0.25, "velocity": 84 },
                { "note": 41, "start": 353.75, "duration": 0.25, "velocity": 84 },
                { "note": 41, "start": 354.25, "duration": 0.25, "velocity": 84 },
                { "note": 41, "start": 354.5, "duration": 0.5, "velocity": 84 },
                { "note": 53, "start": 355, "duration": 0.5, "velocity": 77 },
                { "note": 57, "start": 355, "duration": 0.5, "velocity": 77 },
                { "note": 60, "start": 355, "duration": 0.5, "velocity": 91 },
                { "note": 41, "start": 355.5, "duration": 0.5, "velocity": 84 },
                { "note": 47, "start": 356, "duration": 1, "velocity": 89 },
                { "note": 55, "start": 357, "duration": 0.5, "velocity": 77 },
                { "note": 59, "start": 357, "duration": 0.5, "velocity": 77 },
                { "note": 62, "start": 357, "duration": 0.5, "velocity": 91 },
                { "note": 47, "start": 357.5, "duration": 0.25, "velocity": 84 },
                { "note": 47, "start": 357.75, "duration": 0.25, "velocity": 84 },
                { "note": 47, "start": 358.25, "duration": 0.25, "velocity": 84 },
                { "note": 47, "start": 358.5, "duration": 0.5, "velocity": 84 },
                { "note": 55, "start": 359, "duration": 0.5, "velocity": 77 },
                { "note": 59, "start": 359, "duration": 0.5, "velocity": 77 },
                { "note": 62, "start": 359, "duration": 0.5, "velocity": 91 },
                { "note": 47, "start": 359.5, "duration": 0.5, "velocity": 84 },
                { "note": 40, "start": 360, "duration": 1, "velocity": 88 },
                { "note": 52, "start": 361, "duration": 0.5, "velocity": 77 },
                { "note": 55, "start": 361, "duration": 0.5, "velocity": 77 },
                { "note": 59, "start": 361, "duration": 0.5, "velocity": 91 },
                { "note": 40, "start": 361.5, "duration": 0.25, "velocity": 83 },
                { "note": 40, "start": 361.75, "duration": 0.25, "velocity": 83 },
                { "note": 40, "start": 362.25, "duration": 0.25, "velocity": 83 },
                { "note": 40, "start": 362.5, "duration": 0.5, "velocity": 83 },
                { "note": 52, "start": 363, "duration": 0.5, "velocity": 77 },
                { "note": 55, "start": 363, "duration": 0.5, "velocity": 77 },
                { "note": 59, "start": 363, "duration": 0.5, "velocity": 91 },
                { "note": 40, "start": 363.5, "duration": 0.5, "velocity": 83 },
                { "note": 45, "start": 364, "duration": 1, "velocity": 89 },
                { "note": 52, "start": 365, "duration": 0.5, "velocity": 77 },
                { "note": 57, "start": 365, "duration": 0.5, "velocity": 77 },
                { "note": 60, "start": 365, "duration": 0.5, "velocity": 91 },
                { "note": 45, "start": 365.5, "duration": 0.25, "velocity": 84 },
                { "note": 45, "start": 365.75, "duration": 0.25, "velocity": 84 },
                { "note": 43, "start": 366, "duration": 1, "velocity": 87 },
                { "note": 50, "start": 367, "duration": 0.5, "velocity": 77 },
                { "note": 55, "start": 367, "duration": 0.5, "velocity": 77 },
                { "note": 59, "start": 367, "duration": 0.5, "velocity": 91 },
                { "note": 43, "start": 367.5, "duration": 0.25, "velocity": 84 },
                { "note": 43, "start": 367.75, "duration": 0.25, "velocity": 84 },
                { "note": 41, "start": 368, "duration": 1, "velocity": 89 },
                { "note": 53, "start": 369, "duration": 0.5, "velocity": 77 },
                { "note": 57, "start": 369, "duration": 0.5, "velocity": 77 },
                { "note": 60, "start": 369, "duration": 0.5, "velocity": 91 },
                { "note": 41, "start": 369.5, "duration": 0.25, "velocity": 84 },
                { "note": 41, "start": 369.75, "duration": 0.25, "velocity": 84 },
                { "note": 41, "start": 370.25, "duration": 0.25, "velocity": 84 },
                { "note": 41, "start": 370.5, "duration": 0.5, "velocity": 84 },
                { "note": 53, "start": 371, "duration": 0.5, "velocity": 77 },
                { "note": 57, "start": 371, "duration": 0.5, "velocity": 77 },
                { "note": 60, "start": 371, "duration": 0.5, "velocity": 91 },
                { "note": 41, "start": 371.5, "duration": 0.5, "velocity": 84 },
                { "note": 47, "start": 372, "duration": 1, "velocity": 89 },
                { "note": 55, "start": 373, "duration": 0.5, "velocity": 77 },
                { "note": 59, "start": 373, "duration": 0.5, "velocity": 77 },
                { "note": 62, "start": 373, "duration": 0.5, "velocity": 91 },
                { "note": 47, "start": 373.5, "duration": 0.25, "velocity": 84 },
                { "note": 47, "start": 373.75, "duration": 0.25, "velocity": 84 },
                { "note": 47, "start": 374.25, "duration": 0.25, "velocity": 84 },
                { "note": 47, "start": 374.5, "duration": 0.5, "velocity": 84 },
                { "note": 55, "start": 375, "duration": 0.5, "velocity": 77 },
                { "note": 59, "start": 375, "duration": 0.5, "velocity": 77 },
                { "note": 62, "start": 375, "duration": 0.5, "velocity": 91 },
                { "note": 47, "start": 375.5, "duration": 0.5, "velocity": 84 },
                { "note": 40, "start": 376, "duration": 1, "velocity": 88 },
                { "note": 52, "start": 377, "duration": 0.5, "velocity": 77 },
                { "note": 55, "start": 377, "duration": 0.5, "velocity": 77 },
                { "note": 59, "start": 377, "duration": 0.5, "velocity": 91 },
                { "note": 40, "start": 377.5, "duration": 0.25, "velocity": 83 },
                { "note": 40, "start": 377.75, "duration": 0.25, "velocity": 83 },
                { "note": 40, "start": 378.25, "duration": 0.25, "velocity": 83 },
                { "note": 40, "start": 378.5, "duration": 0.5, "velocity": 83 },
                { "note": 52, "start": 379, "duration": 0.5, "velocity": 77 },
                { "note": 55, "start": 379, "duration": 0.5, "velocity": 77 },
                { "note": 59, "start": 379, "duration": 0.5, "velocity": 91 },
                { "note": 40, "start": 379.5, "duration": 0.5, "velocity": 83 },
                { "note": 45, "start": 380, "duration": 1, "velocity": 89 },
                { "note": 52, "start": 381, "duration": 0.5, "velocity": 77 },
                { "note": 57, "start": 381, "duration": 0.5, "velocity": 77 },
                { "note": 60, "start": 381, "duration": 0.5, "velocity": 91 },
                { "note": 45, "start": 381.5, "duration": 0.25, "velocity": 84 },
                { "note": 45, "start": 381.75, "duration": 0.25, "velocity": 84 },
                { "note": 43, "start": 382, "duration": 1, "velocity": 87 },
                { "note": 50, "start": 383, "duration": 0.5, "velocity": 77 },
                { "note": 55, "start": 383, "duration": 0.5, "velocity": 77 },
                { "note": 59, "start": 383, "duration": 0.5, "velocity": 91 },
                { "note": 43, "start": 383.5, "duration": 0.25, "velocity": 84 },
                { "note": 43, "start": 383.75, "duration": 0.25, "velocity": 84 },
                { "note": 38, "start": 384, "duration": 1, "velocity": 88 },
                { "note": 50, "start": 385, "duration": 0.5, "velocity": 77 },
                { "note": 53, "start": 385, "duration": 0.5, "velocity": 77 },
                { "note": 57, "start": 385, "duration": 0.5, "velocity": 91 },
                { "note": 38, "start": 385.5, "duration": 0.25, "velocity": 83 },
                { "note": 38, "start": 385.75, "duration": 0.25, "velocity": 83 },
                { "note": 38, "start": 386.25, "duration": 0.25, "velocity": 83 },
                { "note": 38, "start": 386.5, "duration": 0.5, "velocity": 83 },
                { "note": 50, "start": 387, "duration": 0.5, "velocity": 77 },
                { "note": 53, "start": 387, "duration": 0.5, "velocity": 77 },
                { "note": 57, "start": 387, "duration": 0.5, "velocity": 91 },
                { "note": 38, "start": 387.5, "duration": 0.5, "velocity": 83 },
                { "note": 40, "start": 388, "duration": 1, "velocity": 88 },
                { "note": 52, "start": 389, "duration": 0.5, "velocity": 77 },
                { "note": 55, "start": 389, "duration": 0.5, "velocity": 77 },
                { "note": 59, "start": 389, "duration": 0.5, "velocity": 91 },
                { "note": 40, "start": 389.5, "duration": 0.25, "velocity": 83 },
                { "note": 40, "start": 389.75, "duration": 0.25, "velocity": 83 },
                { "note": 40, "start": 390.25, "duration": 0.25, "velocity": 83 },
                { "note": 40, "start": 390.5, "duration": 0.5, "velocity": 83 },
                { "note": 52, "start": 391, "duration": 0.5, "velocity": 77 },
                { "note": 55, "start": 391, "duration": 0.5, "velocity": 77 },
                { "note": 59, "start": 391, "duration": 0.5, "velocity": 91 },
                { "note": 40, "start": 391.5, "duration": 0.5, "velocity": 83 },
                { "note": 41, "start": 392, "duration": 1, "velocity": 89 },
                { "note": 53, "start": 393, "duration": 0.5, "velocity": 77 },
                { "note": 57, "start": 393, "duration": 0.5, "velocity": 77 },
                { "note": 60, "start": 393, "duration": 0.5, "velocity": 91 },
                { "note": 41, "start": 393.5, "duration": 0.25, "velocity": 84 },
                { "note": 41, "start": 393.75, "duration": 0.25, "velocity": 84 },
                { "note": 41, "start": 394.25, "duration": 0.25, "velocity": 84 },
                { "note": 41, "start": 394.5, "duration": 0.5, "velocity": 84 },
                { "note": 53, "start": 395, "duration": 0.5, "velocity": 77 },
                { "note": 57, "start": 395, "duration": 0.5, "velocity": 77 },
                { "note": 60, "start": 395, "duration": 0.5, "velocity": 91 },
                { "note": 41, "start": 395.5, "duration": 0.5, "velocity": 84 },
                { "note": 43, "start": 396, "duration": 1, "velocity": 89 },
                { "note": 55, "start": 397, "duration": 0.5, "velocity": 77 },
                { "note": 59, "start": 397, "duration": 0.5, "velocity": 77 },
                { "note": 62, "start": 397, "duration": 0.5, "velocity": 91 },
                { "note": 43, "start": 397.5, "duration": 0.25, "velocity": 84 },
                { "note": 43, "start": 397.75, "duration": 0.25, "velocity": 84 },
                { "note": 43, "start": 398.25, "duration": 0.25, "velocity": 84 },
                { "note": 43, "start": 398.5, "duration": 0.5, "velocity": 84 },
                { "note": 55, "start": 399, "duration": 0.5, "velocity": 77 },
                { "note": 59, "start": 399, "duration": 0.5, "velocity": 77 },
                { "note": 62, "start": 399, "duration": 0.5, "velocity": 91 },
                { "note": 43, "start": 399.5, "duration": 0.5, "velocity": 84 },
                { "note": 50, "start": 400, "duration": 4, "velocity": 76 },
                { "note": 53, "start": 400, "duration": 4, "velocity": 76 },
                { "note": 57, "start": 400, "duration": 4, "velocity": 90 },
                { "note": 38, "start": 401, "duration": 3, "velocity": 64 },
                { "note": 52, "start": 404, "duration": 4, "velocity": 76 },
                { "note": 55, "start": 404, "duration": 4, "velocity": 76 },
                { "note": 59, "start": 404, "duration": 4, "velocity": 90 },
                { "note": 40, "start": 405, "duration": 3, "velocity": 64 },
                { "note": 53, "start": 408, "duration": 4, "velocity": 76 },
                { "note": 57, "start": 408, "duration": 4, "velocity": 76 },
                { "note": 60, "start": 408, "duration": 4, "velocity": 90 },
                { "note": 41, "start": 409, "duration": 3, "velocity": 64 },
                { "note": 53, "start": 412, "duration": 2, "velocity": 81 },
                { "note": 57, "start": 412, "duration": 2, "velocity": 81 },
                { "note": 60, "start": 412, "duration": 2, "velocity": 95 },
                { "note": 41, "start": 413, "duration": 1, "velocity": 64 },
                { "note": 55, "start": 414, "duration": 2, "velocity": 59 },
                { "note": 59, "start": 414, "duration": 2, "velocity": 59 },
                { "note": 62, "start": 414, "duration": 2, "velocity": 73 },
                { "note": 43, "start": 415, "duration": 1, "velocity": 64 },
                { "note": 57, "start": 416, "duration": 4, "velocity": 56 },
                { "note": 60, "start": 416, "duration": 4, "velocity": 56 },
                { "note": 64, "start": 416, "duration": 4, "velocity": 70 },
                { "note": 45, "start": 417, "duration": 3, "velocity": 64 }
            ]
        }
    ]
}
